<?xml version="1.0" encoding="utf-8"?>
<!-- Generator: Adobe Illustrator 24.2.1, SVG Export Plug-In . SVG Version: 6.00 Build 0)  -->
<svg version="1.1" id="Layer_1" xmlns="http://www.w3.org/2000/svg" xmlns:xlink="http://www.w3.org/1999/xlink" x="0px" y="0px"
	 viewBox="0 0 452.8 452.8" style="enable-background:new 0 0 452.8 452.8;" xml:space="preserve">
<style type="text/css">
	.st0{fill:#73CAC3;}
</style>
<g>
	<path class="st0" d="M449.5,190.4L449.5,190.4l-57.8-38.3V23.9c0-4.1-3.4-7.5-7.5-7.5H68.7c-4.1,0-7.5,3.4-7.5,7.5v128.1L3.4,190.4
		l0,0c-2,1.3-3.4,3.6-3.4,6.2v232.3c0,4.1,3.4,7.5,7.5,7.5h437.8c4.1,0,7.5-3.4,7.5-7.5V196.6C452.8,194,451.5,191.7,449.5,190.4
		L449.5,190.4z M61.2,216.6l-23.5-12.5h23.5V216.6z M15,209.1l172.5,91.5L15,414.9V209.1z M226.4,292.8l194,128.6H32.4L226.4,292.8
		L226.4,292.8z M265.4,300.6l172.5-91.5v205.8L265.4,300.6L265.4,300.6z M391.7,204.2h23.5l-23.5,12.5V204.2z M420.5,189.2h-28.8
		v-19.1L420.5,189.2z M376.7,31.4v193.2l-125.5,66.6l-20.6-13.6c-2.5-1.7-5.8-1.7-8.3,0l-20.6,13.6L76.2,224.6V31.4L376.7,31.4
		L376.7,31.4z M61.2,189.2H32.4l28.8-19.1V189.2z"/>
	<path class="st0" d="M226.4,213.7h59.8c4.1,0,7.5-3.4,7.5-7.5s-3.4-7.5-7.5-7.5h-59.8c-28.8,0-52.3-23.4-52.3-52.3v-2.2
		c0-28.8,23.4-52.3,52.3-52.3s52.3,23.4,52.3,52.3v5.5c0,6.2-5.1,11.3-11.3,11.3S256,156,256,149.7v-10.5
		c0-17.9-14.5-32.4-32.4-32.4s-32.4,14.5-32.4,32.4c0,17.9,14.5,32.4,32.4,32.4c8.2,0,15.6-3,21.3-8.1c4.6,7.5,12.9,12.5,22.4,12.5
		c14.5,0,26.3-11.8,26.3-26.3v-5.5c0-37.1-30.2-67.3-67.3-67.3s-67.3,30.2-67.3,67.3v2.2C159.2,183.5,189.3,213.7,226.4,213.7
		L226.4,213.7z M223.6,156.6c-9.6,0-17.4-7.8-17.4-17.4s7.8-17.4,17.4-17.4s17.4,7.8,17.4,17.4S233.2,156.6,223.6,156.6z"/>
</g>
</svg>
