<?xml version="1.0" encoding="utf-8"?>
<!-- Generator: Adobe Illustrator 24.2.1, SVG Export Plug-In . SVG Version: 6.00 Build 0)  -->
<svg version="1.1" id="Layer_1" xmlns="http://www.w3.org/2000/svg" xmlns:xlink="http://www.w3.org/1999/xlink" x="0px" y="0px"
	 viewBox="0 0 512 512" style="enable-background:new 0 0 512 512;" xml:space="preserve">
<style type="text/css">
	.st0{fill:#C5E6DA;}
	.st1{fill:#575B6D;}
	.st2{fill:#414451;}
	.st3{fill:#EEEFEE;}
	.st4{display:none;fill:#FF5F85;}
	.st5{fill:#D69292;}
	.st6{fill:#73CAC3;}
	.st7{fill:#FFFFFF;}
	.st8{fill:#127E9A;}
	.st9{fill:#73C9C3;}
	.st10{fill:#74C9C2;}
	.st11{fill:#FCD484;}
	.st12{fill:#E7B249;}
	.st13{fill:#E2A67D;}
	.st14{fill:#D18766;}
	.st15{fill:#68B6B0;}
	.st16{fill:#FBD1BF;}
	.st17{fill:none;stroke:#AB7575;stroke-linecap:round;stroke-miterlimit:10;}
	.st18{fill:none;stroke:#AB7575;stroke-linecap:round;stroke-miterlimit:10;stroke-dasharray:4.0407,6.9581;}
	.st19{fill:none;stroke:#AB7575;stroke-linecap:round;stroke-miterlimit:10;stroke-dasharray:4.065,7;}
</style>
<circle class="st0" cx="256" cy="256" r="256"/>
<g id="icon">
	<path class="st1" d="M105.1,187.2H407c7.2,0,13.1,5.9,13.1,13.1v115.9c0,7.2-5.9,13.1-13.1,13.1H105.1c-7.2,0-13.1-5.9-13.1-13.1
		v-116C92,193,97.9,187.2,105.1,187.2z"/>
	<path class="st2" d="M132.5,160.3h247.1v26.9H132.5V160.3z"/>
	<path class="st3" d="M358.1,187.2H153.9v-86c0-4.4,3.6-8,8-8h188.3c4.4,0,8,3.6,8,8v86H358.1z"/>
	<path class="st2" d="M140.8,285h230.3v44.2H140.8V285z"/>
	<path class="st4" d="M163.4,302l-25.3,116.8h235.7L348.6,302H163.4z"/>
	<path class="st5" d="M348.6,302H163.4l-23.1,106.8c-1.2,5.5,1.4,10,5.8,10h219.7c4.4,0,7-4.5,5.8-10L348.6,302z"/>
	<circle class="st5" cx="390.6" cy="215.7" r="8.5"/>
	<circle class="st6" cx="356.9" cy="215.7" r="8.5"/>
</g>
<g>
	<g id="Layer_2_1_">
		<path class="st7" d="M326.8,379.7h-36.7c-0.5,0-1-0.5-1-1l-1.9-36.6c0-0.5,0.4-0.9,0.9-0.9h34.8c0.5,0,1,0.4,1,0.9l3.8,36.6
			C327.8,379.3,327.4,379.7,326.8,379.7z"/>
	</g>
	<g id="Layer_1_1_">
		<g>
			<g>
				<polygon points="292.6,346.3 295.9,346.3 296.2,349.7 292.8,349.7 				"/>
			</g>
		</g>
		<g>
			<g>
				<path d="M312.3,343l0.1,1.7h-1.7l0.1,1.7h1.7l0.6,6.7h1.7l0.2,1.7h-1.7l0.1,1.7h1.7h1.7l-0.3-3.4h5l0.2,1.7h1.7l-0.2-1.7
					l-1-10.1L312.3,343L312.3,343z M321.3,351.3h-6.7l-0.6-6.7h6.6L321.3,351.3z"/>
			</g>
		</g>
		<g>
			<g>
				<polygon points="315.9,346.3 319.2,346.3 319.5,349.7 316.2,349.7 				"/>
			</g>
		</g>
		<g>
			<g>
				<polygon points="294.1,370.5 297.5,370.5 297.7,374.1 294.3,374.1 				"/>
			</g>
		</g>
		<g>
			<g>
				<polygon points="314.3,366.9 316,366.9 316.2,368.7 314.5,368.7 				"/>
			</g>
		</g>
		<g>
			<g>
				<polygon points="306.5,375.9 308.2,375.9 308.3,377.7 306.6,377.7 				"/>
			</g>
		</g>
		<g>
			<g>
				<polygon points="307.6,368.7 309.4,368.7 309.5,370.5 307.8,370.5 				"/>
			</g>
		</g>
		<g>
			<g>
				<polygon points="307.9,372.3 309.6,372.3 309.8,374.1 308.1,374.1 				"/>
			</g>
		</g>
		<g>
			<g>
				<polygon points="322.5,363.4 324.2,363.4 324.4,365.2 322.7,365.2 				"/>
			</g>
		</g>
		<g>
			<g>
				<polygon points="290.2,363.4 291.9,363.4 292,365.2 290.3,365.2 				"/>
			</g>
		</g>
		<g>
			<g>
				<polygon points="289.8,354.8 291.4,354.8 291.5,356.5 289.9,356.5 				"/>
			</g>
		</g>
		<g>
			<g>
				<polygon points="307.4,344.6 307.6,346.3 304.3,346.3 304.4,348 309.4,348 309.2,346.3 309.1,344.6 				"/>
			</g>
		</g>
		<g>
			<g>
				<path d="M309.8,353"/>
			</g>
		</g>
		<g>
			<g>
				<polygon points="309.9,375.9 313.4,375.9 313.5,377.7 310.1,377.7 				"/>
			</g>
		</g>
		<g>
			<g>
				<polygon points="302.5,344.6 304.1,344.6 304.3,346.3 302.6,346.3 				"/>
			</g>
		</g>
		<g>
			<g>
				<polygon points="316.8,356.5 318.5,356.5 318.6,358.2 317,358.2 				"/>
			</g>
		</g>
		<g>
			<g>
				<polygon points="318.3,354.8 320,354.8 320.2,356.5 318.5,356.5 				"/>
			</g>
		</g>
		<g>
			<g>
				<polygon points="297,363.4 298.7,363.4 298.8,365.2 297.1,365.2 				"/>
			</g>
		</g>
		<g>
			<g>
				<path d="M301.3,375.9l-0.5-7.2h1.7l-0.1-1.8l-0.1-1.8h-1.7l0.1,1.8h-5.1l-0.1-1.8h-1.7H292l0.1,1.8h-1.7l0.6,10.8h10.4h3.5
					l-0.1-1.8H301.3z M299.6,375.9h-6.9l-0.4-7.2h6.8L299.6,375.9z"/>
			</g>
		</g>
		<g>
			<g>
				<path d="M299.7,353"/>
			</g>
		</g>
		<g>
			<g>
				<path d="M300.7,343H299h-9.9l0.5,10.1h1.7l0.1,1.7h1.7L293,353h1.7l0.1,1.7h1.7l-0.1-1.7h3.4l-0.2-3.4h1.7L301,348h-1.7
					l-0.2-3.3h1.7h1.7l-0.1-1.7H300.7z M297.9,351.3h-6.7l-0.4-6.7h6.6L297.9,351.3z"/>
			</g>
		</g>
		<g>
			<g>
				<polygon points="309.4,348 311,348 311.2,349.7 309.5,349.7 				"/>
			</g>
		</g>
		<g>
			<g>
				<polygon points="305.7,343 307.3,343 307.4,344.6 305.8,344.6 				"/>
			</g>
		</g>
		<g>
			<g>
				<g>
					<polygon points="296.7,358.2 300.1,358.2 300,356.5 298.3,356.5 298.2,354.8 296.5,354.8 296.6,356.5 291.5,356.5 291.6,358.2 
						295,358.2 295.1,359.9 290,359.9 290.1,361.7 295.2,361.7 295.3,363.4 297,363.4 296.9,361.7 298.6,361.7 298.7,363.4 
						300.4,363.4 300.3,361.7 300.2,359.9 296.8,359.9 					"/>
					<polygon points="308,351.3 307.8,349.7 306.2,349.7 306.3,351.3 303,351.3 302.8,349.7 301.2,349.7 301.3,351.3 301.4,353 
						303.1,353 304.8,353 309.8,353 309.6,351.3 					"/>
				</g>
			</g>
		</g>
		<g>
			<g>
				<polygon points="306.1,370.5 305.9,368.7 305.8,366.9 304.1,366.9 304.2,368.7 302.5,368.7 302.6,370.5 304.3,370.5 
					304.5,372.3 302.8,372.3 302.9,374.1 306.3,374.1 306.2,372.3 307.9,372.3 307.8,370.5 				"/>
			</g>
		</g>
		<g>
			<g>
				<polygon points="321.9,374.1 321.7,372.3 320,372.3 320.1,374.1 315,374.1 315.1,375.9 318.6,375.9 318.7,377.7 320.5,377.7 
					320.3,375.9 323.8,375.9 323.9,377.7 325.7,377.7 325.5,375.9 325.3,374.1 				"/>
			</g>
		</g>
		<g>
			<g>
				<polygon points="322.9,366.9 323,368.7 321.3,368.7 321.5,370.5 324.9,370.5 324.8,368.7 324.6,366.9 				"/>
			</g>
		</g>
		<g>
			<path class="st8" d="M305.7,356.9c0.5-0.3,1-0.5,1.6-0.5c0.5,0,0.9,0.1,1.1,0.2c0.3,0.1,0.6,0.3,0.9,0.6c0.2,0.1,0.6,0.2,0.6,0.2
				s0.4-0.1,0.5-0.2s0.2-0.3,0.2-0.6c0-0.1,0-0.3-0.1-0.4s-0.1-0.2-0.3-0.3c-0.5-0.4-1-0.7-1.5-0.8c-0.5-0.2-1-0.3-1.7-0.3
				c-0.9,0-1.7,0.2-2.4,0.7c-0.7,0.5-1.2,1.1-1.6,1.9s-0.5,1.7-0.5,2.6c0.1,1,0.3,1.8,0.8,2.6c0.5,0.8,1.1,1.4,1.9,1.9
				s1.6,0.7,2.5,0.7c1.2,0,2.2-0.4,3-1.1c0.2-0.2,0.2-0.4,0.2-0.6l-0.2-3c0-0.3-0.1-0.5-0.3-0.6l0,0c-0.2-0.2-0.4-0.2-0.6-0.2h-2.3
				c-0.2,0-0.4,0.1-0.6,0.2c-0.1,0.1-0.2,0.3-0.2,0.6c0,0.2,0.1,0.4,0.3,0.6c0.2,0.1,0.4,0.2,0.6,0.2h1.4l0.2,1.9
				c-0.5,0.3-1.1,0.5-1.7,0.5s-1.1-0.2-1.7-0.5c-0.5-0.3-1-0.8-1.3-1.3s-0.5-1.1-0.6-1.8c0-0.6,0.1-1.2,0.3-1.8
				C304.9,357.6,305.3,357.2,305.7,356.9z"/>
			<g>
				<g>
					<path class="st9" d="M305.2,359.8c0,0,0-0.3,0.2-0.3c0.1,0,0.2,0,0.2,0s-0.2,0-0.2,0.1C305.3,359.8,305.2,359.8,305.2,359.8z"
						/>
					<path class="st9" d="M305,359.5c0,0,0,0.3,0.2,0.3c0.1,0,0.2,0,0.2,0s-0.2,0-0.2-0.1C305.2,359.6,305,359.5,305,359.5z"/>
				</g>
				<path class="st10" d="M305.4,362.6c-0.1,0.1,0.1,0.5,0,0.6l0,0c-0.1,0.1-0.2,0.2-0.2,0.2s0.2-0.1,0.4,0c0.1,0.1,0.1,0.2,0.1,0.2
					s0-0.2,0.1-0.3c0.1,0,0.1,0.1,0.2,0.1c0.1-0.1-0.2-0.2-0.3-0.4c-0.1-0.2,0-0.3-0.1-0.4C305.6,362.5,305.4,362.5,305.4,362.6z"/>
				<path class="st10" d="M305.8,362.6c0,0.2,0.1,0.4,0.1,0.4c0,0.1-0.1,0.1-0.1,0.2l0,0c0,0,0.2-0.1,0.3,0c0.1,0,0.1,0.2,0.2,0.1
					c0,0,0-0.1,0.1-0.2s0.2,0,0.2,0s-0.2,0-0.3-0.2c-0.1-0.2,0.1-0.4,0-0.5s-0.3,0-0.3,0C305.7,362.4,305.7,362.4,305.8,362.6z"/>
				<path class="st11" d="M303.1,364c0,0,0.8-2,1-2.4s0.3-1,0.4-1.3s0.3-0.5,0.8-0.5s0.7,0.3,0.8,0.4s0.1,0.2,0.2,0.3
					c0.1,0,0.5,0.1,0.5,0.2s-0.2,0.2-0.3,0.3c0,0.1,0,0.8-0.1,1.1c-0.1,0.3,0,0.5-0.4,0.6c-0.4,0.2-1.4,0-1.9,0.4
					C303.8,363.5,303.1,364,303.1,364z"/>
				<path class="st7" d="M305.1,360.2c0.1-0.1,0.4-0.2,0.6-0.1s0.2,0.5,0.1,0.7c-0.2,0.2-0.5,0.3-0.7,0.1
					C304.9,360.7,304.9,360.4,305.1,360.2z"/>
				<path class="st8" d="M305.2,360.2c0.1-0.1,0.3-0.1,0.4,0c0.2,0.1,0.2,0.4,0.1,0.5c-0.1,0.2-0.4,0.1-0.5-0.1
					C305.1,360.5,305.1,360.4,305.2,360.2z"/>
				<path class="st7" d="M305.4,360.3c0,0,0.1-0.1,0.1,0c0.1,0,0.1,0.2,0,0.2c0,0.1-0.1,0-0.2,0
					C305.4,360.4,305.4,360.3,305.4,360.3z"/>
				<path class="st12" d="M303.2,363.1c0,0,0.1-0.2,0.1-0.4c0-0.2,0.4-1,1-1.1c0.3,0,0.4,0.1,0.8,0.1c0.4-0.1,0.6-0.2,0.7-0.3
					c0.1-0.1,0.2-0.2,0.2-0.2s0,0.1,0,0.3c0,0.2-0.1,0.9-0.5,1.1s-0.6,0-1.4,0.1c-0.4,0.1-0.6,0.2-0.7,0.3
					C303.3,362.9,303.2,363.1,303.2,363.1z"/>
				<path class="st11" d="M306.2,361c0-0.1,0.3-0.2,0.5-0.1c0.1,0-0.2,0.4-0.4,0.3C306.3,361.2,306.2,361,306.2,361z"/>
			</g>
		</g>
		<polygon points="321.9,356.5 322,358.2 318.6,358.2 318.8,359.9 313.7,359.9 313.9,361.7 313.9,362.1 313.9,362.1 314.2,365.2 
			317.6,365.2 318.1,370.5 312.9,370.5 312.6,366.9 312.6,366.9 310.9,366.9 310.9,366.9 309.2,366.9 309.4,368.7 311.1,368.7 
			311.4,372.3 313.1,372.3 313.2,374.1 315,374.1 314.8,372.3 320,372.3 319.6,368.7 321.3,368.7 321.2,366.9 319.5,366.9 
			319.1,363.4 315.7,363.4 315.6,361.7 319,361.7 319.1,363.4 320.8,363.4 320.7,361.7 322.4,361.7 322.2,359.9 323.9,359.9 
			323.7,358.2 323.5,356.5 		"/>
	</g>
</g>
<g>
	<g>
		<path class="st13" d="M212.2,401.7c0,1-0.7,1.9-1.7,2c-0.1,0-1.5,0.2-3.6,0.4c-0.9,0.1-2,0.1-3.1,0.1c-3.6,0-6.6-0.4-6.8-0.5
			c-1-0.1-1.7-1-1.7-2c0.2-4.8,1.2-9.6,1.2-9.9c0.2-0.9,1-1.5,1.9-1.5H209c0.9,0,1.7,0.6,1.9,1.5C211,392.1,212.1,397,212.2,401.7
			L212.2,401.7z"/>
		<path class="st14" d="M212.2,401.7c0,1-0.7,1.9-1.7,2c-0.1,0-1.5,0.2-3.6,0.4c-0.1-5.6-0.8-10.9-1.2-13.7h3.4
			c0.9,0,1.7,0.6,1.9,1.5C211,392.1,212.1,397,212.2,401.7L212.2,401.7z"/>
		<path class="st6" d="M234.2,392.3c-0.3,0.6-0.9,1-1.6,1.1c0,0-1.5,0.1-4.1,0.2c-5.1,0.3-14.4,0.7-24.8,0.7
			c-15.5,0-28.7-0.9-28.8-0.9c-0.7,0-1.3-0.5-1.6-1.1s-0.3-1.4,0.1-1.9c4.7-7.3,10-14,13.4-18c-2.3,0.5-3.9,1.1-4,1.2
			c-0.8,0.3-1.7,0.1-2.2-0.6s-0.6-1.6-0.1-2.3c4.6-7.1,9.4-13.3,12.6-17.1c-1.2,0.2-1.8,0.4-1.8,0.4c-0.8,0.2-1.6,0-2.1-0.7
			c-0.5-0.6-0.6-1.5-0.1-2.2c6-10,13-17.7,13.3-18c0.4-0.4,0.9-0.6,1.4-0.6s1.1,0.2,1.4,0.6l0.1,0.1c0.9,1,7.6,8.4,13.3,17.9
			c0.4,0.7,0.4,1.6-0.1,2.2s-1.3,0.9-2.1,0.7c0,0-0.7-0.2-1.8-0.4c3.1,3.8,8,10.1,12.6,17.1c0.5,0.7,0.4,1.6-0.1,2.3
			c-0.5,0.7-1.4,0.9-2.2,0.6c0,0-1.7-0.6-4-1.2c3.4,4.1,8.7,10.8,13.4,18C234.5,390.9,234.5,391.7,234.2,392.3L234.2,392.3z"/>
		<path class="st15" d="M234.2,392.3c-0.3,0.6-0.9,1-1.6,1.1c0,0-1.5,0.1-4.1,0.2c-6.5-11-17.1-25.2-17.1-25.2
			c4.3,0.1,7.6,0.5,7.6,0.5c-7.2-11.9-12.5-20-12.5-20c2.8,0,5.1,0.4,5.1,0.4c-1.9-6.6-6.3-16.1-6.3-16.2l0.1,0.1
			c0.9,1,7.6,8.4,13.3,17.9c0.4,0.7,0.4,1.6-0.1,2.2s-1.3,0.9-2.1,0.7c0,0-0.7-0.2-1.8-0.4c3.1,3.8,8,10.1,12.6,17.1
			c0.5,0.7,0.4,1.6-0.1,2.3c-0.5,0.7-1.4,0.9-2.2,0.6c0,0-1.7-0.6-4-1.2c3.4,4.1,8.7,10.8,13.4,18
			C234.5,390.9,234.5,391.7,234.2,392.3L234.2,392.3z"/>
		<g>
			<ellipse class="st0" cx="200.4" cy="361.9" rx="2" ry="2"/>
			<ellipse class="st0" cx="195.4" cy="381.7" rx="2" ry="2"/>
			<ellipse class="st0" cx="210.9" cy="377.3" rx="2" ry="2"/>
		</g>
	</g>
	<g>
		<g>
			<path class="st9" d="M204.6,322.8c0,0,0.3-0.9,0.8-0.9s0.6,0.1,0.6,0.1s-0.6-0.2-0.7,0.3C205.2,322.9,204.6,322.8,204.6,322.8z"
				/>
			<path class="st9" d="M204.3,321.8c0,0-0.1,0.9,0.4,1.1s0.6,0.2,0.6,0.2s-0.6-0.1-0.5-0.6S204.3,321.8,204.3,321.8z"/>
		</g>
		<path class="st16" d="M203.7,332.6c-0.4,0.4,0.2,1.7-0.2,2.2l0,0c-0.3,0.4-0.7,0.5-0.7,0.5c0,0.1,0.8-0.2,1.3,0.1
			c0.3,0.2,0.3,0.7,0.4,0.6c0.2,0,0.2-0.7,0.5-0.8c0.3-0.1,0.4,0.4,0.6,0.3c0.3-0.2-0.6-0.8-0.8-1.6c-0.2-0.8,0.4-1,0.1-1.4
			C204.5,332.4,203.9,332.4,203.7,332.6z"/>
		<path class="st16" d="M205.2,332.5c0.1,0.8,0,1.4-0.1,1.4c-0.2,0.2-0.3,0.4-0.6,0.5c0,0-0.1,0-0.1,0.1c0,0,0.6-0.2,1.1,0
			c0.3,0.2,0.4,0.6,0.5,0.6c0.2,0,0.1-0.5,0.4-0.7c0.3-0.2,0.7,0,0.8-0.1c0-0.1-0.8-0.2-1-0.7c-0.3-0.6,0.5-1.4,0.2-1.8
			c-0.2-0.2-1.1-0.2-1.2,0C204.9,331.9,205.1,332.1,205.2,332.5z"/>
		<path class="st11" d="M194.8,336.6c0,0,4-6.5,4.9-7.9s1.6-3.4,2.3-4.4c0.6-1,1.4-1.7,3.3-1.5c1.9,0.2,2.4,1.2,2.5,1.6
			s0.2,0.9,0.6,1.1s1.7,0.6,1.6,0.8s-1,0.6-1.1,1.1s-0.6,2.8-1,3.9s-0.3,1.6-1.8,2.1s-5.2-0.4-6.9,0.8
			C197.4,335.3,194.8,336.6,194.8,336.6z"/>
		<path class="st7" d="M204.2,324.2c0.6-0.5,1.7-0.7,2.4-0.2c0.7,0.6,0.6,1.8,0,2.4c-0.7,0.7-2,0.8-2.7,0.2
			C203.1,326,203.4,324.8,204.2,324.2z"/>
		<path class="st8" d="M204.6,324.3c0.5-0.4,1.1-0.4,1.6,0c0.6,0.5,0.5,1.4,0,1.9c-0.6,0.5-1.6,0.3-1.9-0.4
			C204.1,325.3,204.2,324.7,204.6,324.3z"/>
		<path class="st7" d="M205.4,324.5c0.1-0.2,0.4-0.2,0.5,0c0.2,0.2,0.2,0.6,0,0.8c-0.2,0.2-0.5,0.1-0.6-0.2
			C205.2,324.9,205.2,324.6,205.4,324.5z"/>
		<path class="st12" d="M195.5,333.6c0,0,0.4-0.8,0.5-1.2c0.2-0.8,2.1-3.4,4.1-3.5c1.1-0.1,1.4,0.5,2.8,0.5c1.3-0.1,2.2-0.7,2.7-1
			c0.3-0.2,1-0.7,1-0.7s-0.1,0.3-0.2,1c-0.1,0.7-0.8,2.9-2.3,3.6c-1.4,0.7-2.2-0.3-4.9,0c-1.5,0.2-2.3,0.6-2.8,0.7
			C196.3,333.1,195.5,333.6,195.5,333.6z"/>
		<path class="st11" d="M207.7,327.2c0.1-0.3,1.3-0.5,1.9-0.3c0.2,0.1-0.9,1.5-1.6,1.1C207.9,327.8,207.6,327.4,207.7,327.2z"/>
	</g>
</g>
<g>
	<g>
		<path class="st1" d="M274.5,124.6c-4.9-4.9-11.5-7.7-18.5-7.7s-13.5,2.7-18.5,7.7c-4.9,4.9-7.7,11.5-7.7,18.5s2.7,13.5,7.7,18.5
			c4.9,4.9,11.5,7.7,18.5,7.7c4.3,0,8.5-1,12.2-3c0.9-0.5,1.3-1.7,0.8-2.6c-0.5-0.9-1.7-1.3-2.6-0.8c-3.2,1.7-6.8,2.6-10.4,2.6
			c-12.3,0-22.3-10-22.3-22.3s10-22.3,22.3-22.3c12.3,0,22.3,10,22.3,22.3c0,4.1-1.2,6.5-2.1,7.7c-1,1.3-2.4,2.1-3.8,2.1
			c-1.9,0-3.9-1.5-3.9-5v-15c0-1.1-0.9-1.9-1.9-1.9c-1.1,0-1.9,0.9-1.9,1.9v0.8c-2.4-2.4-5.7-3.9-9.4-3.9c-7.3,0-13.2,5.9-13.2,13.2
			s5.9,13.2,13.2,13.2c1.3,0,2.6-0.2,3.8-0.6c1-0.3,1.6-1.4,1.3-2.4c-0.3-1-1.4-1.6-2.4-1.3c-0.9,0.3-1.8,0.4-2.7,0.4
			c-5.2,0-9.4-4.2-9.4-9.4s4.2-9.4,9.4-9.4s9.4,4.2,9.4,9.4v4.8c0,5.8,3.9,8.9,7.8,8.9c2.6,0,5.1-1.3,6.9-3.6
			c1.9-2.5,2.9-6,2.9-10.1C282.1,136.1,279.4,129.5,274.5,124.6z"/>
	</g>
</g>
<g>
	<g>
		<line class="st17" x1="162.5" y1="311.8" x2="164.6" y2="311.8"/>
		<line class="st18" x1="171.5" y1="311.8" x2="344" y2="311.8"/>
		<line class="st17" x1="347.5" y1="311.8" x2="349.5" y2="311.8"/>
	</g>
</g>
<line class="st19" x1="256" y1="304.4" x2="256" y2="417.3"/>
</svg>
