<?xml version="1.0" encoding="utf-8"?>
<!-- Generator: Adobe Illustrator 24.2.1, SVG Export Plug-In . SVG Version: 6.00 Build 0)  -->
<svg version="1.1" id="Layer_1" xmlns="http://www.w3.org/2000/svg" xmlns:xlink="http://www.w3.org/1999/xlink" x="0px" y="0px"
	 viewBox="0 0 3240 2343.3" style="enable-background:new 0 0 3240 2343.3;" xml:space="preserve">
<style type="text/css">
	.st0{fill:none;stroke:url(#SVGID_1_);stroke-width:4;stroke-miterlimit:10;}
	.st1{fill:none;stroke:url(#SVGID_2_);stroke-width:4;stroke-miterlimit:10;}
	.st2{fill:none;stroke:url(#SVGID_3_);stroke-width:4;stroke-miterlimit:10;}
	.st3{fill:none;stroke:url(#SVGID_4_);stroke-width:4;stroke-miterlimit:10;}
	.st4{fill:none;stroke:url(#SVGID_5_);stroke-width:4;stroke-miterlimit:10;}
	.st5{fill:#FCD2C0;}
	.st6{fill:#73CAC3;}
	.st7{fill:#C5E6DA;}
	.st8{fill:#D69292;}
	.st9{fill:#C2D8E3;}
	.st10{fill:#E1EAF0;}
	.st11{fill:none;stroke:url(#SVGID_6_);stroke-width:4;stroke-miterlimit:10;}
	.st12{fill:none;stroke:url(#SVGID_7_);stroke-width:4;stroke-miterlimit:10;}
	.st13{fill:#E7B249;}
	.st14{fill:#FCD485;}
	.st15{fill:#C18383;}
	.st16{fill:#FDE0D3;}
	.st17{fill:#E9F5F0;}
	.st18{fill:#5CA29C;}
</style>
<linearGradient id="SVGID_1_" gradientUnits="userSpaceOnUse" x1="126.9582" y1="228.6419" x2="126.9582" y2="1034.9062">
	<stop  offset="0" style="stop-color:#F5F5F5;stop-opacity:0"/>
	<stop  offset="0.6392" style="stop-color:#F5F5F5"/>
	<stop  offset="1" style="stop-color:#F5F5F5"/>
</linearGradient>
<line class="st0" x1="127" y1="1034.9" x2="127" y2="228.6"/>
<linearGradient id="SVGID_2_" gradientUnits="userSpaceOnUse" x1="3029.5" y1="107.6494" x2="3029.5" y2="963.0248">
	<stop  offset="0" style="stop-color:#F5F5F5;stop-opacity:0"/>
	<stop  offset="0.6392" style="stop-color:#F5F5F5"/>
	<stop  offset="1" style="stop-color:#F5F5F5"/>
</linearGradient>
<line class="st1" x1="3029.5" y1="963" x2="3029.5" y2="107.6"/>
<linearGradient id="SVGID_3_" gradientUnits="userSpaceOnUse" x1="2969.104" y1="0" x2="2969.104" y2="1665.4745">
	<stop  offset="0" style="stop-color:#F5F5F5;stop-opacity:0"/>
	<stop  offset="0.3313" style="stop-color:#F5F5F5"/>
	<stop  offset="1" style="stop-color:#F5F5F5"/>
</linearGradient>
<line class="st2" x1="2969.1" y1="1665.5" x2="2969.1" y2="0"/>
<linearGradient id="SVGID_4_" gradientUnits="userSpaceOnUse" x1="3150.7744" y1="0" x2="3150.7744" y2="1976.9952">
	<stop  offset="0" style="stop-color:#F5F5F5;stop-opacity:0"/>
	<stop  offset="0.3313" style="stop-color:#F5F5F5"/>
	<stop  offset="1" style="stop-color:#F5F5F5"/>
</linearGradient>
<line class="st3" x1="3150.8" y1="1977" x2="3150.8" y2="0"/>
<linearGradient id="SVGID_5_" gradientUnits="userSpaceOnUse" x1="251.955" y1="3.1944" x2="251.955" y2="1514.3124">
	<stop  offset="0" style="stop-color:#F5F5F5;stop-opacity:0"/>
	<stop  offset="0.6392" style="stop-color:#F5F5F5"/>
	<stop  offset="1" style="stop-color:#F5F5F5"/>
</linearGradient>
<line class="st4" x1="252" y1="1514.3" x2="252" y2="3.2"/>
<circle class="st5" cx="332.8" cy="1410.3" r="28.6"/>
<ellipse transform="matrix(0.9998 -2.040437e-02 2.040437e-02 0.9998 -42.6995 1.1213)" class="st6" cx="33.6" cy="2093" rx="28.6" ry="28.6"/>
<circle class="st7" cx="1417.1" cy="2224.3" r="28.6"/>
<circle class="st6" cx="1551.2" cy="2110.3" r="28.6"/>
<circle class="st8" cx="69.9" cy="435.4" r="28.6"/>
<circle class="st5" cx="2969.5" cy="1767.9" r="102.5"/>
<circle class="st7" cx="3104.4" cy="2224.3" r="28.6"/>
<circle class="st6" cx="2593.6" cy="2005.5" r="57.2"/>
<circle class="st8" cx="3100.6" cy="596.2" r="37.8"/>
<path class="st9" d="M557.2,2258.9l-17.2-7.7l13.1-9.8c2.5-1.9,2.9-5.2,1.1-7.7s-5.2-2.9-7.7-1.1l-18.1,13.5l-31-13.7l27.4-19.9
	l20.5,9.4c1,0.4,2,0.6,2.9,0.5c1.9-0.2,3.5-1.3,4.4-3.2c1.3-2.8,0-6-2.7-7.3l-15-6.8l15.2-11.1c2.5-1.9,2.9-5.2,1.3-7.6
	c-1.9-2.5-5.2-2.9-7.6-1.3l-15.2,11.1l-1.9-16.3c-0.3-3-3.1-5.2-6.1-4.8c-3,0.3-5.2,3.1-4.8,6.1l2.5,22.4l-27.4,19.9l-3.6-33.8
	l18.5-13.1c2.5-1.7,3.1-5.3,1.3-7.6c-1.7-2.5-5.3-3.1-7.6-1.3l-13.3,9.5l-2-18.7c-0.3-3-3.1-5.2-6.1-4.9s-5.2,3.1-4.9,6.1l2,18.7
	l-15-6.5c-2.8-1.1-6,0-7.2,2.8c-1.1,2.8,0,6,2.8,7.2l20.8,8.9l3.6,33.8l-31-13.7l-2.2-22.5c-0.3-3-2.9-5.2-5.9-4.9l0,0
	c-3,0.3-5.2,2.9-4.9,5.9l1.6,16.4l-17.2-7.7c-2.8-1.3-6,0-7.2,2.8c-1.3,2.8,0,6,2.8,7.2l17.2,7.7l-13.3,9.8
	c-2.5,1.9-2.9,5.2-1.1,7.7c1.1,1.6,3.1,2.4,5,2.2c0.9-0.1,1.9-0.5,2.7-1.1l18.1-13.5l31,13.7l-27.4,19.9l-20.5-9.4
	c-2.7-1.3-6,0-7.3,2.7c-1.3,2.8,0,6,2.7,7.3l15,6.8l-15.2,11.1c-2.5,1.9-2.9,5.2-1.3,7.6c1.1,1.6,3.1,2.4,5,2.2
	c0.9-0.1,1.9-0.4,2.6-1.1l15.2-11.1l1.9,16.3c0.3,3,3.1,5.1,6.1,4.8l0,0c3-0.3,5.2-3.1,4.8-6.1l-2.5-22.4l27.4-19.9l3.6,33.8
	l-18.5,13.1c-2.5,1.7-3.1,5.3-1.3,7.6c1.1,1.6,3.1,2.5,5,2.3c0.9-0.1,1.9-0.4,2.6-0.9l13.3-9.5l2,18.7c0.3,3,3.1,5.2,6.1,4.9
	c3-0.3,5.2-3.1,4.9-6.1l-2-18.7l15,6.5c0.8,0.4,1.8,0.4,2.7,0.3c1.9-0.2,3.7-1.3,4.4-3.3c1.1-2.8,0-6-2.8-7.2l-20.8-8.9l-3.6-33.8
	l31,13.7l2.2,22.5c0.3,3,2.9,5.2,5.9,4.9l0,0c3-0.3,5.2-2.9,4.9-5.9l-1.6-16.4l17.2,7.7c0.8,0.4,1.8,0.6,2.8,0.5
	c1.9-0.2,3.7-1.3,4.4-3.2C561.2,2263.4,559.9,2260.2,557.2,2258.9z"/>
<path class="st10" d="M2872.8,792.4l-14.8-8.6l12.8-7.6c2.4-1.4,3.2-4.5,1.7-6.9c-1.4-2.4-4.5-3.2-6.9-1.7l-17.7,10.5l-26.7-15.4
	l26.7-15.4l17.7,10.5c0.9,0.4,1.7,0.7,2.6,0.7c1.7,0,3.3-0.9,4.3-2.4c1.4-2.4,0.6-5.5-1.7-6.9l-12.9-7.6l14.8-8.6
	c2.4-1.4,3.2-4.5,1.9-6.8c-1.4-2.4-4.5-3.2-6.8-1.9l-14.8,8.6l-0.1-14.9c0-2.7-2.3-5-5-4.9c-2.7,0-5,2.3-4.9,5l0.1,20.6l-26.7,15.4
	v-30.9l18-10.1c2.4-1.3,3.3-4.5,1.9-6.8c-1.3-2.4-4.5-3.3-6.8-1.9l-12.9,7.3v-17.1c0-2.7-2.3-5-5-5s-5,2.3-5,5v17.1l-12.9-7.3
	c-2.4-1.3-5.5-0.6-6.8,1.9c-1.3,2.4-0.6,5.5,1.9,6.8l18,10.1v30.9l-26.7-15.4l0.1-20.6c0-2.7-2.2-5-4.9-5l0,0c-2.7,0-5,2.2-5,4.9
	l-0.1,14.9l-14.8-8.6c-2.4-1.4-5.5-0.6-6.8,1.9c-1.4,2.4-0.6,5.5,1.9,6.8l14.8,8.6l-12.9,7.6c-2.4,1.4-3.2,4.5-1.7,6.9
	c0.9,1.6,2.6,2.4,4.3,2.4c0.9,0,1.7-0.3,2.6-0.7l17.7-10.5l26.7,15.4l-26.7,15.4l-17.7-10.5c-2.3-1.4-5.5-0.6-6.9,1.7
	c-1.4,2.4-0.6,5.5,1.7,6.9l12.9,7.6l-14.8,8.6c-2.4,1.4-3.2,4.5-1.9,6.8c0.9,1.6,2.6,2.4,4.3,2.4c0.9,0,1.7-0.1,2.4-0.7l14.8-8.6
	l0.1,14.9c0,2.7,2.3,4.9,5,4.9l0,0c2.7,0,5-2.3,4.9-5l-0.1-20.6l26.7-15.4V802l-18,10.1c-2.4,1.3-3.3,4.5-1.9,6.8
	c0.9,1.6,2.6,2.6,4.3,2.6c0.9,0,1.7-0.1,2.4-0.6l12.9-7.3v17.1c0,2.7,2.3,5,5,5s5-2.3,5-5v-17.1l12.9,7.3c0.7,0.4,1.6,0.6,2.4,0.6
	c1.7,0,3.4-0.9,4.3-2.6c1.3-2.4,0.6-5.5-1.9-6.8l-18-10.1v-30.9l26.7,15.4l-0.1,20.6c0,2.7,2.2,5,4.9,5l0,0c2.7,0,5-2.2,5-4.9
	l0.1-14.9l14.8,8.6c0.7,0.4,1.6,0.7,2.4,0.7c1.7,0,3.4-0.9,4.3-2.4C2875.9,796.8,2875.1,793.8,2872.8,792.4z"/>
<path class="st9" d="M2853.9,2260.5l-10.2-6l8.9-5.3c1.7-1,2.2-3.1,1.2-4.8c-1-1.7-3.1-2.2-4.8-1.2l-12.2,7.3l-18.5-10.7l18.5-10.7
	l12.2,7.3c0.6,0.3,1.2,0.5,1.8,0.5c1.2,0,2.3-0.6,3-1.7c1-1.7,0.4-3.8-1.2-4.8l-8.9-5.3l10.2-6c1.7-1,2.2-3.1,1.3-4.7
	c-1-1.7-3.1-2.2-4.7-1.3l-10.2,6l-0.1-10.3c0-1.9-1.6-3.5-3.5-3.4c-1.9,0-3.5,1.6-3.4,3.5l0.1,14.3l-18.5,10.7v-21.4l12.5-7
	c1.7-0.9,2.3-3.1,1.3-4.7c-0.9-1.7-3.1-2.3-4.7-1.3l-8.9,5.1v-11.8c0-1.9-1.6-3.5-3.5-3.5s-3.5,1.6-3.5,3.5v11.8l-8.9-5.1
	c-1.7-0.9-3.8-0.4-4.7,1.3c-0.9,1.7-0.4,3.8,1.3,4.7l12.5,7v21.4l-18.5-10.7l0.1-14.3c0-1.9-1.5-3.5-3.4-3.5l0,0
	c-1.9,0-3.5,1.5-3.5,3.4l-0.1,10.3l-10.2-6c-1.7-1-3.8-0.4-4.7,1.3c-1,1.7-0.4,3.8,1.3,4.7l10.2,6l-8.9,5.3c-1.7,1-2.2,3.1-1.2,4.8
	c0.6,1.1,1.8,1.7,3,1.7c0.6,0,1.2-0.2,1.8-0.5l12.2-7.3l18.5,10.7l-18.5,10.7l-12.2-7.3c-1.6-1-3.8-0.4-4.8,1.2
	c-1,1.7-0.4,3.8,1.2,4.8l8.9,5.3l-10.2,6c-1.7,1-2.2,3.1-1.3,4.7c0.6,1.1,1.8,1.7,3,1.7c0.6,0,1.2-0.1,1.7-0.5l10.2-6l0.1,10.3
	c0,1.9,1.6,3.4,3.5,3.4l0,0c1.9,0,3.5-1.6,3.4-3.5l-0.1-14.3l18.5-10.7v21.4l-12.5,7c-1.7,0.9-2.3,3.1-1.3,4.7
	c0.6,1.1,1.8,1.8,3,1.8c0.6,0,1.2-0.1,1.7-0.4l8.9-5.1v11.8c0,1.9,1.6,3.5,3.5,3.5s3.5-1.6,3.5-3.5v-11.8l8.9,5.1
	c0.5,0.3,1.1,0.4,1.7,0.4c1.2,0,2.4-0.6,3-1.8c0.9-1.7,0.4-3.8-1.3-4.7l-12.5-7v-21.4l18.5,10.7l-0.1,14.3c0,1.9,1.5,3.5,3.4,3.5
	l0,0c1.9,0,3.5-1.5,3.5-3.4l0.1-10.3l10.2,6c0.5,0.3,1.1,0.5,1.7,0.5c1.2,0,2.4-0.6,3-1.7
	C2856.1,2263.5,2855.5,2261.5,2853.9,2260.5z"/>
<path class="st9" d="M227.9,746.7l-5-6.1l6.8-1.2c1.3-0.2,2.1-1.4,1.8-2.7c-0.2-1.3-1.4-2.1-2.7-1.8l-9.4,1.7l-9.1-11l14-2.4l6,7.4
	c0.3,0.3,0.6,0.6,1,0.7c0.7,0.3,1.6,0.1,2.2-0.3c1-0.8,1.1-2.3,0.4-3.3l-4.4-5.4l7.8-1.3c1.3-0.2,2.1-1.4,1.9-2.6
	c-0.2-1.3-1.4-2.1-2.6-1.9l-7.8,1.3l2.4-6.5c0.4-1.2-0.2-2.5-1.4-2.9c-1.2-0.4-2.5,0.2-2.9,1.4l-3.3,8.9l-14,2.4l5-13.4l9.4-1.5
	c1.2-0.2,2.2-1.4,1.9-2.6c-0.2-1.2-1.4-2.2-2.6-1.9l-6.8,1.1l2.8-7.4c0.4-1.2-0.2-2.5-1.4-3c-1.2-0.4-2.5,0.2-3,1.4l-2.8,7.4
	l-4.4-5.2c-0.8-0.9-2.3-1.1-3.2-0.3c-0.9,0.8-1.1,2.3-0.3,3.2l6.2,7.3l-5,13.4l-9.1-11l3.4-8.9c0.4-1.2-0.1-2.5-1.3-3l0,0
	c-1.2-0.4-2.5,0.1-3,1.3l-2.4,6.4l-5-6.1c-0.8-1-2.3-1.1-3.2-0.3c-1,0.8-1.1,2.3-0.3,3.2l5,6.1l-6.8,1.2c-1.3,0.2-2.1,1.4-1.8,2.7
	c0.1,0.8,0.7,1.5,1.5,1.7c0.4,0.1,0.8,0.1,1.2,0.1l9.4-1.7l9.1,11l-14,2.4l-6-7.4c-0.8-1-2.3-1.1-3.3-0.4c-1,0.8-1.1,2.3-0.4,3.3
	l4.4,5.4L175,727c-1.3,0.2-2.1,1.4-1.9,2.6c0.1,0.8,0.7,1.5,1.5,1.7c0.4,0.1,0.8,0.2,1.2,0.1l7.8-1.3l-2.4,6.5
	c-0.4,1.2,0.2,2.5,1.4,2.9l0,0c1.2,0.4,2.5-0.2,2.9-1.4l3.3-8.9l14-2.4l-5,13.4l-9.4,1.5c-1.2,0.2-2.2,1.4-1.9,2.6
	c0.1,0.8,0.7,1.5,1.4,1.8c0.4,0.1,0.8,0.2,1.1,0.1l6.8-1.1l-2.8,7.4c-0.4,1.2,0.2,2.5,1.4,3c1.2,0.4,2.5-0.2,3-1.4l2.8-7.4l4.4,5.2
	c0.2,0.3,0.6,0.5,0.9,0.6c0.7,0.3,1.6,0.2,2.3-0.4c0.9-0.8,1.1-2.3,0.3-3.2l-6.2-7.3l5-13.4l9.1,11l-3.4,8.9c-0.4,1.2,0.1,2.5,1.3,3
	l0,0c1.2,0.4,2.5-0.1,3-1.3l2.4-6.4l5,6.1c0.2,0.3,0.6,0.6,0.9,0.7c0.7,0.3,1.6,0.2,2.2-0.3C228.6,749.1,228.7,747.7,227.9,746.7z"
	/>
<path class="st10" d="M1284.8,912.3l-4.5-9.1l8.8,0.4c1.6,0.1,3-1.2,3.1-2.8c0.1-1.6-1.2-3-2.8-3.1l-12.1-0.6l-8.2-16.3l18.2,1.1
	l5.3,10.9c0.3,0.5,0.6,0.9,1.1,1.2c0.8,0.6,1.9,0.6,2.9,0.2c1.5-0.7,2.1-2.5,1.4-4l-3.9-7.9l10.1,0.6c1.6,0.1,3-1.2,3.2-2.7
	c0.1-1.6-1.2-3-2.7-3.2l-10.1-0.6l4.8-7.4c0.9-1.3,0.5-3.2-0.9-4c-1.3-0.9-3.2-0.5-4,0.9l-6.7,10.2l-18.2-1.1l10.1-15.2l12.2,0.9
	c1.6,0.1,3.1-1.1,3.2-2.7c0.1-1.6-1.1-3.1-2.7-3.2l-8.7-0.6l5.6-8.4c0.9-1.3,0.5-3.2-0.8-4.1c-1.3-0.9-3.2-0.5-4.1,0.8l-5.6,8.4
	l-4-7.8c-0.8-1.4-2.5-2.1-4-1.3c-1.4,0.8-2.1,2.5-1.3,4l5.6,10.8l-10.1,15.2l-8.2-16.3l6.8-10.1c0.9-1.3,0.5-3.2-0.8-4.1l0,0
	c-1.3-0.9-3.2-0.5-4.1,0.8l-4.9,7.3l-4.5-9.1c-0.7-1.5-2.5-2.1-4-1.3c-1.5,0.7-2.1,2.5-1.3,4l4.5,9.1l-8.8-0.5
	c-1.6-0.1-3,1.2-3.1,2.8c-0.1,1.1,0.5,2,1.3,2.6c0.4,0.3,0.9,0.4,1.5,0.5l12.1,0.6l8.2,16.3l-18.2-1.1l-5.3-10.9
	c-0.7-1.4-2.5-2.1-4-1.4c-1.5,0.7-2.1,2.5-1.4,4l3.9,7.9l-10.1-0.6c-1.6-0.1-3,1.2-3.2,2.7c-0.1,1.1,0.5,2,1.3,2.6
	c0.4,0.3,0.9,0.5,1.4,0.4l10.1,0.6l-4.8,7.4c-0.9,1.3-0.5,3.2,0.9,4l0,0c1.3,0.9,3.2,0.5,4-0.9l6.7-10.2l18.2,1.1l-10.1,15.2
	l-12.2-0.9c-1.6-0.1-3.1,1.1-3.2,2.7c-0.1,1.1,0.4,2.1,1.3,2.7c0.4,0.3,0.9,0.5,1.4,0.5l8.7,0.6l-5.6,8.4c-0.9,1.3-0.5,3.2,0.8,4.1
	c1.3,0.9,3.2,0.5,4.1-0.8l5.6-8.4l4,7.8c0.2,0.4,0.6,0.8,1,1.1c0.8,0.6,2,0.7,3,0.1c1.4-0.8,2.1-2.5,1.3-4l-5.6-10.8l10.1-15.2
	l8.2,16.3l-6.8,10.1c-0.9,1.3-0.5,3.2,0.8,4.1l0,0c1.3,0.9,3.2,0.5,4.1-0.8l4.9-7.3l4.5,9.1c0.2,0.4,0.6,0.9,1,1.1
	c0.8,0.6,2,0.7,2.9,0.2C1284.9,915.4,1285.5,913.7,1284.8,912.3z"/>
<linearGradient id="SVGID_6_" gradientUnits="userSpaceOnUse" x1="2565.7996" y1="0" x2="2565.7996" y2="252.7572">
	<stop  offset="0" style="stop-color:#F5F5F5;stop-opacity:0"/>
	<stop  offset="0.6392" style="stop-color:#F5F5F5"/>
	<stop  offset="1" style="stop-color:#F5F5F5"/>
</linearGradient>
<line class="st11" x1="2565.8" y1="252.8" x2="2565.8" y2="0"/>
<linearGradient id="SVGID_7_" gradientUnits="userSpaceOnUse" x1="547.0956" y1="0" x2="547.0956" y2="215.2988">
	<stop  offset="0" style="stop-color:#F5F5F5;stop-opacity:0"/>
	<stop  offset="0.6392" style="stop-color:#F5F5F5"/>
	<stop  offset="1" style="stop-color:#F5F5F5"/>
</linearGradient>
<line class="st12" x1="547.1" y1="215.3" x2="547.1" y2="0"/>
<g id="Layer_4">
</g>
<g>
	<path class="st13" d="M252.3,1526.2c-3.3,0-6-2.7-6-6v-6.4c0-3.3,2.7-6,6-6c3.3,0,6,2.7,6,6v6.4
		C258.2,1523.6,255.6,1526.2,252.3,1526.2z"/>
	<path class="st14" d="M252.3,1514.3c-10.3,0-18.7,8.4-18.7,18.7v12.8c0,3.3,2.7,6,6,6h12.8v0H265c2.5,0,4.6-1.5,5.5-3.6
		c0.3-0.7,0.5-1.5,0.5-2.3V1533C271,1522.7,262.6,1514.3,252.3,1514.3z"/>
	<path class="st15" d="M331.8,1603.3c-0.2-0.3-0.4-0.6-0.5-0.9c-0.4-0.6-0.8-1.1-1.2-1.7c-0.4-0.6-0.8-1.1-1.2-1.6
		c-7.8-10-20-16.4-33.7-16.4h0h-42.8h-42.8c-23.7,0-42.8,19.2-42.8,42.8c0,47.3,38.4,85.7,85.7,85.7c1.5,0,2.9,0,4.4-0.1
		c1.5-0.1,2.9-0.2,4.4-0.3c2.9-0.3,5.7-0.7,8.5-1.3c2.1-0.4,4.2-0.9,6.2-1.5c0.7-0.2,1.4-0.4,2-0.6c34.9-10.8,60.2-43.4,60.2-81.8
		C338,1617.4,335.7,1609.8,331.8,1603.3z"/>
	<path class="st8" d="M166.6,1625.5c0-9.5,7.7-17.1,17.1-17.1c9.5,0,17.1,7.7,17.1,17.1c0,9.5,7.7,17.1,17.1,17.1
		s17.1-7.7,17.1-17.1c0-9.5,7.7-17.1,17.1-17.1s17.1,7.7,17.1,17.1c0,9.5,7.7,17.1,17.1,17.1s17.1-7.7,17.1-17.1
		c0-9.5,7.7-17.1,17.1-17.1s17.1,7.7,17.1,17.1c0-47.3-38.4-85.7-85.7-85.7C204.9,1539.8,166.6,1578.2,166.6,1625.5L166.6,1625.5z"
		/>
</g>
<g>
	<path class="st13" d="M2969.1,1649.3c-3.9,0-7.1-3.2-7.1-7.1v-7.6c0-3.9,3.2-7.1,7.1-7.1c3.9,0,7.1,3.2,7.1,7.1v7.6
		C2976.2,1646.1,2973,1649.3,2969.1,1649.3z"/>
	<path class="st14" d="M2969.1,1635.2c-12.3,0-22.2,10-22.2,22.2v15.2c0,3.9,3.2,7.1,7.1,7.1h15.2v0h15.2c2.9,0,5.4-1.8,6.5-4.3
		c0.4-0.8,0.6-1.8,0.6-2.8v-15.2C2991.3,1645.1,2981.4,1635.2,2969.1,1635.2z"/>
	<path class="st5" d="M3063.5,1740.9c-0.2-0.3-0.4-0.7-0.6-1c-0.4-0.7-0.9-1.4-1.4-2c-0.5-0.7-1-1.3-1.5-2
		c-9.3-11.9-23.8-19.5-40-19.5h0h-50.9h-50.9c-28.1,0-50.9,22.8-50.9,50.9c0,56.2,45.6,101.8,101.8,101.8c1.8,0,3.5,0,5.2-0.1
		c1.7-0.1,3.5-0.2,5.2-0.4c3.4-0.3,6.8-0.9,10.1-1.5c2.5-0.5,4.9-1.1,7.4-1.8c0.8-0.2,1.6-0.5,2.4-0.7
		c41.4-12.9,71.5-51.5,71.5-97.2C3070.9,1757.6,3068.2,1748.6,3063.5,1740.9z"/>
	<path class="st16" d="M2867.3,1767.3c0-11.2,9.1-20.4,20.4-20.4s20.4,9.1,20.4,20.4c0,11.2,9.1,20.4,20.4,20.4s20.4-9.1,20.4-20.4
		c0-11.2,9.1-20.4,20.4-20.4c11.2,0,20.4,9.1,20.4,20.4c0,11.2,9.1,20.4,20.4,20.4s20.4-9.1,20.4-20.4c0-11.2,9.1-20.4,20.4-20.4
		s20.4,9.1,20.4,20.4c0-56.2-45.6-101.8-101.8-101.8C2912.9,1665.5,2867.3,1711,2867.3,1767.3L2867.3,1767.3z"/>
</g>
<g>
	<g>
		<path class="st13" d="M127,1048c-2.4,0-4.3-1.9-4.3-4.3v-4.6c0-2.4,1.9-4.3,4.3-4.3c2.4,0,4.3,1.9,4.3,4.3v4.6
			C131.2,1046.1,129.3,1048,127,1048z"/>
		<path class="st14" d="M127,1039.5c-7.4,0-13.4,6-13.4,13.4v9.1c0,2.4,1.9,4.3,4.3,4.3h9.1v0h9.1c1.8,0,3.3-1.1,3.9-2.6
			c0.2-0.5,0.3-1.1,0.3-1.7v-9.1C140.3,1045.5,134.3,1039.5,127,1039.5z"/>
	</g>
	<g>
		<circle class="st7" cx="127" cy="1117.6" r="60.1"/>
		<path class="st17" d="M177.7,1085.4c-0.2-0.4-0.5-0.8-0.8-1.2l-4-4c-0.8-0.8-1.8-1.2-2.8-1.2c-1.1,0-2.1,0.4-2.8,1.2l-5.8,5.8
			l-5.8-5.8c-0.8-0.8-1.8-1.2-2.8-1.2s-2.1,0.4-2.8,1.2l-5.8,5.8l-5.8-5.8c-0.8-0.8-1.8-1.2-2.8-1.2c-1.1,0-2.1,0.4-2.8,1.2
			l-5.8,5.8l-5.8-5.8c-0.8-0.8-1.8-1.2-2.8-1.2c-1.1,0-2.1,0.4-2.8,1.2l-5.8,5.8l-5.8-5.8c-0.8-0.8-1.8-1.2-2.8-1.2
			c-1.1,0-2.1,0.4-2.8,1.2l-5.8,5.8l-5.8-5.8c-0.8-0.8-1.8-1.2-2.8-1.2c-1.1,0-2.1,0.4-2.8,1.2l-4,4c-2,3.1-3.8,6.3-5.3,9.7l0.6,0.6
			c0.8,0.8,1.8,1.2,2.8,1.2c1.1,0,2.1-0.4,2.8-1.2l5.8-5.8l5.8,5.8c0.8,0.8,1.8,1.2,2.8,1.2c1.1,0,2.1-0.4,2.8-1.2l5.8-5.8l5.8,5.8
			c0.8,0.8,1.8,1.2,2.8,1.2c1.1,0,2.1-0.4,2.8-1.2l5.8-5.8l5.8,5.8c0.8,0.8,1.8,1.2,2.8,1.2c0,0,0,0,0,0l0,0c1,0,2.1-0.4,2.8-1.2
			l5.8-5.8l5.8,5.8c0.8,0.8,1.8,1.2,2.8,1.2c0,0,0,0,0,0c0,0,0,0,0,0c1.1,0,2.1-0.4,2.8-1.2l5.8-5.8l5.8,5.8
			c0.8,0.8,1.8,1.2,2.8,1.2c0,0,0,0,0,0c0,0,0,0,0,0c1.1,0,2.1-0.4,2.8-1.2l5.8-5.8l5.8,5.8c0.8,0.8,1.8,1.2,2.8,1.2c0,0,0,0,0,0
			c0,0,0,0,0,0c1.1,0,2.1-0.4,2.8-1.2l0.6-0.6C180.9,1090.9,179.4,1088.1,177.7,1085.4z"/>
		<path class="st17" d="M181.6,1140.6c-0.8-0.8-1.8-1.2-2.8-1.2c-0.1,0-0.3,0-0.4,0c-0.9,0.1-1.8,0.5-2.4,1.2l-2.9,2.9l-2.9,2.9
			l-2.9-2.9l-2.9-2.9c-0.7-0.7-1.5-1.1-2.4-1.2c-0.1,0-0.3,0-0.4,0c-0.5,0-1.1,0.1-1.5,0.3c-0.2,0.1-0.5,0.2-0.7,0.4
			c-0.2,0.1-0.4,0.3-0.6,0.5l-5.8,5.8l-5.8-5.8c-0.8-0.8-1.8-1.2-2.8-1.2c-0.1,0-0.3,0-0.4,0c-0.9,0.1-1.8,0.5-2.4,1.2l-2.9,2.9
			l-2.9,2.9l-2.9-2.9l-2.9-2.9c-0.2-0.2-0.4-0.4-0.6-0.5c-0.1-0.1-0.2-0.1-0.3-0.2c-0.2-0.1-0.5-0.2-0.7-0.3
			c-0.4-0.1-0.8-0.2-1.1-0.2c-1,0-2.1,0.4-2.8,1.2l-5.8,5.8l-5.8-5.8c-0.8-0.8-1.8-1.2-2.8-1.2c-1.1,0-2.1,0.4-2.8,1.2l-5.8,5.8
			l-5.8-5.8c-0.8-0.8-1.8-1.2-2.8-1.2c-1.1,0-2.1,0.4-2.8,1.2l-5.8,5.8l-5.8-5.8c-0.8-0.8-1.8-1.2-2.8-1.2c-1.1,0-2.1,0.4-2.8,1.2
			l-0.6,0.6c1.5,3.4,3.2,6.7,5.3,9.7l4,4c0.8,0.8,1.8,1.2,2.8,1.2c1.1,0,2.1-0.4,2.8-1.2l5.8-5.8l5.8,5.8c0.8,0.8,1.8,1.2,2.8,1.2
			c1.1,0,2.1-0.4,2.8-1.2l5.8-5.8l5.8,5.8c0.8,0.8,1.8,1.2,2.8,1.2c1.1,0,2.1-0.4,2.8-1.2l5.8-5.8l5.8,5.8c0.8,0.8,1.8,1.2,2.8,1.2
			c0,0,0,0,0,0c0,0,0,0,0,0c1.1,0,2.1-0.4,2.8-1.2l5.8-5.8l5.8,5.8c0.8,0.8,1.8,1.2,2.8,1.2c0,0,0,0,0,0c0,0,0,0,0,0
			c1.1,0,2.1-0.4,2.8-1.2l5.8-5.8l5.8,5.8c0.8,0.8,1.8,1.2,2.8,1.2c0,0,0,0,0,0s0,0,0,0c1.1,0,2.1-0.4,2.8-1.2l4-4
			c2-3.1,3.8-6.3,5.3-9.7L181.6,1140.6z"/>
	</g>
</g>
<g>
	<g>
		<path class="st13" d="M2565.8,264c-3.1,0-5.6-2.5-5.6-5.6v-6c0-3.1,2.5-5.6,5.6-5.6c3.1,0,5.6,2.5,5.6,5.6v6
			C2571.4,261.5,2568.9,264,2565.8,264z"/>
		<path class="st14" d="M2565.8,252.8c-9.8,0-17.7,7.9-17.7,17.7v12.1c0,3.1,2.5,5.6,5.6,5.6h12.1v0h12.1c2.3,0,4.3-1.4,5.2-3.4
			c0.3-0.7,0.4-1.4,0.4-2.2v-12.1C2583.5,260.7,2575.6,252.8,2565.8,252.8z"/>
	</g>
	<g>
		<circle class="st7" cx="2565.8" cy="356.1" r="79.5"/>
		<path class="st17" d="M2632.9,313.5c-0.3-0.5-0.7-1-1-1.5l-5.3-5.3c-1-1-2.4-1.6-3.8-1.6c-1.4,0-2.8,0.6-3.8,1.6l-7.6,7.6
			l-7.6-7.6c-1-1-2.4-1.6-3.8-1.6s-2.8,0.6-3.8,1.6l-7.6,7.6l-7.6-7.6c-1-1-2.4-1.6-3.8-1.6s-2.8,0.6-3.8,1.6l-7.6,7.6l-7.6-7.6
			c-1-1-2.4-1.6-3.8-1.6s-2.8,0.6-3.8,1.6l-7.6,7.6l-7.6-7.6c-1-1-2.4-1.6-3.8-1.6s-2.8,0.6-3.8,1.6l-7.6,7.6l-7.6-7.6
			c-1-1-2.4-1.6-3.8-1.6c-1.4,0-2.8,0.6-3.8,1.6l-5.3,5.3c-2.7,4-5.1,8.3-7,12.9l0.8,0.8c1,1,2.4,1.6,3.8,1.6s2.8-0.6,3.8-1.6
			l7.6-7.6l7.6,7.6c1,1,2.4,1.6,3.8,1.6s2.8-0.6,3.8-1.6l7.6-7.6l7.6,7.6c1,1,2.4,1.6,3.8,1.6c1.4,0,2.8-0.6,3.8-1.6l7.6-7.6
			l7.6,7.6c1,1,2.4,1.6,3.8,1.6c0,0,0,0,0,0v0c1.4,0,2.7-0.5,3.8-1.6l7.6-7.6l7.6,7.6c1,1,2.4,1.6,3.8,1.6c0,0,0,0,0,0c0,0,0,0,0,0
			c1.4,0,2.8-0.6,3.8-1.6l7.6-7.6l7.6,7.6c1,1,2.4,1.6,3.8,1.6c0,0,0,0,0,0c0,0,0,0,0,0c1.4,0,2.8-0.6,3.8-1.6l7.6-7.6l7.6,7.6
			c1,1,2.4,1.6,3.8,1.6c0,0,0,0,0,0c0,0,0,0,0,0c1.4,0,2.8-0.6,3.8-1.6l0.8-0.8C2637.2,320.8,2635.2,317.1,2632.9,313.5z"/>
		<path class="st17" d="M2638,386.6c-1-1-2.4-1.6-3.8-1.6c-0.2,0-0.4,0-0.5,0c-1.2,0.1-2.4,0.7-3.2,1.5l-3.8,3.8l-3.8,3.8l-3.8-3.8
			l-3.8-3.8c-0.9-0.9-2-1.4-3.2-1.5c-0.2,0-0.4,0-0.5,0c-0.7,0-1.4,0.1-2,0.4c-0.3,0.1-0.6,0.3-0.9,0.5c-0.3,0.2-0.6,0.4-0.8,0.7
			l-7.6,7.6l-7.6-7.6c-1-1-2.4-1.6-3.8-1.6c-0.2,0-0.4,0-0.5,0c-1.2,0.1-2.4,0.7-3.2,1.5l-3.8,3.8l-3.8,3.8l-3.8-3.8l-3.8-3.8
			c-0.3-0.3-0.5-0.5-0.8-0.7c-0.1-0.1-0.3-0.2-0.5-0.3c-0.3-0.2-0.6-0.3-1-0.4c-0.5-0.1-1-0.2-1.5-0.2c-1.4,0-2.7,0.5-3.8,1.6
			l-7.6,7.6l-7.6-7.6c-1-1-2.4-1.6-3.8-1.6c-1.4,0-2.8,0.6-3.8,1.6l-7.6,7.6l-7.6-7.6c-1-1-2.4-1.6-3.8-1.6c-1.4,0-2.8,0.6-3.8,1.6
			l-7.6,7.6l-7.6-7.6c-1-1-2.4-1.6-3.8-1.6c-1.4,0-2.8,0.6-3.8,1.6l-0.8,0.8c1.9,4.5,4.3,8.8,7,12.9l5.3,5.3c1,1,2.4,1.6,3.8,1.6
			c1.4,0,2.8-0.6,3.8-1.6l7.6-7.6l7.6,7.6c1,1,2.4,1.6,3.8,1.6c1.4,0,2.8-0.6,3.8-1.6l7.6-7.6l7.6,7.6c1,1,2.4,1.6,3.8,1.6
			c1.4,0,2.8-0.6,3.8-1.6l7.6-7.6l7.6,7.6c1,1,2.4,1.6,3.8,1.6c0,0,0,0,0,0c0,0,0,0,0,0c1.4,0,2.8-0.6,3.8-1.6l7.6-7.6l7.6,7.6
			c1,1,2.4,1.6,3.8,1.6c0,0,0,0,0,0c0,0,0,0,0,0c1.4,0,2.8-0.6,3.8-1.6l7.6-7.6l7.6,7.6c1,1,2.4,1.6,3.8,1.6c0,0,0,0,0,0s0,0,0,0
			c1.4,0,2.8-0.6,3.8-1.6l5.3-5.3c2.7-4,5.1-8.3,7-12.9L2638,386.6z"/>
	</g>
</g>
<g>
	<g>
		<path class="st13" d="M3029.5,949.9c-3.3,0-5.9-2.6-5.9-5.9v-6.3c0-3.3,2.6-5.9,5.9-5.9c3.3,0,5.9,2.6,5.9,5.9v6.3
			C3035.4,947.2,3032.8,949.9,3029.5,949.9z"/>
		<path class="st14" d="M3029.5,938.1c-10.2,0-18.5,8.3-18.5,18.5v12.6c0,3.3,2.6,5.9,5.9,5.9h12.6v0h12.6c2.4,0,4.5-1.5,5.4-3.6
			c0.3-0.7,0.5-1.5,0.5-2.3v-12.6C3048,946.4,3039.7,938.1,3029.5,938.1z"/>
	</g>
	<g>
		<circle class="st6" cx="3029.5" cy="1046.2" r="83.1"/>
		<path class="st18" d="M3099.6,1001.6c-0.3-0.5-0.7-1.1-1-1.6l-5.5-5.5c-1-1-2.5-1.6-3.9-1.6s-2.9,0.6-3.9,1.6l-8,8l-8-8
			c-1-1-2.5-1.6-3.9-1.6s-2.9,0.6-3.9,1.6l-8,8l-8-8c-1-1-2.5-1.6-3.9-1.6s-2.9,0.6-3.9,1.6l-8,8l-8-8c-1-1-2.5-1.6-3.9-1.6
			s-2.9,0.6-3.9,1.6l-8,8l-8-8c-1-1-2.5-1.6-3.9-1.6s-2.9,0.6-3.9,1.6l-8,8l-8-8c-1-1-2.5-1.6-3.9-1.6s-2.9,0.6-3.9,1.6l-5.5,5.5
			c-2.8,4.2-5.3,8.7-7.3,13.4l0.9,0.9c1,1,2.5,1.6,3.9,1.6s2.9-0.6,3.9-1.6l8-8l8,8c1,1,2.5,1.6,3.9,1.6s2.9-0.6,3.9-1.6l8-8l8,8
			c1,1,2.5,1.6,3.9,1.6s2.9-0.6,3.9-1.6l8-8l8,8c1.1,1.1,2.5,1.6,3.9,1.6c0,0,0,0,0,0v0c1.4,0,2.9-0.5,3.9-1.6l8-8l8,8
			c1,1,2.5,1.6,3.9,1.6c0,0,0,0,0,0s0,0,0,0c1.5,0,2.9-0.6,3.9-1.6l8-8l8,8c1,1,2.5,1.6,3.9,1.6c0,0,0,0,0,0c0,0,0,0,0,0
			c1.5,0,2.9-0.6,3.9-1.6l8-8l8,8c1,1,2.5,1.6,3.9,1.6c0,0,0,0,0,0s0,0,0,0c1.5,0,2.9-0.6,3.9-1.6l0.9-0.9
			C3104.1,1009.3,3102,1005.3,3099.6,1001.6z"/>
		<path class="st18" d="M3105,1078c-1-1-2.5-1.6-3.9-1.6c-0.2,0-0.4,0-0.6,0c-1.3,0.1-2.5,0.7-3.4,1.6l-4,4l-4,4l-4-4l-4-4
			c-0.9-0.9-2.1-1.5-3.4-1.6c-0.2,0-0.4,0-0.6,0c-0.7,0-1.5,0.1-2.1,0.4c-0.3,0.1-0.7,0.3-1,0.5c-0.3,0.2-0.6,0.4-0.8,0.7l-8,8l-8-8
			c-1-1-2.5-1.6-3.9-1.6c-0.2,0-0.4,0-0.6,0c-1.3,0.1-2.5,0.7-3.4,1.6l-4,4l-4,4l-4-4l-4-4c-0.3-0.3-0.6-0.5-0.9-0.7
			c-0.2-0.1-0.3-0.2-0.5-0.3c-0.3-0.2-0.7-0.3-1-0.4c-0.5-0.2-1.1-0.2-1.6-0.2c-1.4,0-2.9,0.5-3.9,1.6l-8,8l-8-8
			c-1-1-2.5-1.6-3.9-1.6s-2.9,0.6-3.9,1.6l-8,8l-8-8c-1-1-2.5-1.6-3.9-1.6s-2.9,0.6-3.9,1.6l-8,8l-8-8c-1-1-2.5-1.6-3.9-1.6
			s-2.9,0.6-3.9,1.6l-0.9,0.9c2,4.7,4.5,9.2,7.3,13.4l5.5,5.5c1,1,2.5,1.6,3.9,1.6s2.9-0.6,3.9-1.6l8-8l8,8c1,1,2.5,1.6,3.9,1.6
			s2.9-0.6,3.9-1.6l8-8l8,8c1,1,2.5,1.6,3.9,1.6s2.9-0.6,3.9-1.6l8-8l8,8c1,1,2.5,1.6,3.9,1.6c0,0,0,0,0,0s0,0,0,0
			c1.5,0,2.9-0.6,3.9-1.6l8-8l8,8c1,1,2.5,1.6,3.9,1.6c0,0,0,0,0,0c0,0,0,0,0,0c1.5,0,2.9-0.6,3.9-1.6l8-8l8,8c1,1,2.5,1.6,3.9,1.6
			c0,0,0,0,0,0c0,0,0,0,0,0c1.5,0,2.9-0.6,3.9-1.6l5.5-5.5c2.8-4.2,5.3-8.7,7.3-13.4L3105,1078z"/>
	</g>
</g>
<g>
	<path class="st13" d="M547.1,228.2c-2.3,0-4.2-1.9-4.2-4.2v-4.5c0-2.3,1.9-4.2,4.2-4.2s4.2,1.9,4.2,4.2v4.5
		C551.3,226.3,549.4,228.2,547.1,228.2z"/>
	<path class="st14" d="M547.1,219.8c-7.3,0-13.2,5.9-13.2,13.2v9c0,2.3,1.9,4.2,4.2,4.2h9v0h9c1.7,0,3.2-1.1,3.9-2.6
		c0.2-0.5,0.3-1.1,0.3-1.6v-9C560.3,225.7,554.4,219.8,547.1,219.8z"/>
	<path class="st5" d="M603.1,282.5c-0.1-0.2-0.3-0.4-0.4-0.6c-0.3-0.4-0.5-0.8-0.8-1.2c-0.3-0.4-0.6-0.8-0.9-1.2
		c-5.5-7-14.1-11.6-23.8-11.6h0h-30.2h-30.2c-16.7,0-30.2,13.5-30.2,30.2c0,33.4,27,60.4,60.4,60.4c1,0,2.1,0,3.1-0.1
		c1-0.1,2.1-0.1,3.1-0.2c2-0.2,4-0.5,6-0.9c1.5-0.3,2.9-0.7,4.4-1.1c0.5-0.1,1-0.3,1.4-0.4c24.6-7.6,42.5-30.6,42.5-57.7
		C607.5,292.5,605.9,287.1,603.1,282.5z"/>
	<path class="st16" d="M486.7,298.2c0-6.7,5.4-12.1,12.1-12.1s12.1,5.4,12.1,12.1s5.4,12.1,12.1,12.1c6.7,0,12.1-5.4,12.1-12.1
		c0-6.7,5.4-12.1,12.1-12.1c6.7,0,12.1,5.4,12.1,12.1s5.4,12.1,12.1,12.1c6.7,0,12.1-5.4,12.1-12.1c0-6.7,5.4-12.1,12.1-12.1
		c6.7,0,12.1,5.4,12.1,12.1c0-33.4-27-60.4-60.4-60.4C513.7,237.8,486.7,264.8,486.7,298.2L486.7,298.2z"/>
</g>
<g>
	<path class="st13" d="M3150.8,1972.6c-2.7,0-4.8-2.2-4.8-4.8v-5.2c0-2.7,2.2-4.8,4.8-4.8c2.7,0,4.8,2.2,4.8,4.8v5.2
		C3155.6,1970.4,3153.4,1972.6,3150.8,1972.6z"/>
	<path class="st14" d="M3150.8,1963c-8.3,0-15.1,6.8-15.1,15.1v10.3c0,2.7,2.2,4.8,4.8,4.8h10.3v0h10.3c2,0,3.7-1.2,4.4-2.9
		c0.2-0.6,0.4-1.2,0.4-1.9v-10.3C3165.9,1969.7,3159.1,1963,3150.8,1963z"/>
	<path class="st15" d="M3215,2034.9c-0.1-0.2-0.3-0.5-0.4-0.7c-0.3-0.5-0.6-0.9-0.9-1.4s-0.7-0.9-1-1.3
		c-6.3-8.1-16.2-13.2-27.2-13.2h0h-34.6h-34.6c-19.1,0-34.6,15.5-34.6,34.6c0,38.2,31,69.2,69.2,69.2c1.2,0,2.4,0,3.6-0.1
		c1.2-0.1,2.4-0.1,3.5-0.3c2.3-0.2,4.6-0.6,6.9-1c1.7-0.3,3.4-0.8,5-1.2c0.5-0.2,1.1-0.3,1.6-0.5c28.2-8.8,48.6-35,48.6-66.1
		C3220,2046.2,3218.2,2040.1,3215,2034.9z"/>
	<path class="st8" d="M3081.5,2052.8c0-7.6,6.2-13.8,13.8-13.8s13.8,6.2,13.8,13.8c0,7.6,6.2,13.8,13.8,13.8s13.8-6.2,13.8-13.8
		c0-7.6,6.2-13.8,13.8-13.8c7.6,0,13.8,6.2,13.8,13.8c0,7.6,6.2,13.8,13.8,13.8c7.6,0,13.8-6.2,13.8-13.8c0-7.6,6.2-13.8,13.8-13.8
		c7.6,0,13.8,6.2,13.8,13.8c0-38.2-31-69.2-69.2-69.2C3112.5,1983.6,3081.5,2014.6,3081.5,2052.8L3081.5,2052.8z"/>
</g>
</svg>
