<?xml version="1.0" encoding="utf-8"?>
<!-- Generator: Adobe Illustrator 24.2.1, SVG Export Plug-In . SVG Version: 6.00 Build 0)  -->
<svg version="1.1" id="Layer_1" xmlns="http://www.w3.org/2000/svg" xmlns:xlink="http://www.w3.org/1999/xlink" x="0px" y="0px"
	 viewBox="0 0 3240 5318.4" style="enable-background:new 0 0 3240 5318.4;" xml:space="preserve">
<style type="text/css">
	.st0{display:none;}
	.st1{display:inline;fill:#C2D8E3;}
	.st2{display:inline;fill:#127E9A;}
	.st3{display:inline;fill:#FCD484;}
	.st4{display:inline;fill:#74C9C2;}
	.st5{display:inline;fill:#FBD1BF;}
	.st6{fill:#D69292;}
	.st7{fill:#73CAC3;}
	.st8{fill:#FCD2C0;}
	.st9{display:inline;}
	.st10{clip-path:url(#SVGID_2_);}
	.st11{fill:none;stroke:#73CAC3;stroke-width:7;stroke-miterlimit:10;}
	.st12{display:inline;fill:#FCD485;}
	.st13{display:inline;fill:none;stroke:#73CAC3;stroke-width:5;stroke-miterlimit:10;}
	.st14{display:inline;fill:#E1EAF0;}
	.st15{display:inline;fill:#FCD2C0;}
	.st16{display:inline;fill:none;stroke:#C2D8E3;stroke-width:7;stroke-miterlimit:10;}
	.st17{clip-path:url(#SVGID_4_);}
	.st18{fill:#C2D8E3;}
	.st19{fill:none;stroke:url(#SVGID_5_);stroke-width:6.6626;stroke-miterlimit:10;}
	.st20{fill:#E7B249;}
	.st21{fill:#FCD485;}
	.st22{fill:#C18383;}
	.st23{fill:none;stroke:url(#SVGID_6_);stroke-width:7.4046;stroke-miterlimit:10;}
	.st24{fill:#C5E6DA;}
	.st25{fill:#E9F5F0;}
	.st26{fill:none;stroke:url(#SVGID_7_);stroke-width:7.7905;stroke-miterlimit:10;}
	.st27{fill:#5CA29C;}
	.st28{fill:#E1EAF0;}
	.st29{fill:none;stroke:url(#SVGID_8_);stroke-width:7.8057;stroke-miterlimit:10;}
	.st30{fill:#FDE0D3;}
</style>
<g id="Layer_1_1_" class="st0">
	<polygon class="st1" points="-647.9,4646.4 148.2,3882.1 148.2,3770.2 -647.9,4541.2 	"/>
	<circle class="st2" cx="-1235.8" cy="5353.8" r="60.1"/>
	<polygon class="st2" points="-1037.4,5235.5 -1292.8,5235.5 -1292.8,4980 	"/>
	<polygon class="st2" points="-756.9,4522.5 32.6,3764.7 32.6,3652.8 -756.9,4417.3 	"/>
	<rect x="-530.3" y="5346.4" class="st2" width="725" height="57.8"/>
	<circle class="st2" cx="-569.2" cy="4445" r="39.6"/>
	<circle class="st2" cx="332.8" cy="4385.4" r="28.6"/>
	<circle class="st3" cx="-1115.7" cy="5353.8" r="60.1"/>
	<circle class="st3" cx="-213.1" cy="5199.4" r="28.6"/>
	<circle class="st3" cx="-569.2" cy="4365.9" r="39.6"/>
	<rect x="-237.9" y="4366.1" class="st3" width="57.8" height="251"/>
	<polygon class="st4" points="-566.3,3999.4 -398,3999.4 -398,3831.1 	"/>
	<rect x="-295.7" y="4366.1" class="st5" width="57.8" height="251"/>
	<circle class="st2" cx="28.6" cy="5068.2" r="28.6"/>
	<rect x="268.8" y="5149.7" class="st3" width="1048.4" height="57.8"/>
	<circle class="st3" cx="28.6" cy="5125.4" r="28.6"/>
	<rect y="4862.1" class="st3" width="376.3" height="57.8"/>
	<rect x="125.3" y="4920" class="st5" width="251" height="57.8"/>
	<polygon class="st5" points="0,4671.2 0,4415.7 255.5,4415.7 	"/>
	<polygon class="st1" points="1036.1,5207.6 268.8,5207.6 268.8,5149.7 1099,5149.7 	"/>
	<circle class="st5" cx="28.6" cy="5182.5" r="28.6"/>
	<circle class="st4" cx="-995.6" cy="5353.8" r="60.1"/>
	<circle class="st1" cx="-392.2" cy="3513.2" r="58.9"/>
	<polygon class="st5" points="-562.6,3865.8 -397.1,3707.6 -397.1,3547.6 -562.6,3705.7 	"/>
	<circle class="st1" cx="-569.2" cy="4286.8" r="39.6"/>
	<rect x="-569.2" y="4892.9" class="st1" width="441.8" height="57.8"/>
	<polygon class="st4" points="3912,5715.4 3621.9,5438.5 3621.9,5398 3912,5677.3 	"/>
	<circle class="st3" cx="2045.6" cy="6032.5" r="85.4"/>
	<polygon class="st3" points="-435.7,3417.4 -604,3417.4 -604,3249.1 	"/>
	<polygon class="st3" points="3912,5632.8 3624.3,5358.4 3624.3,5317.8 3910.3,5594.7 	"/>
	<rect x="1527.5" y="5368.1" class="st3" width="1030.6" height="82.2"/>
	<circle class="st3" cx="1417.1" cy="5199.4" r="28.6"/>
	<rect x="278.1" y="5621.6" class="st1" width="1490.3" height="82.2"/>
	<rect x="-380.7" y="5237.1" class="st1" width="766.4" height="57.8"/>
	<circle class="st1" cx="2216.4" cy="6032.5" r="85.4"/>
	<circle class="st1" cx="1474.2" cy="5199.4" r="28.6"/>
	<rect x="1309" y="5069.7" class="st1" width="251" height="57.8"/>
	<polygon class="st1" points="3240,4479.4 2947.8,4479.4 2947.8,4187.2 	"/>
	<polygon class="st4" points="1368.8,5703.8 278.1,5703.8 278.1,5621.6 1458.2,5621.6 	"/>
	<circle class="st5" cx="69.9" cy="3410.5" r="28.6"/>
	<rect x="2981.1" y="3969.9" class="st2" width="356.8" height="82.2"/>
	<circle class="st4" cx="2387.1" cy="6032.5" r="85.4"/>
	<rect x="3173.8" y="2925.2" class="st5" width="66.2" height="821.1"/>
	<circle class="st4" cx="3654.5" cy="5439.2" r="58.9"/>
	<polygon class="st2" points="3825,5791.8 3659.4,5633.6 3659.4,5473.6 3825,5631.7 	"/>
	<circle class="st5" cx="773.9" cy="5026.3" r="60.1"/>
	<circle class="st3" cx="2335.2" cy="5505.7" r="40.6"/>
	<polyline class="st2" points="3924.6,5207.4 3760.5,5049.8 3760.5,4979.4 3924.6,5138.4 	"/>
	
		<ellipse transform="matrix(0.9999 -1.020250e-02 1.020250e-02 0.9999 -41.7593 1.5088)" class="st3" cx="127" cy="4093.7" rx="60.1" ry="60.1"/>
	<polygon class="st3" points="2981.9,5242.2 2547.7,4825.6 2547.7,4764 2981.9,5184.4 	"/>
	<rect x="2844.4" y="5346.4" class="st3" width="395.6" height="57.8"/>
	<circle class="st3" cx="2947" cy="4785.4" r="60.1"/>
	<circle class="st3" cx="3104.4" cy="5199.4" r="28.6"/>
	<rect x="2676.7" y="5621.6" class="st5" width="1490.3" height="82.2"/>
	<circle class="st1" cx="2335.2" cy="5586.9" r="40.6"/>
	<rect x="1306.6" y="5237.1" class="st1" width="766.4" height="57.8"/>
	<rect x="2472.7" y="5295" class="st4" width="356.8" height="82.2"/>
	<rect x="2996.3" y="5011.8" class="st1" width="243.7" height="57.8"/>
	<polygon class="st2" points="3767.4,5703.8 2676.7,5703.8 2676.7,5621.6 3856.8,5621.6 	"/>
	<circle class="st2" cx="2335.2" cy="5668.2" r="40.6"/>
	<rect x="2472.7" y="5464" class="st5" width="356.8" height="82.2"/>
	<polygon class="st2" points="2334.8,4927.6 2207.2,4927.6 1951.7,5183.1 2334.8,5183.1 	"/>
	<circle class="st2" cx="2593.6" cy="4948.3" r="89.4"/>
	<polygon class="st4" points="3900.3,4805.5 3649,4565.4 3649,4322.4 3900.3,4562.5 	"/>
	<rect x="2805.5" y="4892.9" class="st5" width="434.5" height="57.8"/>
</g>
<circle class="st6" cx="130.3" cy="1646.4" r="55.2"/>
<circle class="st7" cx="3062.4" cy="4953.9" r="55.2"/>
<circle class="st6" cx="3134.9" cy="1956.8" r="73.1"/>
<circle class="st8" cx="1051.6" cy="1338.5" r="117"/>
<g id="Layer_3" class="st0">
	<g class="st9">
		<g>
			<defs>
				<circle id="SVGID_1_" cx="188.1" cy="4440.9" r="488.7"/>
			</defs>
			<clipPath id="SVGID_2_">
				<use xlink:href="#SVGID_1_"  style="overflow:visible;"/>
			</clipPath>
			<g class="st10">
				<line class="st11" x1="-153.5" y1="3513.8" x2="1434" y2="4423.6"/>
				<line class="st11" x1="-134.8" y1="3479.4" x2="1452.7" y2="4389.2"/>
				<line class="st11" x1="-172.2" y1="3548.3" x2="1415.3" y2="4458.1"/>
				<line class="st11" x1="-209.6" y1="3617.1" x2="1377.9" y2="4526.9"/>
				<line class="st11" x1="-190.9" y1="3582.7" x2="1396.6" y2="4492.5"/>
				<line class="st11" x1="-228.3" y1="3651.5" x2="1359.2" y2="4561.3"/>
				<line class="st11" x1="-265.7" y1="3720.3" x2="1321.8" y2="4630.1"/>
				<line class="st11" x1="-247" y1="3685.9" x2="1340.5" y2="4595.7"/>
				<line class="st11" x1="-284.4" y1="3754.8" x2="1303.1" y2="4664.6"/>
				<line class="st11" x1="-321.8" y1="3823.6" x2="1265.7" y2="4733.4"/>
				<line class="st11" x1="-303.1" y1="3789.2" x2="1284.4" y2="4699"/>
				<line class="st11" x1="-340.5" y1="3858" x2="1247" y2="4767.8"/>
				<line class="st11" x1="-377.9" y1="3926.8" x2="1209.6" y2="4836.6"/>
				<line class="st11" x1="-359.2" y1="3892.4" x2="1228.3" y2="4802.2"/>
				<line class="st11" x1="-396.6" y1="3961.3" x2="1190.9" y2="4871"/>
				<line class="st11" x1="-434" y1="4030.1" x2="1153.5" y2="4939.9"/>
				<line class="st11" x1="-415.3" y1="3995.7" x2="1172.2" y2="4905.5"/>
				<line class="st11" x1="-452.7" y1="4064.5" x2="1134.8" y2="4974.3"/>
				<line class="st11" x1="-490.1" y1="4133.3" x2="1097.4" y2="5043.1"/>
				<line class="st11" x1="-471.4" y1="4098.9" x2="1116.1" y2="5008.7"/>
				<line class="st11" x1="-508.8" y1="4167.8" x2="1078.7" y2="5077.5"/>
				<line class="st11" x1="-546.2" y1="4236.6" x2="1041.3" y2="5146.4"/>
				<line class="st11" x1="-527.5" y1="4202.2" x2="1060" y2="5112"/>
				<line class="st11" x1="-564.9" y1="4271" x2="1022.6" y2="5180.8"/>
				<line class="st11" x1="-602.3" y1="4339.8" x2="985.2" y2="5249.6"/>
				<line class="st11" x1="-583.6" y1="4305.4" x2="1003.9" y2="5215.2"/>
				<line class="st11" x1="-621" y1="4374.3" x2="966.5" y2="5284"/>
				<line class="st11" x1="-658.4" y1="4443.1" x2="929.1" y2="5352.9"/>
				<line class="st11" x1="-639.7" y1="4408.7" x2="947.8" y2="5318.5"/>
				<line class="st11" x1="-677.1" y1="4477.5" x2="910.4" y2="5387.3"/>
			</g>
		</g>
	</g>
	<circle class="st12" cx="45.7" cy="4583.3" r="488.7"/>
	
		<ellipse transform="matrix(0.9985 -5.530040e-02 5.530040e-02 0.9985 -106.7121 7.3914)" class="st13" cx="80.2" cy="1931.9" rx="50.9" ry="50.9"/>
	<circle class="st5" cx="3713.2" cy="5901.9" r="106.9"/>
	<circle class="st3" cx="181.7" cy="3147.9" r="106.9"/>
	<circle class="st14" cx="3130.6" cy="1976" r="67.4"/>
	
		<ellipse transform="matrix(0.7071 -0.7071 0.7071 0.7071 -313.7055 1823.2461)" class="st15" cx="2044" cy="1290.3" rx="107.9" ry="107.9"/>
	<circle class="st16" cx="3089.5" cy="4060.8" r="83.6"/>
	<g class="st9">
		<line class="st11" x1="-280" y1="4525.9" x2="748" y2="4525.9"/>
		<line class="st11" x1="-280.5" y1="4503.9" x2="747.5" y2="4503.9"/>
		<line class="st11" x1="-279.5" y1="4547.9" x2="748.5" y2="4547.9"/>
		<line class="st11" x1="-278.5" y1="4591.9" x2="749.5" y2="4591.9"/>
		<line class="st11" x1="-279" y1="4569.9" x2="749" y2="4569.9"/>
		<line class="st11" x1="-278" y1="4613.9" x2="750" y2="4613.9"/>
		<line class="st11" x1="-277" y1="4657.9" x2="751" y2="4657.9"/>
		<line class="st11" x1="-277.5" y1="4635.9" x2="750.5" y2="4635.9"/>
		<line class="st11" x1="-276.5" y1="4679.9" x2="751.5" y2="4679.9"/>
		<line class="st11" x1="-275.5" y1="4723.9" x2="752.5" y2="4723.9"/>
		<line class="st11" x1="-276" y1="4701.9" x2="752" y2="4701.9"/>
		<line class="st11" x1="-275" y1="4745.9" x2="753" y2="4745.9"/>
		<line class="st11" x1="-274" y1="4789.9" x2="754" y2="4789.9"/>
		<line class="st11" x1="-274.5" y1="4767.9" x2="753.5" y2="4767.9"/>
		<line class="st11" x1="-273.5" y1="4811.9" x2="754.5" y2="4811.9"/>
		<line class="st11" x1="-272.5" y1="4855.9" x2="755.5" y2="4855.9"/>
		<line class="st11" x1="-273" y1="4833.9" x2="755" y2="4833.9"/>
		<line class="st11" x1="-272" y1="4877.9" x2="756" y2="4877.9"/>
		<line class="st11" x1="-271" y1="4921.9" x2="757" y2="4921.9"/>
		<line class="st11" x1="-271.5" y1="4899.9" x2="756.5" y2="4899.9"/>
		<line class="st11" x1="-270.5" y1="4943.9" x2="757.5" y2="4943.9"/>
		<line class="st11" x1="-269.5" y1="4987.9" x2="758.5" y2="4987.9"/>
		<line class="st11" x1="-270" y1="4965.9" x2="758" y2="4965.9"/>
		<line class="st11" x1="-269" y1="5009.9" x2="759" y2="5009.9"/>
		<line class="st11" x1="-268" y1="5053.9" x2="760" y2="5053.9"/>
		<line class="st11" x1="-268.5" y1="5031.9" x2="759.5" y2="5031.9"/>
		<line class="st11" x1="-267.5" y1="5075.9" x2="760.5" y2="5075.9"/>
		<line class="st11" x1="-266.5" y1="5119.9" x2="761.5" y2="5119.9"/>
		<line class="st11" x1="-267" y1="5097.9" x2="761" y2="5097.9"/>
		<line class="st11" x1="-266" y1="5141.9" x2="762" y2="5141.9"/>
	</g>
	<g class="st9">
		<g>
			<defs>
				<circle id="SVGID_3_" cx="3048.5" cy="3139.1" r="269.9"/>
			</defs>
			<clipPath id="SVGID_4_">
				<use xlink:href="#SVGID_3_"  style="overflow:visible;"/>
			</clipPath>
			<g class="st17">
				<circle class="st18" cx="2425.8" cy="3254.2" r="10.5"/>
				<circle class="st18" cx="2486.8" cy="3254.3" r="10.5"/>
				<circle class="st18" cx="2424.9" cy="3680.8" r="10.5"/>
				<circle class="st18" cx="2425.1" cy="3619.9" r="10.5"/>
				<circle class="st18" cx="2425.2" cy="3558.9" r="10.5"/>
				<circle class="st18" cx="2425.3" cy="3498" r="10.5"/>
				<circle class="st18" cx="2425.4" cy="3437" r="10.5"/>
				<circle class="st18" cx="2425.6" cy="3376.1" r="10.5"/>
				<circle class="st18" cx="2425.7" cy="3315.1" r="10.5"/>
				<circle class="st18" cx="2425.8" cy="3254.2" r="10.5"/>
				<circle class="st18" cx="2425.9" cy="3193.2" r="10.5"/>
				<circle class="st18" cx="2426.1" cy="3132.2" r="10.5"/>
				<circle class="st18" cx="2426.2" cy="3071.3" r="10.5"/>
				<circle class="st18" cx="2426.3" cy="3010.3" r="10.5"/>
				<circle class="st18" cx="2426.4" cy="2949.4" r="10.5"/>
				<circle class="st18" cx="2426.5" cy="2888.4" r="10.5"/>
				<circle class="st18" cx="2426.7" cy="2827.5" r="10.5"/>
				<circle class="st18" cx="2485.8" cy="3680.8" r="10.5"/>
				<circle class="st18" cx="2485.9" cy="3619.9" r="10.5"/>
				<circle class="st18" cx="2486.1" cy="3558.9" r="10.5"/>
				<circle class="st18" cx="2486.2" cy="3498" r="10.5"/>
				<circle class="st18" cx="2486.3" cy="3437" r="10.5"/>
				<circle class="st18" cx="2486.4" cy="3376.1" r="10.5"/>
				<circle class="st18" cx="2486.6" cy="3315.1" r="10.5"/>
				<circle class="st18" cx="2486.7" cy="3254.2" r="10.5"/>
				<circle class="st18" cx="2486.8" cy="3193.2" r="10.5"/>
				<circle class="st18" cx="2486.9" cy="3132.2" r="10.5"/>
				<circle class="st18" cx="2487.1" cy="3071.3" r="10.5"/>
				<circle class="st18" cx="2487.2" cy="3010.3" r="10.5"/>
				<circle class="st18" cx="2487.3" cy="2949.4" r="10.5"/>
				<circle class="st18" cx="2487.4" cy="2888.4" r="10.5"/>
				<circle class="st18" cx="2487.5" cy="2827.5" r="10.5"/>
				<circle class="st18" cx="2425.8" cy="3254.2" r="10.5"/>
				<circle class="st18" cx="2486.8" cy="3254.3" r="10.5"/>
				<circle class="st18" cx="2424.9" cy="3680.8" r="10.5"/>
				<circle class="st18" cx="2425.1" cy="3619.9" r="10.5"/>
				<circle class="st18" cx="2425.2" cy="3558.9" r="10.5"/>
				<circle class="st18" cx="2425.3" cy="3498" r="10.5"/>
				<circle class="st18" cx="2425.4" cy="3437" r="10.5"/>
				<circle class="st18" cx="2425.6" cy="3376.1" r="10.5"/>
				<circle class="st18" cx="2425.7" cy="3315.1" r="10.5"/>
				<circle class="st18" cx="2425.8" cy="3254.2" r="10.5"/>
				<circle class="st18" cx="2425.9" cy="3193.2" r="10.5"/>
				<circle class="st18" cx="2426.1" cy="3132.2" r="10.5"/>
				<circle class="st18" cx="2426.2" cy="3071.3" r="10.5"/>
				<circle class="st18" cx="2426.3" cy="3010.3" r="10.5"/>
				<circle class="st18" cx="2426.4" cy="2949.4" r="10.5"/>
				<circle class="st18" cx="2426.5" cy="2888.4" r="10.5"/>
				<circle class="st18" cx="2426.7" cy="2827.5" r="10.5"/>
				<circle class="st18" cx="2485.8" cy="3680.8" r="10.5"/>
				<circle class="st18" cx="2485.9" cy="3619.9" r="10.5"/>
				<circle class="st18" cx="2486.1" cy="3558.9" r="10.5"/>
				<circle class="st18" cx="2486.2" cy="3498" r="10.5"/>
				<circle class="st18" cx="2486.3" cy="3437" r="10.5"/>
				<circle class="st18" cx="2486.4" cy="3376.1" r="10.5"/>
				<circle class="st18" cx="2486.6" cy="3315.1" r="10.5"/>
				<circle class="st18" cx="2486.7" cy="3254.2" r="10.5"/>
				<circle class="st18" cx="2486.8" cy="3193.2" r="10.5"/>
				<circle class="st18" cx="2486.9" cy="3132.2" r="10.5"/>
				<circle class="st18" cx="2487.1" cy="3071.3" r="10.5"/>
				<circle class="st18" cx="2487.2" cy="3010.3" r="10.5"/>
				<circle class="st18" cx="2487.3" cy="2949.4" r="10.5"/>
				<circle class="st18" cx="2487.4" cy="2888.4" r="10.5"/>
				<circle class="st18" cx="2487.5" cy="2827.5" r="10.5"/>
				<circle class="st18" cx="2547.6" cy="3254.2" r="10.5"/>
				<circle class="st18" cx="2608.5" cy="3254.3" r="10.5"/>
				<circle class="st18" cx="2546.7" cy="3680.8" r="10.5"/>
				<circle class="st18" cx="2546.8" cy="3619.9" r="10.5"/>
				<circle class="st18" cx="2546.9" cy="3558.9" r="10.5"/>
				<circle class="st18" cx="2547.1" cy="3498" r="10.5"/>
				<circle class="st18" cx="2547.2" cy="3437" r="10.5"/>
				<circle class="st18" cx="2547.3" cy="3376.1" r="10.5"/>
				<circle class="st18" cx="2547.4" cy="3315.1" r="10.5"/>
				<circle class="st18" cx="2547.6" cy="3254.2" r="10.5"/>
				<circle class="st18" cx="2547.7" cy="3193.2" r="10.5"/>
				<circle class="st18" cx="2547.8" cy="3132.2" r="10.5"/>
				<circle class="st18" cx="2547.9" cy="3071.3" r="10.5"/>
				<circle class="st18" cx="2548.1" cy="3010.3" r="10.5"/>
				<circle class="st18" cx="2548.2" cy="2949.4" r="10.5"/>
				<circle class="st18" cx="2548.3" cy="2888.4" r="10.5"/>
				<circle class="st18" cx="2548.4" cy="2827.5" r="10.5"/>
				<circle class="st18" cx="2607.6" cy="3680.8" r="10.5"/>
				<circle class="st18" cx="2607.7" cy="3619.9" r="10.5"/>
				<circle class="st18" cx="2607.8" cy="3558.9" r="10.5"/>
				<circle class="st18" cx="2607.9" cy="3498" r="10.5"/>
				<circle class="st18" cx="2608.1" cy="3437" r="10.5"/>
				<circle class="st18" cx="2608.2" cy="3376.1" r="10.5"/>
				<circle class="st18" cx="2608.3" cy="3315.1" r="10.5"/>
				<circle class="st18" cx="2608.4" cy="3254.2" r="10.5"/>
				<circle class="st18" cx="2608.6" cy="3193.2" r="10.5"/>
				<circle class="st18" cx="2608.7" cy="3132.2" r="10.5"/>
				<circle class="st18" cx="2608.8" cy="3071.3" r="10.5"/>
				<circle class="st18" cx="2608.9" cy="3010.3" r="10.5"/>
				<circle class="st18" cx="2609.1" cy="2949.4" r="10.5"/>
				<circle class="st18" cx="2609.2" cy="2888.4" r="10.5"/>
				<circle class="st18" cx="2609.3" cy="2827.5" r="10.5"/>
				<circle class="st18" cx="2669.3" cy="3254.2" r="10.5"/>
				<circle class="st18" cx="2730.3" cy="3254.3" r="10.5"/>
				<circle class="st18" cx="2668.5" cy="3680.8" r="10.5"/>
				<circle class="st18" cx="2668.6" cy="3619.9" r="10.5"/>
				<circle class="st18" cx="2668.7" cy="3558.9" r="10.5"/>
				<circle class="st18" cx="2668.8" cy="3498" r="10.5"/>
				<circle class="st18" cx="2668.9" cy="3437" r="10.5"/>
				<circle class="st18" cx="2669.1" cy="3376.1" r="10.5"/>
				<circle class="st18" cx="2669.2" cy="3315.1" r="10.5"/>
				<circle class="st18" cx="2669.3" cy="3254.2" r="10.5"/>
				<circle class="st18" cx="2669.4" cy="3193.2" r="10.5"/>
				<circle class="st18" cx="2669.6" cy="3132.2" r="10.5"/>
				<circle class="st18" cx="2669.7" cy="3071.3" r="10.5"/>
				<circle class="st18" cx="2669.8" cy="3010.3" r="10.5"/>
				<circle class="st18" cx="2669.9" cy="2949.4" r="10.5"/>
				<circle class="st18" cx="2670.1" cy="2888.4" r="10.5"/>
				<circle class="st18" cx="2670.2" cy="2827.5" r="10.5"/>
				<circle class="st18" cx="2729.3" cy="3680.8" r="10.5"/>
				<circle class="st18" cx="2729.5" cy="3619.9" r="10.5"/>
				<circle class="st18" cx="2729.6" cy="3558.9" r="10.5"/>
				<circle class="st18" cx="2729.7" cy="3498" r="10.5"/>
				<circle class="st18" cx="2729.8" cy="3437" r="10.5"/>
				<circle class="st18" cx="2729.9" cy="3376.1" r="10.5"/>
				<circle class="st18" cx="2730.1" cy="3315.1" r="10.5"/>
				<circle class="st18" cx="2730.2" cy="3254.2" r="10.5"/>
				<circle class="st18" cx="2730.3" cy="3193.2" r="10.5"/>
				<circle class="st18" cx="2730.4" cy="3132.2" r="10.5"/>
				<circle class="st18" cx="2730.6" cy="3071.3" r="10.5"/>
				<circle class="st18" cx="2730.7" cy="3010.3" r="10.5"/>
				<circle class="st18" cx="2730.8" cy="2949.4" r="10.5"/>
				<circle class="st18" cx="2730.9" cy="2888.4" r="10.5"/>
				<circle class="st18" cx="2731" cy="2827.5" r="10.5"/>
				<circle class="st18" cx="2791.1" cy="3254.2" r="10.5"/>
				<circle class="st18" cx="2852" cy="3254.3" r="10.5"/>
				<circle class="st18" cx="2790.2" cy="3680.8" r="10.5"/>
				<circle class="st18" cx="2790.3" cy="3619.9" r="10.5"/>
				<circle class="st18" cx="2790.5" cy="3558.9" r="10.5"/>
				<circle class="st18" cx="2790.6" cy="3498" r="10.5"/>
				<circle class="st18" cx="2790.7" cy="3437" r="10.5"/>
				<circle class="st18" cx="2790.8" cy="3376.1" r="10.5"/>
				<circle class="st18" cx="2790.9" cy="3315.1" r="10.5"/>
				<circle class="st18" cx="2791.1" cy="3254.2" r="10.5"/>
				<circle class="st18" cx="2791.2" cy="3193.2" r="10.5"/>
				<circle class="st18" cx="2791.3" cy="3132.2" r="10.5"/>
				<circle class="st18" cx="2791.4" cy="3071.3" r="10.5"/>
				<circle class="st18" cx="2791.6" cy="3010.3" r="10.5"/>
				<circle class="st18" cx="2791.7" cy="2949.4" r="10.5"/>
				<circle class="st18" cx="2791.8" cy="2888.4" r="10.5"/>
				<circle class="st18" cx="2791.9" cy="2827.5" r="10.5"/>
				<circle class="st18" cx="2851.1" cy="3680.8" r="10.5"/>
				<circle class="st18" cx="2851.2" cy="3619.9" r="10.5"/>
				<circle class="st18" cx="2851.3" cy="3558.9" r="10.5"/>
				<circle class="st18" cx="2851.5" cy="3498" r="10.5"/>
				<circle class="st18" cx="2851.6" cy="3437" r="10.5"/>
				<circle class="st18" cx="2851.7" cy="3376.1" r="10.5"/>
				<circle class="st18" cx="2851.8" cy="3315.1" r="10.5"/>
				<circle class="st18" cx="2851.9" cy="3254.2" r="10.5"/>
				<circle class="st18" cx="2852.1" cy="3193.2" r="10.5"/>
				<circle class="st18" cx="2852.2" cy="3132.2" r="10.5"/>
				<circle class="st18" cx="2852.3" cy="3071.3" r="10.5"/>
				<circle class="st18" cx="2852.4" cy="3010.3" r="10.5"/>
				<circle class="st18" cx="2852.6" cy="2949.4" r="10.5"/>
				<circle class="st18" cx="2852.7" cy="2888.4" r="10.5"/>
				<circle class="st18" cx="2852.8" cy="2827.5" r="10.5"/>
				<circle class="st18" cx="2912.8" cy="3254.2" r="10.5"/>
				<circle class="st18" cx="2973.8" cy="3254.3" r="10.5"/>
				<circle class="st18" cx="2912" cy="3680.8" r="10.5"/>
				<circle class="st18" cx="2912.1" cy="3619.9" r="10.5"/>
				<circle class="st18" cx="2912.2" cy="3558.9" r="10.5"/>
				<circle class="st18" cx="2912.3" cy="3498" r="10.5"/>
				<circle class="st18" cx="2912.4" cy="3437" r="10.5"/>
				<circle class="st18" cx="2912.6" cy="3376.1" r="10.5"/>
				<circle class="st18" cx="2912.7" cy="3315.1" r="10.5"/>
				<circle class="st18" cx="2912.8" cy="3254.2" r="10.5"/>
				<circle class="st18" cx="2912.9" cy="3193.2" r="10.5"/>
				<circle class="st18" cx="2913.1" cy="3132.2" r="10.5"/>
				<circle class="st18" cx="2913.2" cy="3071.3" r="10.5"/>
				<circle class="st18" cx="2913.3" cy="3010.3" r="10.5"/>
				<circle class="st18" cx="2913.4" cy="2949.4" r="10.5"/>
				<circle class="st18" cx="2913.6" cy="2888.4" r="10.5"/>
				<circle class="st18" cx="2913.7" cy="2827.5" r="10.5"/>
				<circle class="st18" cx="2972.8" cy="3680.8" r="10.5"/>
				<circle class="st18" cx="2973" cy="3619.9" r="10.5"/>
				<circle class="st18" cx="2973.1" cy="3558.9" r="10.5"/>
				<circle class="st18" cx="2973.2" cy="3498" r="10.5"/>
				<circle class="st18" cx="2973.3" cy="3437" r="10.5"/>
				<circle class="st18" cx="2973.4" cy="3376.1" r="10.5"/>
				<circle class="st18" cx="2973.6" cy="3315.1" r="10.5"/>
				<circle class="st18" cx="2973.7" cy="3254.2" r="10.5"/>
				<circle class="st18" cx="2973.8" cy="3193.2" r="10.5"/>
				<circle class="st18" cx="2973.9" cy="3132.2" r="10.5"/>
				<circle class="st18" cx="2974.1" cy="3071.3" r="10.5"/>
				<circle class="st18" cx="2974.2" cy="3010.3" r="10.5"/>
				<circle class="st18" cx="2974.3" cy="2949.4" r="10.5"/>
				<circle class="st18" cx="2974.4" cy="2888.4" r="10.5"/>
				<circle class="st18" cx="2974.6" cy="2827.5" r="10.5"/>
				<circle class="st18" cx="2973.7" cy="3254.2" r="10.5"/>
				<circle class="st18" cx="3034.6" cy="3254.3" r="10.5"/>
				<circle class="st18" cx="2972.8" cy="3680.8" r="10.5"/>
				<circle class="st18" cx="2973" cy="3619.9" r="10.5"/>
				<circle class="st18" cx="2973.1" cy="3558.9" r="10.5"/>
				<circle class="st18" cx="2973.2" cy="3498" r="10.5"/>
				<circle class="st18" cx="2973.3" cy="3437" r="10.5"/>
				<circle class="st18" cx="2973.4" cy="3376.1" r="10.5"/>
				<circle class="st18" cx="2973.6" cy="3315.1" r="10.5"/>
				<circle class="st18" cx="2973.7" cy="3254.2" r="10.5"/>
				<circle class="st18" cx="2973.8" cy="3193.2" r="10.5"/>
				<circle class="st18" cx="2973.9" cy="3132.2" r="10.5"/>
				<circle class="st18" cx="2974.1" cy="3071.3" r="10.5"/>
				<circle class="st18" cx="2974.2" cy="3010.3" r="10.5"/>
				<circle class="st18" cx="2974.3" cy="2949.4" r="10.5"/>
				<circle class="st18" cx="2974.4" cy="2888.4" r="10.5"/>
				<circle class="st18" cx="2974.6" cy="2827.5" r="10.5"/>
				<circle class="st18" cx="3033.7" cy="3680.8" r="10.5"/>
				<circle class="st18" cx="3033.8" cy="3619.9" r="10.5"/>
				<circle class="st18" cx="3034" cy="3558.9" r="10.5"/>
				<circle class="st18" cx="3034.1" cy="3498" r="10.5"/>
				<circle class="st18" cx="3034.2" cy="3437" r="10.5"/>
				<circle class="st18" cx="3034.3" cy="3376.1" r="10.5"/>
				<circle class="st18" cx="3034.4" cy="3315.1" r="10.5"/>
				<circle class="st18" cx="3034.6" cy="3254.2" r="10.5"/>
				<circle class="st18" cx="3034.7" cy="3193.2" r="10.5"/>
				<circle class="st18" cx="3034.8" cy="3132.2" r="10.5"/>
				<circle class="st18" cx="3034.9" cy="3071.3" r="10.5"/>
				<circle class="st18" cx="3035.1" cy="3010.3" r="10.5"/>
				<circle class="st18" cx="3035.2" cy="2949.4" r="10.5"/>
				<circle class="st18" cx="3035.3" cy="2888.4" r="10.5"/>
				<circle class="st18" cx="3035.4" cy="2827.5" r="10.5"/>
				<circle class="st18" cx="3095.4" cy="3254.2" r="10.5"/>
				<circle class="st18" cx="3156.4" cy="3254.3" r="10.5"/>
				<circle class="st18" cx="3094.6" cy="3680.8" r="10.5"/>
				<circle class="st18" cx="3094.7" cy="3619.9" r="10.5"/>
				<circle class="st18" cx="3094.8" cy="3558.9" r="10.5"/>
				<circle class="st18" cx="3095" cy="3498" r="10.5"/>
				<circle class="st18" cx="3095.1" cy="3437" r="10.5"/>
				<circle class="st18" cx="3095.2" cy="3376.1" r="10.5"/>
				<circle class="st18" cx="3095.3" cy="3315.1" r="10.5"/>
				<circle class="st18" cx="3095.4" cy="3254.2" r="10.5"/>
				<circle class="st18" cx="3095.6" cy="3193.2" r="10.5"/>
				<circle class="st18" cx="3095.7" cy="3132.2" r="10.5"/>
				<circle class="st18" cx="3095.8" cy="3071.3" r="10.5"/>
				<circle class="st18" cx="3095.9" cy="3010.3" r="10.5"/>
				<circle class="st18" cx="3096.1" cy="2949.4" r="10.5"/>
				<circle class="st18" cx="3096.2" cy="2888.4" r="10.5"/>
				<circle class="st18" cx="3096.3" cy="2827.5" r="10.5"/>
				<circle class="st18" cx="3155.5" cy="3680.8" r="10.5"/>
				<circle class="st18" cx="3155.6" cy="3619.9" r="10.5"/>
				<circle class="st18" cx="3155.7" cy="3558.9" r="10.5"/>
				<circle class="st18" cx="3155.8" cy="3498" r="10.5"/>
				<circle class="st18" cx="3156" cy="3437" r="10.5"/>
				<circle class="st18" cx="3156.1" cy="3376.1" r="10.5"/>
				<circle class="st18" cx="3156.2" cy="3315.1" r="10.5"/>
				<circle class="st18" cx="3156.3" cy="3254.2" r="10.5"/>
				<circle class="st18" cx="3156.4" cy="3193.2" r="10.5"/>
				<circle class="st18" cx="3156.6" cy="3132.2" r="10.5"/>
				<circle class="st18" cx="3156.7" cy="3071.3" r="10.5"/>
				<circle class="st18" cx="3156.8" cy="3010.3" r="10.5"/>
				<circle class="st18" cx="3156.9" cy="2949.4" r="10.5"/>
				<circle class="st18" cx="3157.1" cy="2888.4" r="10.5"/>
				<circle class="st18" cx="3157.2" cy="2827.5" r="10.5"/>
				<circle class="st18" cx="3217.2" cy="3254.2" r="10.5"/>
				<circle class="st18" cx="3278.2" cy="3254.3" r="10.5"/>
				<circle class="st18" cx="3216.3" cy="3680.8" r="10.5"/>
				<circle class="st18" cx="3216.5" cy="3619.9" r="10.5"/>
				<circle class="st18" cx="3216.6" cy="3558.9" r="10.5"/>
				<circle class="st18" cx="3216.7" cy="3498" r="10.5"/>
				<circle class="st18" cx="3216.8" cy="3437" r="10.5"/>
				<circle class="st18" cx="3217" cy="3376.1" r="10.5"/>
				<circle class="st18" cx="3217.1" cy="3315.1" r="10.5"/>
				<circle class="st18" cx="3217.2" cy="3254.2" r="10.5"/>
				<circle class="st18" cx="3217.3" cy="3193.2" r="10.5"/>
				<circle class="st18" cx="3217.4" cy="3132.2" r="10.5"/>
				<circle class="st18" cx="3217.6" cy="3071.3" r="10.5"/>
				<circle class="st18" cx="3217.7" cy="3010.3" r="10.5"/>
				<circle class="st18" cx="3217.8" cy="2949.4" r="10.5"/>
				<circle class="st18" cx="3217.9" cy="2888.4" r="10.5"/>
				<circle class="st18" cx="3218.1" cy="2827.5" r="10.5"/>
				<circle class="st18" cx="3277.2" cy="3680.8" r="10.5"/>
				<circle class="st18" cx="3277.3" cy="3619.9" r="10.5"/>
				<circle class="st18" cx="3277.5" cy="3558.9" r="10.5"/>
				<circle class="st18" cx="3277.6" cy="3498" r="10.5"/>
				<circle class="st18" cx="3277.7" cy="3437" r="10.5"/>
				<circle class="st18" cx="3277.8" cy="3376.1" r="10.5"/>
				<circle class="st18" cx="3278" cy="3315.1" r="10.5"/>
				<circle class="st18" cx="3278.1" cy="3254.2" r="10.5"/>
				<circle class="st18" cx="3278.2" cy="3193.2" r="10.5"/>
				<circle class="st18" cx="3278.3" cy="3132.2" r="10.5"/>
				<circle class="st18" cx="3278.4" cy="3071.3" r="10.5"/>
				<circle class="st18" cx="3278.6" cy="3010.3" r="10.5"/>
				<circle class="st18" cx="3278.7" cy="2949.4" r="10.5"/>
				<circle class="st18" cx="3278.8" cy="2888.4" r="10.5"/>
				<circle class="st18" cx="3278.9" cy="2827.5" r="10.5"/>
			</g>
		</g>
	</g>
	<circle class="st15" cx="3157.1" cy="3267.4" r="269.9"/>
</g>
<g>
	<linearGradient id="SVGID_5_" gradientUnits="userSpaceOnUse" x1="441.6094" y1="323.9426" x2="441.6094" y2="3467.3179">
		<stop  offset="0" style="stop-color:#F5F5F5;stop-opacity:0"/>
		<stop  offset="0.3735" style="stop-color:#F5F5F5"/>
		<stop  offset="1" style="stop-color:#F5F5F5"/>
	</linearGradient>
	<line class="st19" x1="441.6" y1="3467.3" x2="441.6" y2="323.9"/>
	<g>
		<path class="st20" d="M442.1,3487.2c-5.5,0-9.9-4.4-9.9-9.9v-10.6c0-5.5,4.4-9.9,9.9-9.9c5.5,0,9.9,4.4,9.9,9.9v10.6
			C452,3482.7,447.6,3487.2,442.1,3487.2z"/>
		<path class="st21" d="M442.1,3467.3c-17.2,0-31.2,14-31.2,31.2v21.2c0,5.5,4.4,9.9,9.9,9.9h21.2v0h21.2c4.1,0,7.6-2.5,9.1-6.1
			c0.5-1.2,0.8-2.5,0.8-3.9v-21.2C473.3,3481.3,459.3,3467.3,442.1,3467.3z"/>
		<path class="st22" d="M574.5,3615.5c-0.3-0.5-0.6-1-0.9-1.5c-0.6-1-1.3-1.9-1.9-2.8c-0.7-0.9-1.3-1.8-2.1-2.7
			c-13.1-16.6-33.4-27.3-56.1-27.3h0h-71.4h-71.4c-39.4,0-71.4,32-71.4,71.4c0,78.8,63.9,142.7,142.7,142.7c2.5,0,4.9-0.1,7.3-0.2
			c2.4-0.1,4.8-0.3,7.2-0.6c4.8-0.5,9.5-1.2,14.2-2.2c3.5-0.7,6.9-1.6,10.3-2.5c1.1-0.3,2.3-0.7,3.4-1
			c58.1-18.1,100.3-72.3,100.3-136.3C584.9,3639,581.1,3626.3,574.5,3615.5z"/>
		<path class="st6" d="M299.4,3652.5c0-15.8,12.8-28.5,28.5-28.5s28.5,12.8,28.5,28.5s12.8,28.5,28.5,28.5s28.5-12.8,28.5-28.5
			c0-15.8,12.8-28.5,28.5-28.5s28.5,12.8,28.5,28.5s12.8,28.5,28.5,28.5c15.8,0,28.5-12.8,28.5-28.5c0-15.8,12.8-28.5,28.5-28.5
			c15.8,0,28.5,12.8,28.5,28.5c0-78.8-63.9-142.7-142.7-142.7C363.3,3509.8,299.4,3573.7,299.4,3652.5L299.4,3652.5z"/>
	</g>
</g>
<linearGradient id="SVGID_6_" gradientUnits="userSpaceOnUse" x1="240.4995" y1="855.9492" x2="240.4995" y2="2835.0095">
	<stop  offset="0" style="stop-color:#F5F5F5;stop-opacity:0"/>
	<stop  offset="0.6392" style="stop-color:#F5F5F5"/>
	<stop  offset="1" style="stop-color:#F5F5F5"/>
</linearGradient>
<line class="st23" x1="240.5" y1="2835" x2="240.5" y2="855.9"/>
<g>
	<g>
		<path class="st20" d="M240.5,2859.2c-4.4,0-7.9-3.5-7.9-7.9v-8.4c0-4.4,3.5-7.9,7.9-7.9s7.9,3.5,7.9,7.9v8.4
			C248.4,2855.7,244.9,2859.2,240.5,2859.2z"/>
		<path class="st21" d="M240.5,2843.5c-13.7,0-24.8,11.1-24.8,24.8v16.9c0,4.4,3.5,7.9,7.9,7.9h16.9v0h16.9c3.3,0,6.1-2,7.3-4.8
			c0.4-0.9,0.6-2,0.6-3.1v-16.9C265.3,2854.6,254.2,2843.5,240.5,2843.5z"/>
	</g>
	<g>
		<circle class="st24" cx="240.5" cy="2988.1" r="111.3"/>
		<path class="st25" d="M334.4,2928.4c-0.5-0.7-0.9-1.4-1.4-2.1l-7.3-7.3c-1.4-1.4-3.3-2.2-5.3-2.2c-2,0-3.9,0.8-5.3,2.2l-10.7,10.7
			l-10.7-10.7c-1.4-1.4-3.3-2.2-5.3-2.2s-3.9,0.8-5.3,2.2l-10.7,10.7l-10.7-10.7c-1.4-1.4-3.3-2.2-5.3-2.2c-2,0-3.9,0.8-5.3,2.2
			l-10.7,10.7l-10.7-10.7c-1.4-1.4-3.3-2.2-5.3-2.2c-2,0-3.9,0.8-5.3,2.2l-10.7,10.7l-10.7-10.7c-1.4-1.4-3.3-2.2-5.3-2.2
			c-2,0-3.9,0.8-5.3,2.2l-10.7,10.7l-10.7-10.7c-1.4-1.4-3.3-2.2-5.3-2.2c-2,0-3.9,0.8-5.3,2.2l-7.4,7.3c-3.8,5.7-7.1,11.7-9.8,18
			l1.2,1.2c1.4,1.4,3.3,2.2,5.3,2.2c2,0,3.9-0.8,5.3-2.2l10.7-10.7l10.7,10.7c1.4,1.4,3.3,2.2,5.3,2.2c2,0,3.9-0.8,5.3-2.2
			l10.7-10.7l10.7,10.7c1.4,1.4,3.3,2.2,5.3,2.2c2,0,3.9-0.8,5.3-2.2l10.7-10.7l10.7,10.7c1.5,1.5,3.4,2.2,5.3,2.2c0,0,0,0,0,0l0,0
			c1.9,0,3.8-0.7,5.3-2.2l10.7-10.7l10.7,10.7c1.4,1.4,3.3,2.2,5.3,2.2c0,0,0,0,0,0c0,0,0,0,0,0c2,0,3.9-0.8,5.3-2.2l10.7-10.7
			l10.7,10.7c1.4,1.4,3.3,2.2,5.3,2.2c0,0,0,0,0,0c0,0,0,0,0,0c2,0,3.9-0.8,5.3-2.2l10.7-10.7l10.7,10.7c1.4,1.4,3.3,2.2,5.3,2.2
			c0,0,0,0,0,0c0,0,0,0,0,0c2,0,3.9-0.8,5.3-2.2l1.2-1.2C340.4,2938.7,337.6,2933.4,334.4,2928.4z"/>
		<path class="st25" d="M341.6,3030.7c-1.4-1.4-3.3-2.2-5.3-2.2c-0.2,0-0.5,0-0.7,0c-1.7,0.2-3.3,0.9-4.5,2.1l-5.3,5.3l-5.3,5.3
			l-5.3-5.3l-5.3-5.3c-1.2-1.2-2.8-2-4.5-2.1c-0.2,0-0.5,0-0.7,0c-1,0-2,0.2-2.9,0.6c-0.4,0.2-0.9,0.4-1.3,0.7
			c-0.4,0.3-0.8,0.6-1.1,0.9l-10.7,10.7l-10.7-10.7c-1.4-1.4-3.3-2.2-5.3-2.2c-0.2,0-0.5,0-0.7,0c-1.7,0.2-3.3,0.9-4.5,2.1l-5.3,5.3
			l-5.3,5.3l-5.3-5.3l-5.3-5.3c-0.4-0.4-0.8-0.7-1.2-1c-0.2-0.1-0.4-0.3-0.6-0.4c-0.4-0.2-0.9-0.4-1.3-0.5c-0.7-0.2-1.4-0.3-2.1-0.3
			c-1.9,0-3.8,0.7-5.3,2.2l-10.7,10.7l-10.7-10.7c-1.4-1.4-3.3-2.2-5.3-2.2c-2,0-3.9,0.8-5.3,2.2l-10.7,10.7l-10.7-10.7
			c-1.4-1.4-3.3-2.2-5.3-2.2c-2,0-3.9,0.8-5.3,2.2l-10.7,10.7l-10.7-10.7c-1.4-1.4-3.3-2.2-5.3-2.2c-2,0-3.9,0.8-5.3,2.2l-1.2,1.2
			c2.7,6.3,6,12.3,9.8,18l7.3,7.3c1.4,1.4,3.3,2.2,5.3,2.2c2,0,3.9-0.8,5.3-2.2l10.7-10.7l10.7,10.7c1.4,1.4,3.3,2.2,5.3,2.2
			c2,0,3.9-0.8,5.3-2.2l10.7-10.7l10.7,10.7c1.4,1.4,3.3,2.2,5.3,2.2c2,0,3.9-0.8,5.3-2.2l10.7-10.7l10.7,10.7
			c1.4,1.4,3.3,2.2,5.3,2.2c0,0,0,0,0,0s0,0,0,0c2,0,3.9-0.8,5.3-2.2l10.7-10.7l10.7,10.7c1.4,1.4,3.3,2.2,5.3,2.2c0,0,0,0,0,0
			s0,0,0,0c2,0,3.9-0.8,5.3-2.2l10.7-10.7l10.7,10.7c1.4,1.4,3.3,2.2,5.3,2.2c0,0,0,0,0,0s0,0,0,0c2,0,3.9-0.8,5.3-2.2l7.3-7.3
			c3.8-5.7,7.1-11.7,9.8-18L341.6,3030.7z"/>
	</g>
</g>
<linearGradient id="SVGID_7_" gradientUnits="userSpaceOnUse" x1="3036.3" y1="21.3832" x2="3036.3" y2="2542.1594">
	<stop  offset="0" style="stop-color:#F5F5F5;stop-opacity:0"/>
	<stop  offset="0.6392" style="stop-color:#F5F5F5"/>
	<stop  offset="1" style="stop-color:#F5F5F5"/>
</linearGradient>
<line class="st26" x1="3036.3" y1="2542.2" x2="3036.3" y2="21.4"/>
<g>
	<g>
		<path class="st20" d="M3036.3,2516.6c-6.3,0-11.5-5.1-11.5-11.5v-12.3c0-6.3,5.1-11.5,11.5-11.5s11.5,5.1,11.5,11.5v12.3
			C3047.8,2511.4,3042.6,2516.6,3036.3,2516.6z"/>
		<path class="st21" d="M3036.3,2493.6c-19.9,0-36.1,16.2-36.1,36.1v24.6c0,6.3,5.1,11.5,11.5,11.5h24.6v0h24.6
			c4.8,0,8.8-2.9,10.6-7c0.6-1.4,0.9-2.9,0.9-4.5v-24.6C3072.4,2509.8,3056.2,2493.6,3036.3,2493.6z"/>
	</g>
	<g>
		<circle class="st7" cx="3036.3" cy="2704.1" r="161.9"/>
		<path class="st27" d="M3172.9,2617.2c-0.7-1-1.3-2.1-2-3.1l-10.7-10.7c-2-2-4.8-3.2-7.7-3.2s-5.6,1.1-7.7,3.2l-15.6,15.6
			l-15.6-15.6c-2-2-4.8-3.2-7.7-3.2s-5.6,1.1-7.7,3.2l-15.6,15.6l-15.6-15.6c-2-2-4.8-3.2-7.7-3.2s-5.6,1.1-7.7,3.2l-15.6,15.6
			l-15.6-15.6c-2-2-4.8-3.2-7.7-3.2s-5.6,1.1-7.7,3.2l-15.6,15.6l-15.6-15.6c-2-2-4.8-3.2-7.7-3.2s-5.6,1.1-7.7,3.2l-15.6,15.6
			l-15.6-15.6c-2-2-4.8-3.2-7.7-3.2s-5.6,1.1-7.7,3.2l-10.7,10.7c-5.5,8.2-10.3,17-14.3,26.2l1.7,1.7c2,2,4.8,3.2,7.7,3.2
			s5.6-1.1,7.7-3.2l15.6-15.6l15.6,15.6c2,2,4.8,3.2,7.7,3.2c2.9,0,5.6-1.1,7.7-3.2l15.6-15.6l15.6,15.6c2,2,4.8,3.2,7.7,3.2
			s5.6-1.1,7.7-3.2l15.6-15.6l15.6,15.6c2.1,2.1,4.9,3.2,7.7,3.2c0,0,0,0,0,0v0c2.8,0,5.6-1.1,7.7-3.2l15.6-15.6l15.6,15.6
			c2,2,4.8,3.2,7.7,3.2c0,0,0,0,0,0c0,0,0,0,0,0c2.9,0,5.6-1.1,7.7-3.2l15.6-15.6l15.6,15.6c2,2,4.8,3.2,7.7,3.2c0,0,0,0,0,0
			c0,0,0,0,0,0c2.9,0,5.6-1.1,7.7-3.2l15.6-15.6l15.6,15.6c2,2,4.8,3.2,7.7,3.2c0,0,0,0,0,0c0,0,0,0,0,0c2.9,0,5.6-1.1,7.7-3.2
			l1.7-1.7C3181.7,2632.3,3177.6,2624.6,3172.9,2617.2z"/>
		<path class="st27" d="M3183.4,2766.1c-2-2-4.8-3.2-7.7-3.2c-0.4,0-0.7,0-1.1,0.1c-2.5,0.2-4.8,1.3-6.6,3.1l-7.8,7.8l-7.8,7.8
			l-7.8-7.8l-7.8-7.8c-1.8-1.8-4.1-2.9-6.6-3.1c-0.4,0-0.7-0.1-1.1-0.1c-1.4,0-2.8,0.3-4.2,0.8c-0.7,0.3-1.3,0.6-1.9,1
			c-0.6,0.4-1.1,0.8-1.7,1.4l-15.6,15.6l-15.6-15.6c-2-2-4.8-3.2-7.7-3.2c-0.4,0-0.7,0-1.1,0.1c-2.5,0.2-4.8,1.3-6.6,3.1l-7.8,7.8
			l-7.8,7.8l-7.8-7.8l-7.8-7.8c-0.5-0.5-1.1-1-1.7-1.4c-0.3-0.2-0.6-0.4-0.9-0.5c-0.6-0.3-1.3-0.6-2-0.8c-1-0.3-2-0.4-3.1-0.4
			c-2.8,0-5.6,1.1-7.7,3.2l-15.6,15.6l-15.6-15.6c-2-2-4.8-3.2-7.7-3.2s-5.6,1.1-7.7,3.2l-15.6,15.6l-15.6-15.6
			c-2-2-4.8-3.2-7.7-3.2s-5.6,1.1-7.7,3.2l-15.6,15.6l-15.6-15.6c-2-2-4.8-3.2-7.7-3.2c-2.9,0-5.6,1.1-7.7,3.2l-1.7,1.7
			c4,9.2,8.7,18,14.3,26.2l10.7,10.7c2,2,4.8,3.2,7.7,3.2s5.6-1.1,7.7-3.2l15.6-15.6l15.6,15.6c2,2,4.8,3.2,7.7,3.2
			c2.9,0,5.6-1.1,7.7-3.2l15.6-15.6l15.6,15.6c2,2,4.8,3.2,7.7,3.2s5.6-1.1,7.7-3.2l15.6-15.6l15.6,15.6c2,2,4.8,3.2,7.7,3.2
			c0,0,0,0,0,0s0,0,0,0c2.9,0,5.6-1.1,7.7-3.2l15.6-15.6l15.6,15.6c2,2,4.8,3.2,7.7,3.2c0,0,0,0,0,0s0,0,0,0c2.9,0,5.6-1.1,7.7-3.2
			l15.6-15.6l15.6,15.6c2,2,4.8,3.2,7.7,3.2c0,0,0,0,0,0c0,0,0,0,0,0c2.9,0,5.6-1.1,7.7-3.2l10.7-10.7c5.5-8.2,10.3-17,14.3-26.2
			L3183.4,2766.1z"/>
	</g>
</g>
<path class="st28" d="M489.8,680.3L479.2,659l20.6,1c3.8,0.2,7.1-2.8,7.2-6.7c0.2-3.8-2.8-7.1-6.7-7.2l-28.5-1.4l-19.1-38.2
	l42.7,2.6l12.5,25.7c0.7,1.2,1.4,2.1,2.5,2.8c2,1.3,4.5,1.5,6.8,0.5c3.5-1.7,4.9-5.9,3.3-9.3l-9.1-18.7l23.7,1.4
	c3.8,0.2,7.1-2.8,7.4-6.4c0.2-3.8-2.8-7.1-6.4-7.4l-23.7-1.4l11.3-17.3c2.1-3.1,1.2-7.5-2-9.5c-3.1-2.1-7.5-1.2-9.5,2l-15.6,23.9
	l-42.7-2.6l23.6-35.8l28.6,2.1c3.8,0.3,7.3-2.7,7.4-6.4c0.3-3.8-2.7-7.3-6.4-7.4l-20.5-1.4l13.1-19.8c2.1-3.1,1.2-7.5-2-9.6
	s-7.5-1.2-9.6,2l-13.1,19.8l-9.4-18.3c-1.8-3.3-5.9-4.9-9.3-3c-3.3,1.8-4.9,5.9-3,9.3l13.1,25.4l-23.6,35.8l-19.1-38.2l15.9-23.8
	c2.1-3.1,1.3-7.5-1.9-9.5l0,0c-3.1-2.1-7.5-1.3-9.5,1.9L416.5,533l-10.6-21.3c-1.7-3.5-5.9-4.9-9.3-3c-3.5,1.7-4.9,5.9-3,9.3
	l10.6,21.3l-20.7-1.1c-3.8-0.2-7.1,2.8-7.2,6.7c-0.2,2.5,1.2,4.8,3.1,6.1c1,0.7,2.2,1,3.5,1.2l28.5,1.4l19.1,38.2l-42.7-2.6
	l-12.5-25.7c-1.6-3.4-5.9-4.9-9.3-3.3c-3.5,1.7-4.9,5.9-3.3,9.3l9.1,18.7l-23.7-1.4c-3.8-0.2-7.1,2.8-7.4,6.4
	c-0.2,2.5,1.2,4.8,3.1,6.1c1,0.7,2,1.2,3.3,1l23.7,1.4L359.7,619c-2.1,3.1-1.1,7.4,2,9.5l0,0c3.1,2.1,7.5,1.2,9.5-2l15.6-23.9
	l42.7,2.6l-23.6,35.8l-28.6-2.1c-3.8-0.3-7.3,2.7-7.4,6.4c-0.2,2.5,1,5,3,6.3c1,0.7,2,1.2,3.2,1.1l20.5,1.4l-13.1,19.8
	c-2.1,3.1-1.2,7.5,2,9.6s7.5,1.2,9.6-2l13.1-19.8l9.4,18.3c0.5,1,1.4,1.9,2.3,2.5c2,1.3,4.6,1.6,7,0.3c3.3-1.8,4.9-5.9,3-9.3
	l-13.1-25.4l23.6-35.8l19.1,38.2l-15.9,23.8c-2.1,3.1-1.3,7.5,1.9,9.5l0,0c3.1,2.1,7.5,1.3,9.5-1.9l11.5-17.2l10.6,21.3
	c0.5,1,1.3,2,2.2,2.6c2,1.3,4.6,1.6,6.8,0.5C490,687.8,491.4,683.7,489.8,680.3z"/>
<path class="st28" d="M722.5,3372.8l6.7-22.8l14.4,14.8c2.7,2.8,7.1,2.8,9.9,0c2.8-2.7,2.8-7.1,0-9.9l-20-20.4l12-41l29.5,30.9
	l-8.3,27.3c-0.2,1.3-0.4,2.5-0.1,3.7c0.6,2.3,2.3,4.2,4.6,5c3.7,1.1,7.6-1,8.7-4.6l6-19.9l16.4,17.1c2.7,2.8,7.1,2.8,9.8,0.3
	c2.8-2.7,2.8-7.1,0.3-9.8l-16.4-17.1l20-5c3.6-0.9,6-4.7,5-8.3c-0.9-3.6-4.7-6-8.3-5l-27.7,6.9l-29.5-30.9l41.6-10.1l19.5,20.9
	c2.5,2.8,7.1,3,9.8,0.3c2.8-2.5,3-7.1,0.3-9.8l-14.1-15l23-5.6c3.6-0.9,6-4.7,5.1-8.4s-4.7-6-8.4-5.1l-23,5.6l5.6-19.8
	c1-3.7-1-7.6-4.8-8.5c-3.7-1-7.6,1-8.5,4.8l-7.7,27.6l-41.6,10.1l12-41l27.8-6.6c3.6-0.9,6-4.6,5.1-8.2l0,0c-0.9-3.6-4.6-6-8.2-5.1
	L769,3215l6.7-22.8c1.1-3.7-1-7.6-4.8-8.5c-3.7-1.1-7.6,1-8.5,4.8l-6.7,22.8l-14.5-14.9c-2.7-2.8-7.1-2.8-9.9,0
	c-1.9,1.7-2.4,4.3-1.8,6.6c0.3,1.2,1,2.2,1.8,3.3l20,20.4l-12,41l-29.5-30.9l8.3-27.3c1.1-3.6-1-7.6-4.6-8.7c-3.7-1.1-7.6,1-8.7,4.6
	l-6,19.9l-16.4-17.1c-2.7-2.8-7.1-2.8-9.8-0.3c-1.9,1.7-2.4,4.3-1.8,6.6c0.3,1.2,0.7,2.3,1.7,3l16.4,17.1l-20,5
	c-3.6,0.9-5.8,4.7-5,8.3l0,0c0.9,3.6,4.7,6,8.3,5l27.7-6.9l29.5,30.9l-41.6,10.1l-19.5-20.9c-2.5-2.8-7.1-3-9.8-0.3
	c-1.9,1.7-2.7,4.4-2.1,6.6c0.3,1.2,0.7,2.3,1.6,3l14.1,15l-23,5.6c-3.6,0.9-6,4.7-5.1,8.4c0.9,3.6,4.7,6,8.4,5.1l23-5.6l-5.6,19.8
	c-0.3,1.1-0.3,2.4,0,3.4c0.6,2.3,2.3,4.3,4.9,4.9c3.7,1,7.6-1,8.5-4.8l7.7-27.6l41.6-10.1l-12,41l-27.8,6.6c-3.6,0.9-6,4.6-5.1,8.2
	l0,0c0.9,3.6,4.6,6,8.2,5.1l20.1-4.8l-6.7,22.8c-0.3,1.1-0.4,2.4-0.2,3.5c0.6,2.3,2.3,4.3,4.6,5
	C717.5,3378.4,721.3,3376.3,722.5,3372.8z"/>
<path class="st18" d="M2448.7,531.6l-20-24.6l27.2-4.8c5.1-0.9,8.5-5.7,7.5-10.9c-0.9-5.1-5.7-8.5-10.9-7.5l-37.6,6.6l-36.2-44.3
	l56.4-9.2l23.8,29.9c1.3,1.3,2.5,2.3,4.1,2.9c2.9,1.1,6.3,0.6,9-1.3c4-3.2,4.7-9.1,1.6-13.1l-17.4-21.7l31.3-5.2
	c5.1-0.9,8.5-5.7,7.8-10.5c-0.9-5.1-5.7-8.5-10.5-7.8l-31.3,5.2l9.6-25.9c1.8-4.7-0.7-10.2-5.5-11.8c-4.7-1.8-10.2,0.7-11.8,5.5
	l-13.4,35.8l-56.4,9.2l20.3-53.6l37.9-5.7c5-0.7,8.7-5.6,7.8-10.5c-0.7-5-5.6-8.7-10.5-7.8l-27.2,4.2l11.2-29.7
	c1.8-4.7-0.7-10.2-5.4-12c-4.7-1.8-10.2,0.7-12,5.4l-11.2,29.7l-17.6-21.1c-3.3-3.8-9.1-4.7-13-1.2c-3.8,3.3-4.7,9.1-1.2,13
	l24.6,29.4l-20.3,53.6l-36.2-44.3l13.7-35.7c1.8-4.7-0.5-10.1-5.2-11.9l0,0c-4.7-1.8-10.1,0.5-11.9,5.2l-10,25.8l-20-24.6
	c-3.2-4-9.1-4.7-13-1.2c-4,3.2-4.7,9.1-1.2,13l20,24.6l-27.4,4.7c-5.1,0.9-8.5,5.7-7.5,10.9c0.5,3.4,2.9,5.9,5.9,7
	c1.6,0.6,3.1,0.6,5,0.5l37.6-6.6l36.2,44.3l-56.4,9.2l-23.8-29.9c-3.1-3.9-9.1-4.7-13.1-1.6c-4,3.2-4.7,9.1-1.6,13.1l17.4,21.7
	l-31.3,5.2c-5.1,0.9-8.5,5.7-7.8,10.5c0.5,3.4,2.9,5.9,5.9,7c1.6,0.6,3,0.9,4.6,0.4l31.3-5.2l-9.6,25.9c-1.8,4.7,0.8,10,5.5,11.8
	l0,0c4.7,1.8,10.2-0.7,11.8-5.5l13.4-35.8l56.4-9.2l-20.3,53.6l-37.9,5.7c-5,0.7-8.7,5.6-7.8,10.5c0.5,3.4,2.8,6.2,5.8,7.3
	c1.6,0.6,3,0.9,4.6,0.5l27.2-4.2l-11.2,29.7c-1.8,4.7,0.7,10.2,5.4,12c4.7,1.8,10.2-0.7,12-5.4l11.2-29.7l17.6,21.1
	c1,1.2,2.4,2.1,3.8,2.6c2.9,1.1,6.5,0.7,9.2-1.7c3.8-3.3,4.7-9.1,1.2-13L2344,511l20.3-53.6l36.2,44.3l-13.7,35.7
	c-1.8,4.7,0.5,10.1,5.2,11.9l0,0c4.7,1.8,10.1-0.5,11.9-5.2l10-25.8l20,24.6c1,1.2,2.3,2.3,3.7,2.8c2.9,1.1,6.5,0.7,9-1.3
	C2451.2,541.3,2451.8,535.6,2448.7,531.6z"/>
<circle class="st8" cx="623.8" cy="5181.3" r="55.2"/>
<linearGradient id="SVGID_8_" gradientUnits="userSpaceOnUse" x1="2848.2942" y1="54.7329" x2="2848.2942" y2="713.3307">
	<stop  offset="0" style="stop-color:#F5F5F5;stop-opacity:0"/>
	<stop  offset="0.6392" style="stop-color:#F5F5F5"/>
	<stop  offset="1" style="stop-color:#F5F5F5"/>
</linearGradient>
<line class="st29" x1="2848.3" y1="713.3" x2="2848.3" y2="54.7"/>
<g>
	<path class="st20" d="M2848.3,738.5c-4.5,0-8.2-3.7-8.2-8.2v-8.8c0-4.5,3.7-8.2,8.2-8.2s8.2,3.7,8.2,8.2v8.8
		C2856.5,734.8,2852.8,738.5,2848.3,738.5z"/>
	<path class="st21" d="M2848.3,722.1c-14.2,0-25.7,11.5-25.7,25.7v17.6c0,4.5,3.7,8.2,8.2,8.2h17.6v0h17.6c3.4,0,6.3-2.1,7.5-5
		c0.4-1,0.6-2.1,0.6-3.2v-17.6C2874,733.7,2862.5,722.1,2848.3,722.1z"/>
	<path class="st8" d="M2957.7,844.5c-0.2-0.4-0.5-0.8-0.8-1.2c-0.5-0.8-1-1.6-1.6-2.4c-0.5-0.8-1.1-1.5-1.7-2.3
		c-10.8-13.7-27.6-22.6-46.4-22.6h0h-58.9h-58.9c-32.6,0-58.9,26.4-58.9,58.9c0,65.1,52.8,117.9,117.9,117.9c2,0,4.1-0.1,6.1-0.2
		c2-0.1,4-0.3,6-0.5c4-0.4,7.9-1,11.7-1.8c2.9-0.6,5.7-1.3,8.5-2.1c0.9-0.3,1.9-0.5,2.8-0.8c48-14.9,82.8-59.7,82.8-112.6
		C2966.2,863.9,2963.1,853.5,2957.7,844.5z"/>
	<path class="st30" d="M2730.4,875.1c0-13,10.6-23.6,23.6-23.6s23.6,10.6,23.6,23.6s10.6,23.6,23.6,23.6s23.6-10.6,23.6-23.6
		c0-13,10.6-23.6,23.6-23.6s23.6,10.6,23.6,23.6s10.6,23.6,23.6,23.6s23.6-10.6,23.6-23.6c0-13,10.6-23.6,23.6-23.6
		s23.6,10.6,23.6,23.6c0-65.1-52.8-117.9-117.9-117.9C2783.2,757.2,2730.4,810,2730.4,875.1L2730.4,875.1z"/>
</g>
<path class="st18" d="M2496.8,5252.3l-17.1-7.7l13-9.7c2.5-1.8,2.9-5.2,1.1-7.7c-1.8-2.5-5.2-2.9-7.7-1.1l-18,13.4l-30.8-13.6
	l27.2-19.8l20.4,9.4c1,0.4,2,0.6,2.9,0.5c1.9-0.2,3.5-1.3,4.4-3.1c1.3-2.8,0-6-2.7-7.3l-14.9-6.8l15.1-11.1c2.5-1.8,2.9-5.2,1.3-7.5
	c-1.8-2.5-5.2-2.9-7.5-1.3l-15.1,11.1l-1.9-16.2c-0.3-3-3.1-5.2-6-4.7c-3,0.3-5.2,3.1-4.7,6l2.5,22.3l-27.2,19.8l-3.5-33.5l18.3-13
	c2.5-1.7,3.1-5.2,1.3-7.5c-1.7-2.5-5.2-3.1-7.5-1.3l-13.2,9.4l-2-18.6c-0.3-3-3.1-5.2-6-4.9c-3,0.3-5.2,3.1-4.9,6l2,18.6l-14.9-6.5
	c-2.8-1.1-6,0-7.1,2.8c-1.1,2.8,0,6,2.8,7.1l20.6,8.9l3.5,33.5l-30.8-13.6l-2.2-22.3c-0.3-3-2.9-5.2-5.9-4.9l0,0
	c-3,0.3-5.2,2.9-4.9,5.9l1.6,16.2l-17.1-7.7c-2.8-1.3-6,0-7.1,2.8c-1.3,2.8,0,6,2.8,7.1l17.1,7.7l-13.2,9.8
	c-2.5,1.8-2.9,5.2-1.1,7.7c1.1,1.6,3.1,2.4,5,2.2c0.9-0.1,1.8-0.5,2.7-1.1l18-13.4l30.8,13.6l-27.2,19.8l-20.4-9.4
	c-2.7-1.3-6,0-7.3,2.7c-1.3,2.8,0,6,2.7,7.3l14.9,6.8l-15.1,11.1c-2.5,1.8-2.9,5.2-1.3,7.5c1.1,1.6,3.1,2.4,5,2.2
	c0.9-0.1,1.9-0.4,2.6-1.1l15.1-11.1l1.9,16.2c0.3,3,3.1,5,6,4.7l0,0c3-0.3,5.2-3.1,4.7-6l-2.5-22.3l27.2-19.8l3.5,33.5l-18.3,13
	c-2.5,1.7-3.1,5.2-1.3,7.5c1.1,1.6,3.1,2.5,5,2.3c0.9-0.1,1.9-0.4,2.6-0.9l13.2-9.4l2,18.6c0.3,3,3.1,5.2,6,4.9s5.2-3.1,4.9-6
	l-2-18.6l14.9,6.5c0.8,0.4,1.8,0.4,2.7,0.3c1.9-0.2,3.6-1.3,4.4-3.3c1.1-2.8,0-6-2.8-7.1l-20.6-8.9l-3.5-33.5l30.8,13.6l2.2,22.3
	c0.3,3,2.9,5.2,5.9,4.9l0,0c3-0.3,5.2-2.9,4.9-5.9l-1.6-16.2l17.1,7.7c0.8,0.4,1.8,0.6,2.7,0.5c1.9-0.2,3.6-1.3,4.4-3.1
	C2500.8,5256.7,2499.5,5253.6,2496.8,5252.3z"/>
<path class="st28" d="M3192.3,4136.2l-17.6-17.3l20.5-6.1c3.9-1.1,6-5.1,4.9-9c-1.1-3.9-5.1-6-9-4.9l-28.4,8.3l-31.8-31l42.7-11.9
	l20.9,20.9c1,0.9,2.1,1.6,3.3,1.9c2.4,0.6,4.9,0,6.9-1.9c2.9-2.9,2.7-7.4,0.1-10.2l-15.3-15.2l23.7-6.7c3.9-1.1,6-5.1,5-8.7
	c-1.1-3.9-5.1-6-8.7-5l-23.7,6.7l5.1-20.9c1-3.8-1.4-7.8-5.3-8.6c-3.8-1-7.8,1.4-8.6,5.3l-7.1,28.7l-42.7,11.9l11-43.1l28.6-7.6
	c3.9-0.9,6.2-5,5-8.7c-0.9-3.9-5-6.2-8.7-5l-20.6,5.6l6.1-23.8c1-3.8-1.4-7.8-5.2-8.8c-3.8-1-7.8,1.4-8.8,5.2l-6.1,23.8l-15.4-14.8
	c-2.9-2.7-7.4-2.7-10.1,0.2c-2.7,2.9-2.7,7.4,0.2,10.1l21.5,20.4l-11,43.1l-31.8-31l7.5-28.6c1-3.8-1.2-7.8-5-8.8l0,0
	c-3.8-1-7.8,1.2-8.8,5l-5.5,20.8l-17.6-17.3c-2.9-2.9-7.4-2.7-10.1,0.2c-2.9,2.9-2.7,7.4,0.2,10.1l17.6,17.3l-20.7,6
	c-3.9,1.1-6,5.1-4.9,9c0.6,2.5,2.7,4.3,5.1,4.9c1.2,0.3,2.5,0.2,3.9-0.1l28.4-8.3l31.8,31l-42.7,11.9l-20.9-20.9
	c-2.7-2.8-7.4-2.7-10.2-0.1c-2.9,2.9-2.7,7.4-0.1,10.2l15.3,15.2l-23.7,6.7c-3.9,1.1-6,5.1-5,8.7c0.6,2.5,2.7,4.3,5.1,4.9
	c1.2,0.3,2.5,0.4,3.7-0.1l23.7-6.7l-5.1,20.9c-1,3.8,1.5,7.6,5.3,8.6l0,0c3.8,1,7.8-1.4,8.6-5.3l7.1-28.7l42.7-11.9l-11,43.1
	l-28.6,7.6c-3.9,0.9-6.2,5-5,8.7c0.6,2.5,2.7,4.5,5.1,5.1c1.2,0.3,2.5,0.4,3.6,0.1l20.6-5.6l-6.1,23.8c-1,3.8,1.4,7.8,5.2,8.8
	c3.8,1,7.8-1.4,8.8-5.2l6.1-23.8l15.4,14.8c0.8,0.9,2,1.4,3.2,1.7c2.4,0.6,5.1,0,6.9-2.1c2.7-2.9,2.7-7.4-0.2-10.1l-21.5-20.4
	l11-43.1l31.8,31l-7.5,28.6c-1,3.8,1.2,7.8,5,8.8l0,0c3.8,1,7.8-1.2,8.8-5l5.5-20.8l17.6,17.3c0.8,0.9,1.9,1.6,3.1,1.9
	c2.4,0.6,5.1,0,6.9-1.9C3195.1,4143.5,3195,4139,3192.3,4136.2z"/>
<circle class="st24" cx="623.8" cy="203.3" r="55.2"/>
<path class="st28" d="M274,5173.2l0-30l22.8,12.8c4.2,2.4,9.6,0.9,12-3.5c2.4-4.2,0.9-9.6-3.5-12l-31.5-17.6l-0.1-54.1l46.8,27
	l-0.4,36.1c0.2,1.7,0.4,3.2,1.2,4.6c1.5,2.6,4.3,4.2,7.4,4.4c4.9,0,8.9-3.9,9-8.6l0.2-26.3l26.1,14.9c4.2,2.4,9.6,0.9,12-3.1
	c2.4-4.2,0.9-9.6-3.1-12l-26.1-14.9l22.5-13.2c4.1-2.4,5.6-7.9,3-11.9c-2.4-4.1-7.9-5.6-11.9-3l-31.2,18.3l-46.8-27l46.9-27.2
	l31.2,18.4c4.1,2.5,9.7,1.1,12-3.1c2.5-4.1,1.1-9.7-3.1-12l-22.4-13.2l26-15c4.1-2.4,5.6-7.9,3.2-12c-2.4-4.1-7.9-5.6-12-3.2l-26,15
	l-0.3-26c-0.1-4.8-3.9-8.9-8.9-8.7c-4.8,0.1-8.9,3.9-8.7,8.9l0.5,36.2l-46.9,27.2l-0.1-54.1l31.4-18c4.1-2.4,5.7-7.7,3.3-11.8l0,0
	c-2.4-4.1-7.7-5.7-11.8-3.3l-22.7,12.9l0-30c0-4.9-3.9-8.9-8.9-8.7c-4.9,0-8.9,3.9-8.7,8.9l0,30l-22.9-12.9c-4.2-2.4-9.6-0.9-12,3.5
	c-1.6,2.8-1.4,6.1,0.1,8.6c0.8,1.4,1.9,2.3,3.3,3.3l31.5,17.6l0.1,54.1l-46.8-27l0.4-36.1c0.1-4.7-3.9-8.9-8.6-9
	c-4.9,0-8.9,3.9-9,8.6l-0.2,26.3l-26.1-14.9c-4.2-2.4-9.6-0.9-12,3.1c-1.6,2.8-1.4,6.1,0.1,8.6c0.8,1.4,1.6,2.5,3.2,3l26.1,14.9
	l-22.5,13.2c-4.1,2.4-5.4,7.8-3,11.9l0,0c2.4,4.1,7.9,5.6,11.9,3l31.2-18.3l46.8,27l-46.9,27.2l-31.2-18.4c-4.1-2.5-9.7-1.1-12,3.1
	c-1.6,2.8-1.7,6.2-0.2,8.8c0.8,1.4,1.6,2.5,3,3.1l22.4,13.2l-26,15c-4.1,2.4-5.6,7.9-3.2,12c2.4,4.1,7.9,5.6,12,3.2l26-15l0.3,26
	c0,1.4,0.5,3,1.2,4.2c1.5,2.6,4.4,4.4,7.7,4.2c4.8-0.1,8.9-3.9,8.7-8.9l-0.5-36.2l46.9-27.2l0.1,54.1l-31.4,18
	c-4.1,2.4-5.7,7.7-3.3,11.8l0,0c2.4,4.1,7.7,5.7,11.8,3.3l22.7-12.9l0,30c0,1.4,0.3,3,1,4.3c1.5,2.6,4.4,4.4,7.4,4.4
	C270,5181.8,273.9,5177.9,274,5173.2z"/>
</svg>
