<?xml version="1.0" encoding="utf-8"?>
<!-- Generator: Adobe Illustrator 24.2.1, SVG Export Plug-In . SVG Version: 6.00 Build 0)  -->
<svg version="1.1" id="Layer_1" xmlns="http://www.w3.org/2000/svg" xmlns:xlink="http://www.w3.org/1999/xlink" x="0px" y="0px"
	 viewBox="0 0 3240 2343.3" style="enable-background:new 0 0 3240 2343.3;" xml:space="preserve">
<style type="text/css">
	.st0{fill:#D69292;}
	.st1{fill:#C2D8E3;}
	.st2{fill:#E1EAF0;}
	.st3{fill:#FCD2C0;}
</style>
<circle class="st0" cx="69.9" cy="435.4" r="28.6"/>
<path class="st1" d="M557.2,2047l-17.2-7.7l13.1-9.8c2.5-1.9,2.9-5.2,1.1-7.7s-5.2-2.9-7.7-1.1l-18.1,13.5l-31-13.7l27.4-19.9
	l20.5,9.4c1,0.4,2,0.6,2.9,0.5c1.9-0.2,3.5-1.3,4.4-3.2c1.3-2.8,0-6-2.7-7.3l-15-6.8l15.2-11.1c2.5-1.9,2.9-5.2,1.3-7.6
	c-1.9-2.5-5.2-2.9-7.6-1.3l-15.2,11.1l-1.9-16.3c-0.3-3-3.1-5.2-6.1-4.8c-3,0.3-5.2,3.1-4.8,6.1l2.5,22.4l-27.4,19.9l-3.6-33.8
	l18.5-13.1c2.5-1.7,3.1-5.3,1.3-7.6c-1.7-2.5-5.3-3.1-7.6-1.3l-13.3,9.5l-2-18.7c-0.3-3-3.1-5.2-6.1-4.9s-5.2,3.1-4.9,6.1l2,18.7
	l-15-6.5c-2.8-1.1-6,0-7.2,2.8c-1.1,2.8,0,6,2.8,7.2l20.8,8.9l3.6,33.8l-31-13.7l-2.2-22.5c-0.3-3-2.9-5.2-5.9-4.9l0,0
	c-3,0.3-5.2,2.9-4.9,5.9l1.6,16.4l-17.2-7.7c-2.8-1.3-6,0-7.2,2.8c-1.3,2.8,0,6,2.8,7.2l17.2,7.7l-13.3,9.8
	c-2.5,1.9-2.9,5.2-1.1,7.7c1.1,1.6,3.1,2.4,5,2.2c0.9-0.1,1.9-0.5,2.7-1.1l18.1-13.5l31,13.7l-27.4,19.9l-20.5-9.4
	c-2.7-1.3-6,0-7.3,2.7c-1.3,2.8,0,6,2.7,7.3l15,6.8l-15.2,11.1c-2.5,1.9-2.9,5.2-1.3,7.6c1.1,1.6,3.1,2.4,5,2.2
	c0.9-0.1,1.9-0.4,2.6-1.1l15.2-11.1l1.9,16.3c0.3,3,3.1,5.1,6.1,4.8l0,0c3-0.3,5.2-3.1,4.8-6.1l-2.5-22.4l27.4-19.9l3.6,33.8
	l-18.5,13.1c-2.5,1.7-3.1,5.3-1.3,7.6c1.1,1.6,3.1,2.5,5,2.3c0.9-0.1,1.9-0.4,2.6-0.9l13.3-9.5l2,18.7c0.3,3,3.1,5.2,6.1,4.9
	s5.2-3.1,4.9-6.1l-2-18.7l15,6.5c0.8,0.4,1.8,0.4,2.7,0.3c1.9-0.2,3.7-1.3,4.4-3.3c1.1-2.8,0-6-2.8-7.2l-20.8-8.9l-3.6-33.8l31,13.7
	l2.2,22.5c0.3,3,2.9,5.2,5.9,4.9l0,0c3-0.3,5.2-2.9,4.9-5.9l-1.6-16.4l17.2,7.7c0.8,0.4,1.8,0.6,2.8,0.5c1.9-0.2,3.7-1.3,4.4-3.2
	C561.2,2051.5,559.9,2048.3,557.2,2047z"/>
<path class="st2" d="M3087,719.3l-14.8-8.6l12.8-7.6c2.4-1.4,3.2-4.5,1.7-6.9c-1.4-2.4-4.5-3.2-6.9-1.7l-17.7,10.5l-26.7-15.4
	l26.7-15.4l17.7,10.5c0.9,0.4,1.7,0.7,2.6,0.7c1.7,0,3.3-0.9,4.3-2.4c1.4-2.4,0.6-5.5-1.7-6.9l-12.9-7.6l14.8-8.6
	c2.4-1.4,3.2-4.5,1.9-6.8c-1.4-2.4-4.5-3.2-6.8-1.9l-14.8,8.6l-0.1-14.9c0-2.7-2.3-5-5-4.9c-2.7,0-5,2.3-4.9,5l0.1,20.6l-26.7,15.4
	v-30.9l18-10.1c2.4-1.3,3.3-4.5,1.9-6.8c-1.3-2.4-4.5-3.3-6.8-1.9l-12.9,7.3v-17.1c0-2.7-2.3-5-5-5s-5,2.3-5,5v17.1l-12.9-7.3
	c-2.4-1.3-5.5-0.6-6.8,1.9c-1.3,2.4-0.6,5.5,1.9,6.8l18,10.1V681l-26.7-15.4l0.1-20.6c0-2.7-2.2-5-4.9-5l0,0c-2.7,0-5,2.2-5,4.9
	l-0.1,14.9l-14.8-8.6c-2.4-1.4-5.5-0.6-6.8,1.9c-1.4,2.4-0.6,5.5,1.9,6.8l14.8,8.6l-12.9,7.6c-2.4,1.4-3.2,4.5-1.7,6.9
	c0.9,1.6,2.6,2.4,4.3,2.4c0.9,0,1.7-0.3,2.6-0.7l17.7-10.5l26.7,15.4l-26.7,15.4l-17.7-10.5c-2.3-1.4-5.5-0.6-6.9,1.7
	c-1.4,2.4-0.6,5.5,1.7,6.9l12.9,7.6l-14.8,8.6c-2.4,1.4-3.2,4.5-1.9,6.8c0.9,1.6,2.6,2.4,4.3,2.4c0.9,0,1.7-0.1,2.4-0.7l14.8-8.6
	l0.1,14.9c0,2.7,2.3,4.9,5,4.9l0,0c2.7,0,5-2.3,4.9-5l-0.1-20.6l26.7-15.4v30.9l-18,10.1c-2.4,1.3-3.3,4.5-1.9,6.8
	c0.9,1.6,2.6,2.6,4.3,2.6c0.9,0,1.7-0.1,2.4-0.6l12.9-7.3v17.1c0,2.7,2.3,5,5,5s5-2.3,5-5v-17.1l12.9,7.3c0.7,0.4,1.6,0.6,2.4,0.6
	c1.7,0,3.4-0.9,4.3-2.6c1.3-2.4,0.6-5.5-1.9-6.8l-18-10.1V698l26.7,15.4l-0.1,20.6c0,2.7,2.2,5,4.9,5l0,0c2.7,0,5-2.2,5-4.9
	l0.1-14.9l14.8,8.6c0.7,0.4,1.6,0.7,2.4,0.7c1.7,0,3.4-0.9,4.3-2.4C3090.1,723.8,3089.3,720.8,3087,719.3z"/>
<path class="st1" d="M2853.9,2210l-10.2-6l8.9-5.3c1.7-1,2.2-3.1,1.2-4.8s-3.1-2.2-4.8-1.2l-12.2,7.3l-18.5-10.7l18.5-10.7l12.2,7.3
	c0.6,0.3,1.2,0.5,1.8,0.5c1.2,0,2.3-0.6,3-1.7c1-1.7,0.4-3.8-1.2-4.8l-8.9-5.3l10.2-6c1.7-1,2.2-3.1,1.3-4.7c-1-1.7-3.1-2.2-4.7-1.3
	l-10.2,6l-0.1-10.3c0-1.9-1.6-3.5-3.5-3.4c-1.9,0-3.5,1.6-3.4,3.5l0.1,14.3l-18.5,10.7V2162l12.5-7c1.7-0.9,2.3-3.1,1.3-4.7
	c-0.9-1.7-3.1-2.3-4.7-1.3l-8.9,5.1v-11.8c0-1.9-1.6-3.5-3.5-3.5s-3.5,1.6-3.5,3.5v11.8l-8.9-5.1c-1.7-0.9-3.8-0.4-4.7,1.3
	s-0.4,3.8,1.3,4.7l12.5,7v21.4l-18.5-10.7l0.1-14.3c0-1.9-1.5-3.5-3.4-3.5l0,0c-1.9,0-3.5,1.5-3.5,3.4l-0.1,10.3l-10.2-6
	c-1.7-1-3.8-0.4-4.7,1.3c-1,1.7-0.4,3.8,1.3,4.7l10.2,6l-8.9,5.3c-1.7,1-2.2,3.1-1.2,4.8c0.6,1.1,1.8,1.7,3,1.7
	c0.6,0,1.2-0.2,1.8-0.5l12.2-7.3l18.5,10.7l-18.5,10.7l-12.2-7.3c-1.6-1-3.8-0.4-4.8,1.2c-1,1.7-0.4,3.8,1.2,4.8l8.9,5.3l-10.2,6
	c-1.7,1-2.2,3.1-1.3,4.7c0.6,1.1,1.8,1.7,3,1.7c0.6,0,1.2-0.1,1.7-0.5l10.2-6l0.1,10.3c0,1.9,1.6,3.4,3.5,3.4l0,0
	c1.9,0,3.5-1.6,3.4-3.5l-0.1-14.3l18.5-10.7v21.4l-12.5,7c-1.7,0.9-2.3,3.1-1.3,4.7c0.6,1.1,1.8,1.8,3,1.8c0.6,0,1.2-0.1,1.7-0.4
	l8.9-5.1v11.8c0,1.9,1.6,3.5,3.5,3.5s3.5-1.6,3.5-3.5v-11.8l8.9,5.1c0.5,0.3,1.1,0.4,1.7,0.4c1.2,0,2.4-0.6,3-1.8
	c0.9-1.7,0.4-3.8-1.3-4.7l-12.5-7v-21.4l18.5,10.7l-0.1,14.3c0,1.9,1.5,3.5,3.4,3.5l0,0c1.9,0,3.5-1.5,3.5-3.4l0.1-10.3l10.2,6
	c0.5,0.3,1.1,0.5,1.7,0.5c1.2,0,2.4-0.6,3-1.7C2856.1,2213,2855.5,2211,2853.9,2210z"/>
<path class="st1" d="M170.8,1052.1l-9.2-11.2l12.5-2.2c2.4-0.4,3.9-2.6,3.3-5c-0.4-2.4-2.6-3.9-5-3.3l-17.3,3.1l-16.7-20.2l25.8-4.4
	l11,13.6c0.6,0.6,1.1,1.1,1.8,1.3c1.3,0.6,2.9,0.2,4-0.6c1.8-1.5,2-4.2,0.7-6.1l-8.1-9.9l14.4-2.4c2.4-0.4,3.9-2.6,3.5-4.8
	c-0.4-2.4-2.6-3.9-4.8-3.5l-14.4,2.4l4.4-12c0.7-2.2-0.4-4.6-2.6-5.3c-2.2-0.7-4.6,0.4-5.3,2.6l-6.1,16.4l-25.8,4.4l9.2-24.7
	l17.3-2.8c2.2-0.4,4-2.6,3.5-4.8c-0.4-2.2-2.6-4-4.8-3.5l-12.5,2l5.2-13.6c0.7-2.2-0.4-4.6-2.6-5.5c-2.2-0.7-4.6,0.4-5.5,2.6
	l-5.2,13.6l-8.1-9.6c-1.5-1.7-4.2-2-5.9-0.6c-1.7,1.5-2,4.2-0.6,5.9l11.4,13.4l-9.2,24.7L112.6,982l6.3-16.4
	c0.7-2.2-0.2-4.6-2.4-5.5l0,0c-2.2-0.7-4.6,0.2-5.5,2.4l-4.4,11.8l-9.2-11.2c-1.5-1.8-4.2-2-5.9-0.6c-1.8,1.5-2,4.2-0.6,5.9
	l9.2,11.2l-12.5,2.2c-2.4,0.4-3.9,2.6-3.3,5c0.2,1.5,1.3,2.8,2.8,3.1c0.7,0.2,1.5,0.2,2.2,0.2l17.3-3.1l16.7,20.2l-25.8,4.4
	l-11-13.6c-1.5-1.8-4.2-2-6.1-0.7c-1.8,1.5-2,4.2-0.7,6.1l8.1,9.9l-14.4,2.6c-2.4,0.4-3.9,2.6-3.5,4.8c0.2,1.5,1.3,2.8,2.8,3.1
	c0.7,0.2,1.5,0.4,2.2,0.2l14.4-2.4l-4.4,12c-0.7,2.2,0.4,4.6,2.6,5.3l0,0c2.2,0.7,4.6-0.4,5.3-2.6l6.1-16.4l25.8-4.4l-9.2,24.7
	l-17.3,2.8c-2.2,0.4-4,2.6-3.5,4.8c0.2,1.5,1.3,2.8,2.6,3.3c0.7,0.2,1.5,0.4,2,0.2l12.5-2l-5.2,13.6c-0.7,2.2,0.4,4.6,2.6,5.5
	c2.2,0.7,4.6-0.4,5.5-2.6l5.2-13.6l8.1,9.6c0.4,0.6,1.1,0.9,1.7,1.1c1.3,0.6,2.9,0.4,4.2-0.7c1.7-1.5,2-4.2,0.6-5.9l-11.4-13.4
	l9.2-24.7l16.7,20.2l-6.3,16.4c-0.7,2.2,0.2,4.6,2.4,5.5l0,0c2.2,0.7,4.6-0.2,5.5-2.4l4.4-11.8l9.2,11.2c0.4,0.6,1.1,1.1,1.7,1.3
	c1.3,0.6,2.9,0.4,4-0.6C172.1,1056.6,172.3,1054,170.8,1052.1z"/>
<path class="st2" d="M3123.1,1206.5l-4.5-9.1l8.8,0.4c1.6,0.1,3-1.2,3.1-2.8c0.1-1.6-1.2-3-2.8-3.1l-12.1-0.6l-8.2-16.3l18.2,1.1
	l5.3,10.9c0.3,0.5,0.6,0.9,1.1,1.2c0.8,0.6,1.9,0.6,2.9,0.2c1.5-0.7,2.1-2.5,1.4-4l-3.9-7.9l10.1,0.6c1.6,0.1,3-1.2,3.2-2.7
	c0.1-1.6-1.2-3-2.7-3.2l-10.1-0.6l4.8-7.4c0.9-1.3,0.5-3.2-0.9-4c-1.3-0.9-3.2-0.5-4,0.9l-6.7,10.2l-18.2-1.1l10.1-15.2l12.2,0.9
	c1.6,0.1,3.1-1.1,3.2-2.7c0.1-1.6-1.1-3.1-2.7-3.2l-8.7-0.6l5.6-8.4c0.9-1.3,0.5-3.2-0.8-4.1s-3.2-0.5-4.1,0.8l-5.6,8.4l-4-7.8
	c-0.8-1.4-2.5-2.1-4-1.3c-1.4,0.8-2.1,2.5-1.3,4l5.6,10.8l-10.1,15.2l-8.2-16.3l6.8-10.1c0.9-1.3,0.5-3.2-0.8-4.1l0,0
	c-1.3-0.9-3.2-0.5-4.1,0.8l-4.9,7.3l-4.5-9.1c-0.7-1.5-2.5-2.1-4-1.3c-1.5,0.7-2.1,2.5-1.3,4l4.5,9.1l-8.8-0.5
	c-1.6-0.1-3,1.2-3.1,2.8c-0.1,1.1,0.5,2,1.3,2.6c0.4,0.3,0.9,0.4,1.5,0.5l12.1,0.6l8.2,16.3l-18.2-1.1l-5.3-10.9
	c-0.7-1.4-2.5-2.1-4-1.4s-2.1,2.5-1.4,4l3.9,7.9l-10.1-0.6c-1.6-0.1-3,1.2-3.2,2.7c-0.1,1.1,0.5,2,1.3,2.6c0.4,0.3,0.9,0.5,1.4,0.4
	l10.1,0.6l-4.8,7.4c-0.9,1.3-0.5,3.2,0.9,4l0,0c1.3,0.9,3.2,0.5,4-0.9l6.7-10.2l18.2,1.1l-10.1,15.2l-12.2-0.9
	c-1.6-0.1-3.1,1.1-3.2,2.7c-0.1,1.1,0.4,2.1,1.3,2.7c0.4,0.3,0.9,0.5,1.4,0.5l8.7,0.6l-5.6,8.4c-0.9,1.3-0.5,3.2,0.8,4.1
	s3.2,0.5,4.1-0.8l5.6-8.4l4,7.8c0.2,0.4,0.6,0.8,1,1.1c0.8,0.6,2,0.7,3,0.1c1.4-0.8,2.1-2.5,1.3-4l-5.6-10.8l10.1-15.2l8.2,16.3
	l-6.8,10.1c-0.9,1.3-0.5,3.2,0.8,4.1l0,0c1.3,0.9,3.2,0.5,4.1-0.8l4.9-7.3l4.5,9.1c0.2,0.4,0.6,0.9,1,1.1c0.8,0.6,2,0.7,2.9,0.2
	C3123.2,1209.6,3123.8,1207.9,3123.1,1206.5z"/>
<g id="Layer_4">
</g>
<circle class="st3" cx="3159.9" cy="322" r="28.6"/>
</svg>
