<?xml version="1.0" encoding="utf-8"?>
<!-- Generator: Adobe Illustrator 24.2.1, SVG Export Plug-In . SVG Version: 6.00 Build 0)  -->
<svg version="1.1" id="Layer_1" xmlns="http://www.w3.org/2000/svg" xmlns:xlink="http://www.w3.org/1999/xlink" x="0px" y="0px"
	 viewBox="0 0 890 768.5" style="enable-background:new 0 0 890 768.5;" xml:space="preserve">
<style type="text/css">
	.st0{opacity:0.4;fill:#CECECE;}
	.st1{fill:#FAF6F0;}
	.st2{fill:#E3DFDA;}
	.st3{fill:#127E9A;}
	.st4{fill:#C9C6C2;}
	.st5{fill:#73C9C3;}
	.st6{fill:#FBD0BD;}
	.st7{fill:#FCD484;}
	.st8{fill:#FFFFFF;}
	.st9{fill:#E7B249;}
	.st10{fill:#C1272D;}
	.st11{fill:#972A2A;}
	.st12{fill:#5F717A;}
</style>
<g>
	<path class="st0" d="M821.5,682.3l-44-458.5l-9.6-99.8c-1.3-13.5-13.3-23.5-26.9-22.2l-16.9,1.6l-2.5-26.2
		c-0.5-5.3-5.3-9.3-10.6-8.7h0c-5.3,0.5-9.3,5.3-8.7,10.6l2.5,26.2l-16.6,1.6l-2.5-26.2c-0.5-5.3-5.3-9.3-10.6-8.7h0
		c-5.3,0.5-9.3,5.3-8.7,10.6l2.5,26.2l-49.7,4.8l-2.5-26.2c-0.5-5.3-5.3-9.3-10.6-8.7c-5.3,0.5-9.3,5.3-8.7,10.6l2.5,26.2l-16.6,1.6
		l-2.5-26.2c-0.5-5.3-5.3-9.3-10.6-8.7c-5.3,0.5-9.3,5.3-8.7,10.6l2.5,26.2l-49.7,4.8l-2.5-26.2c-0.5-5.3-5.3-9.3-10.6-8.7
		c-5.3,0.5-9.3,5.3-8.7,10.6l2.5,26.2l-16.6,1.6l-2.5-26.2c-0.5-5.3-5.3-9.3-10.6-8.7c-5.3,0.5-9.3,5.3-8.7,10.6l2.5,26.2l-49.7,4.8
		l-2.5-26.2c-0.5-5.3-5.3-9.3-10.6-8.7h0c-5.3,0.5-9.3,5.3-8.7,10.6l2.5,26.2l-16.6,1.6l-2.5-26.2c-0.5-5.3-5.3-9.3-10.6-8.7h0
		c-5.3,0.5-9.3,5.3-8.7,10.6l2.5,26.2l-49.7,4.8l-2.5-26.2c-0.5-5.3-5.3-9.3-10.6-8.7c-5.3,0.5-9.3,5.3-8.7,10.6l2.5,26.2l-16.6,1.6
		l-2.5-26.2c-0.5-5.3-5.3-9.3-10.6-8.7c-5.3,0.5-9.3,5.3-8.7,10.6l2.5,26.2l-49.7,4.8l-2.5-26.2c-0.5-5.3-5.3-9.3-10.6-8.7
		c-5.3,0.5-9.3,5.3-8.7,10.6l2.5,26.2l-16.6,1.6L161,131c-0.5-5.3-5.3-9.3-10.6-8.7c-5.3,0.5-9.3,5.3-8.7,10.6l2.5,26.2l-49.7,4.8
		l-2.5-26.2c-0.5-5.3-5.3-9.3-10.6-8.7h0c-5.3,0.5-9.3,5.3-8.7,10.6l2.5,26.2l-16.6,1.6L56,141.1c-0.5-5.3-5.3-9.3-10.6-8.7h0
		c-5.3,0.5-9.3,5.3-8.7,10.6l2.5,26.2l-16.9,1.6c-13.5,1.3-23.5,13.3-22.2,26.9l9.6,99.8l44,458.5c0.7,7.6,7.5,13.2,15.1,12.5
		l740.2-71C816.6,696.7,822.2,690,821.5,682.3z"/>
	<path class="st1" d="M846,155.3L78.2,229l44,458.5c0.7,7.6,7.5,13.2,15.1,12.5l740.2-71c7.6-0.7,13.2-7.5,12.5-15.1L846,155.3z"/>
	<g>
		<path class="st2" d="M205.7,477.1l-53.1,5.1c-3.1,0.3-5.3,3-5,6.1l5.1,53.1c0.3,3.1,3,5.3,6.1,5l53.1-5.1c3.1-0.3,5.3-3,5-6.1
			l-5.1-53.1C211.4,479,208.7,476.8,205.7,477.1z"/>
		<path class="st2" d="M308.2,467.2l-53.1,5.1c-3.1,0.3-5.3,3-5,6.1l5.1,53.1c0.3,3.1,3,5.3,6.1,5l53.1-5.1c3.1-0.3,5.3-3,5-6.1
			l-5.1-53.1C314,469.2,311.3,466.9,308.2,467.2z"/>
		<path class="st2" d="M410.8,457.4l-53.1,5.1c-3.1,0.3-5.3,3-5,6.1l5.1,53.1c0.3,3.1,3,5.3,6.1,5l53.1-5.1c3.1-0.3,5.3-3,5-6.1
			l-5.1-53.1C416.6,459.3,413.8,457.1,410.8,457.4z"/>
		<path class="st2" d="M513.4,447.6l-53.1,5.1c-3.1,0.3-5.3,3-5,6.1l5.1,53.1c0.3,3.1,3,5.3,6.1,5l53.1-5.1c3.1-0.3,5.3-3,5-6.1
			l-5.1-53.1C519.1,449.5,516.4,447.3,513.4,447.6z"/>
		<path class="st3" d="M615.9,437.7l-53.1,5.1c-3.1,0.3-5.3,3-5,6.1l5.1,53.1c0.3,3.1,3,5.3,6.1,5l53.1-5.1c3.1-0.3,5.3-3,5-6.1
			l-5.1-53.1C621.7,439.7,619,437.4,615.9,437.7z"/>
		<path class="st2" d="M718.5,427.9l-53.1,5.1c-3.1,0.3-5.3,3-5,6.1l5.1,53.1c0.3,3.1,3,5.3,6.1,5l53.1-5.1c3.1-0.3,5.3-3,5-6.1
			l-5.1-53.1C724.2,429.8,721.5,427.6,718.5,427.9z"/>
		<path class="st2" d="M821,418.1l-53.1,5.1c-3.1,0.3-5.3,3-5,6.1l5.1,53.1c0.3,3.1,3,5.3,6.1,5l53.1-5.1c3.1-0.3,5.3-3,5-6.1
			l-5.1-53.1C826.8,420,824.1,417.8,821,418.1z"/>
		<path class="st2" d="M215.8,582.8l-53.1,5.1c-3.1,0.3-5.3,3-5,6.1l5.1,53.1c0.3,3.1,3,5.3,6.1,5l53.1-5.1c3.1-0.3,5.3-3,5-6.1
			l-5.1-53.1C221.6,584.8,218.9,582.5,215.8,582.8z"/>
		<path class="st2" d="M318.4,573l-53.1,5.1c-3.1,0.3-5.3,3-5,6.1l5.1,53.1c0.3,3.1,3,5.3,6.1,5l53.1-5.1c3.1-0.3,5.3-3,5-6.1
			l-5.1-53.1C324.1,574.9,321.4,572.7,318.4,573z"/>
		<path class="st2" d="M420.9,563.2l-53.1,5.1c-3.1,0.3-5.3,3-5,6.1l5.1,53.1c0.3,3.1,3,5.3,6.1,5l53.1-5.1c3.1-0.3,5.3-3,5-6.1
			l-5.1-53.1C426.7,565.1,424,562.9,420.9,563.2z"/>
		<path class="st2" d="M523.5,553.3l-53.1,5.1c-3.1,0.3-5.3,3-5,6.1l5.1,53.1c0.3,3.1,3,5.3,6.1,5l53.1-5.1c3.1-0.3,5.3-3,5-6.1
			l-5.1-53.1C529.3,555.3,526.5,553,523.5,553.3z"/>
		<path class="st3" d="M626.1,543.5l-53.1,5.1c-3.1,0.3-5.3,3-5,6.1l5.1,53.1c0.3,3.1,3,5.3,6.1,5l53.1-5.1c3.1-0.3,5.3-3,5-6.1
			l-5.1-53.1C631.8,545.4,629.1,543.2,626.1,543.5z"/>
		<path class="st2" d="M728.6,533.7l-53.1,5.1c-3.1,0.3-5.3,3-5,6.1l5.1,53.1c0.3,3.1,3,5.3,6.1,5l53.1-5.1c3.1-0.3,5.3-3,5-6.1
			l-5.1-53.1C734.4,535.6,731.7,533.4,728.6,533.7z"/>
		<path class="st2" d="M215.8,582.8l-53.1,5.1c-3.1,0.3-5.3,3-5,6.1l5.1,53.1c0.3,3.1,3,5.3,6.1,5l53.1-5.1c3.1-0.3,5.3-3,5-6.1
			l-5.1-53.1C221.6,584.8,218.9,582.5,215.8,582.8z"/>
		<path class="st2" d="M195.5,371.3l-53.1,5.1c-3.1,0.3-5.3,3-5,6.1l5.1,53.1c0.3,3.1,3,5.3,6.1,5l53.1-5.1c3.1-0.3,5.3-3,5-6.1
			l-5.1-53.1C201.3,373.2,198.6,371,195.5,371.3z"/>
		<path class="st2" d="M298.1,361.5l-53.1,5.1c-3.1,0.3-5.3,3-5,6.1l5.1,53.1c0.3,3.1,3,5.3,6.1,5l53.1-5.1c3.1-0.3,5.3-3,5-6.1
			l-5.1-53.1C303.9,363.4,301.1,361.2,298.1,361.5z"/>
		<path class="st2" d="M400.7,351.6l-53.1,5.1c-3.1,0.3-5.3,3-5,6.1l5.1,53.1c0.3,3.1,3,5.3,6.1,5l53.1-5.1c3.1-0.3,5.3-3,5-6.1
			l-5.1-53.1C406.4,353.6,403.7,351.3,400.7,351.6z"/>
		<path class="st2" d="M503.2,341.8l-53.1,5.1c-3.1,0.3-5.3,3-5,6.1l5.1,53.1c0.3,3.1,3,5.3,6.1,5l53.1-5.1c3.1-0.3,5.3-3,5-6.1
			l-5.1-53.1C509,343.7,506.3,341.5,503.2,341.8z"/>
		<path class="st3" d="M605.8,332l-53.1,5.1c-3.1,0.3-5.3,3-5,6.1l5.1,53.1c0.3,3.1,3,5.3,6.1,5l53.1-5.1c3.1-0.3,5.3-3,5-6.1
			l-5.1-53.1C611.5,333.9,608.8,331.7,605.8,332z"/>
		<path class="st2" d="M708.3,322.1l-53.1,5.1c-3.1,0.3-5.3,3-5,6.1l5.1,53.1c0.3,3.1,3,5.3,6.1,5l53.1-5.1c3.1-0.3,5.3-3,5-6.1
			l-5.1-53.1C714.1,324.1,711.4,321.8,708.3,322.1z"/>
		<path class="st2" d="M810.9,312.3l-53.1,5.1c-3.1,0.3-5.3,3-5,6.1l5.1,53.1c0.3,3.1,3,5.3,6.1,5l53.1-5.1c3.1-0.3,5.3-3,5-6.1
			l-5.1-53.1C816.7,314.3,813.9,312,810.9,312.3z"/>
		<path class="st2" d="M288,255.7l-53.1,5.1c-3.1,0.3-5.3,3-5,6.1l5.1,53.1c0.3,3.1,3,5.3,6.1,5l53.1-5.1c3.1-0.3,5.3-3,5-6.1
			l-5.1-53.1C293.7,257.6,291,255.4,288,255.7z"/>
		<path class="st2" d="M390.5,245.9l-53.1,5.1c-3.1,0.3-5.3,3-5,6.1l5.1,53.1c0.3,3.1,3,5.3,6.1,5l53.1-5.1c3.1-0.3,5.3-3,5-6.1
			l-5.1-53.1C396.3,247.8,393.6,245.6,390.5,245.9z"/>
		<path class="st2" d="M493.1,236l-53.1,5.1c-3.1,0.3-5.3,3-5,6.1l5.1,53.1c0.3,3.1,3,5.3,6.1,5l53.1-5.1c3.1-0.3,5.3-3,5-6.1
			l-5.1-53.1C498.8,238,496.1,235.7,493.1,236z"/>
		<path class="st3" d="M595.6,226.2l-53.1,5.1c-3.1,0.3-5.3,3-5,6.1l5.1,53.1c0.3,3.1,3,5.3,6.1,5l53.1-5.1c3.1-0.3,5.3-3,5-6.1
			l-5.1-53.1C601.4,228.2,598.7,225.9,595.6,226.2z"/>
		<path class="st2" d="M698.2,216.4l-53.1,5.1c-3.1,0.3-5.3,3-5,6.1l5.1,53.1c0.3,3.1,3,5.3,6.1,5l53.1-5.1c3.1-0.3,5.3-3,5-6.1
			l-5.1-53.1C704,218.3,701.2,216.1,698.2,216.4z"/>
		<path class="st2" d="M800.8,206.5l-53.1,5.1c-3.1,0.3-5.3,3-5,6.1l5.1,53.1c0.3,3.1,3,5.3,6.1,5l53.1-5.1c3.1-0.3,5.3-3,5-6.1
			l-5.1-53.1C806.5,208.5,803.8,206.3,800.8,206.5z"/>
		<g>
			<g>
				<path class="st4" d="M597.3,452.3c0,0,0.6-2.7,2.1-2.9c1.5-0.2,1.9,0.2,1.9,0.2s-1.9-0.4-2,1.2S597.3,452.3,597.3,452.3z"/>
				<path class="st4" d="M596,449.5c0,0,0.1,2.8,1.6,3.3c1.5,0.5,1.9,0.3,1.9,0.3s-1.9,0-1.7-1.6C597.9,449.8,596,449.5,596,449.5z"
					/>
			</g>
			<path class="st4" d="M597.4,482.2c-1.1,1.3,1,5,0,6.8c0,0.1-0.1,0.2-0.1,0.2c-0.9,1.3-2.1,1.7-2,1.9c0.1,0.2,2.4-1,3.9,0
				c1,0.6,1,1.9,1.4,1.8c0.5-0.1,0.3-2.3,1.2-2.7c0.8-0.3,1.4,1.2,2.1,0.8c0.9-0.8-2.2-2.3-2.9-4.5c-0.8-2.4,0.8-3.3-0.2-4.3
				C599.9,481.4,598.1,481.4,597.4,482.2z"/>
			<path class="st4" d="M601.8,481.5c0.4,2.3,0.4,4.1,0.2,4.4c-0.4,0.6-0.9,1.2-1.6,1.6c-0.1,0-0.3,0.1-0.3,0.2
				c0,0.1,1.8-0.8,3.2-0.2c1.1,0.5,1.3,1.6,1.8,1.5c0.5-0.1,0.1-1.6,0.9-2.3c0.8-0.7,2.2-0.2,2.3-0.4c0.1-0.3-2.4-0.4-3.3-1.8
				c-1.2-1.9,1.1-4.5,0-5.6c-0.6-0.6-3.3-0.3-3.7,0.2C600.8,479.6,601.6,480.1,601.8,481.5z"/>
			<path class="st4" d="M571.6,496.8c0,0,10.2-20.9,12.4-25.4c2.3-4.6,4-10.6,5.6-13.9c1.6-3.3,3.8-5.5,9.5-5.6c5.7,0,7.6,3,8.1,4
				c0.5,1,0.9,2.6,2.2,3.1c1.2,0.5,5.4,1.4,5,2.1c-0.3,0.7-2.8,2.2-3.1,3.6c-0.2,1.4-0.9,8.6-1.8,12c-0.9,3.3-0.4,5-4.7,6.7
				s-15.8,0.3-20.7,4.5C579.3,492.1,571.6,496.8,571.6,496.8z"/>
			<path class="st4" d="M596.5,456.5c1.7-1.6,4.9-2.6,7.1-1.2c2.4,1.5,2.4,5.2,0.6,7.3c-1.9,2.2-5.9,3.1-8.1,1.4
				C593.8,462.3,594.4,458.6,596.5,456.5z"/>
			<path class="st4" d="M597.9,456.9c1.3-1.3,3.3-1.5,4.8-0.5c1.8,1.3,2,4.2,0.5,5.7c-1.7,1.7-4.8,1.3-6-0.7
				C596.4,460.1,596.7,458.1,597.9,456.9z"/>
			<path class="st4" d="M600.1,457.1c0.4-0.5,1-0.6,1.5-0.2c0.6,0.5,0.6,1.7,0.2,2.4c-0.5,0.7-1.5,0.5-1.9-0.3
				C599.6,458.4,599.7,457.6,600.1,457.1z"/>
			<path class="st4" d="M573,487.6c0,0,1-2.4,1.3-3.9c0.4-2.6,5.4-10.8,11.5-11.8c3.3-0.6,4.4,1.2,8.7,0.6c3.9-0.6,6.4-2.6,8-3.8
				c0.9-0.6,2.9-2.6,2.9-2.6s-0.3,1.1-0.3,3.2c0,2.2-1.5,9.1-6,11.7c-4.1,2.4-6.8-0.3-14.9,1.5c-4.4,1-6.9,2.5-8.3,3.1
				C575.2,485.8,573,487.6,573,487.6z"/>
			<path class="st4" d="M608,464.7c0.3-0.9,3.8-2,5.6-1.5c0.7,0.2-2.4,4.8-4.4,3.7C608.6,466.5,607.8,465.2,608,464.7z"/>
		</g>
		<g>
			<g>
				<g>
					<path class="st5" d="M587.2,346.5c0,0,0.6-2.7,2.1-2.9c1.5-0.2,1.9,0.2,1.9,0.2s-1.9-0.4-2,1.2S587.2,346.5,587.2,346.5z"/>
					<path class="st5" d="M585.8,343.7c0,0,0.1,2.8,1.6,3.3s1.9,0.3,1.9,0.3s-1.9,0-1.7-1.6S585.8,343.7,585.8,343.7z"/>
				</g>
				<path class="st6" d="M587.3,376.5c-1.1,1.3,1,5,0,6.8c0,0.1-0.1,0.2-0.1,0.2c-0.9,1.3-2.1,1.7-2,1.9c0.1,0.2,2.4-1,3.9,0
					c1,0.6,1,1.9,1.4,1.8c0.5-0.1,0.3-2.3,1.2-2.7c0.8-0.3,1.4,1.2,2.1,0.8c0.9-0.8-2.2-2.3-2.9-4.5c-0.8-2.4,0.8-3.3-0.2-4.3
					C589.8,375.7,587.9,375.7,587.3,376.5z"/>
				<path class="st6" d="M591.7,375.7c0.4,2.3,0.4,4.1,0.2,4.4c-0.4,0.6-0.9,1.2-1.6,1.6c-0.1,0-0.3,0.1-0.3,0.2
					c0,0.1,1.8-0.8,3.2-0.2c1.1,0.5,1.3,1.6,1.8,1.5c0.5-0.1,0.1-1.6,0.9-2.3c0.8-0.7,2.2-0.2,2.3-0.4c0.1-0.3-2.4-0.4-3.3-1.8
					c-1.2-1.9,1.1-4.5,0-5.6c-0.6-0.6-3.3-0.3-3.7,0.2C590.7,373.8,591.4,374.4,591.7,375.7z"/>
				<path class="st7" d="M561.5,391.1c0,0,10.2-20.9,12.4-25.4c2.3-4.6,4-10.6,5.6-13.9c1.6-3.3,3.8-5.5,9.5-5.6c5.7,0,7.6,3,8.1,4
					c0.5,1,0.9,2.6,2.2,3.1c1.2,0.5,5.4,1.4,5,2.1c-0.3,0.7-2.8,2.2-3.1,3.6c-0.2,1.4-0.9,8.6-1.8,12c-0.9,3.3-0.4,5-4.7,6.7
					c-4.3,1.7-15.8,0.3-20.7,4.5C569.2,386.3,561.5,391.1,561.5,391.1z"/>
				<path class="st8" d="M586.4,350.8c1.7-1.6,4.9-2.6,7.1-1.2c2.4,1.5,2.4,5.2,0.6,7.3c-1.9,2.2-5.9,3.1-8.1,1.4
					C583.6,356.6,584.2,352.8,586.4,350.8z"/>
				<path class="st3" d="M587.7,351.1c1.3-1.3,3.3-1.5,4.8-0.5c1.8,1.3,2,4.2,0.5,5.7c-1.7,1.7-4.8,1.3-6-0.7
					C586.2,354.3,586.5,352.3,587.7,351.1z"/>
				<path class="st8" d="M589.9,351.3c0.4-0.5,1-0.6,1.5-0.2c0.6,0.5,0.6,1.7,0.2,2.4c-0.5,0.7-1.5,0.5-1.9-0.3
					C589.5,352.6,589.5,351.8,589.9,351.3z"/>
				<path class="st9" d="M562.9,381.8c0,0,1-2.4,1.3-3.9c0.4-2.6,5.4-10.8,11.5-11.8c3.3-0.6,4.4,1.2,8.7,0.6c3.9-0.6,6.4-2.6,8-3.8
					c0.9-0.6,2.9-2.6,2.9-2.6s-0.3,1.1-0.3,3.2c0,2.2-1.5,9.1-6,11.7c-4.1,2.4-6.8-0.3-14.9,1.5c-4.4,1-6.9,2.5-8.3,3.1
					C565,380,562.9,381.8,562.9,381.8z"/>
				<path class="st7" d="M597.8,358.9c0.3-0.9,3.8-2,5.6-1.5c0.7,0.2-2.4,4.8-4.4,3.7C598.4,360.8,597.7,359.4,597.8,358.9z"/>
			</g>
			<g>
				<g>
					<path class="st5" d="M577,240.7c0,0,0.6-2.7,2.1-2.9c1.5-0.2,1.9,0.2,1.9,0.2s-1.9-0.4-2,1.2S577,240.7,577,240.7z"/>
					<path class="st5" d="M575.7,238c0,0,0.1,2.8,1.6,3.3s1.9,0.3,1.9,0.3s-1.9,0-1.7-1.6C577.6,238.3,575.7,238,575.7,238z"/>
				</g>
				<path class="st6" d="M577.1,270.7c-1.1,1.3,1,5,0,6.8c0,0.1-0.1,0.2-0.1,0.2c-0.9,1.3-2.1,1.7-2,1.9c0.1,0.2,2.4-1,3.9,0
					c1,0.6,1,1.9,1.4,1.8c0.5-0.1,0.3-2.3,1.2-2.7c0.8-0.3,1.4,1.2,2.1,0.8c0.9-0.8-2.2-2.3-2.9-4.5c-0.8-2.4,0.8-3.3-0.2-4.3
					C579.6,269.9,577.8,269.9,577.1,270.7z"/>
				<path class="st6" d="M581.5,270c0.4,2.3,0.4,4.1,0.2,4.4c-0.4,0.6-0.9,1.2-1.6,1.6c-0.1,0-0.3,0.1-0.3,0.2
					c0,0.1,1.8-0.8,3.2-0.2c1.1,0.5,1.3,1.6,1.8,1.5c0.5-0.1,0.1-1.6,0.9-2.3c0.8-0.7,2.2-0.2,2.3-0.4c0.1-0.3-2.4-0.4-3.3-1.8
					c-1.2-1.9,1.1-4.5,0-5.6c-0.6-0.6-3.3-0.3-3.7,0.2C580.6,268,581.3,268.6,581.5,270z"/>
				<path class="st7" d="M551.3,285.3c0,0,10.2-20.9,12.4-25.4c2.3-4.6,4-10.6,5.6-13.9c1.6-3.3,3.8-5.5,9.5-5.6c5.7,0,7.6,3,8.1,4
					c0.5,1,0.9,2.6,2.2,3.1c1.2,0.5,5.4,1.4,5,2.1c-0.3,0.7-2.8,2.2-3.1,3.6c-0.2,1.4-0.9,8.6-1.8,12c-0.9,3.3-0.4,5-4.7,6.7
					c-4.3,1.7-15.8,0.3-20.7,4.5C559,280.5,551.3,285.3,551.3,285.3z"/>
				<path class="st8" d="M576.2,245c1.7-1.6,4.9-2.6,7.1-1.2c2.4,1.5,2.4,5.2,0.6,7.3c-1.9,2.2-5.9,3.1-8.1,1.4
					C573.5,250.8,574.1,247,576.2,245z"/>
				<path class="st3" d="M577.6,245.4c1.3-1.3,3.3-1.5,4.8-0.5c1.8,1.3,2,4.2,0.5,5.7c-1.7,1.7-4.8,1.3-6-0.7
					C576.1,248.5,576.4,246.6,577.6,245.4z"/>
				<path class="st8" d="M579.8,245.5c0.4-0.5,1-0.6,1.5-0.2c0.6,0.5,0.6,1.7,0.2,2.4c-0.5,0.7-1.5,0.5-1.9-0.3
					C579.3,246.8,579.4,246,579.8,245.5z"/>
				<path class="st9" d="M552.7,276c0,0,1-2.4,1.3-3.9c0.4-2.6,5.4-10.8,11.5-11.8c3.3-0.6,4.4,1.2,8.7,0.6c3.9-0.6,6.4-2.6,8-3.8
					c0.9-0.6,2.9-2.6,2.9-2.6s-0.3,1.1-0.3,3.2c0,2.2-1.5,9.1-6,11.7c-4.1,2.4-6.8-0.3-14.9,1.5c-4.4,1-6.9,2.5-8.3,3.1
					C554.9,274.3,552.7,276,552.7,276z"/>
				<path class="st7" d="M587.7,253.1c0.3-0.9,3.8-2,5.6-1.5c0.7,0.2-2.4,4.8-4.4,3.7C588.3,255,587.5,253.6,587.7,253.1z"/>
			</g>
			<g>
				<g>
					<path class="st5" d="M597.3,452.3c0,0,0.6-2.7,2.1-2.9c1.5-0.2,1.9,0.2,1.9,0.2s-1.9-0.4-2,1.2S597.3,452.3,597.3,452.3z"/>
					<path class="st5" d="M596,449.5c0,0,0.1,2.8,1.6,3.3c1.5,0.5,1.9,0.3,1.9,0.3s-1.9,0-1.7-1.6C597.9,449.8,596,449.5,596,449.5z
						"/>
				</g>
				<path class="st6" d="M597.4,482.2c-1.1,1.3,1,5,0,6.8c0,0.1-0.1,0.2-0.1,0.2c-0.9,1.3-2.1,1.7-2,1.9c0.1,0.2,2.4-1,3.9,0
					c1,0.6,1,1.9,1.4,1.8c0.5-0.1,0.3-2.3,1.2-2.7c0.8-0.3,1.4,1.2,2.1,0.8c0.9-0.8-2.2-2.3-2.9-4.5c-0.8-2.4,0.8-3.3-0.2-4.3
					C599.9,481.4,598.1,481.4,597.4,482.2z"/>
				<path class="st6" d="M601.8,481.5c0.4,2.3,0.4,4.1,0.2,4.4c-0.4,0.6-0.9,1.2-1.6,1.6c-0.1,0-0.3,0.1-0.3,0.2
					c0,0.1,1.8-0.8,3.2-0.2c1.1,0.5,1.3,1.6,1.8,1.5c0.5-0.1,0.1-1.6,0.9-2.3c0.8-0.7,2.2-0.2,2.3-0.4c0.1-0.3-2.4-0.4-3.3-1.8
					c-1.2-1.9,1.1-4.5,0-5.6c-0.6-0.6-3.3-0.3-3.7,0.2C600.8,479.6,601.6,480.1,601.8,481.5z"/>
				<path class="st7" d="M571.6,496.8c0,0,10.2-20.9,12.4-25.4c2.3-4.6,4-10.6,5.6-13.9c1.6-3.3,3.8-5.5,9.5-5.6c5.7,0,7.6,3,8.1,4
					c0.5,1,0.9,2.6,2.2,3.1c1.2,0.5,5.4,1.4,5,2.1c-0.3,0.7-2.8,2.2-3.1,3.6c-0.2,1.4-0.9,8.6-1.8,12c-0.9,3.3-0.4,5-4.7,6.7
					s-15.8,0.3-20.7,4.5C579.3,492.1,571.6,496.8,571.6,496.8z"/>
				<path class="st8" d="M596.5,456.5c1.7-1.6,4.9-2.6,7.1-1.2c2.4,1.5,2.4,5.2,0.6,7.3c-1.9,2.2-5.9,3.1-8.1,1.4
					C593.8,462.3,594.4,458.6,596.5,456.5z"/>
				<path class="st3" d="M597.9,456.9c1.3-1.3,3.3-1.5,4.8-0.5c1.8,1.3,2,4.2,0.5,5.7c-1.7,1.7-4.8,1.3-6-0.7
					C596.4,460.1,596.7,458.1,597.9,456.9z"/>
				<path class="st8" d="M600.1,457.1c0.4-0.5,1-0.6,1.5-0.2c0.6,0.5,0.6,1.7,0.2,2.4c-0.5,0.7-1.5,0.5-1.9-0.3
					C599.6,458.4,599.7,457.6,600.1,457.1z"/>
				<path class="st9" d="M573,487.6c0,0,1-2.4,1.3-3.9c0.4-2.6,5.4-10.8,11.5-11.8c3.3-0.6,4.4,1.2,8.7,0.6c3.9-0.6,6.4-2.6,8-3.8
					c0.9-0.6,2.9-2.6,2.9-2.6s-0.3,1.1-0.3,3.2c0,2.2-1.5,9.1-6,11.7c-4.1,2.4-6.8-0.3-14.9,1.5c-4.4,1-6.9,2.5-8.3,3.1
					C575.2,485.8,573,487.6,573,487.6z"/>
				<path class="st7" d="M608,464.7c0.3-0.9,3.8-2,5.6-1.5c0.7,0.2-2.4,4.8-4.4,3.7C608.6,466.5,607.8,465.2,608,464.7z"/>
			</g>
			<g>
				<g>
					<path class="st5" d="M607.5,558c0,0,0.6-2.7,2.1-2.9c1.5-0.2,1.9,0.2,1.9,0.2s-1.9-0.4-2,1.2S607.5,558,607.5,558z"/>
					<path class="st5" d="M606.1,555.3c0,0,0.1,2.8,1.6,3.3c1.5,0.5,1.9,0.3,1.9,0.3s-1.9,0-1.7-1.6S606.1,555.3,606.1,555.3z"/>
				</g>
				<path class="st6" d="M607.5,588c-1.1,1.3,1,5,0,6.8c0,0.1-0.1,0.2-0.1,0.2c-0.9,1.3-2.1,1.7-2,1.9c0.1,0.2,2.4-1,3.9,0
					c1,0.6,1,1.9,1.4,1.8c0.5-0.1,0.3-2.3,1.2-2.7c0.8-0.3,1.4,1.2,2.1,0.8c0.9-0.8-2.2-2.3-2.9-4.5c-0.8-2.4,0.8-3.3-0.2-4.3
					C610.1,587.2,608.2,587.2,607.5,588z"/>
				<path class="st6" d="M612,587.3c0.4,2.3,0.4,4.1,0.2,4.4c-0.4,0.6-0.9,1.2-1.6,1.6c-0.1,0-0.3,0.1-0.3,0.2
					c0,0.1,1.8-0.8,3.2-0.2c1.1,0.5,1.3,1.6,1.8,1.5c0.5-0.1,0.1-1.6,0.9-2.3c0.8-0.7,2.2-0.2,2.3-0.4c0.1-0.3-2.4-0.4-3.3-1.8
					c-1.2-1.9,1.1-4.5,0-5.6c-0.6-0.6-3.3-0.3-3.7,0.2C611,585.3,611.7,585.9,612,587.3z"/>
				<path class="st7" d="M581.8,602.6c0,0,10.2-20.9,12.4-25.4c2.3-4.6,4-10.6,5.6-13.9c1.6-3.3,3.8-5.5,9.5-5.6s7.6,3,8.1,4
					c0.5,1,0.9,2.6,2.2,3.1c1.2,0.5,5.4,1.4,5,2.1c-0.3,0.7-2.8,2.2-3.1,3.6c-0.2,1.4-0.9,8.6-1.8,12c-0.9,3.3-0.4,5-4.7,6.7
					c-4.3,1.7-15.8,0.3-20.7,4.5C589.4,597.8,581.8,602.6,581.8,602.6z"/>
				<path class="st8" d="M606.7,562.3c1.7-1.6,4.9-2.6,7.1-1.2c2.4,1.5,2.4,5.2,0.6,7.3c-1.9,2.2-5.9,3.1-8.1,1.4
					C603.9,568.1,604.5,564.3,606.7,562.3z"/>
				<path class="st3" d="M608,562.7c1.3-1.3,3.3-1.5,4.8-0.5c1.8,1.3,2,4.2,0.5,5.7c-1.7,1.7-4.8,1.3-6-0.7
					C606.5,565.8,606.8,563.9,608,562.7z"/>
				<path class="st8" d="M610.2,562.8c0.4-0.5,1-0.6,1.5-0.2c0.6,0.5,0.6,1.7,0.2,2.4c-0.5,0.7-1.5,0.5-1.9-0.3
					C609.7,564.1,609.8,563.3,610.2,562.8z"/>
				<path class="st9" d="M583.1,593.3c0,0,1-2.4,1.3-3.9c0.4-2.6,5.4-10.8,11.5-11.8c3.3-0.6,4.4,1.2,8.7,0.6c3.9-0.6,6.4-2.6,8-3.8
					c0.9-0.6,2.9-2.6,2.9-2.6s-0.3,1.1-0.3,3.2c0,2.2-1.5,9.1-6,11.7c-4.1,2.4-6.8-0.3-14.9,1.5c-4.4,1-6.9,2.5-8.3,3.1
					C585.3,591.6,583.1,593.3,583.1,593.3z"/>
				<path class="st7" d="M618.1,570.4c0.3-0.9,3.8-2,5.6-1.5c0.7,0.2-2.4,4.8-4.4,3.7C618.7,572.3,617.9,570.9,618.1,570.4z"/>
			</g>
		</g>
	</g>
	<g>
		<path class="st10" d="M846,155.3L78.2,229l-9.6-99.8c-1.3-13.5,8.6-25.6,22.2-26.9l718.8-68.9c13.5-1.3,25.6,8.6,26.9,22.2
			L846,155.3z"/>
		<path class="st11" d="M121.3,141.2L121.3,141.2c-6.8,0.7-13-4.4-13.6-11.2v0c-0.7-6.8,4.4-13,11.2-13.6h0
			c6.8-0.7,13,4.4,13.6,11.2v0C133.2,134.4,128.2,140.5,121.3,141.2z"/>
		<path class="st11" d="M157.2,137.8L157.2,137.8c-6.8,0.7-13-4.4-13.6-11.2v0c-0.7-6.8,4.4-13,11.2-13.6h0
			c6.8-0.7,13,4.4,13.6,11.2v0C169.1,131,164.1,137.1,157.2,137.8z"/>
		<path class="st12" d="M120.5,132.9L120.5,132.9c-5.3,0.5-10.1-3.4-10.6-8.7l-4.8-49.7c-0.5-5.3,3.4-10.1,8.7-10.6l0,0
			c5.3-0.5,10.1,3.4,10.6,8.7l4.8,49.7C129.8,127.6,125.9,132.4,120.5,132.9z"/>
		<path class="st12" d="M156.4,129.5L156.4,129.5c-5.3,0.5-10.1-3.4-10.6-8.7L141.1,71c-0.5-5.3,3.4-10.1,8.7-10.6h0
			c5.3-0.5,10.1,3.4,10.6,8.7l4.8,49.7C165.7,124.2,161.8,129,156.4,129.5z"/>
		<path class="st11" d="M226.3,131.1L226.3,131.1c-6.8,0.7-13-4.4-13.6-11.2v0c-0.7-6.8,4.4-13,11.2-13.6l0,0
			c6.8-0.7,13,4.4,13.6,11.2v0C238.2,124.3,233.1,130.5,226.3,131.1z"/>
		<path class="st11" d="M262.2,127.7L262.2,127.7c-6.8,0.7-13-4.4-13.6-11.2v0c-0.7-6.8,4.4-13,11.2-13.6l0,0
			c6.8-0.7,13,4.4,13.6,11.2v0C274.1,120.9,269,127,262.2,127.7z"/>
		<path class="st12" d="M225.5,122.8L225.5,122.8c-5.3,0.5-10.1-3.4-10.6-8.7l-4.8-49.7c-0.5-5.3,3.4-10.1,8.7-10.6h0
			c5.3-0.5,10.1,3.4,10.6,8.7l4.8,49.7C234.7,117.6,230.8,122.3,225.5,122.8z"/>
		<path class="st12" d="M261.4,119.4L261.4,119.4c-5.3,0.5-10.1-3.4-10.6-8.7L246,60.9c-0.5-5.3,3.4-10.1,8.7-10.6h0
			c5.3-0.5,10.1,3.4,10.6,8.7l4.8,49.7C270.7,114.1,266.7,118.9,261.4,119.4z"/>
		<path class="st11" d="M331.2,121.1L331.2,121.1c-6.8,0.7-13-4.4-13.6-11.2v0c-0.7-6.8,4.4-13,11.2-13.6h0
			c6.8-0.7,13,4.4,13.6,11.2v0C343.1,114.3,338.1,120.4,331.2,121.1z"/>
		<path class="st11" d="M367.2,117.6L367.2,117.6c-6.8,0.7-13-4.4-13.6-11.2v0c-0.7-6.8,4.4-13,11.2-13.6l0,0
			c6.8-0.7,13,4.4,13.6,11.2v0C379,110.8,374,117,367.2,117.6z"/>
		<path class="st12" d="M330.5,112.8L330.5,112.8c-5.3,0.5-10.1-3.4-10.6-8.7l-4.8-49.7c-0.5-5.3,3.4-10.1,8.7-10.6h0
			c5.3-0.5,10.1,3.4,10.6,8.7l4.8,49.7C339.7,107.5,335.8,112.3,330.5,112.8z"/>
		<path class="st12" d="M366.4,109.3L366.4,109.3c-5.3,0.5-10.1-3.4-10.6-8.7L351,50.9c-0.5-5.3,3.4-10.1,8.7-10.6h0
			c5.3-0.5,10.1,3.4,10.6,8.7l4.8,49.7C375.6,104.1,371.7,108.8,366.4,109.3z"/>
		<path class="st11" d="M436.2,111L436.2,111c-6.8,0.7-13-4.4-13.6-11.2v0c-0.7-6.8,4.4-13,11.2-13.6l0,0c6.8-0.7,13,4.4,13.6,11.2
			v0C448.1,104.2,443,110.4,436.2,111z"/>
		<path class="st11" d="M472.1,107.6L472.1,107.6c-6.8,0.7-13-4.4-13.6-11.2v0c-0.7-6.8,4.4-13,11.2-13.6h0
			c6.8-0.7,13,4.4,13.6,11.2v0C484,100.8,478.9,106.9,472.1,107.6z"/>
		<path class="st12" d="M435.4,102.7L435.4,102.7c-5.3,0.5-10.1-3.4-10.6-8.7l-4.8-49.7c-0.5-5.3,3.4-10.1,8.7-10.6l0,0
			c5.3-0.5,10.1,3.4,10.6,8.7l4.8,49.7C444.7,97.4,440.7,102.2,435.4,102.7z"/>
		<path class="st12" d="M471.3,99.3L471.3,99.3c-5.3,0.5-10.1-3.4-10.6-8.7L456,40.8c-0.5-5.3,3.4-10.1,8.7-10.6l0,0
			c5.3-0.5,10.1,3.4,10.6,8.7l4.8,49.7C480.6,94,476.6,98.8,471.3,99.3z"/>
		<path class="st11" d="M541.2,100.9L541.2,100.9c-6.8,0.7-13-4.4-13.6-11.2v0c-0.7-6.8,4.4-13,11.2-13.6l0,0
			c6.8-0.7,13,4.4,13.6,11.2v0C553.1,94.2,548,100.3,541.2,100.9z"/>
		<path class="st11" d="M577.1,97.5L577.1,97.5c-6.8,0.7-13-4.4-13.6-11.2v0c-0.7-6.8,4.4-13,11.2-13.6l0,0
			c6.8-0.7,13,4.4,13.6,11.2v0C589,90.7,583.9,96.8,577.1,97.5z"/>
		<path class="st12" d="M540.4,92.7L540.4,92.7c-5.3,0.5-10.1-3.4-10.6-8.7L525,34.2c-0.5-5.3,3.4-10.1,8.7-10.6l0,0
			c5.3-0.5,10.1,3.4,10.6,8.7l4.8,49.7C549.6,87.4,545.7,92.2,540.4,92.7z"/>
		<path class="st12" d="M576.3,89.2L576.3,89.2c-5.3,0.5-10.1-3.4-10.6-8.7l-4.8-49.7c-0.5-5.3,3.4-10.1,8.7-10.6l0,0
			c5.3-0.5,10.1,3.4,10.6,8.7l4.8,49.7C585.5,83.9,581.6,88.7,576.3,89.2z"/>
		<path class="st11" d="M646.1,90.9L646.1,90.9c-6.8,0.7-13-4.4-13.6-11.2v0c-0.7-6.8,4.4-13,11.2-13.6h0c6.8-0.7,13,4.4,13.6,11.2
			v0C658,84.1,653,90.2,646.1,90.9z"/>
		<path class="st11" d="M682,87.4L682,87.4c-6.8,0.7-13-4.4-13.6-11.2v0c-0.7-6.8,4.4-13,11.2-13.6l0,0c6.8-0.7,13,4.4,13.6,11.2v0
			C693.9,80.7,688.9,86.8,682,87.4z"/>
		<path class="st12" d="M645.3,82.6L645.3,82.6c-5.3,0.5-10.1-3.4-10.6-8.7L630,24.1c-0.5-5.3,3.4-10.1,8.7-10.6v0
			c5.3-0.5,10.1,3.4,10.6,8.7l4.8,49.7C654.6,77.3,650.6,82.1,645.3,82.6z"/>
		<path class="st12" d="M681.2,79.2L681.2,79.2c-5.3,0.5-10.1-3.4-10.6-8.7l-4.8-49.7c-0.5-5.3,3.4-10.1,8.7-10.6v0
			c5.3-0.5,10.1,3.4,10.6,8.7l4.8,49.7C690.5,73.9,686.5,78.6,681.2,79.2z"/>
		<path class="st11" d="M751.1,80.8L751.1,80.8c-6.8,0.7-13-4.4-13.6-11.2v0c-0.7-6.8,4.4-13,11.2-13.6v0c6.8-0.7,13,4.4,13.6,11.2
			v0C763,74,757.9,80.2,751.1,80.8z"/>
		<path class="st11" d="M787,77.4L787,77.4c-6.8,0.7-13-4.4-13.6-11.2v0c-0.7-6.8,4.4-13,11.2-13.6v0c6.8-0.7,13,4.4,13.6,11.2v0
			C798.9,70.6,793.8,76.7,787,77.4z"/>
		<path class="st12" d="M750.3,72.5L750.3,72.5c-5.3,0.5-10.1-3.4-10.6-8.7l-4.8-49.7c-0.5-5.3,3.4-10.1,8.7-10.6v0
			c5.3-0.5,10.1,3.4,10.6,8.7l4.8,49.7C759.5,67.3,755.6,72,750.3,72.5z"/>
		<path class="st12" d="M786.2,69.1L786.2,69.1c-5.3,0.5-10.1-3.4-10.6-8.7l-4.8-49.7c-0.5-5.3,3.4-10.1,8.7-10.6v0
			c5.3-0.5,10.1,3.4,10.6,8.7l4.8,49.7C795.4,63.8,791.5,68.6,786.2,69.1z"/>
	</g>
</g>
</svg>
