<?xml version="1.0" encoding="utf-8"?>
<!-- Generator: Adobe Illustrator 24.2.1, SVG Export Plug-In . SVG Version: 6.00 Build 0)  -->
<svg version="1.1" id="Layer_1" xmlns="http://www.w3.org/2000/svg" xmlns:xlink="http://www.w3.org/1999/xlink" x="0px" y="0px"
	 viewBox="0 0 512 512" style="enable-background:new 0 0 512 512;" xml:space="preserve">
<style type="text/css">
	.st0{fill:#C5E6DA;}
	.st1{fill:#AB7575;}
	.st2{fill:#C8CBCD;}
	.st3{fill:#FFFFFF;}
	.st4{display:none;fill:#73CAC3;}
	.st5{fill:#184753;}
	.st6{display:none;}
	.st7{display:inline;}
	.st8{fill:#127E9A;}
	.st9{fill:#73C9C3;}
	.st10{fill:#74C9C2;}
	.st11{fill:#FCD484;}
	.st12{fill:#E7B249;}
	.st13{fill:#D69292;}
	.st14{fill:#E2A67D;}
	.st15{fill:#D18766;}
	.st16{fill:#73CAC3;}
	.st17{fill:#68B6B0;}
	.st18{fill:#FBD1BF;}
	.st19{display:inline;fill:#FCD891;}
	.st20{display:inline;fill:#FCD485;}
	.st21{display:inline;fill:#E3BF78;}
	.st22{display:inline;fill:#CAAA6A;}
	.st23{fill:#FDE1AA;}
	.st24{display:inline;fill:#AB7575;}
	.st25{display:inline;fill:#805858;}
	.st26{display:inline;fill:#C97629;}
	.st27{display:inline;fill:#A35425;}
	.st28{display:inline;fill:#DA8C36;}
	.st29{display:inline;fill:#B06328;}
	.st30{fill:#FCD485;}
	.st31{fill:#E3BF78;}
	.st32{fill:#7E6A43;}
	.st33{fill:#B0945D;}
	.st34{fill:#F5F5F5;}
</style>
<g id="Layer_3">
	<circle class="st0" cx="256" cy="256" r="256"/>
</g>
<g id="Layer_1_1_">
	<g id="Layer_2_1_">
	</g>
	<g>
		<g>
			<path class="st1" d="M253.3,101.1c-0.4-1.9-2.1-3.2-3.9-3c-83.9,7.1-150.4,52.4-151.1,52.6l1.3,7.3h0.1l150-2.9
				c1.9,0,3.4-1.4,3.7-3.2C255.6,134.2,253.4,101.5,253.3,101.1z"/>
			<path class="st2" d="M212.6,121.3c-0.2-1.1-1.2-1.8-2.2-1.7c-27.7,2.6-48.1,14-56.3,18c-1.3,0.6-1.9,1.5-1.9,2.9
				s0.6,12.1,0.6,12.1l57.8,8.4c1,0,1.9-0.8,2-1.8C213.9,149.6,212.6,121.6,212.6,121.3z"/>
			<path class="st3" d="M206.6,129.2c-0.2-0.8-0.9-1.4-1.8-1.3c-22.2,2.1-38.5,11.2-45.1,14.4c-1,0.5-1.5,1.3-1.5,2.2
				c0,1,0.5,9.7,0.5,9.7L205,161c0.8,0,1.5-0.6,1.6-1.4C207.6,151.8,206.6,129.5,206.6,129.2z"/>
			<g>
				<path class="st4" d="M206.6,129.2c-0.2-0.8-0.9-1.4-1.8-1.3c-22.2,2.1-38.5,11.2-45.1,14.4c-1,0.5-1.5,1.3-1.5,2.2
					c0,1.1,0.5,9.7,0.5,9.7L205,161c0.8,0,1.5-0.6,1.6-1.4C207.6,151.8,206.6,129.5,206.6,129.2z"/>
				<path class="st5" d="M164.1,140.7c0-0.1-0.2-0.2-0.3-0.2c-2.3,1-4.3,2-5.4,2.6c-0.2,0.1-0.3,0.2-0.3,0.4c0,0.2,0.3,4.8,0.3,5.1
					c0,0.4,0.4,0.3,0.6,0.2c1.1-0.4,4.8-2.3,4.8-2.3c0.1,0,0.3-0.1,0.3-0.2C164.4,145,164.1,140.8,164.1,140.7z"/>
				<path class="st5" d="M170.5,143.5c0-0.1-0.2-0.2-0.3-0.2c-2.3,1-4.3,2-5.4,2.6c-0.2,0.1-0.3,0.2-0.3,0.4s0.3,4.8,0.3,5.1
					c0,0.4,0.4,0.3,0.6,0.2c1.1-0.4,4.8-2.3,4.8-2.3c0.1,0,0.3-0.1,0.3-0.2C170.8,147.8,170.5,143.5,170.5,143.5z"/>
				<path class="st5" d="M182.2,132.9c0-0.1-0.2-0.2-0.3-0.2c-2.3,1-10.4,3.9-11.4,4.6c-0.2,0.1-0.3,0.2-0.3,0.4
					c0,0.2,0.3,4.8,0.3,5.1s0.4,0.3,0.6,0.2c0.5-0.2,3-1.2,5.5-2.2c0,0.1,0,0.1,0,0.2c0,0.2,0.3,4.8,0.3,5.1c0,0.4,0.4,0.3,0.6,0.2
					c1.1-0.4,4.8-1.8,4.8-1.8c0.1,0,0.3-0.1,0.3-0.2C182.8,142.9,182.2,132.9,182.2,132.9z"/>
				<path class="st5" d="M206.5,129.2c0-0.1-0.4-1.4-2.3-1.3c-2,0.2-14.5,2.2-15.6,2.9c-0.2,0.1-0.3,0.2-0.3,0.4
					c0,0.2,0.3,4.8,0.3,5.1c0,0.4,0.4,0.3,0.6,0.2c1.1-0.4,16.2-3.1,16.9-3.2c0.6-0.1,0.6-0.5,0.6-0.6
					C206.8,131.3,206.5,129.2,206.5,129.2z"/>
				<path class="st5" d="M200.8,133.6c0-0.1-0.2-0.2-0.3-0.2c-2.6,0.6-5.4,1.3-5.4,1.3s-0.3,0.2-0.3,0.4c0,0.2,0.3,5.1,0.3,5.5
					c0,0.4,0.4,0.3,0.6,0.2c1.1-0.4,4.7-0.4,4.7-0.4c0.1,0,0.5-0.4,0.5-0.5C201.2,138.6,200.8,133.6,200.8,133.6z"/>
				<path class="st5" d="M206.6,139.3c-0.2-0.3-0.3-0.9-1.3-0.7c-2,0.2-21.3,4.8-22.3,5.4c-0.2,0.1-0.3,0.2-0.3,0.4s0.3,3.8,0.3,4.1
					c0,0.4,0.4,0.3,0.6,0.2c0.8-0.4,16.4-3.2,18.7-3.7s3.1-0.6,4.2-0.9c0.5-0.2,0.6-0.5,0.6-0.6C207.2,142,206.9,139.7,206.6,139.3z
					"/>
			</g>
			<g class="st6">
				<g id="Layer_2_2_" class="st7">
					<path class="st3" d="M233.6,203.2l-73.1,12.5c-1.1,0.2-2.2-0.5-2.3-1.6L145.7,141c-0.2-1.1,0.5-2.2,1.6-2.3l73.1-12.5
						c1.1-0.2,2.2,0.5,2.3,1.6l12.5,73.1C235.4,202,234.7,203,233.6,203.2z"/>
				</g>
				<g id="Layer_1_2_" class="st7">
					<g>
						<g>
							<rect x="158.6" y="147.2" transform="matrix(0.9857 -0.1683 0.1683 0.9857 -23.0576 29.4244)" width="7" height="7"/>
						</g>
					</g>
					<g>
						<g>
							<path d="M198.4,133.9l0.6,3.5l-3.5,0.6l0.6,3.5l3.5-0.6l2.3,13.8l3.5-0.6l0.6,3.5l-3.5,0.6l0.6,3.5l3.5-0.6l3.5-0.6l-1.2-6.9
								l10.4-1.8l0.6,3.5l3.5-0.6l-0.6-3.5l-3.6-20.8L198.4,133.9z M218.7,148.2l-13.8,2.3l-2.3-13.8l13.8-2.3L218.7,148.2z"/>
						</g>
					</g>
					<g>
						<g>
							<rect x="207.1" y="139" transform="matrix(0.9857 -0.1683 0.1683 0.9857 -20.9757 37.4728)" width="7" height="7"/>
						</g>
					</g>
					<g>
						<g>
							<rect x="166.9" y="195.7" transform="matrix(0.9857 -0.1683 0.1683 0.9857 -31.1022 31.521)" width="7" height="7"/>
						</g>
					</g>
					<g>
						<g>
							<rect x="207" y="182" transform="matrix(0.9857 -0.1683 0.1683 0.9857 -27.9519 37.7524)" width="3.5" height="3.5"/>
						</g>
					</g>
					<g>
						<g>
							<rect x="192.6" y="202.3" transform="matrix(0.9857 -0.1683 0.1683 0.9857 -31.5674 35.6265)" width="3.5" height="3.5"/>
						</g>
					</g>
					<g>
						<g>
							<rect x="193.7" y="187.9" transform="matrix(0.9857 -0.1683 0.1683 0.9857 -29.1226 35.6018)" width="3.5" height="3.5"/>
						</g>
					</g>
					<g>
						<g>
							<rect x="194.9" y="194.8" transform="matrix(0.9857 -0.1683 0.1683 0.9857 -30.2834 35.8998)" width="3.5" height="3.5"/>
						</g>
					</g>
					<g>
						<g>
							<rect x="223.1" y="172.2" transform="matrix(0.9857 -0.1683 0.1683 0.9857 -26.0609 40.3289)" width="3.5" height="3.5"/>
						</g>
					</g>
					<g>
						<g>
							<rect x="157.3" y="183.4" transform="matrix(0.9857 -0.1683 0.1683 0.9857 -28.8877 29.4098)" width="3.5" height="3.5"/>
						</g>
					</g>
					<g>
						<g>
							<rect x="154.3" y="166.1" transform="matrix(0.9857 -0.1683 0.1683 0.9857 -26.0169 28.665)" width="3.5" height="3.5"/>
						</g>
					</g>
					<g>
						<g>
							<polygon points="188.6,139.2 189.2,142.6 182.3,143.7 182.9,147.2 193.3,145.5 192.6,142 192.1,138.5 							"/>
						</g>
					</g>
					<g>
						<g>
							<path d="M195.1,155.9"/>
						</g>
					</g>
					<g>
						<g>
							<rect x="199.5" y="200.9" transform="matrix(0.9857 -0.1683 0.1683 0.9857 -31.2023 37.0637)" width="7" height="3.5"/>
						</g>
					</g>
					<g>
						<g>
							<rect x="178.5" y="140.6" transform="matrix(0.9857 -0.1683 0.1683 0.9857 -21.387 32.3629)" width="3.5" height="3.5"/>
						</g>
					</g>
					<g>
						<g>
							<rect x="210.3" y="160.1" transform="matrix(0.9857 -0.1683 0.1683 0.9857 -24.2084 37.9973)" width="3.5" height="3.5"/>
						</g>
					</g>
					<g>
						<g>
							<rect x="213.3" y="156" transform="matrix(0.9857 -0.1683 0.1683 0.9857 -23.4844 38.4379)" width="3.5" height="3.5"/>
						</g>
					</g>
					<g>
						<g>
							<rect x="171.1" y="181" transform="matrix(0.9857 -0.1683 0.1683 0.9857 -28.2992 31.702)" width="3.5" height="3.5"/>
						</g>
					</g>
					<g>
						<g>
							<path d="M182,204.5l-2.3-13.8l3.5-0.6l-0.6-3.5l-0.6-3.5l-3.5,0.6l0.6,3.5l-10.4,1.8l-0.6-3.5l-3.5,0.6l-3.5,0.6l0.6,3.5
								l-3.5,0.6l3.6,20.8l20.8-3.6l6.9-1.2l-0.6-3.5L182,204.5z M178.5,205l-13.8,2.3l-2.3-13.8l13.8-2.3L178.5,205z"/>
						</g>
					</g>
					<g>
						<g>
							<path d="M174.3,159.4"/>
						</g>
					</g>
					<g>
						<g>
							<path d="M174.2,138l-3.5,0.6l-20.8,3.6l3.6,20.8l3.5-0.6l0.6,3.5l3.5-0.6l-0.6-3.5l3.5-0.6l0.6,3.5l3.5-0.6l-0.6-3.5l6.9-1.2
								l-1.2-6.9l3.5-0.6l-0.6-3.5l-3.5,0.6l-1.2-6.9l3.5-0.6l3.5-0.6l-0.6-3.5L174.2,138z M170.2,156.6l-13.8,2.3l-2.3-13.8
								l13.8-2.3L170.2,156.6z"/>
						</g>
					</g>
					<g>
						<g>
							<rect x="193.5" y="145.2" transform="matrix(0.9857 -0.1683 0.1683 0.9857 -21.9408 34.9641)" width="3.5" height="3.5"/>
						</g>
					</g>
					<g>
						<g>
							<rect x="184.8" y="135.9" transform="matrix(0.9857 -0.1683 0.1683 0.9857 -20.5104 33.3674)" width="3.5" height="3.5"/>
						</g>
					</g>
					<g>
						<g>
							<g>
								<polygon points="169.1,171 176.1,169.8 175.4,166.3 172,167 171.4,163.5 167.9,164 168.5,167.5 158.1,169.3 158.7,172.8 
									165.7,171.5 166.3,175 155.9,176.8 156.4,180.2 166.8,178.5 167.4,182 170.9,181.4 170.3,177.9 173.7,177.3 174.4,180.8 
									177.8,180.2 177.2,176.8 176.6,173.3 169.7,174.4 								"/>
								<polygon points="191,153 190.4,149.5 186.9,150.1 187.5,153.6 180.6,154.8 180,151.3 176.5,151.9 177.1,155.3 177.8,158.8 
									181.2,158.2 184.7,157.6 195.1,155.9 194.4,152.4 								"/>
							</g>
						</g>
					</g>
					<g>
						<g>
							<polygon points="190.6,192.3 190,188.8 189.4,185.4 185.9,185.9 186.5,189.4 183,190 183.7,193.4 187.1,192.9 187.7,196.3 
								184.2,196.9 184.8,200.4 191.7,199.2 191.1,195.8 194.6,195.1 194,191.7 							"/>
						</g>
					</g>
					<g>
						<g>
							<polygon points="223,193.9 222.3,190.4 218.8,191 219.5,194.5 209.1,196.2 209.7,199.7 216.6,198.5 217.2,202 220.6,201.4 
								220.1,197.9 227,196.8 227.5,200.2 231,199.6 230.4,196.1 229.9,192.7 							"/>
						</g>
					</g>
					<g>
						<g>
							<polygon points="224,179.4 224.6,182.9 221.2,183.5 221.7,187 228.7,185.8 228.1,182.3 227.4,178.8 							"/>
						</g>
					</g>
					<g>
						<path class="st8" d="M187.4,165.2c0.9-0.8,2-1.3,3.1-1.5c1-0.2,1.8-0.2,2.4-0.1c0.6,0.1,1.3,0.4,2.1,0.9
							c0.4,0.3,1.2,0.3,1.2,0.3s0.8-0.3,1.1-0.6c0.3-0.4,0.4-0.8,0.3-1.3c-0.1-0.3-0.1-0.5-0.3-0.7c-0.1-0.2-0.4-0.4-0.6-0.5
							c-1.1-0.6-2.2-1-3.2-1.2c-1-0.2-2.2-0.2-3.5,0.1c-1.9,0.4-3.5,1.1-4.8,2.2c-1.3,1.2-2.3,2.6-3,4.4c-0.6,1.7-0.7,3.5-0.4,5.4
							c0.4,1.9,1.1,3.6,2.2,5s2.6,2.5,4.2,3.1c1.7,0.6,3.5,0.8,5.3,0.5c2.4-0.4,4.4-1.5,5.9-3.3c0.4-0.4,0.4-0.8,0.4-1.3l-1-5.9
							c-0.1-0.5-0.4-0.9-0.7-1.2l0,0c-0.4-0.3-0.8-0.4-1.3-0.3L192,170c-0.4,0.1-0.9,0.3-1.2,0.6c-0.3,0.4-0.4,0.8-0.3,1.3
							s0.4,0.8,0.7,1.1c0.4,0.3,0.8,0.3,1.3,0.3l3-0.5l0.6,3.7c-1,0.9-2.2,1.4-3.3,1.6c-1.2,0.2-2.3,0.1-3.5-0.4
							c-1.2-0.4-2.1-1.2-2.9-2.2c-0.8-1-1.3-2.2-1.5-3.4c-0.2-1.3-0.1-2.5,0.3-3.8C185.8,167,186.5,166,187.4,165.2z"/>
						<g>
							<g>
								<path class="st9" d="M186.8,171.3c0,0,0-0.5,0.3-0.6c0.3-0.1,0.4,0,0.4,0s-0.4,0-0.4,0.3
									C187.2,171.3,186.8,171.3,186.8,171.3z"/>
								<path class="st9" d="M186.5,170.8c0,0,0.1,0.5,0.4,0.5c0.3,0.1,0.4,0,0.4,0s-0.4,0.1-0.4-0.3
									C186.8,170.7,186.5,170.8,186.5,170.8z"/>
							</g>
							<path class="st10" d="M187.7,176.9c-0.2,0.3,0.4,0.9,0.2,1.3l0,0c-0.1,0.3-0.4,0.4-0.4,0.4s0.4-0.3,0.7-0.1
								c0.2,0.1,0.3,0.4,0.4,0.3c0.1,0,0-0.4,0.2-0.5c0.2-0.1,0.3,0.2,0.4,0.1c0.2-0.2-0.4-0.4-0.7-0.7c-0.3-0.4,0.1-0.6-0.2-0.8
								C188.2,176.7,187.8,176.8,187.7,176.9z"/>
							<path class="st10" d="M188.5,176.7c0.2,0.4,0.2,0.7,0.2,0.8c-0.1,0.1-0.1,0.3-0.3,0.4c0,0-0.1,0-0.1,0.1c0,0,0.3-0.2,0.6-0.2
								c0.2,0.1,0.3,0.3,0.4,0.3c0.1,0,0-0.3,0.1-0.4c0.1-0.2,0.4-0.1,0.4-0.2c0-0.1-0.4,0-0.6-0.3c-0.3-0.4,0.1-0.9-0.2-1.1
								c-0.1-0.1-0.6,0-0.7,0.2C188.3,176.3,188.4,176.4,188.5,176.7z"/>
							<path class="st11" d="M183.3,180.4c0,0,1.3-4.2,1.5-5.1c0.3-0.9,0.4-2.1,0.6-2.8c0.2-0.7,0.5-1.2,1.6-1.3
								c1.1-0.2,1.5,0.4,1.6,0.5c0.1,0.2,0.3,0.4,0.5,0.5c0.3,0.1,1.1,0.1,1,0.3c-0.1,0.1-0.4,0.5-0.4,0.7c0,0.3,0.1,1.6,0,2.3
								c-0.1,0.6,0.1,1-0.7,1.4c-0.8,0.4-3,0.5-3.8,1.4C184.7,179.3,183.3,180.4,183.3,180.4z"/>
							<path class="st3" d="M186.7,172.1c0.3-0.4,0.9-0.6,1.3-0.4c0.5,0.2,0.6,0.9,0.4,1.3c-0.3,0.4-1,0.8-1.4,0.5
								C186.5,173.3,186.5,172.5,186.7,172.1z"/>
							<path class="st8" d="M187,172.2c0.2-0.3,0.5-0.4,0.9-0.3c0.4,0.2,0.5,0.7,0.3,1.1c-0.3,0.4-0.9,0.4-1.2,0.1
								C186.8,172.8,186.8,172.4,187,172.2z"/>
							<path class="st3" d="M187.4,172.1c0.1-0.1,0.2-0.2,0.3-0.1c0.1,0.1,0.2,0.3,0.1,0.4c-0.1,0.2-0.3,0.2-0.4,0
								C187.4,172.4,187.4,172.2,187.4,172.1z"/>
							<path class="st12" d="M183.3,178.6c0,0,0.1-0.5,0.1-0.7c0-0.5,0.7-2.2,1.8-2.6c0.6-0.2,0.9,0.1,1.6-0.2
								c0.7-0.3,1.1-0.7,1.3-1c0.2-0.2,0.4-0.5,0.4-0.5s0,0.2,0,0.6c0.1,0.4,0,1.7-0.8,2.3c-0.7,0.5-1.3,0.2-2.7,0.7
								c-0.8,0.4-1.2,0.7-1.4,0.8C183.7,178.3,183.3,178.6,183.3,178.6z"/>
							<path class="st11" d="M189.1,173.3c0-0.2,0.6-0.4,1-0.4c0.1,0-0.3,1-0.7,0.8C189.3,173.6,189.1,173.4,189.1,173.3z"/>
						</g>
					</g>
					<polygon points="220.4,158.6 221.1,162.1 214.2,163.3 214.7,166.8 204.3,168.5 204.9,172 205.1,172.9 205.1,172.9 206.1,178.9 
						213,177.7 214.8,188.1 204.4,189.9 203.2,183 203.2,183 199.8,183.6 199.8,183.6 196.3,184.2 196.9,187.6 200.4,187.1 
						201.5,194 205,193.3 205.6,196.8 209.1,196.2 208.5,192.8 218.8,191 217.7,184.1 221.2,183.5 220.5,180.1 217.1,180.6 
						215.9,173.7 209,174.9 208.4,171.4 215.3,170.2 215.9,173.7 219.4,173.1 218.7,169.7 222.2,169 221.7,165.5 225.1,165 
						224.6,161.5 223.9,158.1 					"/>
				</g>
			</g>
			<path class="st13" d="M298.7,259.9c0,52.4-3.9,105.5-3.9,106c-0.2,1.8-1.6,3.3-3.4,3.4c-0.2,0-5.6,0.5-14.7,1.2
				c-17.9,1.3-49.8,3.2-81.4,3.2c-47.5,0-95.6-4.3-96.1-4.4c-1.8-0.2-3.2-1.6-3.4-3.4c0-0.5-3.9-53.6-3.9-106s3.9-105.5,3.9-106
				c0.2-1.8,1.5-3.3,3.4-3.4c0.4-0.1,48.6-4.4,96.1-4.4c31.6,0,63.5,1.9,81.4,3.2c9.1,0.6,14.5,1.2,14.7,1.2
				c1.8,0.2,3.2,1.6,3.4,3.4C294.8,154.3,298.7,207.4,298.7,259.9z"/>
			<path class="st1" d="M298.7,259.9c0,52.4-3.9,105.5-3.9,106c-0.2,1.8-1.6,3.3-3.4,3.4c-0.2,0-5.6,0.5-14.7,1.2
				c8.3-108.7,1.5-203,0-221.2c9.1,0.6,14.5,1.2,14.7,1.2c1.8,0.2,3.2,1.6,3.4,3.4C294.8,154.3,298.7,207.4,298.7,259.9L298.7,259.9
				z"/>
			<g>
				<path class="st14" d="M211.4,329.2c0.1,1.9-1.3,3.5-3.2,3.9c-0.2,0-3,0.4-6.9,0.7c-1.8,0.1-3.9,0.2-6,0.2
					c-6.9,0-12.6-0.8-12.9-0.9c-1.9-0.3-3.2-1.9-3.2-3.9c0.3-9.1,2.3-18.5,2.3-18.8c0.4-1.7,1.9-3,3.7-3h20.2c1.8,0,3.3,1.3,3.7,3
					C209.1,310.8,211.1,320.2,211.4,329.2L211.4,329.2z"/>
				<path class="st15" d="M211.4,329.2c0.1,1.9-1.3,3.5-3.2,3.9c-0.2,0-3,0.4-6.9,0.7c-0.3-10.7-1.5-20.8-2.3-26.3h6.5
					c1.8,0,3.3,1.3,3.7,3C209.1,310.8,211.1,320.2,211.4,329.2L211.4,329.2z"/>
				<path class="st16" d="M253.5,311.2c-0.6,1.2-1.8,2-3,2.1c-0.1,0-3,0.2-7.8,0.4c-9.8,0.5-27.5,1.3-47.3,1.3
					c-29.6,0-54.8-1.8-55.1-1.8c-1.3-0.1-2.5-0.9-3-2.1c-0.6-1.2-0.5-2.6,0.2-3.7c8.9-13.9,19.1-26.7,25.6-34.4
					c-4.3,1-7.5,2.2-7.6,2.2c-1.5,0.5-3.2,0.1-4.2-1.2c-1-1.3-1.1-3-0.3-4.4c8.8-13.5,18-25.5,23.9-32.7c-2.2,0.4-3.5,0.8-3.5,0.8
					c-1.5,0.4-3-0.1-4-1.3c-1-1.3-1.1-2.9-0.3-4.2c11.4-19.1,24.9-33.8,25.5-34.4c0.7-0.8,1.7-1.2,2.8-1.2c1.1,0,2.1,0.4,2.8,1.2
					c0.1,0.1,0.1,0.1,0.2,0.2c1.7,1.8,14.4,16.1,25.3,34.3c0.8,1.3,0.7,3-0.3,4.2c-1,1.3-2.6,1.7-4,1.3c0,0-1.3-0.4-3.5-0.8
					c5.9,7.3,15.2,19.2,23.9,32.7c0.9,1.3,0.8,3.1-0.3,4.4c-1,1.3-2.7,1.7-4.2,1.2c-0.1,0-3.2-1.2-7.6-2.2
					c6.5,7.7,16.7,20.5,25.6,34.4C254,308.6,254,310,253.5,311.2L253.5,311.2z"/>
				<path class="st17" d="M253.5,311.2c-0.6,1.2-1.8,2-3,2.1c-0.1,0-3,0.2-7.8,0.4c-12.4-21.1-32.7-48.2-32.7-48.2
					c8.2,0.2,14.5,1,14.5,1c-13.8-22.8-23.9-38.3-23.9-38.3c5.5,0.1,9.8,0.7,9.8,0.7c-3.7-12.6-12-30.7-12.1-30.9
					c0.1,0.1,0.1,0.1,0.2,0.2c1.7,1.8,14.4,16.1,25.3,34.3c0.8,1.3,0.7,3-0.3,4.2c-1,1.3-2.6,1.7-4,1.3c0,0-1.3-0.4-3.5-0.8
					c5.9,7.3,15.2,19.2,23.9,32.7c0.9,1.3,0.8,3.1-0.3,4.4c-1,1.3-2.7,1.7-4.2,1.2c-0.1,0-3.2-1.2-7.6-2.2
					c6.5,7.7,16.7,20.5,25.6,34.4C254,308.6,254,310,253.5,311.2L253.5,311.2z"/>
				<g>
					<ellipse class="st0" cx="188.9" cy="253.2" rx="3.8" ry="3.8"/>
					<ellipse class="st0" cx="179.2" cy="290.9" rx="3.8" ry="3.8"/>
					<ellipse class="st0" cx="208.9" cy="282.5" rx="3.8" ry="3.8"/>
				</g>
			</g>
			<g>
				<g>
					<path class="st9" d="M196.9,178.4c0,0,0.5-1.6,1.5-1.7c1,0,1.2,0.2,1.2,0.2s-1.2-0.4-1.3,0.6
						C198,178.5,196.9,178.4,196.9,178.4z"/>
					<path class="st9" d="M196.1,176.6c0,0-0.1,1.7,0.8,2.2s1.2,0.3,1.2,0.3s-1.2-0.1-1-1.1C197.3,176.9,196.1,176.6,196.1,176.6z"
						/>
				</g>
				<path class="st18" d="M195.1,197.2c-0.7,0.8,0.4,3.2-0.4,4.3c0,0.1-0.1,0.1-0.1,0.1c-0.6,0.8-1.4,0.9-1.3,1.1
					c0,0.2,1.6-0.4,2.4,0.2c0.5,0.4,0.5,1.3,0.8,1.3c0.4,0,0.3-1.4,0.9-1.6c0.5-0.2,0.8,0.8,1.3,0.6c0.6-0.4-1.3-1.5-1.5-3
					c-0.4-1.5,0.7-2,0.1-2.7C196.7,196.8,195.5,196.8,195.1,197.2z"/>
				<path class="st18" d="M197.9,197c0.1,1.4,0,2.6-0.1,2.8c-0.3,0.4-0.6,0.7-1.2,0.9c-0.1,0-0.2,0.1-0.2,0.1c0,0.1,1.2-0.4,2,0.1
					c0.6,0.4,0.7,1.1,1,1.1c0.3-0.1,0.2-1,0.7-1.3s1.4,0,1.4-0.1c0.1-0.2-1.4-0.4-2-1.3c-0.6-1.3,0.9-2.8,0.3-3.5
					c-0.4-0.4-2.1-0.4-2.3-0.1C197.4,195.7,197.8,196.1,197.9,197z"/>
				<path class="st11" d="M178,204.7c0,0,7.6-12.5,9.3-15.2c1.7-2.7,3.1-6.5,4.4-8.3c1.3-2,2.7-3.2,6.3-3c3.6,0.3,4.6,2.3,4.8,3
					c0.3,0.7,0.4,1.7,1.2,2.1c0.7,0.4,3.3,1.3,3,1.6c-0.3,0.4-1.9,1.2-2.2,2.1c-0.3,0.9-1.1,5.4-1.9,7.4c-0.8,2.1-0.5,3.1-3.3,3.9
					s-10-0.8-13.3,1.5C183.1,202.2,178,204.7,178,204.7z"/>
				<path class="st3" d="M196.1,181.1c1.2-0.9,3.2-1.3,4.6-0.3c1.4,1.1,1.2,3.4-0.1,4.7c-1.3,1.3-3.9,1.6-5.2,0.4
					C194,184.5,194.6,182.1,196.1,181.1z"/>
				<path class="st8" d="M197,181.3c0.9-0.7,2.2-0.7,3,0c1.1,0.9,1.1,2.7,0,3.6c-1.2,1-3,0.5-3.7-0.8
					C195.8,183.2,196.1,182,197,181.3z"/>
				<path class="st3" d="M198.3,181.6c0.3-0.3,0.7-0.4,1,0c0.4,0.4,0.3,1.2,0,1.5c-0.4,0.4-1,0.3-1.2-0.3
					C197.8,182.3,198,181.9,198.3,181.6z"/>
				<path class="st12" d="M179.5,199.1c0,0,0.8-1.4,1.1-2.3c0.4-1.6,4-6.5,7.9-6.7c2.2-0.2,2.7,1,5.4,0.9c2.5-0.2,4.1-1.3,5.2-1.9
					c0.6-0.4,2-1.4,2-1.4s-0.3,0.6-0.4,2c-0.1,1.3-1.5,5.6-4.5,7c-2.7,1.3-4.3-0.6-9.4,0.1c-2.8,0.4-4.5,1.2-5.4,1.4
					C180.9,198.1,179.5,199.1,179.5,199.1z"/>
				<path class="st11" d="M202.8,186.8c0.2-0.5,2.5-1,3.6-0.6c0.4,0.2-1.8,2.9-3,2.1C203,188,202.6,187.1,202.8,186.8z"/>
			</g>
		</g>
		<g class="st6">
			<path class="st19" d="M412.8,274.1L321,343.2c-6,4.5-13.9,5.6-20.8,2.8l-107.1-42.6c-2.4-1-4-3.1-4.4-5.7l0,0
				c-0.7-5.5,3.2-10.6,8.7-11.4l206.7-27.6c5.5-0.7,10.6,3.2,11.4,8.7l0,0l0,0C415.9,270,414.8,272.5,412.8,274.1z"/>
			<path class="st20" d="M412.8,274.1L321,343.2c-6,4.5-13.9,5.6-20.8,2.8l-107.1-42.6c-2.4-1-4-3.1-4.4-5.7l19.1,142.9
				c0.7,5.5,5.8,9.4,11.4,8.7l0,0l206.7-27.6c5.5-0.7,9.4-5.8,8.7-11.4l0,0l-19-142.3c0,0,0-0.2,0-0.4
				C415.8,270.2,414.8,272.6,412.8,274.1z"/>
			<path class="st21" d="M415.6,267.7c0.3,2.5-0.8,4.9-2.8,6.4L321,343.2c-6,4.5-13.9,5.6-20.8,2.8l-5.5-2.2l0,0l-101.6-40.4
				c-0.6-0.2-1.1-0.5-1.6-0.9c-0.4-0.3-0.8-0.7-1.1-1.1v-0.2c-0.8-1-1.3-2.2-1.5-3.4h-0.1l0.1,0.5l0.9,7.1c0.3,2.4,1.9,4.6,4.1,5.6
				l98.6,44.6c0.5,1.2,0.3,2.6-0.5,3.7c-1.4,1.7-1.1,4.2,0.6,5.5c0.6,0.5,1.3,0.7,2,0.8c2.2,0.2,3.7,2.2,3.5,4.3
				c0,0.1,0,0.3-0.1,0.4c-0.4,2.1,1.1,4.2,3.2,4.6c0.8,0.1,1.6,0,2.3-0.3c2-0.9,4.3,0,5.2,2c0,0,0,0.1,0.1,0.1c0.8,2,3.1,3,5.1,2.2
				c0.4-0.2,0.7-0.4,1-0.6l2.9,21.6c1.6,11.9-6.8,22.8-18.6,24.4c0,0,0,0-0.1,0l-60,8c-7.8,1-13.3,8.2-12.3,16.1l199-26.5
				c5.5-0.7,9.4-5.8,8.7-11.4l0,0l-19-142.3C415.6,268.1,415.6,267.9,415.6,267.7L415.6,267.7z"/>
			<path class="st22" d="M320.8,343.3c-6,4.5-13.9,5.6-20.8,2.8l-106.6-42.6c0.4,0.3,0.8,0.6,1.3,0.8l105.2,47.3
				c7.4,3.3,16.1,2.2,22.4-3l89.1-73.2c0.4-0.3,0.7-0.7,1-1.1L320.8,343.3z"/>
			<g class="st7">
				<path class="st23" d="M287.5,321.7l-30-11.8c-3.7-1.4-5.5-5.6-4.1-9.3c1-2.5,3.2-4.2,5.8-4.5l1.4-0.2c2-0.3,3.3-2.1,3.1-4
					c-0.2-1.9-2.1-3.3-4-3.1l-42.5,5.7c-1.3,0.2-2.4,1-2.8,2.2c-0.7,1.8,0.2,3.9,2,4.6l0,0l68.5,26.9c1.7,1,3.9,0.3,4.9-1.4
					c1-1.7,0.3-3.9-1.4-4.9C288.1,321.9,287.8,321.8,287.5,321.7z"/>
				<path class="st23" d="M273.9,287l21.3-2.8c2-0.3,3.8,1.1,4,3.1l0,0c0.3,2-1.1,3.8-3.1,4l-21.3,2.8c-2,0.3-3.8-1.1-4-3.1l0,0
					C270.5,289,271.9,287.2,273.9,287z"/>
			</g>
			<path class="st24" d="M322.8,356.2l-21.3,2.8c-2,0.3-3.3,2.1-3.1,4l4.7,35.4c0.3,2,2.1,3.3,4,3.1c0.7-0.1,1.3-0.4,1.9-0.8
				l7.9-6.9l9.5,4.6c1.8,0.9,3.9,0.1,4.8-1.7c0.3-0.6,0.4-1.3,0.3-2l-4.7-35.4C326.5,357.3,324.7,355.9,322.8,356.2z"/>
			<path class="st25" d="M314,371.8c-5.2,0.7-10.5-0.6-14.9-3.6l0,0c0.6,5.3,4.6,9.5,9.8,10.5l0.8,0.1c3.1,0.3,5.6,2.8,6,5.9l1.2,9
				l9.5,4.6c1.8,0.9,3.9,0.1,4.8-1.7c0.3-0.6,0.4-1.3,0.3-2l-4-30.3C324.1,368.5,319.3,371.1,314,371.8z"/>
			<circle class="st26" cx="310.7" cy="347" r="25"/>
			<circle class="st27" cx="310.7" cy="347" r="10.7"/>
			<path class="st28" d="M324.4,341.5c2-0.3,3.8,1.1,4,3.1c1.3,9.8-5.6,18.8-15.4,20.1c-2,0.3-3.8-1.1-4-3.1c-0.3-2,1.1-3.8,3.1-4
				c5.9-0.8,10-6.2,9.2-12C321.1,343.6,322.5,341.8,324.4,341.5z"/>
			<path class="st29" d="M297,352.4c-2,0.3-3.8-1.1-4-3.1c-1.3-9.8,5.6-18.8,15.4-20.1c2-0.3,3.8,1.1,4,3.1c0.3,2-1.1,3.8-3.1,4
				c-5.9,0.8-10,6.2-9.2,12C300.4,350.3,299,352.1,297,352.4z"/>
		</g>
		<g>
			<path class="st30" d="M200.5,253l188.4-27.5c5.4-0.8,10.4,2.9,11.1,8.3l19,130.1c0.7,5.1-2.8,9.8-7.8,10.5l0,0l-189,27.6
				c-5.1,0.7-9.8-2.8-10.5-7.8l0,0l-19.1-130.7C191.9,258.4,195.4,253.7,200.5,253z"/>
			<path class="st31" d="M395,267.6l2.6,18.1c1,7.7-4.2,14.9-11.8,16.3c-0.6,0.1-1.1,0.3-1.7,0.5c-6,2.3-9.5,8.5-8.4,14.8l5.6,38.3
				c1,7.2-3.9,13.8-11.1,14.8l-136,19.9c-5.4,0.8-9.1,5.8-8.3,11.1l184.6-26.9c5.4-0.8,9.1-5.8,8.3-11.1l-15.6-106.9
				C398,257.2,394.3,262.2,395,267.6z"/>
			<path class="st23" d="M201,252.9c-5.4,0.8-9.1,5.8-8.3,11.1l7.1,48.6c5.4-0.8,9.1-5.8,8.3-11.1l-0.2-1.2
				c-0.5-4.2,2.1-8.2,6.1-9.6l0.2,0c3.1-1,4.9-4.1,4.4-7.3l-1.9-13c-0.8-5.4,2.9-10.4,8.3-11.1l35.6-5.2c5.4-0.8,9.1-5.8,8.3-11.1
				L201,252.9L201,252.9z"/>
			<g>
				<path class="st32" d="M233.3,360.6l45.3-6.6c1.8-0.3,3.5,1,3.7,2.8l0,0c0.3,1.8-1,3.5-2.8,3.7l-45.3,6.6c-1.8,0.3-3.5-1-3.7-2.8
					l0,0C230.3,362.6,231.5,360.9,233.3,360.6z"/>
				<path class="st32" d="M230.9,344.4l29.2-4.3c1.8-0.3,3.5,1,3.7,2.8l0,0c0.3,1.8-1,3.5-2.8,3.7l-29.2,4.3c-1.8,0.3-3.5-1-3.7-2.8
					l0,0C227.9,346.4,229.2,344.7,230.9,344.4z"/>
				<path class="st32" d="M273.1,338.3l19.4-2.8c1.8-0.3,3.5,1,3.7,2.8l0,0c0.3,1.8-1,3.5-2.8,3.7l-19.4,2.8c-1.8,0.3-3.5-1-3.7-2.8
					l0,0C270,340.2,271.3,338.6,273.1,338.3z"/>
			</g>
			<g>
				<path class="st33" d="M314,270.2c-4.1,4-10.3,5-15.4,2.2c-7.7-4.3-17.3-2.8-23.5,3.4c-1.3,1.3-1.3,3.4,0,4.6
					c1.3,1.3,3.4,1.3,4.6,0c0,0,0.1-0.1,0.1-0.1c4.1-4,10.3-5,15.4-2.2c7.7,4.3,17.3,2.8,23.5-3.4c1.3-1.3,1.3-3.4,0-4.6
					c-1.3-1.3-3.4-1.3-4.6,0C314.1,270.1,314,270.2,314,270.2z"/>
				<path class="st33" d="M278,267.4c4.1-4,10.3-5,15.4-2.2c7.7,4.3,17.3,2.8,23.5-3.4c1.3-1.3,1.3-3.4,0-4.6
					c-1.3-1.3-3.4-1.3-4.6,0c0,0-0.1,0.1-0.1,0.1c-4.1,4-10.3,5-15.4,2.2c-7.7-4.3-17.3-2.8-23.5,3.4c-1.2,1.4-1.1,3.4,0.3,4.6
					C274.8,268.7,276.8,268.6,278,267.4z"/>
			</g>
			<path class="st34" d="M386.3,275.5l-0.5-3.2c-1.8,0.3-3.5-1-3.7-2.8c-0.3-1.8,1-3.5,2.8-3.7l-0.5-3.2c-1.8,0.3-3.5-1-3.7-2.8
				c-0.3-1.8,1-3.5,2.8-3.7l-0.5-3.2c-1.8,0.3-3.5-1-3.7-2.8c-0.3-1.8,1-3.5,2.8-3.7l-0.5-3.2c-1.8,0.3-3.5-1-3.7-2.8l-3.2,0.5
				c0.3,1.8-1,3.5-2.8,3.7s-3.5-1-3.7-2.8l-3.2,0.5c0.3,1.8-1,3.5-2.8,3.7s-3.5-1-3.7-2.8l-3.2,0.5c0.3,1.8-1,3.5-2.8,3.7l0.5,3.2
				c1.8-0.3,3.5,1,3.7,2.8s-1,3.5-2.8,3.7l0.5,3.2c1.8-0.3,3.5,1,3.7,2.8c0.3,1.8-1,3.5-2.8,3.7l0.5,3.2c1.8-0.3,3.5,1,3.7,2.8
				c0.3,1.8-1,3.5-2.8,3.7l0.5,3.2c1.8-0.3,3.5,1,3.7,2.8l3.2-0.5c-0.3-1.8,1-3.5,2.8-3.7s3.5,1,3.7,2.8l3.2-0.5
				c-0.3-1.8,1-3.5,2.8-3.7c1.8-0.3,3.5,1,3.7,2.8l3.2-0.5C383.3,277.4,384.5,275.7,386.3,275.5z"/>
			
				<rect x="361.2" y="248.3" transform="matrix(0.9895 -0.1444 0.1444 0.9895 -33.8815 56.0877)" class="st13" width="16.4" height="26.2"/>
			<path class="st33" d="M336.7,276.1c-7.2,1-13.8-3.9-14.8-11.1c-1-7.2,3.9-13.8,11.1-14.8c7.2-1,13.8,3.9,14.8,11.1
				C348.9,268.4,343.9,275,336.7,276.1z M333.9,256.6c-3.6,0.5-6.1,3.8-5.5,7.4s3.8,6.1,7.4,5.5s6.1-3.8,5.5-7.4
				C340.8,258.6,337.5,256.1,333.9,256.6z"/>
			<polygon class="st1" points="376.5,253.7 361.2,262.6 362.2,269 377.4,260.2 			"/>
		</g>
	</g>
</g>
</svg>
