<?xml version="1.0" encoding="utf-8"?>
<!-- Generator: Adobe Illustrator 24.2.1, SVG Export Plug-In . SVG Version: 6.00 Build 0)  -->
<svg version="1.1" id="Layer_1" xmlns="http://www.w3.org/2000/svg" xmlns:xlink="http://www.w3.org/1999/xlink" x="0px" y="0px"
	 viewBox="0 0 566.6 461.9" style="enable-background:new 0 0 566.6 461.9;" xml:space="preserve">
<style type="text/css">
	.st0{display:none;}
	.st1{display:inline;fill:#184E72;}
	.st2{fill:#523322;}
	.st3{opacity:0.3;}
	.st4{fill:#FFFFFF;}
	.st5{fill:#F9F9F9;}
	.st6{fill:#D69292;}
	.st7{opacity:0.1;}
	.st8{fill:#E8C0A2;}
	.st9{fill:#D8DCE8;}
	.st10{opacity:0.6;}
	.st11{fill:#EFF1F4;}
	.st12{fill:none;}
	.st13{fill:#5B4B38;}
	.st14{fill:#3E4341;}
	.st15{fill:#462512;}
	.st16{fill:#653413;}
	.st17{fill:#462714;}
	.st18{fill:none;stroke:#C8CBCD;stroke-width:6;stroke-linecap:round;stroke-miterlimit:10;}
	.st19{display:none;fill:#127E9B;}
	.st20{fill:#127E9B;}
</style>
<g>
	<g id="Layer_1_1_">
		<g>
			<g class="st0">
				<path class="st1" d="M220.6,146c-1.5,2.6-0.6,5.8,2,7.3s5.8,0.6,7.3-2c3.1-5.4,11.9-5.4,15,0c1.5,2.6,4.8,3.4,7.3,2
					c2.6-1.5,3.4-4.7,2-7.3C246.7,133,228,133,220.6,146L220.6,146z"/>
				<path class="st1" d="M147.9,136.3L147.9,136.3c-7,0-13.3,3.6-16.7,9.7c-1.5,2.6-0.6,5.8,2,7.3s5.8,0.6,7.3-2
					c3.3-5.8,11.6-5.8,15,0c1.5,2.6,4.8,3.4,7.3,2c2.6-1.5,3.4-4.7,2-7.3C161.1,139.9,154.9,136.3,147.9,136.3L147.9,136.3z"/>
				<path class="st1" d="M204,190.6c2.1-2.1,2.1-5.5,0-7.5s-5.5-2.1-7.5,0c-2.1,2.1-5.5,2.1-7.7,0c-2.1-2.1-5.5-2.1-7.5,0
					c-2.1,2.1-2.1,5.5,0,7.5C187.5,196.8,197.7,196.8,204,190.6L204,190.6z"/>
				<path class="st1" d="M192.6,226L192.6,226c14.5,0,28.5-6.2,38.2-16.9c2-2.2,1.8-5.5-0.4-7.5c-2.2-2-5.5-1.8-7.5,0.4
					c-7.7,8.5-18.8,13.4-30.3,13.4s-22.6-4.9-30.3-13.4c-2-2.2-5.4-2.3-7.5-0.4c-2.2,2-2.3,5.4-0.4,7.5
					C164.1,219.9,178.1,226,192.6,226z"/>
			</g>
			<g>
				<g>
					<g>
						<path class="st2" d="M311.4,297.9c-5.7,24.1-24.1,43.5-48,50c-52,14.1-99.4,14.7-142.1,1.2c-20.8-6.6-37.5-22.7-44.4-43.5
							C34.2,177.6,77.2,21.1,157,28.4C256.3-15.9,363.9,73.7,311.4,297.9L311.4,297.9z"/>
					</g>
					<g class="st3">
						<path class="st4" d="M285.4,55.3c-31.9-26.8-73.9-31-114.5-12.9C91.1,35.1,48.1,191.5,90.7,319.6c2.3,6.8,5.6,13.1,9.8,18.8
							c-10.9-8.2-19.2-19.5-23.7-32.7C34.1,177.6,77.2,21.2,157,28.5C203.8,7.5,252.5,16.4,285.4,55.3L285.4,55.3z"/>
					</g>
					<g>
						<path class="st5" d="M385.1,396.8c-59.1,39.6-129.5,67-200,65c-66.6-0.7-129.7-26.9-185-65c0.9-5,2-9.9,3.6-14.6
							C21.3,326,79.4,305.5,134,283.1l0.4-0.1c0.1-0.1,0.1-0.1,0.1-0.1h116.1c0,0,0.1,0,0.1,0.1l0.4,0.1
							C311.1,306.7,375.1,333.3,385.1,396.8z"/>
					</g>
					<g>
						<path class="st6" d="M248.3,282.9c-0.1,0.1-0.1,0.4-0.1,0.6c-5.8,63.5-21,123.2-48,178.3c-5,0.2-10.1,0.2-15.1,0.1
							c-27-55.1-42.3-114.8-48.1-178.3c0-0.2-0.1-0.4-0.1-0.6h111.4V282.9z"/>
					</g>
					<g class="st3">
						<path class="st4" d="M199.3,461.7c-4.8,0.2-9.5,0.2-14.2,0.1c-27-55.1-42.3-114.8-48.1-178.3c0-0.2-0.1-0.4-0.1-0.6h14.2
							c0.1,0.1,0.1,0.4,0.1,0.6C157,347,172.3,406.6,199.3,461.7z"/>
					</g>
					<g class="st7">
						<path d="M362.1,346.6c-4.1-3.3-8.4-6.5-13-9.2c-7.3-4.5-14.7-8.7-21.9-12.4c-9-4.7-17.7-9-25.6-12.6l-0.1-0.1
							c-1.2-0.6-2.4-1.1-3.6-1.7c-17.4-7.8-30.3-12.7-33-13.7l-0.4-0.1c-0.1-0.1-0.1-0.1-0.1-0.1H148.3c0,0-0.1,0-0.1,0.1l-0.4,0.1
							c-2.8,1.1-15.6,5.9-32.8,13.7h-0.1c-1.2,0.5-2.3,1.1-3.6,1.6v0.1c-8,3.6-16.9,7.9-25.9,12.7c-7.2,3.8-14.5,8-21.7,12.4
							c-11.2,6.8-21,15.6-28.9,25.7c-7.7,9.8-13.6,20.9-17.4,32.9c-1.1,3.4-2.1,7-2.8,10.5c-4.8-3.1-9.7-6.3-14.6-9.7
							c0.9-5,2-9.9,3.6-14.6c3.8-12,9.7-23.1,17.4-32.9c7.9-10.1,17.7-18.8,28.9-25.7c7.2-4.5,14.5-8.6,21.7-12.4
							c9-4.8,17.8-9,25.9-12.7v-0.1c1.3-0.6,2.4-1.1,3.6-1.6h0.1c17.1-7.8,30-12.6,32.8-13.7l0.4-0.1c0.1-0.1,0.1-0.1,0.1-0.1h116.1
							c0,0,0.1,0,0.1,0.1l0.4,0.1c2.7,1.1,15.6,5.9,33,13.7c1.2,0.6,2.4,1.1,3.6,1.7l0.1,0.1c7.9,3.6,16.6,7.9,25.6,12.6
							c7.2,3.8,14.6,8,21.9,12.4C345.5,329.7,354.5,337.6,362.1,346.6L362.1,346.6z"/>
					</g>
					<g>
						<path class="st8" d="M250.4,267.4c-2.6-1.4-4.6-2.2-5-2.3c7.5,5.8,0.7,27.7-10.2,51.9c-16.5,36.5-68.7,36.5-85.2,0
							c-10.9-24.2-17.8-46.1-10.2-51.9c-0.4,0.1-2.4,0.9-5.2,2.4v-33.6h115.8V267.4L250.4,267.4z"/>
					</g>
					<g>
						<path class="st8" d="M283.4,170.8v27.8c0,52-43,94-95.3,91.4c-48.8-2.2-86.4-44.7-86.4-94.1v-41C119,105.2,162.2,86,180,80.1
							c5.8,13.6,20.7,33.2,57.4,53.3C261.1,146.3,275.2,158.8,283.4,170.8L283.4,170.8z"/>
					</g>
					<g class="st7">
						<path d="M283.4,170.8v27.8c0,52-43,94-95.3,91.4c-1.6-0.1-3.2-0.2-4.8-0.4c45.7-4.8,81.1-43.9,81.1-91.1v-10.1
							c0-13.4-5.7-26.3-15.9-35c-7.7-6.6-17.5-13.3-30.1-20.2c-31.3-17.1-46.7-34-54.1-46.9c6.2-3,11.6-5,15.7-6.4
							c5.8,13.6,20.7,33.2,57.4,53.3C261.1,146.3,275.2,158.8,283.4,170.8L283.4,170.8z"/>
					</g>
					<g>
						<path class="st9" d="M185.1,461.8c-12.9-0.1-25.7-1.3-38.5-3.3c-24-33.4-42.7-70.4-42.7-70.4c13.4-5.2,22.4-25.2,22.4-25.2
							l-42.7-15.3c0.2-23.4,6.2-38.7,13.9-49.1v-0.1c8.6-11.7,19.1-17.4,26.1-21.7c5.5-3.4,12.4-0.1,13.3,6.2
							c0.1,0.1,0.1,0.4,0.1,0.6C142.8,347,158,406.7,185.1,461.8L185.1,461.8z"/>
					</g>
					<g class="st7">
						<path d="M185.1,461.8c-4.2-0.1-8.4-0.2-12.6-0.5c-26.9-55-42.1-114.6-47.9-177.8c0-0.2-0.1-0.4-0.1-0.6
							c-0.3-2.1-1.3-3.8-2.6-5.1c0.6-0.4,1.1-0.7,1.7-1.1c5.5-3.4,12.4-0.1,13.3,6.2c0.1,0.1,0.1,0.4,0.1,0.6
							C142.8,347,158,406.7,185.1,461.8z"/>
					</g>
					<g>
						<path class="st9" d="M281.4,388.1c0,0-18.5,36.5-42.3,69.8c-13,2.2-26,3.6-38.9,3.9c27-55,42.2-114.8,48-178.3
							c0-0.2,0.1-0.4,0.1-0.6c0.9-6.3,7.8-9.6,13.3-6.2c7,4.3,17.6,10.1,26.1,21.8l0.1,0.1c7.7,10.5,13.7,25.7,13.9,49.1L259,362.9
							C259,362.8,268,382.9,281.4,388.1z"/>
					</g>
					<g class="st7">
						<path d="M264.7,278.6c-1,1.2-1.6,2.6-1.8,4.3c-0.1,0.1-0.1,0.4-0.1,0.6c-5.8,63.1-20.9,122.6-47.6,177.4c-5,0.5-10,0.8-15,0.9
							c27-55,42.2-114.8,48-178.3c0-0.2,0.1-0.4,0.1-0.6c0.9-6.3,7.8-9.6,13.3-6.2C262.6,277.3,263.6,277.9,264.7,278.6z"/>
					</g>
					<g>
						<g class="st10">
							<path class="st11" d="M180.1,173.9c-1.7,9.5-4.1,16.8-6.6,22.3c-4.3,9.5-13.8,15.7-24.2,16c-7.1,0.3-13.4,0-17.8-0.3
								c-4.8-0.4-9.3-2.7-12.3-6.5c-10.1-12.6-13.1-23.4-13.9-30.6c-0.6-5.7,2.2-11.2,7.1-14.1c22-13.1,45.2-8,58.3-3
								C177.4,160.1,181.4,166.9,180.1,173.9L180.1,173.9z"/>
						</g>
						<g class="st10">
							<path class="st11" d="M276.2,173.9c-1.7,9.5-4.1,16.8-6.6,22.3c-4.3,9.5-13.8,15.7-24.2,16c-7.1,0.3-13.4,0-17.8-0.3
								c-4.8-0.4-9.3-2.7-12.3-6.5c-10.1-12.6-13.1-23.4-13.9-30.6c-0.6-5.7,2.2-11.2,7.1-14.1c22-13.1,45.2-8,58.3-3
								C273.4,160.1,277.4,166.9,276.2,173.9L276.2,173.9z"/>
						</g>
					</g>
				</g>
				<g>
					<g>
						<g class="st10">
							<path class="st12" d="M180.1,173.9c-1.7,9.5-4.1,16.8-6.6,22.3c-4.3,9.5-13.8,15.7-24.2,16c-7.1,0.3-13.4,0-17.8-0.3
								c-4.8-0.4-9.3-2.7-12.3-6.5c-10.1-12.6-13.1-23.4-13.9-30.6c-0.6-5.7,2.2-11.2,7.1-14.1c22-13.1,45.2-8,58.3-3
								C177.4,160.1,181.4,166.9,180.1,173.9L180.1,173.9z"/>
						</g>
						<g class="st10">
							<path class="st12" d="M279.7,173.9c-1.7,9.5-4.1,16.8-6.6,22.3c-4.3,9.5-13.8,15.7-24.2,16c-7.1,0.3-13.4,0-17.8-0.3
								c-4.8-0.4-9.3-2.7-12.3-6.5c-10.1-12.6-13.1-23.4-13.9-30.6c-0.6-5.7,2.2-11.2,7.1-14.1c22-13.1,45.2-8,58.3-3
								C276.9,160.1,280.9,166.9,279.7,173.9L279.7,173.9z"/>
						</g>
					</g>
				</g>
				<g>
					<g id="oeil_droite_4_">
						
							<ellipse transform="matrix(0.9989 -4.712658e-02 4.712658e-02 0.9989 -8.2354 11.2517)" class="st4" cx="234.5" cy="180.3" rx="20.3" ry="14.3"/>
						<g id="pupil_gauche_7_">
							
								<ellipse transform="matrix(0.9989 -4.712658e-02 4.712658e-02 0.9989 -8.2037 11.3924)" class="st13" cx="237.5" cy="179.7" rx="11.3" ry="12.9"/>
							
								<ellipse transform="matrix(0.9988 -4.828233e-02 4.828233e-02 0.9988 -8.3978 11.676)" class="st14" cx="237.5" cy="179.7" rx="5" ry="5.7"/>
							
								<ellipse transform="matrix(0.6028 -0.7979 0.7979 0.6028 -46.5447 256.24)" class="st4" cx="234.1" cy="174.9" rx="2.5" ry="2.1"/>
							
								<ellipse transform="matrix(0.6028 -0.7979 0.7979 0.6028 -51.1073 268.1443)" class="st4" cx="243.8" cy="185.4" rx="1.5" ry="1.3"/>
						</g>
					</g>
					<path class="st15" d="M260.2,175.1c1.3-1.5,2.6-3.9,2.6-3.9c-1.9,0.6-4.2,0.7-5.7,0.8c-7.3-7-19.5-14.7-37.2-1.2
						c0,0,27.3-11.8,34.6,6.6c0,0,1.5,7.9-6.4,13.3c0,0,12.5-5.6,16-11.7C263.1,178.3,261.8,176.9,260.2,175.1z"/>
				</g>
				<g>
					<g id="oeil_droite_2_">
						
							<ellipse transform="matrix(0.9999 -1.051506e-02 1.051506e-02 0.9999 -1.8999 1.5788)" class="st4" cx="149.2" cy="181.5" rx="20.3" ry="14.3"/>
						<g id="pupil_gauche_6_">
							
								<ellipse transform="matrix(0.9999 -1.051506e-02 1.051506e-02 0.9999 -1.9009 1.5914)" class="st13" cx="150.4" cy="181.6" rx="12" ry="13.6"/>
							
								<ellipse transform="matrix(1 -9.359322e-03 9.359322e-03 1 -1.6929 1.4157)" class="st14" cx="150.4" cy="181.6" rx="5.3" ry="6.1"/>
							
								<ellipse transform="matrix(0.7619 -0.6477 0.6477 0.7619 -77.5858 141.512)" class="st4" cx="153.7" cy="176.3" rx="2.2" ry="2.6"/>
							
								<ellipse transform="matrix(0.7619 -0.6477 0.6477 0.7619 -87.5433 138.0729)" class="st4" cx="144" cy="188.1" rx="1.3" ry="1.6"/>
						</g>
					</g>
					<path class="st15" d="M123.3,177.8c-1.4-1.4-2.9-3.8-2.9-3.8c1.9,0.5,4.2,0.5,5.8,0.4c6.9-7.4,18.6-15.8,37.1-3.3
						c0,0-27.9-10.2-34.1,8.6c0,0-1.1,8,7.2,12.9c0,0-12.8-4.9-16.6-10.8C120.5,181.2,121.7,179.7,123.3,177.8z"/>
				</g>
				<g>
					<path class="st16" d="M182.1,216.3c-0.2,1.3-0.4,2.7-0.4,3.9c0,1.2,0.2,2.3,0.6,3s1,1.1,2.1,1.4c1,0.3,2.2,0.4,3.5,0.3
						c1.2,0,2.6-0.2,4-0.4l2-0.3l1.9-0.4c1.3-0.3,2.5-0.7,3.6-1.3c0.3-0.1,0.5-0.3,0.7-0.5s0.4-0.3,0.6-0.5s0.3-0.4,0.4-0.6
						s0.1-0.5,0.1-0.6l0.2-0.6c0.1-0.3,0.5-0.5,0.8-0.4c0.2,0.1,0.3,0.2,0.4,0.4c0.1,0.3,0.2,0.5,0.2,0.8c0,0.2,0,0.5,0,0.7
						c0,0.5-0.2,0.9-0.4,1.3c-0.4,0.8-1,1.4-1.6,1.9c-1.3,1-2.6,1.7-4,2.2c-0.7,0.3-1.4,0.5-2.1,0.7l-2.1,0.5
						c-1.4,0.3-2.8,0.6-4.3,0.7s-3.1,0.1-4.8-0.4c-0.8-0.2-1.7-0.6-2.5-1.2c-0.8-0.6-1.5-1.4-1.9-2.3c-0.8-1.8-0.7-3.7-0.3-5.2
						s1.1-2.9,2.1-4.1c0.3-0.3,0.8-0.4,1.1-0.1C182.1,215.6,182.2,215.9,182.1,216.3L182.1,216.3z"/>
				</g>
				<g>
					<path class="st16" d="M171.4,251.9c0-0.1-0.1-0.1-0.1-0.1C171.4,251.8,171.4,251.8,171.4,251.9c0.1,0.1,0.2,0.2,0.4,0.4
						c0.3,0.3,0.7,0.5,1,0.8c0.8,0.5,1.6,1,2.5,1.4c1.7,0.8,3.6,1.5,5.5,2.1c3.8,1.1,7.7,1.6,11.6,1.5c3.9-0.1,7.8-0.9,11.4-2.4
						c1.8-0.8,3.5-1.7,5-2.8l1.2-0.9l1.1-0.9c0.8-0.6,1.4-1.3,2.1-2l0.1-0.1c0.8-0.8,2-0.7,2.8,0c0.8,0.8,0.7,2,0,2.8l-0.1,0.1
						c-3.3,2.8-7,5.1-11,6.6c-4,1.6-8.2,2.3-12.4,2.5s-8.4-0.4-12.5-1.4c-2.1-0.5-4.1-1.2-6-2c-1-0.4-2-0.9-3-1.4
						c-0.5-0.3-1-0.6-1.5-0.9c-0.3-0.2-0.5-0.4-0.8-0.6l-0.4-0.4c-0.2-0.2-0.3-0.5-0.5-0.8c-0.4-1,0.1-2.1,1.1-2.5
						C169.9,250.4,171,250.9,171.4,251.9z"/>
				</g>
				<path class="st17" d="M216.8,146.4c0,0,9.7-11.6,21.5,3.5C238.3,149.9,228,143.2,216.8,146.4z"/>
				<path class="st17" d="M158.6,147.9c0,0-9.2-12-21.6,2.5C137,150.4,147.5,144.2,158.6,147.9z"/>
				<path class="st18" d="M175.8,178.1c2.8-1.4,8.1-3.7,15.2-3.9c8-0.2,14.1,2.4,16.9,3.9"/>
				<path class="st18" d="M271.1,168.7c6.4-2.3,12.8-4.5,19.2-6.8"/>
				<path class="st18" d="M111.1,170.7c-6.8-2.9-13.6-5.8-20.4-8.7"/>
				<path class="st2" d="M283.5,127.7c-9.4,0-17.3,10-19.1,23.3c8.4,6.7,14.6,13.4,19,19.9v15.5h0.1c10.8,0,19.5-13.1,19.5-29.3
					S294.3,127.7,283.5,127.7z"/>
				<path class="st2" d="M101.7,154.9c1.3-3.8,2.8-7.5,4.4-10.9c-2.3-4.6-5.4-7.4-8.8-7.4c-7.3,0-13.3,13.1-13.3,29.3
					s5.9,29.3,13.3,29.3c1.5,0,3-0.6,4.4-1.6L101.7,154.9L101.7,154.9z"/>
			</g>
		</g>
	</g>
	<path class="st19" d="M360,215c-2.1,0-4.2-0.8-5.8-2.4c-2.5-2.4-3.2-6-1.9-9.2l19.1-47.2c-12.9-16.8-19.7-36.4-19.7-57.2
		c0-26.6,11.3-51.6,31.8-70.3C403.7,10.2,430.6,0,459.1,0s55.5,10.2,75.7,28.8c20.5,18.7,31.8,43.7,31.8,70.3
		c0,19.1-5.9,37.6-17,53.6c-2.7,3.8-7.9,4.7-11.7,2.1c-3.8-2.7-4.7-7.9-2.1-11.7c9.2-13.1,14-28.3,14-44c0-45.4-40.7-82.3-90.7-82.3
		s-90.7,36.9-90.7,82.3c0,18.4,6.5,35.8,18.9,50.3c2,2.4,2.6,5.7,1.4,8.6l-13.2,32.6l38.4-16.9c2.1-0.9,4.5-1,6.7,0
		c12.1,5.2,25.1,7.8,38.5,7.8c15.5,0,30.8-3.6,44.2-10.4c4.1-2.1,9.2-0.5,11.3,3.7c2.1,4.1,0.5,9.2-3.7,11.3
		c-15.8,8-33.7,12.2-51.8,12.2c-14.5,0-28.5-2.6-41.7-7.7l-54,23.8C362.3,214.8,361.2,215,360,215z M467.5,136.5V91.1
		c0-4.6-3.8-8.4-8.4-8.4s-8.4,3.8-8.4,8.4v45.4c0,4.6,3.8,8.4,8.4,8.4C463.8,144.9,467.5,141.1,467.5,136.5z M459.1,53.7
		c-4.6,0-8.4,3.8-8.4,8.4l0,0c0,4.6,3.8,8.4,8.4,8.4c4.6,0,8.4-3.8,8.4-8.4l0,0C467.5,57.5,463.8,53.7,459.1,53.7z"/>
</g>
<g>
	<path class="st20" d="M475.9,1.4C418.4-7.9,361.3,33.2,352,90.8c-3.2,19.7-0.9,41.5,6,58.8L335.9,192c-0.7,1.4-0.6,3.1,0.3,4.4
		c0.9,1.3,2.5,2,4.1,1.7l47.2-7.7c14.3,12.1,34.3,21.1,53.9,24.2c57.5,9.3,114.5-31.9,123.8-89.4C574.5,67.7,533.4,10.7,475.9,1.4z
		 M458.6,48.9c7,0,12.7,5.7,12.7,12.7c0,7-5.7,12.7-12.7,12.7c-7,0-12.7-5.7-12.7-12.7C446,54.6,451.6,48.9,458.6,48.9z
		 M479.7,167.1h-42.2v-16.9h8.4V108h-8.4V91.1h33.8v59.1h8.4V167.1z"/>
</g>
</svg>
