<?xml version="1.0" encoding="utf-8"?>
<!-- Generator: Adobe Illustrator 24.2.1, SVG Export Plug-In . SVG Version: 6.00 Build 0)  -->
<svg version="1.1" id="Capa_1" xmlns="http://www.w3.org/2000/svg" xmlns:xlink="http://www.w3.org/1999/xlink" x="0px" y="0px"
	 viewBox="0 0 350 346.9" style="enable-background:new 0 0 350 346.9;" xml:space="preserve">
<style type="text/css">
	.st0{fill:#F5F5F5;}
	.st1{fill:#73C9C3;}
	.st2{fill:#FCD484;}
	.st3{fill:#FFFFFF;}
	.st4{fill:#127E9A;}
	.st5{fill:#E7B249;}
</style>
<g>
	<g>
		<path class="st0" d="M20.7,172.8c-1,1.8-1.7,3.7-2.1,5.8L0.2,294.2c-0.3,1.8-0.3,3.7,0,5.4l100.6-73.5L20.7,172.8z"/>
		<path class="st0" d="M241.6,338.1c0.9-1.6,1.5-3.4,1.8-5.3l18.4-115.5c0.3-1.6,0.3-3.3,0.1-4.8l-92.2,25.7L241.6,338.1z"/>
		<path class="st0" d="M254.5,200.8c-1.9-1.3-4.1-2.2-6.6-2.6L37.6,164.8c-1.8-0.3-3.5-0.3-5.2,0l103.7,69L254.5,200.8z"/>
		<path class="st0" d="M133.9,248.1L133.9,248.1L133.9,248.1l-0.1,0l0-0.1l-21.3-14.2L7.4,310.7c1.9,1.3,4.1,2.2,6.6,2.6l210.4,33.4
			c2.4,0.4,4.8,0.2,6.9-0.4L156,241.9L133.9,248.1z"/>
	</g>
	<g>
		<g>
			<path class="st1" d="M116.8,15.1c0,0-7.4-11.4-14.8-9.6s-8.6,4-8.6,4s7.8-5,11.2,2.1S116.8,15.1,116.8,15.1z"/>
			<path class="st1" d="M118.2,0c0,0,4.3,12.9-1.6,17.9s-8.4,4.6-8.4,4.6s8.7-3.3,5.2-10.4C110.1,4.9,118.2,0,118.2,0z"/>
		</g>
		<path class="st1" d="M167.6,153.2c7.3,4.3,3.8,24.9,11.9,31.3c0.3,0.3,0.7,0.6,0.7,0.6c6.4,4.6,12.5,4.2,12.5,5.1
			c0,1.3-12.9-0.3-18,6.5c-3.3,4.5-1.6,10.5-3.5,10.9c-2.6,0.6-5.2-10.1-10.1-10.2c-4.2-0.1-4.3,8-8.1,7.2
			c-5.6-2.2,6.1-14.1,5.7-25.6c-0.4-12.4-9.1-13.7-6.3-20.2C154.7,153.8,163.2,150.6,167.6,153.2z"/>
		<path class="st1" d="M146.1,157.4c2.1,11.1,5.1,19.6,6.4,20.4c3,2,6.1,4,10.3,4.5c0.5,0.1,1.7,0.1,1.7,0.4c0,0.6-9.8-0.8-15.1,4.4
			c-4.1,4-3.3,9.9-5.5,10.1c-2.4,0.2-3-7-8.1-8.9c-5-1.9-10.6,2.8-11.2,1.9c-0.8-1.2,10.3-5.8,12.1-14.1
			c2.3-10.6-12.6-18.9-9.3-25.7c1.8-3.6,14.7-7.3,17.3-5.4C147.3,146.8,144.8,150.7,146.1,157.4z"/>
		<path class="st2" d="M311.3,176.2c0,0-82.6-78.6-100.8-95.6c-18.3-17.1-36.5-42.1-49.6-54.3c-13.2-12.3-26.8-19-53.3-9.4
			c-26.5,9.6-30.1,26.7-30.7,32.3c-0.6,5.6,0,13.4-4.7,17.9C67.4,71.7,49.9,83,52.6,85.5C55.3,88,69.5,90.6,73,96.8
			c3.5,6.2,18.8,38.1,28.8,51.9c10,13.8,10.6,22.3,33.2,22.9c22.6,0.5,73.4-25.8,103.1-15C267.8,167.5,311.3,176.2,311.3,176.2z"/>
		<path class="st3" d="M127.8,33.4c-10.6-4.4-27.2-3.3-34.9,6.9c-8.6,11.2-2.1,27.9,10,34.7c12.5,7,32.5,4.3,39.8-7.5
			C150.3,55.3,141.1,39,127.8,33.4z"/>
		<path class="st4" d="M122.1,37.4c-8-3.6-17.9-1.2-22.8,5.8c-6.2,9-2.3,22.6,7.4,27.3c10.5,5,24.3-2.3,26.4-13.3
			C134.5,49.3,129.7,40.9,122.1,37.4z"/>
		<path class="st3" d="M112.3,41.9c-2.7-1.7-5.9-1.1-7.2,1.6c-1.7,3.4,0,9.1,3.3,11.3c3.6,2.4,7.8-0.1,8.1-4.5
			C116.7,47.1,114.9,43.5,112.3,41.9z"/>
		<path class="st5" d="M350,52.4c0,0-21.5-6.3-33.2-11.5c-21.2-9.7-97-24.3-120.8-2.9c-13,11.8-2.5,24-18.6,39.1
			c-15,14-36.9,15.5-49.9,17.3c-7.3,1-27.2,1-27.2,1s8.9,3.2,25.4,12.6c16.5,9.4,73.2,33.2,105.3,25.6c29.2-6.9,15.9-30.3,50.7-56.5
			c19.1-14.4,37.4-18.2,45.3-21.7C330.6,53.7,350,52.4,350,52.4z"/>
		<path class="st2" d="M89,90.4c-2.6-3.5-20.8-2.7-28.5,2.6c-2.8,1.9,19.2,17.8,26.6,9.5C89.3,100,90.6,92.5,89,90.4z"/>
	</g>
</g>
</svg>
