<?xml version="1.0" encoding="utf-8"?>
<!-- Generator: Adobe Illustrator 24.2.1, SVG Export Plug-In . SVG Version: 6.00 Build 0)  -->
<svg version="1.1" xmlns="http://www.w3.org/2000/svg" xmlns:xlink="http://www.w3.org/1999/xlink" x="0px" y="0px"
	 viewBox="0 0 3240 2343.3" style="enable-background:new 0 0 3240 2343.3;" xml:space="preserve">
<style type="text/css">
	.st0{display:none;}
	.st1{display:inline;fill:#C2D8E3;}
	.st2{fill:none;stroke:#FFFFFF;stroke-width:10;stroke-linecap:round;stroke-miterlimit:10;stroke-dasharray:25,50;}
	.st3{fill:#C2D8E3;stroke:#FFFFFF;stroke-miterlimit:10;}
</style>
<g id="Layer_3" class="st0">
	<rect x="115.8" y="105.7" class="st1" width="3101.5" height="2100.7"/>
</g>
<g id="Layer_1">
	<g id="Layer_4">
	</g>
	<path class="st2" d="M1374,538.2c177.7-44.7,356.2-23.6,523.8,98.7"/>
	<path class="st2" d="M1154,1807.6c10,50.4,39.2,75.5,79.3,88.3c136.8,50.6,432.2-164.4,526.1-142.3c72.1,11,103.3,40.2,103.3,77.4"
		/>
</g>
<g id="Layer_2">
	<path class="st2" d="M1722.6,983.1c-71.7-1.7-257.2-12.4-290.8,43.3c-34.9,57.9,24.6,157,94.6,172.2
		c49.1,10.6,110.1-18.5,111.4-46.8c1.1-23.6-39.4-49.4-75.7-53.1c-57.5-5.9-120.6,42-140.9,99.9c-27.5,78.4,37.3,135.3,8.4,182.8
		c-13.2,21.7-45.6,40.2-123.2,37.5"/>
	<path class="st3" d="M735.2,1621.6c-4.5,2.5-8,6.1-10.5,10.5"/>
</g>
</svg>
