<?xml version="1.0" encoding="utf-8"?>
<!-- Generator: Adobe Illustrator 24.2.1, SVG Export Plug-In . SVG Version: 6.00 Build 0)  -->
<svg version="1.1" id="Layer_1" xmlns="http://www.w3.org/2000/svg" xmlns:xlink="http://www.w3.org/1999/xlink" x="0px" y="0px"
	 viewBox="0 0 783 645" style="enable-background:new 0 0 783 645;" xml:space="preserve">
<style type="text/css">
	.st0{fill:#FAF6F0;}
	.st1{fill:#E3DFDA;}
	.st2{fill:#127E9A;}
	.st3{fill:#C9C6C2;}
	.st4{fill:#73C9C3;}
	.st5{fill:#FBD0BD;}
	.st6{fill:#FCD484;}
	.st7{fill:#FFFFFF;}
	.st8{fill:#E7B249;}
	.st9{fill:#C1272D;}
	.st10{fill:#972A2A;}
	.st11{fill:#5F717A;}
</style>
<g>
	<path class="st0" d="M783,163.4H0v467.6c0,7.8,6.3,14.1,14.1,14.1h754.8c7.8,0,14.1-6.3,14.1-14.1V163.4z"/>
	<g>
		<path class="st1" d="M104.8,426.4H50.7c-3.1,0-5.6,2.5-5.6,5.6v54.1c0,3.1,2.5,5.6,5.6,5.6h54.1c3.1,0,5.6-2.5,5.6-5.6v-54.1
			C110.4,428.9,107.9,426.4,104.8,426.4z"/>
		<path class="st1" d="M209.4,426.4h-54.1c-3.1,0-5.6,2.5-5.6,5.6v54.1c0,3.1,2.5,5.6,5.6,5.6h54.1c3.1,0,5.6-2.5,5.6-5.6v-54.1
			C215,428.9,212.5,426.4,209.4,426.4z"/>
		<path class="st1" d="M314,426.4h-54.1c-3.1,0-5.6,2.5-5.6,5.6v54.1c0,3.1,2.5,5.6,5.6,5.6H314c3.1,0,5.6-2.5,5.6-5.6v-54.1
			C319.6,428.9,317.1,426.4,314,426.4z"/>
		<path class="st1" d="M418.6,426.4h-54.1c-3.1,0-5.6,2.5-5.6,5.6v54.1c0,3.1,2.5,5.6,5.6,5.6h54.1c3.1,0,5.6-2.5,5.6-5.6v-54.1
			C424.2,428.9,421.7,426.4,418.6,426.4z"/>
		<path class="st2" d="M523.1,426.4H469c-3.1,0-5.6,2.5-5.6,5.6v54.1c0,3.1,2.5,5.6,5.6,5.6h54.1c3.1,0,5.6-2.5,5.6-5.6v-54.1
			C528.8,428.9,526.3,426.4,523.1,426.4z"/>
		<path class="st1" d="M627.7,426.4h-54.1c-3.1,0-5.6,2.5-5.6,5.6v54.1c0,3.1,2.5,5.6,5.6,5.6h54.1c3.1,0,5.6-2.5,5.6-5.6v-54.1
			C633.4,428.9,630.8,426.4,627.7,426.4z"/>
		<path class="st1" d="M732.3,426.4h-54.1c-3.1,0-5.6,2.5-5.6,5.6v54.1c0,3.1,2.5,5.6,5.6,5.6h54.1c3.1,0,5.6-2.5,5.6-5.6v-54.1
			C737.9,428.9,735.4,426.4,732.3,426.4z"/>
		<path class="st1" d="M104.8,534.3H50.7c-3.1,0-5.6,2.5-5.6,5.6V594c0,3.1,2.5,5.6,5.6,5.6h54.1c3.1,0,5.6-2.5,5.6-5.6v-54.1
			C110.4,536.8,107.9,534.3,104.8,534.3z"/>
		<path class="st1" d="M209.4,534.3h-54.1c-3.1,0-5.6,2.5-5.6,5.6V594c0,3.1,2.5,5.6,5.6,5.6h54.1c3.1,0,5.6-2.5,5.6-5.6v-54.1
			C215,536.8,212.5,534.3,209.4,534.3z"/>
		<path class="st1" d="M314,534.3h-54.1c-3.1,0-5.6,2.5-5.6,5.6V594c0,3.1,2.5,5.6,5.6,5.6H314c3.1,0,5.6-2.5,5.6-5.6v-54.1
			C319.6,536.8,317.1,534.3,314,534.3z"/>
		<path class="st1" d="M418.6,534.3h-54.1c-3.1,0-5.6,2.5-5.6,5.6V594c0,3.1,2.5,5.6,5.6,5.6h54.1c3.1,0,5.6-2.5,5.6-5.6v-54.1
			C424.2,536.8,421.7,534.3,418.6,534.3z"/>
		<path class="st2" d="M523.1,534.3H469c-3.1,0-5.6,2.5-5.6,5.6V594c0,3.1,2.5,5.6,5.6,5.6h54.1c3.1,0,5.6-2.5,5.6-5.6v-54.1
			C528.8,536.8,526.3,534.3,523.1,534.3z"/>
		<path class="st1" d="M627.7,534.3h-54.1c-3.1,0-5.6,2.5-5.6,5.6V594c0,3.1,2.5,5.6,5.6,5.6h54.1c3.1,0,5.6-2.5,5.6-5.6v-54.1
			C633.4,536.8,630.8,534.3,627.7,534.3z"/>
		<path class="st1" d="M104.8,534.3H50.7c-3.1,0-5.6,2.5-5.6,5.6V594c0,3.1,2.5,5.6,5.6,5.6h54.1c3.1,0,5.6-2.5,5.6-5.6v-54.1
			C110.4,536.8,107.9,534.3,104.8,534.3z"/>
		<path class="st1" d="M104.8,318.6H50.7c-3.1,0-5.6,2.5-5.6,5.6v54.1c0,3.1,2.5,5.6,5.6,5.6h54.1c3.1,0,5.6-2.5,5.6-5.6v-54.1
			C110.4,321.1,107.9,318.6,104.8,318.6z"/>
		<path class="st1" d="M209.4,318.6h-54.1c-3.1,0-5.6,2.5-5.6,5.6v54.1c0,3.1,2.5,5.6,5.6,5.6h54.1c3.1,0,5.6-2.5,5.6-5.6v-54.1
			C215,321.1,212.5,318.6,209.4,318.6z"/>
		<path class="st1" d="M314,318.6h-54.1c-3.1,0-5.6,2.5-5.6,5.6v54.1c0,3.1,2.5,5.6,5.6,5.6H314c3.1,0,5.6-2.5,5.6-5.6v-54.1
			C319.6,321.1,317.1,318.6,314,318.6z"/>
		<path class="st1" d="M418.6,318.6h-54.1c-3.1,0-5.6,2.5-5.6,5.6v54.1c0,3.1,2.5,5.6,5.6,5.6h54.1c3.1,0,5.6-2.5,5.6-5.6v-54.1
			C424.2,321.1,421.7,318.6,418.6,318.6z"/>
		<path class="st2" d="M523.1,318.6H469c-3.1,0-5.6,2.5-5.6,5.6v54.1c0,3.1,2.5,5.6,5.6,5.6h54.1c3.1,0,5.6-2.5,5.6-5.6v-54.1
			C528.8,321.1,526.3,318.6,523.1,318.6z"/>
		<path class="st1" d="M627.7,318.6h-54.1c-3.1,0-5.6,2.5-5.6,5.6v54.1c0,3.1,2.5,5.6,5.6,5.6h54.1c3.1,0,5.6-2.5,5.6-5.6v-54.1
			C633.4,321.1,630.8,318.6,627.7,318.6z"/>
		<path class="st1" d="M732.3,318.6h-54.1c-3.1,0-5.6,2.5-5.6,5.6v54.1c0,3.1,2.5,5.6,5.6,5.6h54.1c3.1,0,5.6-2.5,5.6-5.6v-54.1
			C737.9,321.1,735.4,318.6,732.3,318.6z"/>
		<path class="st1" d="M209.4,210.7h-54.1c-3.1,0-5.6,2.5-5.6,5.6v54.1c0,3.1,2.5,5.6,5.6,5.6h54.1c3.1,0,5.6-2.5,5.6-5.6v-54.1
			C215,213.2,212.5,210.7,209.4,210.7z"/>
		<path class="st1" d="M314,210.7h-54.1c-3.1,0-5.6,2.5-5.6,5.6v54.1c0,3.1,2.5,5.6,5.6,5.6H314c3.1,0,5.6-2.5,5.6-5.6v-54.1
			C319.6,213.2,317.1,210.7,314,210.7z"/>
		<path class="st1" d="M418.6,210.7h-54.1c-3.1,0-5.6,2.5-5.6,5.6v54.1c0,3.1,2.5,5.6,5.6,5.6h54.1c3.1,0,5.6-2.5,5.6-5.6v-54.1
			C424.2,213.2,421.7,210.7,418.6,210.7z"/>
		<path class="st2" d="M523.1,210.7H469c-3.1,0-5.6,2.5-5.6,5.6v54.1c0,3.1,2.5,5.6,5.6,5.6h54.1c3.1,0,5.6-2.5,5.6-5.6v-54.1
			C528.8,213.2,526.3,210.7,523.1,210.7z"/>
		<path class="st1" d="M627.7,210.7h-54.1c-3.1,0-5.6,2.5-5.6,5.6v54.1c0,3.1,2.5,5.6,5.6,5.6h54.1c3.1,0,5.6-2.5,5.6-5.6v-54.1
			C633.4,213.2,630.8,210.7,627.7,210.7z"/>
		<path class="st1" d="M732.3,210.7h-54.1c-3.1,0-5.6,2.5-5.6,5.6v54.1c0,3.1,2.5,5.6,5.6,5.6h54.1c3.1,0,5.6-2.5,5.6-5.6v-54.1
			C737.9,213.2,735.4,210.7,732.3,210.7z"/>
		<g>
			<g>
				<path class="st3" d="M502.9,439.3c0,0,0.9-2.7,2.4-2.7c1.6,0,1.9,0.3,1.9,0.3s-1.8-0.6-2.1,1
					C504.9,439.6,502.9,439.3,502.9,439.3z"/>
				<path class="st3" d="M501.8,436.4c0,0-0.2,2.8,1.3,3.5c1.4,0.7,1.9,0.5,1.9,0.5s-1.9-0.2-1.6-1.8
					C503.7,436.9,501.8,436.4,501.8,436.4z"/>
			</g>
			<path class="st3" d="M500.1,469.6c-1.2,1.3,0.6,5.2-0.7,6.9c-0.1,0.1-0.1,0.1-0.1,0.1c-1,1.3-2.3,1.5-2.2,1.7
				c0.1,0.3,2.6-0.7,3.9,0.3c0.9,0.7,0.9,2,1.3,2c0.5,0,0.5-2.3,1.5-2.6c0.8-0.2,1.3,1.4,2,1c1-0.7-2-2.5-2.5-4.8
				c-0.6-2.5,1.1-3.2,0.2-4.4C502.7,469,500.9,468.8,500.1,469.6z"/>
			<path class="st3" d="M504.7,469.3c0.2,2.3,0,4.2-0.2,4.4c-0.5,0.6-1,1.1-1.8,1.4c-0.1,0-0.3,0.1-0.3,0.2c0,0.1,1.9-0.7,3.2,0.1
				c1,0.6,1.2,1.8,1.6,1.7c0.5-0.1,0.2-1.6,1.1-2.2c0.9-0.6,2.3,0,2.3-0.2c0.1-0.3-2.4-0.6-3.2-2.2c-1-2,1.5-4.5,0.5-5.6
				c-0.5-0.6-3.3-0.7-3.7-0.2C503.9,467.2,504.6,467.9,504.7,469.3z"/>
			<path class="st3" d="M472.7,481.8c0,0,12.3-20.1,15-24.5c2.7-4.4,5-10.3,7-13.5c2-3.2,4.3-5.2,10.1-4.7c5.8,0.5,7.4,3.7,7.8,4.8
				s0.7,2.7,1.9,3.3c1.2,0.6,5.3,2,4.9,2.6c-0.4,0.6-3.1,1.9-3.5,3.3s-1.7,8.6-3,11.9c-1.3,3.3-0.9,5-5.4,6.3
				c-4.5,1.3-16-1.2-21.4,2.5C480.9,477.8,472.7,481.8,472.7,481.8z"/>
			<path class="st3" d="M501.7,443.5c1.9-1.5,5.2-2.1,7.3-0.5c2.3,1.8,1.9,5.5-0.2,7.5c-2.1,2.1-6.3,2.6-8.4,0.6
				C498.4,449.1,499.3,445.4,501.7,443.5z"/>
			<path class="st3" d="M503.1,444c1.4-1.1,3.5-1.2,4.9-0.1c1.7,1.5,1.7,4.4,0,5.8c-1.8,1.6-5,0.8-6-1.3
				C501.2,447.1,501.7,445.1,503.1,444z"/>
			<path class="st3" d="M505.3,444.4c0.4-0.5,1.1-0.5,1.5-0.1c0.5,0.6,0.5,1.8-0.1,2.4c-0.6,0.7-1.6,0.4-1.9-0.5
				C504.6,445.7,504.8,444.9,505.3,444.4z"/>
			<path class="st3" d="M474.9,472.6c0,0,1.3-2.4,1.7-3.8c0.7-2.6,6.5-10.4,12.8-10.8c3.4-0.2,4.4,1.6,8.7,1.4c4-0.2,6.7-2,8.4-3
				c1-0.6,3.1-2.3,3.1-2.3s-0.4,1-0.6,3.2c-0.2,2.2-2.4,9-7.2,11.2c-4.4,2-6.9-1-15.2,0.1c-4.5,0.6-7.2,1.9-8.7,2.3
				C477.3,471,474.9,472.6,474.9,472.6z"/>
			<path class="st3" d="M512.5,452.9c0.3-0.8,4-1.6,5.8-1c0.7,0.2-2.9,4.6-4.8,3.3C512.9,454.8,512.3,453.4,512.5,452.9z"/>
		</g>
		<g>
			<g>
				<g>
					<path class="st4" d="M502.9,331.5c0,0,0.9-2.7,2.4-2.7c1.6,0,1.9,0.3,1.9,0.3s-1.8-0.6-2.1,1
						C504.9,331.7,502.9,331.5,502.9,331.5z"/>
					<path class="st4" d="M501.8,328.5c0,0-0.2,2.8,1.3,3.5c1.4,0.7,1.9,0.5,1.9,0.5s-1.9-0.2-1.6-1.8
						C503.7,329.1,501.8,328.5,501.8,328.5z"/>
				</g>
				<path class="st5" d="M500.1,361.7c-1.2,1.3,0.6,5.2-0.7,6.9c-0.1,0.1-0.1,0.1-0.1,0.1c-1,1.3-2.3,1.5-2.2,1.7
					c0.1,0.3,2.6-0.7,3.9,0.3c0.9,0.7,0.9,2,1.3,2c0.5,0,0.5-2.3,1.5-2.6c0.8-0.2,1.3,1.4,2,1c1-0.7-2-2.5-2.5-4.8
					c-0.6-2.5,1.1-3.2,0.2-4.4C502.7,361.2,500.9,361,500.1,361.7z"/>
				<path class="st5" d="M504.7,361.4c0.2,2.3,0,4.2-0.2,4.4c-0.5,0.6-1,1.1-1.8,1.4c-0.1,0-0.3,0.1-0.3,0.2c0,0.1,1.9-0.7,3.2,0.1
					c1,0.6,1.2,1.8,1.6,1.7c0.5-0.1,0.2-1.6,1.1-2.2c0.9-0.6,2.3,0,2.3-0.2c0.1-0.3-2.4-0.6-3.2-2.2c-1-2,1.5-4.5,0.5-5.6
					c-0.5-0.6-3.3-0.7-3.7-0.2C503.9,359.4,504.6,360,504.7,361.4z"/>
				<path class="st6" d="M472.7,374c0,0,12.3-20.1,15-24.5s5-10.3,7-13.5c2-3.2,4.3-5.2,10.1-4.7c5.8,0.5,7.4,3.7,7.8,4.8
					c0.4,1.1,0.7,2.7,1.9,3.3c1.2,0.6,5.3,2,4.9,2.6c-0.4,0.6-3.1,1.9-3.5,3.3s-1.7,8.6-3,11.9c-1.3,3.3-0.9,5-5.4,6.3
					c-4.5,1.3-16-1.2-21.4,2.5C480.9,369.9,472.7,374,472.7,374z"/>
				<path class="st7" d="M501.7,335.7c1.9-1.5,5.2-2.1,7.3-0.5c2.3,1.8,1.9,5.5-0.2,7.5c-2.1,2.1-6.3,2.6-8.4,0.6
					C498.4,341.3,499.3,337.5,501.7,335.7z"/>
				<path class="st2" d="M503.1,336.2c1.4-1.1,3.5-1.2,4.9-0.1c1.7,1.5,1.7,4.4,0,5.8c-1.8,1.6-5,0.8-6-1.3
					C501.2,339.2,501.7,337.3,503.1,336.2z"/>
				<path class="st7" d="M505.3,336.6c0.4-0.5,1.1-0.5,1.5-0.1c0.5,0.6,0.5,1.8-0.1,2.4c-0.6,0.7-1.6,0.4-1.9-0.5
					C504.6,337.8,504.8,337,505.3,336.6z"/>
				<path class="st8" d="M474.9,364.8c0,0,1.3-2.4,1.7-3.8c0.7-2.6,6.5-10.4,12.8-10.8c3.4-0.2,4.4,1.6,8.7,1.4c4-0.2,6.7-2,8.4-3
					c1-0.6,3.1-2.3,3.1-2.3s-0.4,1-0.6,3.2c-0.2,2.2-2.4,9-7.2,11.2c-4.4,2-6.9-1-15.2,0.1c-4.5,0.6-7.2,1.9-8.7,2.3
					C477.3,363.2,474.9,364.8,474.9,364.8z"/>
				<path class="st6" d="M512.5,345c0.3-0.8,4-1.6,5.8-1c0.7,0.2-2.9,4.6-4.8,3.3C512.9,346.9,512.3,345.5,512.5,345z"/>
			</g>
			<g>
				<g>
					<path class="st4" d="M502.9,223.6c0,0,0.9-2.7,2.4-2.7s1.9,0.3,1.9,0.3s-1.8-0.6-2.1,1C504.9,223.9,502.9,223.6,502.9,223.6z"
						/>
					<path class="st4" d="M501.8,220.7c0,0-0.2,2.8,1.3,3.5s1.9,0.5,1.9,0.5s-1.9-0.2-1.6-1.8S501.8,220.7,501.8,220.7z"/>
				</g>
				<path class="st5" d="M500.1,253.9c-1.2,1.3,0.6,5.2-0.7,6.9c-0.1,0.1-0.1,0.1-0.1,0.1c-1,1.3-2.3,1.5-2.2,1.7
					c0.1,0.3,2.6-0.7,3.9,0.3c0.9,0.7,0.9,2,1.3,2c0.5,0,0.5-2.3,1.5-2.6c0.8-0.2,1.3,1.4,2,1c1-0.7-2-2.5-2.5-4.8
					c-0.6-2.5,1.1-3.2,0.2-4.4C502.7,253.3,500.9,253.1,500.1,253.9z"/>
				<path class="st5" d="M504.7,253.6c0.2,2.3,0,4.2-0.2,4.4c-0.5,0.6-1,1.1-1.8,1.4c-0.1,0-0.3,0.1-0.3,0.2c0,0.1,1.9-0.7,3.2,0.1
					c1,0.6,1.2,1.8,1.6,1.7c0.5-0.1,0.2-1.6,1.1-2.2c0.9-0.6,2.3,0,2.3-0.2c0.1-0.3-2.4-0.6-3.2-2.2c-1-2,1.5-4.5,0.5-5.6
					c-0.5-0.6-3.3-0.7-3.7-0.2C503.9,251.5,504.6,252.2,504.7,253.6z"/>
				<path class="st6" d="M472.7,266.1c0,0,12.3-20.1,15-24.5c2.7-4.4,5-10.3,7-13.5c2-3.2,4.3-5.2,10.1-4.7c5.8,0.5,7.4,3.7,7.8,4.8
					c0.4,1.1,0.7,2.7,1.9,3.3c1.2,0.6,5.3,2,4.9,2.6c-0.4,0.6-3.1,1.9-3.5,3.3s-1.7,8.6-3,11.9c-1.3,3.3-0.9,5-5.4,6.3
					c-4.5,1.3-16-1.2-21.4,2.5S472.7,266.1,472.7,266.1z"/>
				<path class="st7" d="M501.7,227.8c1.9-1.5,5.2-2.1,7.3-0.5c2.3,1.8,1.9,5.5-0.2,7.5c-2.1,2.1-6.3,2.6-8.4,0.6
					C498.4,233.4,499.3,229.7,501.7,227.8z"/>
				<path class="st2" d="M503.1,228.3c1.4-1.1,3.5-1.2,4.9-0.1c1.7,1.5,1.7,4.4,0,5.8c-1.8,1.6-5,0.8-6-1.3
					C501.2,231.4,501.7,229.4,503.1,228.3z"/>
				<path class="st7" d="M505.3,228.7c0.4-0.5,1.1-0.5,1.5-0.1c0.5,0.6,0.5,1.8-0.1,2.4c-0.6,0.7-1.6,0.4-1.9-0.5
					C504.6,230,504.8,229.2,505.3,228.7z"/>
				<path class="st8" d="M474.9,256.9c0,0,1.3-2.4,1.7-3.8c0.7-2.6,6.5-10.4,12.8-10.8c3.4-0.2,4.4,1.6,8.7,1.4c4-0.2,6.7-2,8.4-3
					c1-0.6,3.1-2.3,3.1-2.3s-0.4,1-0.6,3.2c-0.2,2.2-2.4,9-7.2,11.2c-4.4,2-6.9-1-15.2,0.1c-4.5,0.6-7.2,1.9-8.7,2.3
					C477.3,255.3,474.9,256.9,474.9,256.9z"/>
				<path class="st6" d="M512.5,237.2c0.3-0.8,4-1.6,5.8-1c0.7,0.2-2.9,4.6-4.8,3.3C512.9,239.1,512.3,237.7,512.5,237.2z"/>
			</g>
			<g>
				<g>
					<path class="st4" d="M502.9,439.3c0,0,0.9-2.7,2.4-2.7c1.6,0,1.9,0.3,1.9,0.3s-1.8-0.6-2.1,1
						C504.9,439.6,502.9,439.3,502.9,439.3z"/>
					<path class="st4" d="M501.8,436.4c0,0-0.2,2.8,1.3,3.5c1.4,0.7,1.9,0.5,1.9,0.5s-1.9-0.2-1.6-1.8
						C503.7,436.9,501.8,436.4,501.8,436.4z"/>
				</g>
				<path class="st5" d="M500.1,469.6c-1.2,1.3,0.6,5.2-0.7,6.9c-0.1,0.1-0.1,0.1-0.1,0.1c-1,1.3-2.3,1.5-2.2,1.7
					c0.1,0.3,2.6-0.7,3.9,0.3c0.9,0.7,0.9,2,1.3,2c0.5,0,0.5-2.3,1.5-2.6c0.8-0.2,1.3,1.4,2,1c1-0.7-2-2.5-2.5-4.8
					c-0.6-2.5,1.1-3.2,0.2-4.4C502.7,469,500.9,468.8,500.1,469.6z"/>
				<path class="st5" d="M504.7,469.3c0.2,2.3,0,4.2-0.2,4.4c-0.5,0.6-1,1.1-1.8,1.4c-0.1,0-0.3,0.1-0.3,0.2c0,0.1,1.9-0.7,3.2,0.1
					c1,0.6,1.2,1.8,1.6,1.7c0.5-0.1,0.2-1.6,1.1-2.2c0.9-0.6,2.3,0,2.3-0.2c0.1-0.3-2.4-0.6-3.2-2.2c-1-2,1.5-4.5,0.5-5.6
					c-0.5-0.6-3.3-0.7-3.7-0.2C503.9,467.2,504.6,467.9,504.7,469.3z"/>
				<path class="st6" d="M472.7,481.8c0,0,12.3-20.1,15-24.5c2.7-4.4,5-10.3,7-13.5c2-3.2,4.3-5.2,10.1-4.7c5.8,0.5,7.4,3.7,7.8,4.8
					s0.7,2.7,1.9,3.3c1.2,0.6,5.3,2,4.9,2.6c-0.4,0.6-3.1,1.9-3.5,3.3s-1.7,8.6-3,11.9c-1.3,3.3-0.9,5-5.4,6.3
					c-4.5,1.3-16-1.2-21.4,2.5C480.9,477.8,472.7,481.8,472.7,481.8z"/>
				<path class="st7" d="M501.7,443.5c1.9-1.5,5.2-2.1,7.3-0.5c2.3,1.8,1.9,5.5-0.2,7.5c-2.1,2.1-6.3,2.6-8.4,0.6
					C498.4,449.1,499.3,445.4,501.7,443.5z"/>
				<path class="st2" d="M503.1,444c1.4-1.1,3.5-1.2,4.9-0.1c1.7,1.5,1.7,4.4,0,5.8c-1.8,1.6-5,0.8-6-1.3
					C501.2,447.1,501.7,445.1,503.1,444z"/>
				<path class="st7" d="M505.3,444.4c0.4-0.5,1.1-0.5,1.5-0.1c0.5,0.6,0.5,1.8-0.1,2.4c-0.6,0.7-1.6,0.4-1.9-0.5
					C504.6,445.7,504.8,444.9,505.3,444.4z"/>
				<path class="st8" d="M474.9,472.6c0,0,1.3-2.4,1.7-3.8c0.7-2.6,6.5-10.4,12.8-10.8c3.4-0.2,4.4,1.6,8.7,1.4c4-0.2,6.7-2,8.4-3
					c1-0.6,3.1-2.3,3.1-2.3s-0.4,1-0.6,3.2c-0.2,2.2-2.4,9-7.2,11.2c-4.4,2-6.9-1-15.2,0.1c-4.5,0.6-7.2,1.9-8.7,2.3
					C477.3,471,474.9,472.6,474.9,472.6z"/>
				<path class="st6" d="M512.5,452.9c0.3-0.8,4-1.6,5.8-1c0.7,0.2-2.9,4.6-4.8,3.3C512.9,454.8,512.3,453.4,512.5,452.9z"/>
			</g>
			<g>
				<g>
					<path class="st4" d="M502.9,547.2c0,0,0.9-2.7,2.4-2.7s1.9,0.3,1.9,0.3s-1.8-0.6-2.1,1C504.9,547.4,502.9,547.2,502.9,547.2z"
						/>
					<path class="st4" d="M501.8,544.2c0,0-0.2,2.8,1.3,3.5s1.9,0.5,1.9,0.5s-1.9-0.2-1.6-1.8C503.7,544.8,501.8,544.2,501.8,544.2z
						"/>
				</g>
				<path class="st5" d="M500.1,577.4c-1.2,1.3,0.6,5.2-0.7,6.9c-0.1,0.1-0.1,0.1-0.1,0.1c-1,1.3-2.3,1.5-2.2,1.7
					c0.1,0.3,2.6-0.7,3.9,0.3c0.9,0.7,0.9,2,1.3,2c0.5,0,0.5-2.3,1.5-2.6c0.8-0.2,1.3,1.4,2,1c1-0.7-2-2.5-2.5-4.8
					c-0.6-2.5,1.1-3.2,0.2-4.4C502.7,576.9,500.9,576.7,500.1,577.4z"/>
				<path class="st5" d="M504.7,577.1c0.2,2.3,0,4.2-0.2,4.4c-0.5,0.6-1,1.1-1.8,1.4c-0.1,0-0.3,0.1-0.3,0.2c0,0.1,1.9-0.7,3.2,0.1
					c1,0.6,1.2,1.8,1.6,1.7c0.5-0.1,0.2-1.6,1.1-2.2c0.9-0.6,2.3,0,2.3-0.2c0.1-0.3-2.4-0.6-3.2-2.2c-1-2,1.5-4.5,0.5-5.6
					c-0.5-0.6-3.3-0.7-3.7-0.2C503.9,575.1,504.6,575.7,504.7,577.1z"/>
				<path class="st6" d="M472.7,589.7c0,0,12.3-20.1,15-24.5c2.7-4.4,5-10.3,7-13.5c2-3.2,4.3-5.2,10.1-4.7c5.8,0.5,7.4,3.7,7.8,4.8
					s0.7,2.7,1.9,3.3c1.2,0.6,5.3,2,4.9,2.6c-0.4,0.6-3.1,1.9-3.5,3.3c-0.4,1.4-1.7,8.6-3,11.9c-1.3,3.3-0.9,5-5.4,6.3
					c-4.5,1.3-16-1.2-21.4,2.5C480.9,585.6,472.7,589.7,472.7,589.7z"/>
				<path class="st7" d="M501.7,551.4c1.9-1.5,5.2-2.1,7.3-0.5c2.3,1.8,1.9,5.5-0.2,7.5c-2.1,2.1-6.3,2.6-8.4,0.6
					C498.4,557,499.3,553.2,501.7,551.4z"/>
				<path class="st2" d="M503.1,551.9c1.4-1.1,3.5-1.2,4.9-0.1c1.7,1.5,1.7,4.4,0,5.8c-1.8,1.6-5,0.8-6-1.3
					C501.2,554.9,501.7,553,503.1,551.9z"/>
				<path class="st7" d="M505.3,552.3c0.4-0.5,1.1-0.5,1.5-0.1c0.5,0.6,0.5,1.8-0.1,2.4c-0.6,0.7-1.6,0.4-1.9-0.5
					C504.6,553.6,504.8,552.7,505.3,552.3z"/>
				<path class="st8" d="M474.9,580.5c0,0,1.3-2.4,1.7-3.8c0.7-2.6,6.5-10.4,12.8-10.8c3.4-0.2,4.4,1.6,8.7,1.4c4-0.2,6.7-2,8.4-3
					c1-0.6,3.1-2.3,3.1-2.3s-0.4,1-0.6,3.2c-0.2,2.2-2.4,9-7.2,11.2c-4.4,2-6.9-1-15.2,0.1c-4.5,0.6-7.2,1.9-8.7,2.3
					C477.3,578.9,474.9,580.5,474.9,580.5z"/>
				<path class="st6" d="M512.5,560.7c0.3-0.8,4-1.6,5.8-1c0.7,0.2-2.9,4.6-4.8,3.3C512.9,562.7,512.3,561.2,512.5,560.7z"/>
			</g>
		</g>
	</g>
	<g>
		<path class="st9" d="M783,163.4H0V61.6c0-13.8,11.2-25,25-25h733c13.8,0,25,11.2,25,25V163.4z"/>
		<path class="st10" d="M52.1,78.9L52.1,78.9c-7,0-12.7-5.7-12.7-12.7v0c0-7,5.7-12.7,12.7-12.7h0c7,0,12.7,5.7,12.7,12.7v0
			C64.8,73.2,59.1,78.9,52.1,78.9z"/>
		<path class="st10" d="M88.7,78.9L88.7,78.9c-7,0-12.7-5.7-12.7-12.7v0c0-7,5.7-12.7,12.7-12.7h0c7,0,12.7,5.7,12.7,12.7v0
			C101.4,73.2,95.7,78.9,88.7,78.9z"/>
		<path class="st11" d="M52.1,70.4L52.1,70.4c-5.4,0-9.9-4.4-9.9-9.9V9.9c0-5.4,4.4-9.9,9.9-9.9h0C57.5,0,62,4.4,62,9.9v50.7
			C62,66,57.5,70.4,52.1,70.4z"/>
		<path class="st11" d="M88.7,70.4L88.7,70.4c-5.4,0-9.9-4.4-9.9-9.9V9.9c0-5.4,4.4-9.9,9.9-9.9h0c5.4,0,9.9,4.4,9.9,9.9v50.7
			C98.6,66,94.1,70.4,88.7,70.4z"/>
		<path class="st10" d="M159.1,78.9L159.1,78.9c-7,0-12.7-5.7-12.7-12.7v0c0-7,5.7-12.7,12.7-12.7h0c7,0,12.7,5.7,12.7,12.7v0
			C171.8,73.2,166.1,78.9,159.1,78.9z"/>
		<path class="st10" d="M195.8,78.9L195.8,78.9c-7,0-12.7-5.7-12.7-12.7v0c0-7,5.7-12.7,12.7-12.7h0c7,0,12.7,5.7,12.7,12.7v0
			C208.4,73.2,202.7,78.9,195.8,78.9z"/>
		<path class="st11" d="M159.1,70.4L159.1,70.4c-5.4,0-9.9-4.4-9.9-9.9V9.9c0-5.4,4.4-9.9,9.9-9.9h0c5.4,0,9.9,4.4,9.9,9.9v50.7
			C169,66,164.6,70.4,159.1,70.4z"/>
		<path class="st11" d="M195.8,70.4L195.8,70.4c-5.4,0-9.9-4.4-9.9-9.9V9.9c0-5.4,4.4-9.9,9.9-9.9h0c5.4,0,9.9,4.4,9.9,9.9v50.7
			C205.6,66,201.2,70.4,195.8,70.4z"/>
		<path class="st10" d="M266.2,78.9L266.2,78.9c-7,0-12.7-5.7-12.7-12.7v0c0-7,5.7-12.7,12.7-12.7l0,0c7,0,12.7,5.7,12.7,12.7v0
			C278.8,73.2,273.1,78.9,266.2,78.9z"/>
		<path class="st10" d="M302.8,78.9L302.8,78.9c-7,0-12.7-5.7-12.7-12.7v0c0-7,5.7-12.7,12.7-12.7l0,0c7,0,12.7,5.7,12.7,12.7v0
			C315.5,73.2,309.8,78.9,302.8,78.9z"/>
		<path class="st11" d="M266.2,70.4L266.2,70.4c-5.4,0-9.9-4.4-9.9-9.9V9.9c0-5.4,4.4-9.9,9.9-9.9l0,0c5.4,0,9.9,4.4,9.9,9.9v50.7
			C276,66,271.6,70.4,266.2,70.4z"/>
		<path class="st11" d="M302.8,70.4L302.8,70.4c-5.4,0-9.9-4.4-9.9-9.9V9.9c0-5.4,4.4-9.9,9.9-9.9l0,0c5.4,0,9.9,4.4,9.9,9.9v50.7
			C312.6,66,308.2,70.4,302.8,70.4z"/>
		<path class="st10" d="M373.2,78.9L373.2,78.9c-7,0-12.7-5.7-12.7-12.7v0c0-7,5.7-12.7,12.7-12.7h0c7,0,12.7,5.7,12.7,12.7v0
			C385.9,73.2,380.2,78.9,373.2,78.9z"/>
		<path class="st10" d="M409.8,78.9L409.8,78.9c-7,0-12.7-5.7-12.7-12.7v0c0-7,5.7-12.7,12.7-12.7h0c7,0,12.7,5.7,12.7,12.7v0
			C422.5,73.2,416.8,78.9,409.8,78.9z"/>
		<path class="st11" d="M373.2,70.4L373.2,70.4c-5.4,0-9.9-4.4-9.9-9.9V9.9c0-5.4,4.4-9.9,9.9-9.9h0c5.4,0,9.9,4.4,9.9,9.9v50.7
			C383.1,66,378.6,70.4,373.2,70.4z"/>
		<path class="st11" d="M409.8,70.4L409.8,70.4c-5.4,0-9.9-4.4-9.9-9.9V9.9c0-5.4,4.4-9.9,9.9-9.9h0c5.4,0,9.9,4.4,9.9,9.9v50.7
			C419.7,66,415.2,70.4,409.8,70.4z"/>
		<path class="st10" d="M480.2,78.9L480.2,78.9c-7,0-12.7-5.7-12.7-12.7v0c0-7,5.7-12.7,12.7-12.7h0c7,0,12.7,5.7,12.7,12.7v0
			C492.9,73.2,487.2,78.9,480.2,78.9z"/>
		<path class="st10" d="M516.8,78.9L516.8,78.9c-7,0-12.7-5.7-12.7-12.7v0c0-7,5.7-12.7,12.7-12.7l0,0c7,0,12.7,5.7,12.7,12.7v0
			C529.5,73.2,523.8,78.9,516.8,78.9z"/>
		<path class="st11" d="M480.2,70.4L480.2,70.4c-5.4,0-9.9-4.4-9.9-9.9V9.9c0-5.4,4.4-9.9,9.9-9.9h0c5.4,0,9.9,4.4,9.9,9.9v50.7
			C490.1,66,485.7,70.4,480.2,70.4z"/>
		<path class="st11" d="M516.8,70.4L516.8,70.4c-5.4,0-9.9-4.4-9.9-9.9V9.9c0-5.4,4.4-9.9,9.9-9.9l0,0c5.4,0,9.9,4.4,9.9,9.9v50.7
			C526.7,66,522.3,70.4,516.8,70.4z"/>
		<path class="st10" d="M587.3,78.9L587.3,78.9c-7,0-12.7-5.7-12.7-12.7v0c0-7,5.7-12.7,12.7-12.7l0,0c7,0,12.7,5.7,12.7,12.7v0
			C599.9,73.2,594.2,78.9,587.3,78.9z"/>
		<path class="st10" d="M623.9,78.9L623.9,78.9c-7,0-12.7-5.7-12.7-12.7v0c0-7,5.7-12.7,12.7-12.7l0,0c7,0,12.7,5.7,12.7,12.7v0
			C636.6,73.2,630.8,78.9,623.9,78.9z"/>
		<path class="st11" d="M587.3,70.4L587.3,70.4c-5.4,0-9.9-4.4-9.9-9.9V9.9c0-5.4,4.4-9.9,9.9-9.9l0,0c5.4,0,9.9,4.4,9.9,9.9v50.7
			C597.1,66,592.7,70.4,587.3,70.4z"/>
		<path class="st11" d="M623.9,70.4L623.9,70.4c-5.4,0-9.9-4.4-9.9-9.9V9.9c0-5.4,4.4-9.9,9.9-9.9l0,0c5.4,0,9.9,4.4,9.9,9.9v50.7
			C633.7,66,629.3,70.4,623.9,70.4z"/>
		<path class="st10" d="M694.3,78.9L694.3,78.9c-7,0-12.7-5.7-12.7-12.7v0c0-7,5.7-12.7,12.7-12.7l0,0c7,0,12.7,5.7,12.7,12.7v0
			C707,73.2,701.3,78.9,694.3,78.9z"/>
		<path class="st10" d="M730.9,78.9L730.9,78.9c-7,0-12.7-5.7-12.7-12.7v0c0-7,5.7-12.7,12.7-12.7l0,0c7,0,12.7,5.7,12.7,12.7v0
			C743.6,73.2,737.9,78.9,730.9,78.9z"/>
		<path class="st11" d="M694.3,70.4L694.3,70.4c-5.4,0-9.9-4.4-9.9-9.9V9.9c0-5.4,4.4-9.9,9.9-9.9l0,0c5.4,0,9.9,4.4,9.9,9.9v50.7
			C704.1,66,699.7,70.4,694.3,70.4z"/>
		<path class="st11" d="M730.9,70.4L730.9,70.4c-5.4,0-9.9-4.4-9.9-9.9V9.9c0-5.4,4.4-9.9,9.9-9.9l0,0c5.4,0,9.9,4.4,9.9,9.9v50.7
			C740.8,66,736.3,70.4,730.9,70.4z"/>
	</g>
</g>
</svg>
