<?xml version="1.0" encoding="utf-8"?>
<!-- Generator: Adobe Illustrator 24.2.1, SVG Export Plug-In . SVG Version: 6.00 Build 0)  -->
<svg version="1.1" id="Capa_1" xmlns="http://www.w3.org/2000/svg" xmlns:xlink="http://www.w3.org/1999/xlink" x="0px" y="0px"
	 viewBox="0 0 409.6 280.6" style="enable-background:new 0 0 409.6 280.6;" xml:space="preserve">
<style type="text/css">
	.st0{fill:#C8CBCD;}
	.st1{fill:#F0F1F2;}
	.st2{fill:#184753;}
	.st3{fill:#127E9B;}
	.st4{fill:#076077;}
	.st5{fill:#92A3AC;}
	.st6{fill:#FFFFFF;}
	.st7{fill:#73C9C3;}
	.st8{fill:#FCD484;}
	.st9{fill:#127E9A;}
	.st10{fill:#E7B249;}
	.st11{opacity:0.1;fill:#076077;}
</style>
<g>
	<path class="st0" d="M0,264.7v11c0,2.6,2.1,4.8,4.8,4.8h400c2.6,0,4.8-2.1,4.8-4.8v-11H0z"/>
	<polygon class="st1" points="362.5,203.9 47.1,203.9 0,264.7 409.6,264.7 	"/>
	<path class="st2" d="M351.5,0H58.1c-6,0-10.9,4.9-10.9,10.9v192.9h315.4V10.9C362.5,4.9,357.6,0,351.5,0z"/>
	<rect x="69.5" y="22.3" class="st3" width="270.7" height="159.2"/>
	<polygon class="st4" points="339.8,22.7 182.1,22.7 275.1,181.8 339.8,181.8 	"/>
	<g>
		<polygon class="st5" points="77.8,210.5 53.7,210.5 56.4,207.1 80,207.1 		"/>
		<polygon class="st5" points="122,210.5 98,210.5 99.8,207.1 123.4,207.1 		"/>
		<polygon class="st5" points="152.5,210.5 128.4,210.5 129.8,207.1 153.4,207.1 		"/>
		<polygon class="st5" points="183,210.5 158.9,210.5 159.7,207.1 183.3,207.1 		"/>
		<polygon class="st5" points="213.5,210.5 189.4,210.5 189.7,207.1 213.3,207.1 		"/>
		<polygon class="st5" points="263.7,210.5 239.6,210.5 239,207.1 262.7,207.1 		"/>
		<polygon class="st5" points="294.2,210.5 270.1,210.5 269,207.1 292.6,207.1 		"/>
		<polygon class="st5" points="324.7,210.5 300.6,210.5 298.9,207.1 322.6,207.1 		"/>
		<polygon class="st5" points="355.1,210.5 331.1,210.5 328.9,207.1 352.5,207.1 		"/>
		<polygon class="st5" points="72.6,218.8 47.5,218.8 51.6,213.4 75.9,213.4 		"/>
		<polygon class="st5" points="108.7,218.8 83.6,218.8 86.7,213.4 111.1,213.4 		"/>
		<polygon class="st5" points="144.8,218.8 119.7,218.8 121.9,213.4 146.3,213.4 		"/>
		<polygon class="st5" points="180.9,218.8 155.8,218.8 157.1,213.4 181.5,213.4 		"/>
		<polygon class="st5" points="217,218.8 191.9,218.8 192.2,213.4 216.6,213.4 		"/>
		<polygon class="st5" points="253.1,218.8 228,218.8 227.4,213.4 251.8,213.4 		"/>
		<polygon class="st5" points="289.2,218.8 264.1,218.8 262.6,213.4 287,213.4 		"/>
		<polygon class="st5" points="325.3,218.8 300.2,218.8 297.8,213.4 322.1,213.4 		"/>
		<polygon class="st5" points="361.4,218.8 336.3,218.8 332.9,213.4 357.3,213.4 		"/>
		<polygon class="st5" points="67.6,226.6 41.6,226.6 45.9,220.9 71.2,220.9 		"/>
		<polygon class="st5" points="105,226.6 79,226.6 82.4,220.9 107.7,220.9 		"/>
		<polygon class="st5" points="142.5,226.6 116.5,226.6 118.9,220.9 144.1,220.9 		"/>
		<polygon class="st5" points="180,226.6 154,226.6 155.3,220.9 180.6,220.9 		"/>
		<polygon class="st5" points="217.4,226.6 191.4,226.6 191.8,220.9 217.1,220.9 		"/>
		<polygon class="st5" points="254.9,226.6 228.9,226.6 228.3,220.9 253.5,220.9 		"/>
		<polygon class="st5" points="292.4,226.6 266.4,226.6 264.7,220.9 290,220.9 		"/>
		<polygon class="st5" points="329.8,226.6 303.8,226.6 301.2,220.9 326.5,220.9 		"/>
		<polygon class="st5" points="367.3,226.6 341.3,226.6 337.7,220.9 362.9,220.9 		"/>
		<polygon class="st5" points="82.2,235.1 35.2,235.1 39.9,228.9 85.6,228.9 		"/>
		<polygon class="st5" points="118.8,235.1 91.8,235.1 94.9,228.9 121.2,228.9 		"/>
		<polygon class="st5" points="157.8,235.1 130.8,235.1 132.8,228.9 159.1,228.9 		"/>
		<polygon class="st5" points="196.7,235.1 169.7,235.1 170.7,228.9 196.9,228.9 		"/>
		<polygon class="st5" points="235.6,235.1 208.6,235.1 208.5,228.9 234.8,228.9 		"/>
		<polygon class="st5" points="295.8,235.1 244,235.1 242.9,228.9 293.3,228.9 		"/>
		<polygon class="st5" points="334.8,235.1 307.7,235.1 304.9,228.9 331.1,228.9 		"/>
		<polygon class="st5" points="373.7,235.1 346.7,235.1 342.7,228.9 369,228.9 		"/>
		<polygon class="st5" points="56.4,244.3 28.2,244.3 33.3,237.6 60.6,237.6 		"/>
		<polygon class="st5" points="218.5,244.3 68.8,244.3 72.7,237.6 218.1,237.6 		"/>
		<polygon class="st5" points="259,244.3 230.9,244.3 230.1,237.6 257.4,237.6 		"/>
		<polygon class="st5" points="340.1,244.3 312,244.3 308.9,237.6 336.2,237.6 		"/>
		<polygon class="st5" points="380.6,244.3 352.5,244.3 348.2,237.6 375.5,237.6 		"/>
		<polygon class="st5" points="298,240.5 296.8,237.6 269.5,237.6 270.4,240.5 		"/>
		<polygon class="st5" points="270.6,241.2 271.4,244.3 299.6,244.3 298.3,241.2 		"/>
	</g>
	<polygon class="st2" points="246.3,259.8 163.3,259.8 168.6,246.7 241,246.7 	"/>
	<g>
		<g>
			<g>
				<path class="st6" d="M116.9,87.4c1.8-1.1,3.8-1.7,5.9-1.7c1.7,0,3.1,0.2,4.2,0.6c1.1,0.4,2.2,1.1,3.3,2.1c0.6,0.5,1.3,0.8,2,0.8
					c0.8,0,1.5-0.3,2.1-0.8c0.6-0.5,0.9-1.2,0.9-2c0-0.5-0.1-0.9-0.2-1.3c-0.2-0.4-0.5-0.8-0.9-1.1c-1.7-1.4-3.5-2.4-5.2-3
					c-1.7-0.6-3.8-0.9-6.1-0.9c-3.3,0-6.3,0.8-9.1,2.5c-2.7,1.6-4.9,3.9-6.5,6.7c-1.6,2.8-2.4,5.9-2.4,9.3c0,3.4,0.8,6.5,2.4,9.4
					c1.6,2.8,3.7,5.1,6.5,6.7c2.7,1.6,5.8,2.5,9.1,2.5c4.3,0,8.1-1.4,11.3-4c0.7-0.5,1-1.3,1-2.3v-10.6c0-0.9-0.3-1.6-0.9-2.2l0,0
					c-0.6-0.6-1.3-0.9-2.2-0.9h-8.3c-0.9,0-1.6,0.3-2.2,0.8c-0.6,0.5-0.9,1.2-0.9,2c0,0.8,0.3,1.5,0.9,2c0.6,0.5,1.3,0.8,2.2,0.8
					h5.3v6.7c-2,1.2-4.2,1.9-6.3,1.9c-2.1,0-4.1-0.6-5.9-1.7c-1.8-1.1-3.3-2.7-4.3-4.6c-1.1-1.9-1.6-4.1-1.6-6.4
					c0-2.3,0.5-4.5,1.6-6.4C113.6,90.1,115.1,88.6,116.9,87.4z"/>
				<path class="st6" d="M159.3,92.4L159.3,92.4c-2-1.1-4.2-1.7-6.6-1.7c-2.4,0-4.6,0.6-6.6,1.7c-2,1.1-3.6,2.7-4.7,4.7
					c-1.1,2-1.7,4.2-1.7,6.7c0,2.4,0.5,4.7,1.6,6.6c1,2,2.5,3.6,4.4,4.7c1.8,1.1,3.9,1.7,6.2,1.7c1.8,0,3.5-0.4,5.1-1.1
					c1-0.5,1.8-1,2.6-1.7c0.1,0.7,0.4,1.4,0.9,1.9c0.6,0.6,1.3,0.9,2.2,0.9c0.9,0,1.6-0.3,2.2-0.9c0.6-0.6,0.9-1.3,0.9-2.2v-9.9
					c0-2.4-0.6-4.7-1.7-6.7C162.8,95.1,161.2,93.5,159.3,92.4z M152.7,96.2c1.3,0,2.5,0.3,3.6,1c1.1,0.6,1.9,1.5,2.5,2.7
					c0.6,1.1,0.9,2.5,0.9,3.9c0,1.4-0.3,2.7-0.9,3.8c-0.6,1.1-1.5,2-2.5,2.7v0c-1.1,0.6-2.3,1-3.6,1c-1.3,0-2.5-0.3-3.6-1
					c-1.1-0.6-1.9-1.5-2.5-2.7c-0.6-1.1-0.9-2.4-0.9-3.8c0-1.4,0.3-2.7,0.9-3.9c0.6-1.1,1.5-2,2.5-2.7
					C150.2,96.5,151.4,96.2,152.7,96.2z"/>
				<path class="st6" d="M189.9,110.9h-9.7l11.5-15.3c0.4-0.5,0.6-1.1,0.6-1.9c0-1.8-1-2.9-2.9-2.9h-15.1c-1.8,0-2.9,1-2.9,2.9
					s1,2.9,2.9,2.9h9.7l-11.6,15.3c-0.4,0.5-0.6,1.1-0.6,1.9c0,1.8,1,2.9,2.9,2.9h15.1c1.8,0,2.9-1,2.9-2.9
					C192.7,111.9,191.7,110.9,189.9,110.9z"/>
			</g>
			<path class="st6" d="M253.3,91.6L253.3,91.6c-0.6-0.6-1.3-0.9-2.2-0.9c-0.9,0-1.6,0.3-2.2,0.8c-0.6,0.6-0.9,1.3-0.9,2.2v12.5
				c0,0.9-0.2,1.7-0.7,2.4c-0.5,0.7-1.2,1.3-2.1,1.8c-0.9,0.4-1.9,0.7-3,0.7c-1.9,0-3.4-0.5-4.6-1.6c-1.1-1.1-1.7-2.7-1.7-4.8V93.8
				c0-0.9-0.3-1.6-0.9-2.2c-0.6-0.6-1.3-0.9-2.2-0.9c-0.9,0-1.6,0.3-2.2,0.9c-0.6,0.6-0.9,1.3-0.9,2.2v10.9c0,2.5,0.5,4.7,1.5,6.5
				c1,1.8,2.4,3.2,4.1,4.2c1.7,0.9,3.7,1.4,5.9,1.4c1.6,0,3.1-0.3,4.5-0.8c0.9-0.4,1.7-0.8,2.5-1.4c0.1,0.4,0.4,0.8,0.7,1.1
				c0.6,0.6,1.3,0.9,2.2,0.9c0.9,0,1.6-0.3,2.2-0.9c0.6-0.6,0.8-1.3,0.8-2.2V93.8C254.1,92.9,253.8,92.2,253.3,91.6z"/>
			<path class="st6" d="M282.3,91.1c-0.4-0.2-0.9-0.3-1.4-0.3c-0.8,0-1.8,0.3-2.4,1.8l-6.4,14.5l-7.3-14.6c-0.7-1.4-1.8-1.7-2.6-1.7
				c-0.4,0-0.8,0.1-1.2,0.2c-0.5,0.2-0.9,0.6-1.2,1c-0.3,0.5-0.5,1-0.5,1.5c0,0.5,0.1,0.9,0.3,1.3l9.8,18.6L265,123
				c-0.2,0.5-0.3,0.9-0.3,1.4c0,0.8,0.3,1.8,1.8,2.5c0.5,0.2,1,0.3,1.4,0.3c0.8,0,1.9-0.3,2.4-1.8l13.5-30.5c0.2-0.5,0.3-1,0.3-1.4
				C284.2,92.8,283.8,91.7,282.3,91.1z"/>
			<g>
				<path class="st6" d="M292.3,90.8c-0.9,0-1.6,0.3-2.2,0.8c-0.6,0.6-0.9,1.3-0.9,2.2v19.7c0,0.9,0.3,1.6,0.9,2.2
					c0.6,0.6,1.3,0.9,2.2,0.9c0.9,0,1.6-0.3,2.2-0.9c0.6-0.6,0.8-1.3,0.8-2.2V93.9c0-0.9-0.3-1.6-0.9-2.2
					C293.9,91.1,293.2,90.8,292.3,90.8z"/>
			</g>
			<path class="st6" d="M221.3,97c-1.1-2-2.7-3.5-4.6-4.7c-2-1.1-4.2-1.7-6.7-1.7c-2.5,0-4.7,0.6-6.7,1.7c-2,1.1-3.5,2.7-4.6,4.7
				c-1.1,2-1.6,4.2-1.6,6.8c0,2.5,0.6,4.7,1.6,6.7c1.1,2,2.7,3.5,4.6,4.7c2,1.1,4.2,1.7,6.7,1.7c2.5,0,4.7-0.6,6.7-1.7
				c2-1.1,3.5-2.7,4.6-4.7c1.1-2,1.6-4.2,1.6-6.7C223,101.2,222.4,98.9,221.3,97z M219.1,106.7c-0.1,0-0.1,0-0.2,0
				c-1,3.6-4.6,5.8-9,5.8c-4.4,0-8.2-2.3-9.1-6.1c0,0,0,0,0,0c-0.9,0-1.6-0.8-1.6-1.7c0-0.9,0.7-1.7,1.5-1.7
				c0.6-3.5,2.9-6.7,6.3-7.6c0.7-0.2,3.5-2.2,3.5-2.2l-0.7,1.9c5,0.4,8.5,4.1,9.2,8.1c0,0,0,0,0.1,0c0.9,0,1.6,0.8,1.6,1.7
				C220.7,105.9,220,106.7,219.1,106.7z"/>
			<ellipse class="st6" cx="205.6" cy="104.7" rx="0.8" ry="1.2"/>
			<ellipse class="st6" cx="213.7" cy="104.5" rx="0.8" ry="1.2"/>
			<path class="st6" d="M209.7,109.6c-0.1,0-0.1,0-0.2,0c-1-0.1-1.4-0.9-1.5-1c-0.1-0.1,0-0.3,0.1-0.4c0.1-0.1,0.3,0,0.4,0.1
				c0,0.1,0.4,0.6,1,0.7c0.5,0.1,1-0.2,1.3-0.7c0.1-0.1,0.3-0.2,0.4-0.1c0.1,0.1,0.2,0.3,0.1,0.4C211,109.2,210.4,109.6,209.7,109.6
				z"/>
		</g>
		<g>
			<g>
				<path class="st7" d="M291.7,77.8c0,0-0.4-1-1-0.9c-0.6,0-0.7,0.2-0.7,0.2s0.7-0.3,0.8,0.3C291,78,291.7,77.8,291.7,77.8z"/>
				<path class="st7" d="M292,76.7c0,0,0.2,1-0.3,1.3c-0.5,0.3-0.7,0.2-0.7,0.2s0.7-0.1,0.5-0.7C291.3,76.9,292,76.7,292,76.7z"/>
			</g>
			<path class="st7" d="M293.9,89c0.5,0.4,0,2,0.5,2.5c0,0,0,0.1,0,0.1c0.4,0.4,0.9,0.5,0.9,0.5c0,0.1-1-0.2-1.5,0.3
				c-0.3,0.3-0.3,0.8-0.4,0.8c-0.2,0-0.3-0.8-0.6-0.9c-0.3-0.1-0.4,0.6-0.7,0.5c-0.4-0.2,0.6-1,0.8-1.9c0.1-1-0.5-1.2-0.2-1.6
				C292.9,88.9,293.6,88.8,293.9,89z"/>
			<path class="st7" d="M292.2,89.1c0,0.9,0.1,1.6,0.2,1.6c0.2,0.2,0.4,0.4,0.7,0.5c0,0,0.1,0,0.1,0c0,0-0.7-0.2-1.2,0.1
				c-0.4,0.3-0.4,0.7-0.5,0.7c-0.2,0-0.1-0.6-0.5-0.8c-0.4-0.2-0.8,0.1-0.9,0c0-0.1,0.9-0.3,1.1-0.9c0.3-0.8-0.7-1.6-0.4-2.1
				c0.2-0.3,1.2-0.4,1.4-0.2C292.4,88.3,292.2,88.5,292.2,89.1z"/>
			<path class="st8" d="M304.6,92.6c0,0-5.3-7.1-6.5-8.6c-1.2-1.5-2.3-3.7-3.1-4.8c-0.9-1.1-1.8-1.8-4-1.4c-2.1,0.4-2.6,1.7-2.8,2.1
				c-0.1,0.4-0.2,1-0.6,1.3c-0.4,0.3-1.9,0.9-1.7,1.2c0.2,0.2,1.2,0.6,1.4,1.1c0.2,0.5,1,3.2,1.6,4.3c0.6,1.2,0.5,1.8,2.3,2.2
				c1.7,0.3,5.9-1.1,8.1,0.1S304.6,92.6,304.6,92.6z"/>
			<path class="st6" d="M292.3,79.3c-0.8-0.5-2-0.6-2.8,0.1c-0.8,0.8-0.5,2.1,0.3,2.8c0.9,0.7,2.4,0.7,3.1-0.1
				C293.8,81.3,293.3,79.9,292.3,79.3z"/>
			<path class="st9" d="M291.9,79.6c-0.6-0.4-1.4-0.3-1.8,0.2c-0.6,0.6-0.5,1.7,0.2,2.2c0.7,0.5,1.9,0.1,2.2-0.7
				C292.7,80.6,292.4,79.9,291.9,79.6z"/>
			<path class="st6" d="M291.1,79.8c-0.2-0.2-0.4-0.2-0.6,0c-0.2,0.2-0.1,0.7,0.1,0.9c0.2,0.2,0.6,0.1,0.7-0.2
				C291.3,80.2,291.2,79.9,291.1,79.8z"/>
			<path class="st10" d="M303.4,89.2c0,0-0.6-0.8-0.8-1.4c-0.4-1-2.8-3.6-5.2-3.6c-1.3,0-1.6,0.8-3.2,0.8c-1.5,0.1-2.6-0.5-3.3-0.8
				c-0.4-0.2-1.3-0.7-1.3-0.7s0.2,0.4,0.4,1.2s1.2,3.3,3.1,3.9c1.7,0.6,2.5-0.6,5.7-0.5c1.7,0,2.8,0.4,3.3,0.5
				C302.5,88.7,303.4,89.2,303.4,89.2z"/>
			<path class="st8" d="M288.7,83.2c-0.2-0.3-1.6-0.5-2.2-0.2c-0.2,0.1,1.3,1.6,1.9,1.1C288.6,84,288.8,83.4,288.7,83.2z"/>
		</g>
	</g>
	<polygon class="st11" points="339.8,22.7 182.1,22.7 275.1,181.8 339.8,181.8 	"/>
	<g>
		<g>
			<g>
				<path class="st7" d="M291.7,77.8c0,0-0.4-1-1-0.9c-0.6,0-0.7,0.2-0.7,0.2s0.7-0.3,0.8,0.3C291,78,291.7,77.8,291.7,77.8z"/>
				<path class="st7" d="M292,76.7c0,0,0.2,1-0.3,1.3c-0.5,0.3-0.7,0.2-0.7,0.2s0.7-0.1,0.5-0.7C291.3,76.9,292,76.7,292,76.7z"/>
			</g>
			<path class="st7" d="M293.9,89c0.5,0.4,0,2,0.5,2.5c0,0,0,0.1,0,0.1c0.4,0.4,0.9,0.5,0.9,0.5c0,0.1-1-0.2-1.5,0.3
				c-0.3,0.3-0.3,0.8-0.4,0.8c-0.2,0-0.3-0.8-0.6-0.9c-0.3-0.1-0.4,0.6-0.7,0.5c-0.4-0.2,0.6-1,0.8-1.9c0.1-1-0.5-1.2-0.2-1.6
				C292.9,88.9,293.6,88.8,293.9,89z"/>
			<path class="st7" d="M292.2,89.1c0,0.9,0.1,1.6,0.2,1.6c0.2,0.2,0.4,0.4,0.7,0.5c0,0,0.1,0,0.1,0c0,0-0.7-0.2-1.2,0.1
				c-0.4,0.3-0.4,0.7-0.5,0.7c-0.2,0-0.1-0.6-0.5-0.8c-0.4-0.2-0.8,0.1-0.9,0c0-0.1,0.9-0.3,1.1-0.9c0.3-0.8-0.7-1.6-0.4-2.1
				c0.2-0.3,1.2-0.4,1.4-0.2C292.4,88.3,292.2,88.5,292.2,89.1z"/>
			<path class="st8" d="M304.6,92.6c0,0-5.3-7.1-6.5-8.6c-1.2-1.5-2.3-3.7-3.1-4.8c-0.9-1.1-1.8-1.8-4-1.4c-2.1,0.4-2.6,1.7-2.8,2.1
				c-0.1,0.4-0.2,1-0.6,1.3c-0.4,0.3-1.9,0.9-1.7,1.2c0.2,0.2,1.2,0.6,1.4,1.1c0.2,0.5,1,3.2,1.6,4.3c0.6,1.2,0.5,1.8,2.3,2.2
				c1.7,0.3,5.9-1.1,8.1,0.1S304.6,92.6,304.6,92.6z"/>
			<path class="st6" d="M292.3,79.3c-0.8-0.5-2-0.6-2.8,0.1c-0.8,0.8-0.5,2.1,0.3,2.8c0.9,0.7,2.4,0.7,3.1-0.1
				C293.8,81.3,293.3,79.9,292.3,79.3z"/>
			<path class="st9" d="M291.9,79.6c-0.6-0.4-1.4-0.3-1.8,0.2c-0.6,0.6-0.5,1.7,0.2,2.2c0.7,0.5,1.9,0.1,2.2-0.7
				C292.7,80.6,292.4,79.9,291.9,79.6z"/>
			<path class="st6" d="M291.1,79.8c-0.2-0.2-0.4-0.2-0.6,0c-0.2,0.2-0.1,0.7,0.1,0.9c0.2,0.2,0.6,0.1,0.7-0.2
				C291.3,80.2,291.2,79.9,291.1,79.8z"/>
			<path class="st10" d="M303.4,89.2c0,0-0.6-0.8-0.8-1.4c-0.4-1-2.8-3.6-5.2-3.6c-1.3,0-1.6,0.8-3.2,0.8c-1.5,0.1-2.6-0.5-3.3-0.8
				c-0.4-0.2-1.3-0.7-1.3-0.7s0.2,0.4,0.4,1.2s1.2,3.3,3.1,3.9c1.7,0.6,2.5-0.6,5.7-0.5c1.7,0,2.8,0.4,3.3,0.5
				C302.5,88.7,303.4,89.2,303.4,89.2z"/>
			<path class="st8" d="M288.7,83.2c-0.2-0.3-1.6-0.5-2.2-0.2c-0.2,0.1,1.3,1.6,1.9,1.1C288.6,84,288.8,83.4,288.7,83.2z"/>
		</g>
	</g>
</g>
</svg>
