<?xml version="1.0" encoding="utf-8"?>
<!-- Generator: Adobe Illustrator 24.2.1, SVG Export Plug-In . SVG Version: 6.00 Build 0)  -->
<svg version="1.1" id="Layer_1" xmlns="http://www.w3.org/2000/svg" xmlns:xlink="http://www.w3.org/1999/xlink" x="0px" y="0px"
	 viewBox="0 0 614.6 768.5" style="enable-background:new 0 0 614.6 768.5;" xml:space="preserve">
<style type="text/css">
	.st0{fill:none;}
	.st1{fill:#F4EC83;}
	.st2{display:none;fill:#B36241;}
	.st3{fill:#965336;}
	.st4{fill:#FBD485;}
	.st5{fill:#83442E;}
	.st6{fill:#2A2615;}
	.st7{fill:#FFFFFF;}
	.st8{fill:#653412;}
	.st9{fill:#9F5617;}
	.st10{fill:#3D444B;}
	.st11{fill:#975436;}
	.st12{fill:#076077;}
	.st13{fill:#9B4D34;}
	.st14{fill:#462814;}
	.st15{fill:#B36241;}
	.st16{clip-path:url(#SVGID_2_);}
	.st17{clip-path:url(#SVGID_4_);}
	.st18{fill:#F9C9B3;}
	.st19{clip-path:url(#SVGID_6_);fill:url(#SVGID_7_);stroke:url(#SVGID_8_);stroke-width:1.1539;stroke-miterlimit:10;}
	.st20{fill:#A05339;stroke:#FCD2C0;stroke-width:0.8654;stroke-linejoin:round;stroke-miterlimit:10;}
	.st21{fill:none;stroke:#FCD2C0;stroke-width:0.8654;stroke-linejoin:round;stroke-miterlimit:10;}
	.st22{fill:none;stroke:#FCD2C0;stroke-width:0.5769;stroke-linejoin:round;stroke-miterlimit:10;}
	.st23{fill:#462713;}
	.st24{clip-path:url(#SVGID_10_);fill:#E85B54;}
	.st25{fill:#D77761;}
	.st26{fill:#FFF164;}
	.st27{fill:#EAC246;}
	.st28{fill:#CBA53C;}
	.st29{fill:#C2D8E3;}
	.st30{fill:#127E9B;}
</style>
<pattern  width="32" height="32.1" patternUnits="userSpaceOnUse" id="Nouveau_motif_2" viewBox="4.5 -33 32 32.1" style="overflow:visible;">
	<g>
		<rect x="4.5" y="-33" class="st0" width="32" height="32.1"/>
		<g id="fleur_22_">
			<ellipse class="st1" cx="28.5" cy="-2.7" rx="0.6" ry="2.6"/>
			<ellipse transform="matrix(0.866 -0.5001 0.5001 0.866 5.1671 14.5907)" class="st1" cx="29.8" cy="-2.3" rx="0.6" ry="2.6"/>
			<ellipse transform="matrix(0.4983 -0.867 0.867 0.4983 16.6327 25.9626)" class="st1" cx="30.8" cy="-1.4" rx="0.6" ry="2.6"/>
			<ellipse transform="matrix(0.8558 -0.5173 0.5173 0.8558 4.5372 13.3973)" class="st1" cx="26.3" cy="-1.4" rx="2.6" ry="0.6"/>
			<ellipse transform="matrix(0.481 -0.8767 0.8767 0.481 16.2322 22.6738)" class="st1" cx="27.3" cy="-2.4" rx="2.6" ry="0.6"/>
		</g>
		<g id="fleur_5_">
			<ellipse class="st1" cx="12.5" cy="-2.7" rx="0.6" ry="2.6"/>
			<ellipse transform="matrix(0.866 -0.5001 0.5001 0.866 3.0241 6.5945)" class="st1" cx="13.8" cy="-2.3" rx="0.6" ry="2.6"/>
			<ellipse transform="matrix(0.4983 -0.867 0.867 0.4983 8.611 12.0994)" class="st1" cx="14.8" cy="-1.4" rx="0.6" ry="2.6"/>
			<ellipse transform="matrix(0.8558 -0.5173 0.5173 0.8558 2.2316 5.1259)" class="st1" cx="10.3" cy="-1.4" rx="2.6" ry="0.6"/>
			<ellipse transform="matrix(0.481 -0.8767 0.8767 0.481 7.933 8.6547)" class="st1" cx="11.3" cy="-2.4" rx="2.6" ry="0.6"/>
		</g>
		<g id="fleur_16_">
			<ellipse class="st1" cx="36.5" cy="-18.7" rx="0.6" ry="2.6"/>
			<ellipse transform="matrix(0.866 -0.5001 0.5001 0.866 14.2536 16.4409)" class="st1" cx="37.8" cy="-18.4" rx="0.6" ry="2.6"/>
			<ellipse transform="matrix(0.4983 -0.867 0.867 0.4983 34.5395 24.8536)" class="st1" cx="38.7" cy="-17.4" rx="0.6" ry="2.6"/>
			
				<ellipse transform="matrix(0.8615 -0.5078 0.5078 0.8615 12.8931 17.6162)" class="st1" cx="38.7" cy="-14.8" rx="2.6" ry="0.6"/>
			
				<ellipse transform="matrix(0.4906 -0.8714 0.8714 0.4906 31.3383 25.8486)" class="st1" cx="37.8" cy="-13.9" rx="2.6" ry="0.6"/>
			
				<ellipse transform="matrix(0.9999 -1.093121e-02 1.093121e-02 0.9999 0.1502 0.3979)" class="st1" cx="36.5" cy="-13.5" rx="0.6" ry="2.6"/>
			<ellipse transform="matrix(0.8605 -0.5095 0.5095 0.8605 11.996 15.9886)" class="st1" cx="35.2" cy="-13.9" rx="0.6" ry="2.6"/>
			
				<ellipse transform="matrix(0.4888 -0.8724 0.8724 0.4888 30.4844 22.2807)" class="st1" cx="34.3" cy="-14.9" rx="0.6" ry="2.6"/>
			
				<ellipse transform="matrix(0.9999 -1.652914e-02 1.652914e-02 0.9999 0.272 0.5586)" class="st1" cx="33.9" cy="-16.2" rx="2.6" ry="0.6"/>
			<ellipse transform="matrix(0.8558 -0.5173 0.5173 0.8558 13.981 15.222)" class="st1" cx="34.3" cy="-17.5" rx="2.6" ry="0.6"/>
			<ellipse transform="matrix(0.481 -0.8767 0.8767 0.481 34.434 21.3646)" class="st1" cx="35.3" cy="-18.4" rx="2.6" ry="0.6"/>
			<ellipse class="st1" cx="36.5" cy="-16.1" rx="0.8" ry="0.8"/>
		</g>
		<g id="fleur_3_">
			<ellipse class="st1" cx="20.5" cy="-18.7" rx="0.6" ry="2.6"/>
			<ellipse transform="matrix(0.866 -0.5001 0.5001 0.866 12.1107 8.4446)" class="st1" cx="21.8" cy="-18.4" rx="0.6" ry="2.6"/>
			<ellipse transform="matrix(0.4983 -0.867 0.867 0.4983 26.5178 10.9904)" class="st1" cx="22.8" cy="-17.4" rx="0.6" ry="2.6"/>
			
				<ellipse transform="matrix(1 -5.509939e-03 5.509939e-03 1 8.916120e-02 0.127)" class="st1" cx="23.1" cy="-16.1" rx="2.6" ry="0.6"/>
			<ellipse transform="matrix(0.8615 -0.5078 0.5078 0.8615 10.6777 9.4957)" class="st1" cx="22.7" cy="-14.8" rx="2.6" ry="0.6"/>
			
				<ellipse transform="matrix(0.4906 -0.8714 0.8714 0.4906 23.1922 11.9146)" class="st1" cx="21.8" cy="-13.9" rx="2.6" ry="0.6"/>
			
				<ellipse transform="matrix(0.9999 -1.093121e-02 1.093121e-02 0.9999 0.1493 0.2232)" class="st1" cx="20.5" cy="-13.5" rx="0.6" ry="2.6"/>
			<ellipse transform="matrix(0.8605 -0.5095 0.5095 0.8605 9.7646 7.8412)" class="st1" cx="19.2" cy="-13.9" rx="0.6" ry="2.6"/>
			<ellipse transform="matrix(0.4888 -0.8724 0.8724 0.4888 22.3098 8.3307)" class="st1" cx="18.3" cy="-14.9" rx="0.6" ry="2.6"/>
			
				<ellipse transform="matrix(0.9999 -1.652914e-02 1.652914e-02 0.9999 0.2698 0.2943)" class="st1" cx="17.9" cy="-16.2" rx="2.6" ry="0.6"/>
			<ellipse transform="matrix(0.8558 -0.5173 0.5173 0.8558 11.6754 6.9506)" class="st1" cx="18.3" cy="-17.5" rx="2.6" ry="0.6"/>
			<ellipse transform="matrix(0.481 -0.8767 0.8767 0.481 26.1348 7.3455)" class="st1" cx="19.3" cy="-18.4" rx="2.6" ry="0.6"/>
			<ellipse class="st1" cx="20.5" cy="-16.1" rx="0.8" ry="0.8"/>
		</g>
		<g id="fleur_2_">
			<ellipse class="st1" cx="4.5" cy="-18.7" rx="0.6" ry="2.6"/>
			<ellipse transform="matrix(0.866 -0.5001 0.5001 0.866 9.9678 0.4484)" class="st1" cx="5.8" cy="-18.4" rx="0.6" ry="2.6"/>
			<ellipse transform="matrix(0.4983 -0.867 0.867 0.4983 18.4961 -2.8728)" class="st1" cx="6.8" cy="-17.4" rx="0.6" ry="2.6"/>
			
				<ellipse transform="matrix(1 -5.509939e-03 5.509939e-03 1 8.891847e-02 3.891221e-02)" class="st1" cx="7.1" cy="-16.1" rx="2.6" ry="0.6"/>
			<ellipse transform="matrix(0.8615 -0.5078 0.5078 0.8615 8.4623 1.3752)" class="st1" cx="6.8" cy="-14.8" rx="2.6" ry="0.6"/>
			<ellipse transform="matrix(0.4906 -0.8714 0.8714 0.4906 15.0461 -2.0194)" class="st1" cx="5.8" cy="-13.9" rx="2.6" ry="0.6"/>
			
				<ellipse transform="matrix(0.9999 -1.093121e-02 1.093121e-02 0.9999 0.1483 4.835834e-02)" class="st1" cx="4.5" cy="-13.5" rx="0.6" ry="2.6"/>
			<ellipse transform="matrix(0.8605 -0.5095 0.5095 0.8605 7.5333 -0.3063)" class="st1" cx="3.2" cy="-13.9" rx="0.6" ry="2.6"/>
			<ellipse transform="matrix(0.4888 -0.8724 0.8724 0.4888 14.1352 -5.6193)" class="st1" cx="2.3" cy="-14.9" rx="0.6" ry="2.6"/>
			<ellipse transform="matrix(0.8558 -0.5173 0.5173 0.8558 9.3699 -1.3209)" class="st1" cx="2.3" cy="-17.5" rx="2.6" ry="0.6"/>
			<ellipse transform="matrix(0.481 -0.8767 0.8767 0.481 17.8356 -6.6736)" class="st1" cx="3.3" cy="-18.4" rx="2.6" ry="0.6"/>
			<ellipse class="st1" cx="4.5" cy="-16.1" rx="0.8" ry="0.8"/>
		</g>
		<g id="fleur_7_">
			<ellipse class="st1" cx="28.5" cy="-34.8" rx="0.6" ry="2.6"/>
			<ellipse transform="matrix(0.866 -0.5001 0.5001 0.866 21.1973 10.2948)" class="st1" cx="29.8" cy="-34.4" rx="0.6" ry="2.6"/>
			<ellipse transform="matrix(0.4983 -0.867 0.867 0.4983 44.4246 9.8814)" class="st1" cx="30.8" cy="-33.4" rx="0.6" ry="2.6"/>
			
				<ellipse transform="matrix(1 -5.509939e-03 5.509939e-03 1 0.1776 0.1708)" class="st1" cx="31.1" cy="-32.1" rx="2.6" ry="0.6"/>
			
				<ellipse transform="matrix(0.8615 -0.5078 0.5078 0.8615 19.9251 11.3352)" class="st1" cx="30.7" cy="-30.8" rx="2.6" ry="0.6"/>
			
				<ellipse transform="matrix(0.4906 -0.8714 0.8714 0.4906 41.2322 10.7162)" class="st1" cx="29.8" cy="-29.9" rx="2.6" ry="0.6"/>
			
				<ellipse transform="matrix(0.9999 -1.093121e-02 1.093121e-02 0.9999 0.3249 0.3096)" class="st1" cx="28.5" cy="-29.6" rx="0.6" ry="2.6"/>
			<ellipse transform="matrix(0.8605 -0.5095 0.5095 0.8605 19.047 9.6782)" class="st1" cx="27.2" cy="-29.9" rx="0.6" ry="2.6"/>
			<ellipse transform="matrix(0.4888 -0.8724 0.8724 0.4888 40.3801 7.1117)" class="st1" cx="26.3" cy="-30.9" rx="0.6" ry="2.6"/>
			
				<ellipse transform="matrix(0.9999 -1.652914e-02 1.652914e-02 0.9999 0.5358 0.4242)" class="st1" cx="25.9" cy="-32.2" rx="2.6" ry="0.6"/>
			<ellipse transform="matrix(0.8558 -0.5173 0.5173 0.8558 21.1192 8.7753)" class="st1" cx="26.3" cy="-33.5" rx="2.6" ry="0.6"/>
			<ellipse transform="matrix(0.481 -0.8767 0.8767 0.481 44.3366 6.0362)" class="st1" cx="27.3" cy="-34.4" rx="2.6" ry="0.6"/>
			<ellipse class="st1" cx="28.5" cy="-32.2" rx="0.8" ry="0.8"/>
		</g>
		<g id="fleur_1_">
			<ellipse class="st1" cx="12.5" cy="-34.8" rx="0.6" ry="2.6"/>
			<ellipse transform="matrix(0.866 -0.5001 0.5001 0.866 19.0544 2.2985)" class="st1" cx="13.8" cy="-34.4" rx="0.6" ry="2.6"/>
			<ellipse transform="matrix(0.4983 -0.867 0.867 0.4983 36.4029 -3.9818)" class="st1" cx="14.8" cy="-33.4" rx="0.6" ry="2.6"/>
			
				<ellipse transform="matrix(1 -5.509939e-03 5.509939e-03 1 0.1774 8.272137e-02)" class="st1" cx="15.1" cy="-32.1" rx="2.6" ry="0.6"/>
			<ellipse transform="matrix(0.8615 -0.5078 0.5078 0.8615 17.7097 3.2147)" class="st1" cx="14.7" cy="-30.8" rx="2.6" ry="0.6"/>
			
				<ellipse transform="matrix(0.4906 -0.8714 0.8714 0.4906 33.0861 -3.2178)" class="st1" cx="13.8" cy="-29.9" rx="2.6" ry="0.6"/>
			
				<ellipse transform="matrix(0.9999 -1.093121e-02 1.093121e-02 0.9999 0.324 0.1348)" class="st1" cx="12.5" cy="-29.6" rx="0.6" ry="2.6"/>
			<ellipse transform="matrix(0.8605 -0.5095 0.5095 0.8605 16.8156 1.5308)" class="st1" cx="11.2" cy="-29.9" rx="0.6" ry="2.6"/>
			
				<ellipse transform="matrix(0.4888 -0.8724 0.8724 0.4888 32.2055 -6.8383)" class="st1" cx="10.3" cy="-30.9" rx="0.6" ry="2.6"/>
			
				<ellipse transform="matrix(0.9999 -1.652914e-02 1.652914e-02 0.9999 0.5336 0.1599)" class="st1" cx="9.9" cy="-32.2" rx="2.6" ry="0.6"/>
			<ellipse transform="matrix(0.8558 -0.5173 0.5173 0.8558 18.8137 0.5038)" class="st1" cx="10.3" cy="-33.5" rx="2.6" ry="0.6"/>
			<ellipse transform="matrix(0.481 -0.8767 0.8767 0.481 36.0374 -7.9829)" class="st1" cx="11.3" cy="-34.4" rx="2.6" ry="0.6"/>
			<ellipse class="st1" cx="12.5" cy="-32.2" rx="0.8" ry="0.8"/>
		</g>
	</g>
</pattern>
<g>
	<path class="st2" d="M234.9,720c-1.3-0.7,1.6-15.4,2.1-17.7c-9.9-24.7-15.8-69.4-15.8-69.4s19.9-0.7,36.4,1.1
		c7.8,26.5,1.4,57.5-0.9,67c3.4,1.6,14.5,6.8,14.6,8.4c0.1,1.8-1.2,5.5-9.5-0.1c0,0,3.4,15.1-1,14.7c-4.5-0.4-5.1-5.7-5.1-5.7
		s-2,7.1-3.5,6.3c-1.6-0.8-4.9-5-4.9-5s-3,5.4-5.1,4.4c-2.1-1-2.3-6.8-2.3-6.8S236.4,720.8,234.9,720z"/>
	<g>
		<path id="arrière_bras_d_2_" class="st3" d="M308.8,639.3c0,0,12.1,20.5,38,21c53.8-69.7,76.2-128.8,76.2-128.8
			s22.2-72.2-13.9-85.1c0,0-17-9.4-49,59.3C360,505.7,311,601.8,308.8,639.3z"/>
		<path class="st4" d="M592.8,656.3c11.5-74.4,19.8-150.8,20.7-168.9v-0.2c1.9-39.4-8.9-47.5-15.3-54.3c-1-1.1-2.9-2.1-5.4-3.1
			c0,0-0.1,0-0.2,0c-10.2-3.9-31.6-6.6-57.9-6.6c-2.1,0.1-4.3,0.1-6.5,0c-5.1,0.1-10.3,0.3-15.7,0.6c-12.9,0.7-26.5,2-40.2,4.2
			c-3.7,0.5-7.5,1.2-11.3,1.9c-1.2,0.2-2.3,0.4-3.5,0.7c-11.6,2.3-23.1,5.2-34.1,8.9c-8,2.6-28.5,9.3-30.5,12.3c-2,3-5,24-5.5,25.6
			c-7.1,23.8-6.6,70.4-6.6,70.4s-11,19.4-11.2,23.1c-0.2,4.1-0.6,9.9,0.3,16.7c0.1,0.8,0.2,1.7,0.3,2.6c0.6,3.7,1.5,7.5,3,11.5v0
			c1,2.9,2.4,5.8,4.2,8.7c0.8,1.4,1.7,2.7,2.7,4.1c2.3,3.3,5.2,6.6,8.7,9.8c0,0,0,2.4,0,6.9c0,4.2,0.1,10.2,0.1,17.5
			c0,4.8-6.3,73.5-9.7,113.5C461,748.2,534.6,710.4,592.8,656.3z"/>
		<path class="st5" d="M534.7,423.2c-0.6,9.4-3.2,17.4-4.7,23.3c-8.1,31.1-39,50.1-69,42.3c-23.1-6.1-35.2-26.3-37.5-49.4
			C489,414.5,512.6,424.1,534.7,423.2z"/>
		<path id="cou_2_" class="st5" d="M516.1,466.6l-50.5,4.9c-0.3,0-0.6-0.2-0.6-0.5l-9.7-98.8c0-0.3,0.2-0.6,0.5-0.6l50.5-4.9
			c0.3,0,0.6,0.2,0.6,0.5l9.7,98.8C516.7,466.3,516.4,466.5,516.1,466.6z"/>
		<g>
			<path class="st3" d="M361.6,304.3c20.9,136.8,102.7,126.1,102.7,126.1s75.8-11.3,63.8-156.4C493.8,153.9,350.9,195.8,361.6,304.3
				z"/>
			<path class="st6" d="M437.8,228.7c0,0-7.1,14.1-22.9,15.7c-1.3,16.8-28.9,33.3-43.7,33.2c0,0-0.1,25.4-8,32
				c0,0,3.5,20.7,9.8,41.8c0,0-19.9,10.4-32.4-17.8c-23.2-2.4-15.6-20.2-15.6-20.2c-15.4-8.7-32.6-21.6-16-50.2
				c0,0-16.6-43.8,15.6-44.8c0,0-15.8-29.8,18.7-31.9c0,0,6.1-40.5,34.8-31.8c0,0,21.3-38.6,44-17.4c0,0,60-29.6,82,12.5
				c0,0,23.9-4.4,29.4,23.3c0,0,24.6-13.1,32.2,28.2c0,0,15.3,20.6,8.6,38.1c0,0,20.2,25-4.9,56.9c0,0-11.5,51.1-45,54
				c0,0,5.1-40.2,4.4-56.7c0,0-22.2,4.5-32.2-33.8c-17.4,0.8-27.3-7.6-32-19.5C451,243.8,437.8,228.7,437.8,228.7z"/>
			<g id="cil_G_4_">
				
					<ellipse transform="matrix(0.9953 -9.723506e-02 9.723506e-02 0.9953 -28.7621 47.8198)" class="st7" cx="476.2" cy="319" rx="21.5" ry="18.7"/>
				<path class="st8" d="M506.4,309.1l-10.5,1.9c0,0-5.9-11.4-20.8-10.6c-12.4,1-18.3,8.7-20,16c0,0,4.1-27.6,38.1-15.7l5.4-2.1
					l-0.7,4.4l6.5-0.5l-2.9,4.4L506.4,309.1z"/>
			</g>
			<g id="pupil_G_4_">
				<g id="pupil_gauche_4_">
					
						<ellipse transform="matrix(0.9953 -9.723506e-02 9.723506e-02 0.9953 -29.2822 47.5943)" class="st9" cx="473.7" cy="324.2" rx="13.1" ry="13.9"/>
					
						<ellipse transform="matrix(0.9953 -9.723506e-02 9.723506e-02 0.9953 -29.2822 47.5943)" class="st10" cx="473.7" cy="324.2" rx="5.8" ry="6.2"/>
					
						<ellipse transform="matrix(0.4153 -0.9097 0.9097 0.4153 -18.4541 612.8107)" class="st7" cx="467.5" cy="320.8" rx="3.5" ry="2.5"/>
				</g>
				
					<ellipse transform="matrix(0.9953 -9.723506e-02 9.723506e-02 0.9953 -29.7722 48.3916)" class="st7" cx="481.6" cy="329.7" rx="1.2" ry="1.1"/>
			</g>
			<g id="cil_D_1_">
				
					<ellipse transform="matrix(0.3032 -0.9529 0.9529 0.3032 -48.3741 607.127)" class="st7" cx="391" cy="336.6" rx="18.9" ry="18"/>
				<path class="st8" d="M365.2,332.7l8.2,0.3c0,0,2.8-12.5,15.2-14.9c8.4-1.4,16.1,2.7,19.5,11.4c0,0-8.7-26.2-34.4-7.1l-4.8-0.9
					l1.3,4.1l-5.4,0.9l3.2,3.6L365.2,332.7z"/>
			</g>
			<g id="pupil_D_1_">
				<g id="pupil_gauche_3_">
					
						<ellipse transform="matrix(0.9997 -2.336995e-02 2.336995e-02 0.9997 -7.8849 9.1846)" class="st9" cx="389" cy="341.9" rx="10.8" ry="13.7"/>
					
						<ellipse transform="matrix(0.9997 -2.344119e-02 2.344119e-02 0.9997 -7.9086 9.2129)" class="st10" cx="389" cy="341.9" rx="4.8" ry="6.1"/>
					
						<ellipse transform="matrix(0.3024 -0.9532 0.9532 0.3024 -53.7858 601.6291)" class="st7" cx="384.1" cy="337.6" rx="3.4" ry="2.1"/>
				</g>
				
					<ellipse transform="matrix(6.881338e-02 -0.9976 0.9976 6.881338e-02 19.0404 716.6)" class="st7" cx="393.4" cy="348.1" rx="1.1" ry="1"/>
			</g>
			<g>
				<path class="st11" d="M425.2,358.6c0,0-6.5,15.8,10.5,12.5s14.3-8.9,14.3-8.9"/>
				<path class="st8" d="M426,359c-0.1,1.6-0.3,3.2-0.2,4.7c0.1,1.5,0.4,2.8,0.9,3.7c0.6,0.8,1.3,1.4,2.6,1.7
					c1.2,0.3,2.7,0.3,4.2,0.1c1.5-0.1,3.1-0.5,4.7-0.8l2.4-0.5l2.3-0.6c1.5-0.5,3-1.1,4.2-1.8l0.5-0.3l0.4-0.3
					c0.3-0.2,0.5-0.5,0.7-0.7c0.2-0.2,0.3-0.5,0.4-0.8c0.1-0.2,0.1-0.6,0.1-0.7l0.1-0.6c0.1-0.4,0.5-0.7,0.9-0.6
					c0.2,0.1,0.4,0.2,0.5,0.4c0.2,0.4,0.2,0.6,0.3,0.9c0.1,0.3,0.1,0.6,0.1,0.9c0,0.6-0.2,1.1-0.4,1.6c-0.4,1-1.1,1.8-1.8,2.4
					c-1.4,1.3-3.1,2.2-4.7,3c-0.8,0.4-1.6,0.7-2.5,1l-2.5,0.8c-1.7,0.4-3.3,0.9-5.2,1.2c-1.8,0.3-3.8,0.3-5.8-0.1
					c-1-0.2-2.1-0.6-3.1-1.3c-1-0.7-1.8-1.6-2.3-2.7c-1.1-2.1-1-4.3-0.6-6.1c0.4-1.9,1.1-3.5,2.1-5.1c0.3-0.4,0.9-0.5,1.3-0.2
					C425.9,358.3,426,358.6,426,359L426,359z"/>
			</g>
			<path class="st8" d="M456.7,274.3c0,0-3.8,3.7-0.1,3.7c5.4-0.4,13.4-3.5,18.6,0.3C476.4,278.1,474.2,270,456.7,274.3z"/>
			<path class="st8" d="M390,280.8c0,0,4.4,2,1.6,3.6c-4.3,1-13.3,2.5-16.5,6.7C373.8,291,377.4,281.6,390,280.8z"/>
			<path class="st8" d="M422.6,400.6c1.3-1.4,6.1,1.3,12.7,0.8c2.2-0.2,5.2-1.1,7.9-1.4c1.2-0.2,8.5,0.3,8.5,0.3s4.3-1.7,9.1-2.6
				c10-0.8,16-5.7,16-5.7s-4.2,14-23.8,17.1c-7.4,0.5-13.3-0.3-17.8-1.5C427.6,405.6,422.6,400.6,422.6,400.6z"/>
			<path class="st3" d="M525.5,306.7c0,0,17.6-1.6,14.2,19c-2.2,13.9-9.1,16.7-18.8,14.7C522.3,333.5,525.5,306.7,525.5,306.7z"/>
		</g>
		<path class="st12" d="M369.1,764l-48.1-398.8c0,0-36.2-28.2-86.4-51.7c-87.1-39.3-209.3,44.7-209.3,44.7s60.6,261.3,91.3,364.6
			c57.2,29.2,122,45.7,190.6,45.7C328.3,768.5,349,766.9,369.1,764z"/>
		<path class="st13" d="M204.1,383.2c-78.1,6.4-99.7-63.5-99.6-64.8c12.5-6.4,25.9-10.9,40.4-15.4c48.4-11.8,85,8.5,85,8.5
			S267.2,374.9,204.1,383.2z"/>
		<polygon id="cou" class="st13" points="171.3,341.2 117.7,341 120.6,267.7 174.7,275 		"/>
		<g id="tete">
			<path class="st14" d="M249.2,221c0,0,31.7,8.3,45.4-23.7c0,0,19.1-2.4,18-19.7c0,0,24.4-6.4,13.6-34.9c0,0,24.1-27.4-3.6-40.4
				c0,0,18.3-32.6-22.2-32.7c0,0,18.4-25.7-17.2-23.5c0,0-4.4-37.7-44-25.1c0,0-6.9-27.2-32.9-13.4c0,0-20.4-17.6-33.6,0.4
				c0,0-21.7-8.8-33,8.8c0,0-25.8-15.6-36.7,13.5c0,0-25.8-5.5-22.3,21.2c0,0-25.3,11.1-17.3,30.9c0,0-22.4,5.7-9.4,24.6
				c0,0-14.2,15.4,2.3,27.6c0,0-6.6,14,3.8,21.8c0,0,3.6,31.1,17.6,37.9c0,0,10.3,30,38.9,34.7S249.2,221,249.2,221z"/>
			<path class="st15" d="M186,318.7L186,318.7c43.4,3.3,81.2-29.1,84.6-72.5l9.1-107.9c1.1-14.2-9.6-26.7-23.8-27.8l-107.5-8.3
				c-13.1-1-24.6,8.8-25.6,22l-2.1,143.5C118.8,301.6,164.1,317.1,186,318.7z"/>
			<path class="st15" d="M122.3,192.5c0,0-22.4-10.9-19.5,19.2c1.9,22.8,20.3,30.2,28.1,21.8C138.3,205.5,122.3,192.5,122.3,192.5z"
				/>
			<path class="st14" d="M106.7,195.1l14.4,8.4c3,1.8,6.8-0.3,7-3.7l0.8-64.7c0.9-14.3,12.6-25.4,26.9-25.5
				c37.9-0.1,76.2,1.4,101.5,3.6c1.6,0.1,20.4,4.4,22.5,23.6c0.6,5.4,2.5,12.9,1.8,27.4c-0.3,5.5,7.5,6.8,9.1,1.6l8.7-29
				c0.2-0.7,0.3-1.3,0.3-2c0.3-8.7-1-66.5-94.6-63.8c-95.7,2.8-102.6,38.1-103,41.9c0,0.2,0,0.4,0,0.6l2.3,77.7
				C104.4,192.8,105.3,194.3,106.7,195.1z"/>
			<g>
				<path class="st15" d="M235.1,233.8c0,0,19.2,22.2-4.1,27.1c-23.3,4.9-24-5.9-24-5.9"/>
				<path class="st8" d="M235.7,233.2c2.1,1.8,3.8,3.9,5.3,6.2c1.5,2.3,2.7,4.9,3.4,7.8c0.3,1.5,0.4,3,0.2,4.6
					c-0.2,1.6-0.8,3.2-1.6,4.6c-0.9,1.4-2.1,2.6-3.3,3.4c-1.3,0.9-2.6,1.5-4,2.1c-0.7,0.2-1.4,0.4-2,0.6l-2.1,0.5
					c-1.3,0.2-2.7,0.4-4,0.7c-1.3,0.2-2.7,0.2-4.1,0.4c-0.7,0-1.4,0-2.1,0c-0.7,0-1.4,0-2.1,0c-2.7-0.2-5.6-0.7-8.2-2
					c-0.7-0.3-1.3-0.8-1.9-1.2c-0.6-0.5-1.1-1-1.6-1.6c-0.3-0.3-0.5-0.6-0.7-0.9c-0.2-0.3-0.4-0.7-0.5-1c-0.3-0.7-0.5-1.4-0.5-2.3
					c0-0.5,0.4-0.9,0.8-0.9c0.4,0,0.8,0.3,0.9,0.7l0,0.1c0.1,0.4,0.3,1,0.6,1.4c0.1,0.2,0.3,0.5,0.5,0.7c0.2,0.2,0.3,0.4,0.6,0.6
					c0.8,0.8,1.8,1.3,2.9,1.7c2.2,0.8,4.6,1.1,7.1,1c1.2,0,2.5-0.1,3.7-0.2c1.2-0.2,2.5-0.3,3.7-0.6c1.2-0.3,2.5-0.5,3.7-0.8
					l1.8-0.5l1.7-0.6c2.1-0.9,4-2.1,5-3.8c1-1.6,1.2-3.7,0.9-5.9c-0.7-4.5-3.2-9.2-5.7-13.6l0,0c-0.2-0.4-0.1-1,0.3-1.2
					C235.1,232.9,235.5,233,235.7,233.2z"/>
			</g>
			<path class="st8" d="M184.4,147c0,0,4.9,3.4,0.8,4.1c-6.1,0.6-15.6-1.4-20.6,3.7C163.1,154.9,164,145.5,184.4,147z"/>
			<path class="st8" d="M251,151.4c0,0-4.9,2.3-1.7,4.1c4.9,1,15.1,2.6,18.7,7.2C269.5,162.4,265.3,151.9,251,151.4z"/>
			<g id="cil_G_1_">
				
					<ellipse transform="matrix(7.663707e-02 -0.9971 0.9971 7.663707e-02 -35.9068 365.7463)" class="st7" cx="179.5" cy="202.3" rx="17.9" ry="20.9"/>
				<path class="st8" d="M160.2,195.2c0,0,5.9-11.4,19.9-10.8c11.4,1.3,19,7.9,20.2,14.5c0.4-3-1.6-7.7-3.9-10.3c-4-4.2-8-7-15-7.3
					c-8.9,0.4-14.7,4.1-17.3,7.4C161.6,191.9,160.2,195.2,160.2,195.2z"/>
			</g>
			<g id="cil_G_3_">
				
					<ellipse transform="matrix(0.4203 -0.9074 0.9074 0.4203 -39.9415 352.2068)" class="st7" cx="255.7" cy="207.4" rx="16.6" ry="17.2"/>
				<path class="st8" d="M272.2,203.6c0,0-3.4-11.3-14.8-12.8c-9.4-0.4-16.4,4.5-18.2,10.4c0-2.8,2.3-6.8,4.4-8.9
					c3.7-3.3,7.3-5.3,13.1-4.5c7.2,1.7,11.4,5.9,13.1,9.3C271.4,200.4,272.2,203.6,272.2,203.6z"/>
			</g>
			<g>
				<defs>
					
						<ellipse id="SVGID_1_" transform="matrix(7.663707e-02 -0.9971 0.9971 7.663707e-02 -35.9068 365.7463)" cx="179.5" cy="202.3" rx="17.9" ry="20.9"/>
				</defs>
				<clipPath id="SVGID_2_">
					<use xlink:href="#SVGID_1_"  style="overflow:visible;"/>
				</clipPath>
				<g id="pupil_G_1_" class="st16">
					<g id="pupil_gauche_6_">
						
							<ellipse transform="matrix(7.663707e-02 -0.9971 0.9971 7.663707e-02 -40.8578 377.1571)" class="st9" cx="183.2" cy="210.6" rx="14" ry="12.3"/>
						
							<ellipse transform="matrix(7.663707e-02 -0.9971 0.9971 7.663707e-02 -40.8578 377.1571)" class="st10" cx="183.2" cy="210.6" rx="6.2" ry="5.5"/>
						
							<ellipse transform="matrix(0.4505 -0.8928 0.8928 0.4505 -85.3271 273.2401)" class="st7" cx="179.3" cy="205.9" rx="3.5" ry="2.4"/>
					</g>
				</g>
			</g>
			<g>
				<defs>
					
						<ellipse id="SVGID_3_" transform="matrix(0.4203 -0.9074 0.9074 0.4203 -39.9415 352.2068)" cx="255.7" cy="207.4" rx="16.6" ry="17.2"/>
				</defs>
				<clipPath id="SVGID_4_">
					<use xlink:href="#SVGID_3_"  style="overflow:visible;"/>
				</clipPath>
				<g id="pupil_G_3_" class="st17">
					<g id="pupil_gauche_2_">
						
							<ellipse transform="matrix(5.023468e-02 -0.9987 0.9987 5.023468e-02 30.0525 460.7871)" class="st9" cx="257.3" cy="214.6" rx="12.8" ry="10.2"/>
						
							<ellipse transform="matrix(5.030816e-02 -0.9987 0.9987 5.030816e-02 30.0344 460.7704)" class="st10" cx="257.3" cy="214.6" rx="5.7" ry="4.5"/>
						
							<ellipse transform="matrix(0.4194 -0.9078 0.9078 0.4194 -43.9717 351.8997)" class="st7" cx="253.1" cy="210.3" rx="3.1" ry="2.1"/>
					</g>
				</g>
			</g>
		</g>
		<g>
			<path class="st15" d="M448.6,628.7c0.4-1.5-12.6-9-14.6-10.2c-11.8-23.9-41.3-57.9-41.3-57.9s-13.8,14.3-23.5,27.9
				c14.6,23.5,41.9,39.3,50.6,43.9c-1.1,3.6-4.6,15.4-3.5,16.5c1.3,1.3,5,2.8,6.2-7.2c0,0,9,12.6,11.6,9c2.7-3.6-0.9-7.5-0.9-7.5
				s6.6,3.2,7,1.5c0.4-1.7-0.5-7-0.5-7s6,1.4,6.7-0.9c0.7-2.2-3.6-6.2-3.6-6.2S448.2,630.3,448.6,628.7z"/>
			<path class="st18" d="M338.3,526.6c0,0,45.3-15.8,104.7,96.9c0,0-16.7,12.7-33.6,12.7c0,0-70.9-65.5-82.1-85.4
				C316.1,530.8,338.3,526.6,338.3,526.6z"/>
		</g>
		<path class="st18" d="M405.5,658.5c-2.4-10.7-9.1-26.5-9.1-26.5l-68.2,16.8l-20.7,5.1l-37.2,10.7c6.5,25.6,20.7,71.5,32.7,103.9
			c1.5,0,2.9,0,4.4,0c42.1,0,82.8-6.2,121.1-17.8C426.8,720.9,407.4,666.7,405.5,658.5z"/>
		<g>
			<g>
				<defs>
					<path id="SVGID_5_" d="M254.3,571.9c0,0,14.6,108.8,20.9,120.4c26.7-2,130.1-25,127.6-36.5c0-11.1-31.9-95.1-44.9-115.9
						C344.9,519.2,275.6,532.1,254.3,571.9z"/>
				</defs>
				<use xlink:href="#SVGID_5_"  style="overflow:visible;fill:#F7EBEB;"/>
				<clipPath id="SVGID_6_">
					<use xlink:href="#SVGID_5_"  style="overflow:visible;"/>
				</clipPath>
				
					<pattern  id="SVGID_7_" xlink:href="#Nouveau_motif_2" patternTransform="matrix(0.8131 -0.316 0.3241 0.8338 940.3631 -3551.4211)">
				</pattern>
				
					<pattern  id="SVGID_8_" xlink:href="#Nouveau_motif_2" patternTransform="matrix(0.8131 -0.316 0.3241 0.8338 940.6179 -3591.5605)">
				</pattern>
				<path class="st19" d="M252.9,571.5c0,0,6.3,103.1,30.1,119.1c0,0,62-8.3,122.9-30.8c-6.1-46.5-21.2-69.7-21.2-69.7
					s-22.1-53.6-35.9-57C306.5,526.1,273.7,531,252.9,571.5z"/>
			</g>
			<g>
				<path class="st20" d="M282.2,558.7c9.8,12.6,59,33.5,64.1-23.4C308.1,531.7,282.2,558.7,282.2,558.7z"/>
				<path class="st21" d="M319.6,572c0,0,8-2.2,10.9-5c0,0,6.6,19.3,7.6,20.5c0,0-7.1,4.9-9.7,4.6
					C326.3,590.5,320.2,575.2,319.6,572z"/>
				
					<ellipse transform="matrix(0.7963 -0.605 0.605 0.7963 -281.4514 315.0271)" class="st22" cx="327" cy="575.4" rx="1.4" ry="1.4"/>
				
					<ellipse transform="matrix(0.7963 -0.605 0.605 0.7963 -285.6425 318.4838)" class="st22" cx="330" cy="583.3" rx="1.7" ry="1.7"/>
			</g>
		</g>
		<g>
			<path class="st18" d="M283.7,680v-0.2c0.1-4.3,0.1-8.8,0.2-13.7c0-2.9,0-5.9,0-9c0-6.4,0-13.2-0.1-20c-0.2-10.2-0.6-20.4-1.1-30
				c-0.9-15.5-4.2-34.6-6.8-43.9c-0.1-0.3-0.2-0.5-0.3-0.8c-5.4-13-16.5-9.4-21-7.2c-1.3,0.6-2.1,1.1-2.1,1.1s-29.5,19.3-13.1,113.1
				c1.4,7.8,3,16.2,5.1,25.2c0.1,0.7,0.3,1.4,0.5,2.2c15.1,2.3,34.8-2.5,38.9-4.7C283.9,692.3,283.6,683.8,283.7,680z"/>
		</g>
		<path class="st15" d="M274.1,701c0.4-1.5,0.8-3.6,1.4-6.1c-6.2,1.4-14.8,2.7-22.9,2.6c0.6,1.7,1.2,3.3,1.8,4.8
			c-0.5,2.3-3.4,17-2.1,17.7c1.4,0.8,5.1-2.9,5.1-2.9s0.2,5.9,2.3,6.8c2.1,1,5.1-4.4,5.1-4.4s3.3,4.2,4.9,5c1.6,0.8,3.5-6.3,3.5-6.3
			s0.6,5.3,5.1,5.7c4.5,0.4,1-14.7,1-14.7c8.3,5.7,9.6,1.9,9.5,0.1C288.6,707.9,277.5,702.6,274.1,701z"/>
		<g>
			<path class="st15" d="M388,455.6c-0.2-1.9-0.5-3.9-0.9-5.8c-9.6-52.2-59.6-86.8-111.8-77.2c-52.2,9.6-86.8,59.6-77.2,111.8
				c0.3,1.4,0.6,2.8,0.9,4.1c-4.7,0-19.5,4.9-6.3,23.2c8.3,9.8,14.9,9.2,19.1,6.8c21.3,32.7,61.9,52.1,101.7,44.8
				c36.7-13.8,67.8-44.7,74-83.1c5.5,1.2,12.2-0.4,11.6-15.2C398.4,448.2,392.1,451.5,388,455.6z"/>
			
				<ellipse transform="matrix(0.9836 -0.1801 0.1801 0.9836 -79.8363 69.3919)" class="st7" cx="342.2" cy="474.3" rx="21.2" ry="19.8"/>
			<path class="st23" d="M190.2,480.5c0,0,6.7,21.1,11.8,1c0,0,9.6-6.2,3.1-20.1c0,0,9-5.2,7.1-18.1c0,0,15.8-10.9,11.7-21.7
				c0,0,18.7-4.2,17.5-21.6c0,0,21.8-0.8,23.3-10.3c0,0,9.8,7.8,15.9-0.5c0,0,11,7.6,16.7-0.7c0,0,9.9,14.6,20,4.3
				c2.9,0.7,5.5,12.6,16.4,6.6c1.9-0.4,1.9,12.8,14,8.6c-3.8-5.3,1.8,14.1,11.9,14.6c0,0,4.1,15.3,13.4,12.3c0,0-1.8,7.1,7.5,7.8
				c0,0,5.5,12.5,14.6,5.5c0,0,4.3-6.9,1.3-12.4c0-2.4,4.6-10-2.7-17.1c0,0,5.8-3.9-4.7-12.7c0,0,0.3-10.8-6.6-13.6
				c0,0-0.5-11.5-10.5-11.7c0,0,3-11.3-10.9-11.2c0,0,5.7-14.7-10.7-10.9c0,0-1.3-11.7-13.3-7.1c0,0-2.4-13.1-13.4-7.9
				c0,0-3.5-12.5-18-6.7c0,0-9.6-11-20.4-0.3c0,0-10.6-14-25.6,3.9c0,0-20.4-0.3-17.7,8c0,0-19.6,2-16.6,13.8c0,0-9-2.4-10.8,6
				c0,0-14.9,2.3-12.9,15.5c0,0-11.5,2.5-8.3,15.9c0,0-10.8,4-6.8,19.8c0,0-8.5,8.1-4,17.3c0,0-8,7.9-0.6,18.1c0,0-7,6.5,0.7,13.4
				C176.2,478.6,190.2,480.5,190.2,480.5z"/>
			<path class="st8" d="M313.4,506.7c1.1,0.9,2,2,2.7,3.3c0.3,0.7,0.6,1.4,0.7,2.2c0.1,0.8,0.1,1.7-0.2,2.6
				c-0.3,0.9-0.9,1.7-1.5,2.3c-0.6,0.6-1.4,1-2.1,1.3c-1.4,0.6-2.8,0.9-4.2,1.1c-2.8,0.3-5.3,0.4-8.1,0c-1.4-0.2-2.7-0.4-4.1-1
				c-0.7-0.3-1.3-0.7-1.9-1.3c-0.6-0.6-1-1.4-0.8-2.5c0.1-0.3,0.3-0.5,0.6-0.4c0.1,0,0.3,0.1,0.4,0.2l0.3,0.5c0,0.1,0.1,0.3,0.2,0.5
				c0.1,0.1,0.2,0.2,0.2,0.2l0.3,0.2c0.4,0.3,0.9,0.4,1.5,0.6c1.1,0.3,2.3,0.3,3.5,0.3l1.9,0l1.9-0.1c1.2-0.1,2.5-0.2,3.7-0.4
				c1.2-0.2,2.3-0.5,3.3-0.9c0.9-0.5,1.6-1,1.9-1.7c0.3-0.6,0.3-1.6,0.1-2.7c-0.2-1.1-0.7-2.3-1.2-3.4l0-0.1c-0.2-0.3,0-0.7,0.4-0.9
				C312.9,506.5,313.2,506.5,313.4,506.7z"/>
			<path class="st8" d="M317.2,422.9c0,0-4.6,4-0.3,4.3c6.2-0.1,15.6-3.2,21.2,1.4C339.6,428.4,337.5,419,317.2,422.9z"/>
			<path class="st8" d="M259.6,433.3c0,0,5.2,1.9,2.2,3.9c-4.9,1.5-15,4.2-18.2,9.3C242.1,446.4,245.3,435.3,259.6,433.3z"/>
			<g>
				<defs>
					<path id="SVGID_9_" d="M292.1,542.3c0,0,19.3-0.3,27.3-6.5c0,0,4.7-4.1,8.9,0.2c5.7,6-9.9,17.4-28.5,16.1
						c-7.6-1.5-10.1-3.8-10.1-3.8S284.5,542.7,292.1,542.3z"/>
				</defs>
				<use xlink:href="#SVGID_9_"  style="overflow:visible;fill:#653412;"/>
				<clipPath id="SVGID_10_">
					<use xlink:href="#SVGID_9_"  style="overflow:visible;"/>
				</clipPath>
				<path class="st24" d="M296.3,556.7c0,0,4.1-20.5,29.9-7.2C318.3,564.3,296.3,556.7,296.3,556.7z"/>
			</g>
			<path class="st8" d="M370.9,461.5l-10.2,2.8c0,0-6.9-11.6-21.5-9.6c-12.1,1.9-17.2,10.6-18.2,18.4c0,0,1.4-29.5,36-19.5l5.1-2.6
				l-0.2,4.7l6.3-1l-2.5,4.8L370.9,461.5z"/>
			
				<ellipse transform="matrix(0.9836 -0.1801 0.1801 0.9836 -84.2882 54.5209)" class="st7" cx="258.1" cy="491.4" rx="21.2" ry="19.9"/>
			<path class="st8" d="M227.5,489.6l9.6-0.5c0,0,2.1-13.4,16.3-17c9.6-2.2,19.1,1.4,23.9,10.3c0,0-12.7-26.9-40.9-4.4l-5.7-0.5
				l2,4.2l-6.2,1.5l4.1,3.5L227.5,489.6z"/>
			
				<ellipse transform="matrix(0.9836 -0.1801 0.1801 0.9836 -85.7117 72.4572)" class="st25" cx="356.1" cy="508.2" rx="7.5" ry="4.5"/>
			
				<ellipse transform="matrix(0.9684 -0.2495 0.2495 0.9684 -123.9773 81.263)" class="st25" cx="258.6" cy="529.7" rx="7.5" ry="4.5"/>
			<path class="st8" d="M391.1,457.6c0,0,8.8,12.3-1.2,19.1C389.9,476.7,393.8,467.4,391.1,457.6z"/>
			<path class="st8" d="M195.7,494.8c0,0-3.5,14.7,8.4,17.3C204.1,512.1,197,504.9,195.7,494.8z"/>
			<g>
				<g id="pupil_gauche">
					
						<ellipse transform="matrix(0.9836 -0.1801 0.1801 0.9836 -79.9437 69.5924)" class="st9" cx="343.2" cy="475" rx="13.6" ry="15.5"/>
					
						<ellipse transform="matrix(0.9836 -0.1801 0.1801 0.9836 -79.9437 69.5924)" class="st10" cx="343.2" cy="475" rx="6" ry="6.9"/>
					
						<ellipse transform="matrix(0.2509 -0.968 0.968 0.2509 -204.4966 679.028)" class="st7" cx="336.5" cy="471.6" rx="3.9" ry="2.7"/>
				</g>
				<circle class="st7" cx="355.7" cy="479.7" r="1.2"/>
			</g>
			<g>
				<g id="pupil_gauche_1_">
					
						<ellipse transform="matrix(0.9836 -0.1801 0.1801 0.9836 -84.4305 54.6356)" class="st9" cx="258.6" cy="492.2" rx="13.6" ry="15.5"/>
					
						<ellipse transform="matrix(0.9836 -0.1801 0.1801 0.9836 -84.4305 54.6356)" class="st10" cx="258.6" cy="492.2" rx="6" ry="6.9"/>
					
						<ellipse transform="matrix(0.2892 -0.9573 0.9573 0.2892 -287.7341 588.0125)" class="st7" cx="252.1" cy="487.8" rx="3.9" ry="2.7"/>
				</g>
				<circle class="st7" cx="268.5" cy="498.1" r="1.2"/>
			</g>
			<path class="st26" d="M192.5,486.3c0,0,0.4,2.4,2.3,3c0,0-18-94.8,83-117.2c0,0,85.5-14.1,109.5,79.4c0,0,10.6,8.5,2.7-16.4
				c-7.9-24.9-43.3-103.8-116.8-83.5C160.4,383.2,192.5,486.3,192.5,486.3z"/>
			<path class="st27" d="M201.1,397.4c0,0-17.2,4.3-13.1,15.8c5.7,9.3,13.1,4.8,13.1,4.8s3.5,0.6,4.6,4.5c1.1,4,9.2,0.1,7.5-12.4
				c5.2-8.9,13.5-13.1,13.5-13.1s1.7-8.5-9.5-4.4c0,0-4.6-2.3-3.6-9.7C208.6,378.2,199.6,389.2,201.1,397.4z"/>
			<circle class="st28" cx="207.3" cy="404.2" r="6.9"/>
		</g>
		<path class="st8" d="M173,284.1c2.3,0.1,4.6,3.3,17.1,3.8c4.2,0.2,8.9,0.2,13.9,0.1c0,0,6.7,0.3,8.3,4.3c0,0,3.2-4.8,11.5-4.6
			c6.8,0.4,10.8-2.9,10.8-2.9s-10.7,17.6-35.7,13.7C191.2,297.3,170.7,284,173,284.1z"/>
		<g id="bras_2_">
			<path id="arrière_bras_d_1_" class="st3" d="M493.6,623c0,0,12.7,24.9,38.6,25.4c53.8-69.7,75.6-133.2,75.6-133.2
				s22.2-72.2-13.9-85.1c0,0-17-9.4-49,59.3C544.9,489.4,495.8,585.5,493.6,623z"/>
			<path class="st3" d="M534.4,644.1C534.4,644.1,534.4,644.1,534.4,644.1c-0.2,0.6-0.4,1-0.6,1.5l0,0c-0.4,1-0.9,1.9-1.5,2.8
				l-13.9,2.3c0,0,0,0-0.1,0L440.4,664l-5.8,1l-9,1.5l-3.3,0.6L411,669l-15.9,2.7l-25.5,4.4l-7.2,1.2c-1.3,0.1-2.4,0-3.4-0.2
				c-2.8-0.7-4-2.8-4.6-5.9c-0.5-2.3-0.6-5.2-1-8.2c-1.1-8.5-0.8-16.3,7.6-17.5l6.4-2l7.4-2.3l5.5-1.7l5.5-1.7l5.3-1.6l35.8-11
				l5.6-1.7l61.3-18.7l11.4-3.5C517.7,599.1,542.4,623.5,534.4,644.1z"/>
			<path class="st3" d="M369.5,645.1c-9.8-8-14.6-7.3-21.3-10.2c-4.1-1.8-11.8-2.7-15-1.9l-16.6-4c0,0-2.8-1.4-3.2,1.9
				c1.4,6.4,5.3,6.5,8.9,7.3l6.1,1.5c7.9,1.9,2.8,7-7.1,6l-21-0.4c-2.6,0-7.4,0.2-7.5,2.8c0,2.6,4.1,3.4,6.7,3.4
				c0,0,18.3,0.7,19,0.8c0.7,0.1,1.2,0.9-0.2,1.2l-23.5-0.4c-2.6,0-6.6,0.9-6.6,3.5c0,2.6,4.1,3.2,6.7,3.2c0,0,21.8,0.5,22.5,0.4
				c0.7-0.2,0.9,0.8,0.2,0.8l-20.2,0.6c-2.6,0-6.4,0.2-6.9,3c-0.3,3.6,4.3,3.5,6.9,3.5c0,0,20.8-0.4,21.3-0.3
				c0.9,0.2,0.7,0.7-0.1,0.8l-14.5,0.3c-2.6,0-5.4,0.8-5.4,3.4c0,2.6,3.6,2.5,6.2,2.5c0,0,13.9,0.8,17.5,1.3
				c10.3,3.8,29.5,2.2,39.9,0.9c4.3-0.5,7.2-1.2,7.2-1.2S379.9,662,369.5,645.1z"/>
		</g>
		<g id="bras_g_1_">
			<path class="st15" d="M136.4,679.9C136.4,679.9,136.4,680,136.4,679.9c0.3,0.5,0.7,0.8,1.1,1.2l0,0c0.7,0.8,13.1,0.8,13.1,0.8
				l80.8-16.1l5.7-1.1l8.9-1.7l3.3-0.6l11.3-2.2l15.8-3l25.5-4.8l7.1-1.4c1.3-0.4,2.3-0.8,3.1-1.3c2.4-1.6,2.7-4,2.2-7.1
				c-0.4-2.3-1.2-5.1-1.9-8.1c-2-8.4-4.9-15.5-13.3-13.8l-6.7,0.4l-7.8,0.5l-5.7,0.4l-5.7,0.3l-5.6,0.3l-37.4,2.2l-5.8,0.3l-64,3.8
				l-11.9,0.7C136.4,632,121.7,663.4,136.4,679.9z"/>
			<path class="st15" d="M291.3,623.5c6.4-10.9,11.1-11.9,16.4-17c3.2-3.1,10.1-6.7,13.4-7l14.2-9.5c0,0,2.2-2.3,3.7,0.7
				c0.9,6.5-2.8,7.9-5.8,10l-5.2,3.6c-6.8,4.6-0.2,7.5,8.8,3.2l19.6-7.7c2.4-0.9,7-2.4,8,0.1c0.9,2.4-2.7,4.6-5.1,5.5
				c0,0-17,7-17.5,7.3c-0.6,0.3-0.8,1.3,0.6,1.1l21.9-8.5c2.4-0.9,6.5-1.5,7.4,1c0.9,2.4-2.7,4.4-5.2,5.3c0,0-20.3,8.1-21,8.2
				c-0.8,0.1-0.6,1,0.1,0.8l19.1-6.4c2.4-0.9,6.1-2.1,7.5,0.4c1.5,3.2-2.8,4.7-5.3,5.7c0,0-19.6,6.9-20.1,7.2
				c-0.8,0.5-0.4,0.9,0.3,0.7l13.7-4.8c2.4-0.9,5.3-1.1,6.3,1.3c0.9,2.4-2.5,3.6-4.9,4.6c0,0-12.7,5.6-15.9,7.3
				c-8.3,7.1-26.9,12.4-37.1,14.8c-4.2,1-7.1,1.4-7.1,1.4S287.5,642.9,291.3,623.5z"/>
			<path class="st15" d="M156.2,679.8L156.2,679.8c15.2-8.3,13.9-26.2,5.5-41.4L99.8,512.1c-8.3-15.2-27.4-20.7-42.6-12.4l0,0
				c-15.2,8.3-20.7,27.4-12.4,42.6l68.8,125.1C116.8,678,141.1,688.2,156.2,679.8z"/>
			<g id="manche_g_1_">
				<path id="manche_gauche_1_" class="st29" d="M25.4,358.2C4.6,366.1-10.7,383,9.5,485.5c2.3,6,35.4,156.3,115,197.6
					c0,0,1.6-19.5,30.2-61.5c-13.9-10.9-44.5-139.4-72.5-202.6C54.2,353.5,45.2,351.2,25.4,358.2z"/>
				<path class="st30" d="M127.5,690.9l40.8-61.8c1.8-3.3,0.6-7.5-2.7-9.3l-8.4-4.7c-3.3-1.8-7.5-0.6-9.3,2.7l-40.8,61.8
					c-1.8,3.3-0.6,7.5,2.7,9.3l8.4,4.7C121.5,695.4,125.7,694.2,127.5,690.9z"/>
			</g>
		</g>
	</g>
</g>
</svg>
