<?xml version="1.0" encoding="utf-8"?>
<!-- Generator: Adobe Illustrator 24.2.1, SVG Export Plug-In . SVG Version: 6.00 Build 0)  -->
<svg version="1.1" xmlns="http://www.w3.org/2000/svg" xmlns:xlink="http://www.w3.org/1999/xlink" x="0px" y="0px"
	 viewBox="0 0 569.6 569.6" style="enable-background:new 0 0 569.6 569.6;" xml:space="preserve">
<style type="text/css">
	.st0{fill:#FFFFFF;}
	.st1{fill:#127E9A;}
	.st2{fill:#73C9C3;}
	.st3{fill:#74C9C2;}
	.st4{fill:#FCD484;}
	.st5{fill:#E7B249;}
</style>
<g id="Layer_2">
	<path class="st0" d="M554.9,569.6H14.6C6.5,569.6,0,563,0,554.9V14.6C0,6.5,6.5,0,14.6,0h540.3c8.1,0,14.6,6.5,14.6,14.6v540.3
		C569.6,563,563,569.6,554.9,569.6z"/>
</g>
<g id="Layer_1">
	<g>
		<g>
			<rect x="80" y="80" width="51.2" height="51.2"/>
		</g>
	</g>
	<g>
		<g>
			<path d="M387.2,28.8v25.6h-25.6V80h25.6v102.4h25.6V208h-25.6v25.6h25.6h25.6v-51.2h76.8V208h25.6v-25.6V28.8H387.2z
				 M515.2,156.8H412.8V54.4h102.4V156.8z"/>
		</g>
	</g>
	<g>
		<g>
			<rect x="438.4" y="80" width="51.2" height="51.2"/>
		</g>
	</g>
	<g>
		<g>
			<rect x="80" y="438.4" width="51.2" height="51.2"/>
		</g>
	</g>
	<g>
		<g>
			<rect x="387.2" y="387.2" width="25.6" height="25.6"/>
		</g>
	</g>
	<g>
		<g>
			<rect x="259.2" y="515.2" width="25.6" height="25.6"/>
		</g>
	</g>
	<g>
		<g>
			<rect x="284.8" y="412.8" width="25.6" height="25.6"/>
		</g>
	</g>
	<g>
		<g>
			<rect x="284.8" y="464" width="25.6" height="25.6"/>
		</g>
	</g>
	<g>
		<g>
			<rect x="515.2" y="336" width="25.6" height="25.6"/>
		</g>
	</g>
	<g>
		<g>
			<rect x="28.8" y="336" width="25.6" height="25.6"/>
		</g>
	</g>
	<g>
		<g>
			<rect x="28.8" y="208" width="25.6" height="25.6"/>
		</g>
	</g>
	<g>
		<g>
			<polygon points="310.4,54.4 310.4,80 259.2,80 259.2,105.6 336,105.6 336,80 336,54.4 			"/>
		</g>
	</g>
	<g>
		<g>
			<path d="M336,182.4"/>
		</g>
	</g>
	<g>
		<g>
			<rect x="310.4" y="515.2" width="51.2" height="25.6"/>
		</g>
	</g>
	<g>
		<g>
			<rect x="233.6" y="54.4" width="25.6" height="25.6"/>
		</g>
	</g>
	<g>
		<g>
			<rect x="438.4" y="233.6" width="25.6" height="25.6"/>
		</g>
	</g>
	<g>
		<g>
			<rect x="464" y="208" width="25.6" height="25.6"/>
		</g>
	</g>
	<g>
		<g>
			<rect x="131.2" y="336" width="25.6" height="25.6"/>
		</g>
	</g>
	<g>
		<g>
			<path d="M182.4,515.2V412.8H208v-25.6v-25.6h-25.6v25.6h-76.8v-25.6H80H54.4v25.6H28.8v153.6h153.6h51.2v-25.6H182.4z
				 M156.8,515.2H54.4V412.8h102.4V515.2z"/>
		</g>
	</g>
	<g>
		<g>
			<path d="M182.4,182.4"/>
		</g>
	</g>
	<g>
		<g>
			<path d="M208,28.8h-25.6H28.8v153.6h25.6V208H80v-25.6h25.6V208h25.6v-25.6h51.2v-51.2H208v-25.6h-25.6V54.4H208h25.6V28.8H208z
				 M156.8,156.8H54.4V54.4h102.4V156.8z"/>
		</g>
	</g>
	<g>
		<g>
			<rect x="336" y="105.6" width="25.6" height="25.6"/>
		</g>
	</g>
	<g>
		<g>
			<rect x="284.8" y="28.8" width="25.6" height="25.6"/>
		</g>
	</g>
	<g>
		<g>
			<g>
				<polygon points="131.2,259.2 182.4,259.2 182.4,233.6 156.8,233.6 156.8,208 131.2,208 131.2,233.6 54.4,233.6 54.4,259.2 
					105.6,259.2 105.6,284.8 28.8,284.8 28.8,310.4 105.6,310.4 105.6,336 131.2,336 131.2,310.4 156.8,310.4 156.8,336 182.4,336 
					182.4,310.4 182.4,284.8 131.2,284.8 				"/>
				<polygon points="310.4,156.8 310.4,131.2 284.8,131.2 284.8,156.8 233.6,156.8 233.6,131.2 208,131.2 208,156.8 208,182.4 
					233.6,182.4 259.2,182.4 336,182.4 336,156.8 				"/>
			</g>
		</g>
	</g>
	<g>
		<g>
			<polygon points="259.2,438.4 259.2,412.8 259.2,387.2 233.6,387.2 233.6,412.8 208,412.8 208,438.4 233.6,438.4 233.6,464 
				208,464 208,489.6 259.2,489.6 259.2,464 284.8,464 284.8,438.4 			"/>
		</g>
	</g>
	<g>
		<g>
			<polygon points="489.6,489.6 489.6,464 464,464 464,489.6 387.2,489.6 387.2,515.2 438.4,515.2 438.4,540.8 464,540.8 464,515.2 
				515.2,515.2 515.2,540.8 540.8,540.8 540.8,515.2 540.8,489.6 			"/>
		</g>
	</g>
	<g>
		<g>
			<polygon points="515.2,387.2 515.2,412.8 489.6,412.8 489.6,438.4 540.8,438.4 540.8,412.8 540.8,387.2 			"/>
		</g>
	</g>
	<g>
		<path class="st1" d="M269.5,239.6c7.4-4.6,15.6-7,24.5-7c7.1,0,12.9,0.9,17.2,2.6c4.4,1.7,9,4.7,13.7,8.7c2.5,2.1,8.3,3.1,8.3,3.1
			s6.1-1.1,8.5-3.2c2.4-2.2,3.7-5.1,3.7-8.4c0-2-0.3-3.8-1-5.4c-0.7-1.7-2-3.3-3.9-4.6c-7.2-5.8-14.4-10-21.5-12.6
			c-7.1-2.5-15.5-3.8-25.1-3.8c-13.6,0-26.1,3.4-37.4,10.2c-11.2,6.8-20.2,16.1-26.6,27.7c-6.4,11.6-9.7,24.5-9.7,38.3
			c0,14,3.3,27,9.7,38.6c6.5,11.6,15.4,21,26.6,27.7c11.2,6.7,23.8,10.1,37.3,10.1c17.7,0,33.5-5.6,46.7-16.6
			c2.7-2.2,4.1-5.4,4.1-9.3v-43.6c0-3.7-1.2-6.8-3.6-9.1l0,0c-2.4-2.4-5.4-3.6-9-3.6h-34.1c-3.6,0-6.6,1.1-9,3.2
			c-2.4,2.2-3.7,5.1-3.7,8.4c0,3.3,1.3,6.3,3.7,8.4c2.4,2.1,5.4,3.2,9,3.2h21.9v27.4c-8.3,5.1-17.1,7.7-26.1,7.7
			c-8.8,0-17.1-2.3-24.5-7c-7.5-4.7-13.5-11.1-17.8-19.1c-4.4-8-6.6-16.9-6.6-26.5c0-9.5,2.2-18.4,6.6-26.4
			C256.1,250.7,262.1,244.3,269.5,239.6z"/>
		<g>
			<g>
				<path class="st2" d="M257.7,283.1c0,0,0.9-3.7,3-4c2.1-0.2,2.7,0.2,2.7,0.2s-2.6-0.6-2.8,1.6S257.7,283.1,257.7,283.1z"/>
				<path class="st2" d="M255.9,279.3c0,0,0.1,3.8,2.1,4.6c2,0.7,2.6,0.4,2.6,0.4s-2.6,0-2.4-2.2S255.9,279.3,255.9,279.3z"/>
			</g>
			<path class="st3" d="M257.5,324.4c-1.5,1.8,1.4,7-0.1,9.4c-0.1,0.1-0.1,0.2-0.1,0.2c-1.2,1.8-2.9,2.3-2.8,2.5
				c0.1,0.3,3.4-1.3,5.4,0c1.3,0.9,1.4,2.6,2,2.5c0.7-0.1,0.4-3.2,1.7-3.7c1.1-0.4,1.9,1.7,2.8,1.1c1.3-1.1-3-3.1-4-6.2
				c-1.1-3.3,1.1-4.5-0.3-5.9C261,323.4,258.5,323.3,257.5,324.4z"/>
			<path class="st3" d="M263.6,323.5c0.5,3.1,0.5,5.7,0.3,6c-0.6,0.8-1.2,1.7-2.3,2.2c-0.1,0.1-0.4,0.2-0.4,0.3
				c0.1,0.2,2.5-1.1,4.4-0.3c1.5,0.7,1.8,2.3,2.4,2.1c0.7-0.2,0.1-2.1,1.3-3.1c1.1-1,3.1-0.3,3.1-0.6c0.1-0.4-3.3-0.6-4.5-2.6
				c-1.6-2.6,1.5-6.2,0-7.7c-0.8-0.8-4.6-0.5-5.1,0.2C262.3,320.8,263.3,321.6,263.6,323.5z"/>
			<path class="st4" d="M221.8,344.3c0,0,14.3-28.7,17.5-34.9c3.2-6.3,5.6-14.6,7.9-19.1c2.3-4.5,5.3-7.6,13.2-7.6
				c7.9,0,10.5,4.2,11.2,5.6c0.7,1.4,1.3,3.5,3,4.3c1.7,0.7,7.4,2,6.9,3c-0.5,0.9-4,3-4.3,4.9c-0.3,2-1.3,11.9-2.6,16.5
				c-1.3,4.6-0.7,6.9-6.6,9.2c-5.9,2.3-21.8,0.2-28.7,5.9C232.5,337.8,221.8,344.3,221.8,344.3z"/>
			<path class="st0" d="M256.6,289c2.4-2.2,6.9-3.5,9.9-1.5c3.3,2.1,3.2,7.2,0.7,10.1c-2.6,3.1-8.2,4.3-11.2,1.8
				C252.8,296.9,253.6,291.7,256.6,289z"/>
			<path class="st1" d="M258.5,289.5c1.8-1.7,4.6-2,6.6-0.7c2.5,1.8,2.8,5.8,0.7,7.9c-2.3,2.3-6.6,1.7-8.2-1
				C256.4,293.8,256.8,291.2,258.5,289.5z"/>
			<path class="st0" d="M261.5,289.7c0.6-0.7,1.4-0.9,2.1-0.3c0.8,0.7,0.9,2.4,0.2,3.3c-0.7,1-2.1,0.7-2.6-0.4
				C260.8,291.6,261,290.4,261.5,289.7z"/>
			<path class="st5" d="M223.8,331.5c0,0,1.5-3.4,1.8-5.3c0.6-3.6,7.6-14.9,16-16.2c4.6-0.7,6.1,1.7,11.9,0.9
				c5.4-0.8,8.8-3.6,11-5.1c1.2-0.9,4-3.5,4-3.5s-0.5,1.4-0.5,4.4c0,3-2.2,12.5-8.4,16.1c-5.7,3.3-9.4-0.5-20.5,1.9
				c-6.1,1.3-9.5,3.4-11.5,4.1C226.8,329.1,223.8,331.5,223.8,331.5z"/>
			<path class="st4" d="M272.3,300.3c0.4-1.2,5.2-2.7,7.8-2c0.9,0.2-3.4,6.5-6.1,5.1C273.1,302.9,272.1,301,272.3,300.3z"/>
		</g>
	</g>
	<polygon points="515.2,233.6 515.2,259.2 464,259.2 464,284.8 387.2,284.8 387.2,310.4 387.2,316.9 387.2,316.9 387.2,361.6 
		438.4,361.6 438.4,438.4 361.6,438.4 361.6,387.2 361.6,387.2 336,387.2 336,387.2 310.4,387.2 310.4,412.8 336,412.8 336,464 
		361.6,464 361.6,489.6 387.2,489.6 387.2,464 464,464 464,412.8 489.6,412.8 489.6,387.2 464,387.2 464,336 412.8,336 412.8,310.4 
		464,310.4 464,336 489.6,336 489.6,310.4 515.2,310.4 515.2,284.8 540.8,284.8 540.8,259.2 540.8,233.6 	"/>
</g>
</svg>
