<?xml version="1.0" encoding="utf-8"?>
<!-- Generator: Adobe Illustrator 24.0.1, SVG Export Plug-In . SVG Version: 6.00 Build 0)  -->
<svg version="1.1" id="Capa_1" xmlns="http://www.w3.org/2000/svg" xmlns:xlink="http://www.w3.org/1999/xlink" x="0px" y="0px"
	 viewBox="0 0 97.8 97.8" style="enable-background:new 0 0 97.8 97.8;" xml:space="preserve">
<style type="text/css">
	.st0{fill:#FFFFFF;}
	.st1{fill:#73CAC3;}
</style>
<circle class="st0" cx="48.3" cy="49.5" r="37"/>
<g>
	<g>
		<path class="st1" d="M69.7,47.3c0-3.8-1.4-6.4-2.5-8.5c-1.6-2.5-3-4.7-3-7.2c0-2.8,2.2-5.5,5.2-5.5c0.1,0,0.3,0,0.4,0
			c-5.5-5-12.8-8.1-20.8-8.1c-10.8,0-20.2,5.5-25.8,13.9c0.7,0,1.4,0,2,0c3.2,0,8.2-0.4,8.2-0.4c1.7-0.1,1.9,2.3,0.2,2.5
			c0,0-1.7,0.2-3.5,0.3l11.2,33.4L48,47.6l-4.8-13.2c-1.7-0.1-3.2-0.3-3.2-0.3c-1.7-0.1-1.5-2.6,0.2-2.5c0,0,5.1,0.4,8.1,0.4
			c3.2,0,8.2-0.4,8.2-0.4c1.7-0.1,1.9,2.3,0.2,2.5c0,0-1.7,0.2-3.5,0.3l11.1,33.1l3.1-10.3C68.7,53,69.7,50,69.7,47.3z"/>
		<path class="st1" d="M18.1,48.9c0,12.2,7.1,22.7,17.4,27.7L20.7,36.3C19,40.2,18.1,44.4,18.1,48.9z"/>
		<path class="st1" d="M49.4,51.6l-9.2,26.9c2.8,0.8,5.7,1.3,8.7,1.3c3.6,0,7-0.6,10.2-1.7c-0.1-0.1-0.2-0.3-0.2-0.4L49.4,51.6z"/>
		<path class="st1" d="M64.4,75.5c9.2-5.3,15.3-15.3,15.3-26.6c0-5.4-1.4-10.4-3.8-14.8c0.1,1,0.2,2,0.2,3.2c0,3.1-0.6,6.6-2.3,11
			L64.4,75.5z"/>
		<path class="st1" d="M48.9,0C21.9,0,0,21.9,0,48.9s21.9,48.9,48.9,48.9s48.9-21.9,48.9-48.9S75.9,0,48.9,0z M48.9,83.2
			c-18.9,0-34.3-15.4-34.3-34.3C14.6,30,30,14.6,48.9,14.6c18.9,0,34.3,15.4,34.3,34.3C83.2,67.8,67.8,83.2,48.9,83.2z"/>
	</g>
</g>
</svg>
