<?xml version="1.0" encoding="utf-8"?>
<!-- Generator: Adobe Illustrator 24.2.1, SVG Export Plug-In . SVG Version: 6.00 Build 0)  -->
<svg version="1.1" xmlns="http://www.w3.org/2000/svg" xmlns:xlink="http://www.w3.org/1999/xlink" x="0px" y="0px"
	 viewBox="0 0 512 512" style="enable-background:new 0 0 512 512;" xml:space="preserve">
<style type="text/css">
	.st0{fill:#F5F5F5;}
	.st1{fill:#184753;}
	.st2{fill:#73C9C3;}
	.st3{fill:#FBD1BF;}
	.st4{fill:#FCD484;}
	.st5{fill:#FFFFFF;}
	.st6{fill:#127E9A;}
	.st7{fill:#E7B249;}
</style>
<g id="Layer_3">
</g>
<g id="Layer_2">
	<g>
		<path class="st0" d="M23.1,418.8c-92.5,84.3,116.2,98.7,218.6,78.3c78.9-12.5,113.9,25.9,136.3,8.9
			c72-108.7-177.6-198.5-240.7-151.3C81,418.4,86,392.6,23.1,418.8z"/>
		<g>
			<path class="st1" d="M43.8,226.9c3.9,1.4,8.2-0.6,9.6-4.5s-0.6-8.2-4.5-9.6s-8.2,0.6-9.6,4.5C37.9,221.2,39.9,225.5,43.8,226.9z"
				/>
			<path class="st1" d="M58.7,164.8l-9,24.7c-1.3,3.7,0.6,7.8,4.3,9.2c3.7,1.4,7.8-0.6,9.2-4.3l11.2-30.8c1.3-3.7-0.6-7.8-4.3-9.2
				c-12.9-4.7-19.5-19.3-14-32.2c4.9-11.6,18.1-17.5,30.1-13.4c12.7,4.4,19.6,18.3,14.9,31.2c-1.4,3.7,0.6,7.8,4.3,9.2
				c3.7,1.3,7.8-0.6,9.2-4.3c7.4-20.2-3.3-42.6-23.8-49.6c-19-6.5-40,2.9-47.9,21.4C35.1,135.2,42.9,155.5,58.7,164.8z"/>
		</g>
		<g>
			<path class="st1" d="M483.5,205.8c-5.9-19.2-24.9-29.8-43.1-26.8l-9-24.7c-1.3-3.7-5.4-5.6-9.2-4.3c-3.7,1.3-5.6,5.4-4.3,9.2
				l11.2,30.8c1.3,3.7,5.4,5.6,9.2,4.3c12.9-4.7,27.3,2.3,31.5,15.7c3.7,12.1-2.6,25.1-14.4,29.6c-12.5,4.8-26.8-1.4-31.5-14.3
				c-1.3-3.7-5.4-5.6-9.2-4.3c-3.7,1.3-5.6,5.4-4.3,9.2c7.4,20.2,29.9,30.5,50.1,22.7C479.3,245.7,489.4,225,483.5,205.8
				L483.5,205.8z"/>
			<path class="st1" d="M418.9,140.8c3.9-1.4,5.9-5.7,4.5-9.6c-1.4-3.9-5.7-5.9-9.6-4.5s-5.9,5.7-4.5,9.6
				C410.7,140.2,415,142.2,418.9,140.8z"/>
		</g>
		<g>
			<path class="st1" d="M336.1,99.1c15.4-12.9,17.7-34.6,7.8-50.1L363.1,31c2.9-2.7,3-7.2,0.4-10.1c-2.7-2.9-7.2-3-10.1-0.4
				l-24,22.4c-2.9,2.7-3,7.2-0.4,10.1c9.4,10.1,8.6,26.1-2.2,35.1c-9.7,8.1-24.1,7.4-32.9-1.7c-9.4-9.6-9.2-25.2,0.8-34.6
				c2.9-2.7,3-7.2,0.3-10.1c-2.7-2.9-7.2-3-10.1-0.3c-15.7,14.7-16.4,39.5-1.3,55C297.7,110.8,320.7,112,336.1,99.1L336.1,99.1z"/>
			<path class="st1" d="M370.7,14.2c2.8,3,7.5,3.2,10.5,0.4c3-2.8,3.2-7.5,0.4-10.5c-2.8-3-7.5-3.2-10.5-0.4
				C368.1,6.5,367.9,11.2,370.7,14.2z"/>
		</g>
		<g>
			<g>
				<g>
					<path class="st2" d="M245.4,76.4c0,0-7.6-23.4-21.4-23.7c-13.8-0.3-17,3-17,3s16.1-5.2,18.7,8.9
						C228.3,78.6,245.4,76.4,245.4,76.4z"/>
					<path class="st2" d="M254.9,50.6c0,0,1.6,24.7-11.1,30.5s-16.8,4.1-16.8,4.1s16.7-1.7,14-15.8S254.9,50.6,254.9,50.6z"/>
				</g>
				<path class="st3" d="M269.9,341.8c10.7,11-4.9,45.4,6.2,60.2c0.5,0.6,1,1.3,1,1.3c9,11,20,13.2,19.6,14.7
					c-0.5,2.3-22.5-6.5-34.5,3c-8,6.3-7.7,17.6-11.3,17.5c-4.8-0.2-4.4-20.1-13-22.6c-7.4-2.2-11.3,12-17.5,8.9
					c-8.8-6.5,17.2-21.8,21.9-42.2c5.1-21.9-9.6-28.3-1.5-38.3C247,336.8,263.4,335.2,269.9,341.8z"/>
				<path class="st3" d="M230.2,339.2c-1.5,20.4-0.1,36.7,1.7,38.8c4.3,4.9,8.8,9.9,15.9,12.6c0.9,0.3,2.9,1,2.8,1.4
					c-0.2,1.1-16.8-5.9-28.5,0.7c-9.1,5.1-10.4,15.7-14.3,15.1c-4.4-0.7-2-13.7-10-19.4c-7.8-5.6-19.8,0-20.4-1.9
					c-0.8-2.4,20.8-5.4,27.8-19c9-17.5-13.3-39-4.3-49.3c4.8-5.5,29.2-5.9,32.8-1.3C237.3,321.1,231.2,326.7,230.2,339.2z"/>
				<path class="st4" d="M510.7,449.2c0,0-107.8-176-131.8-214.4c-24-38.4-44.2-90.6-61.6-118.3c-17.3-27.6-38.1-45.7-88.9-41.2
					c-50.8,4.5-65.1,32.7-68.8,42.3c-3.7,9.6-6.2,23.5-16.6,29.2c-10.4,5.7-46.3,17.3-42.8,22.9c3.6,5.6,27.1,16.8,30.3,29.3
					c3.2,12.5,15.1,75.4,26.2,104.3c11.1,28.9,8.1,44.1,47.5,55.5c39.4,11.5,140.5-10.9,187.4,21.9
					C438.6,413.6,510.7,449.2,510.7,449.2z"/>
				<path class="st5" d="M256.1,113.5c-16.6-12.7-46-18.5-64.3-4.3c-20.2,15.7-16.7,47.8,1.3,65.4c18.6,18.1,54.8,22.8,73.2,5.5
					C285.2,162.4,276.8,129.5,256.1,113.5z"/>
				<path class="st6" d="M244.2,117.9c-12.3-10.1-30.8-10.5-42.7-0.5c-15.1,12.8-14.6,38.6,0.2,51.2c16.1,13.6,43.6,7.2,52.3-11
					C260.3,144.5,256,127.5,244.2,117.9z"/>
				<path class="st5" d="M225,121.1c-3.9-4.3-9.7-4.7-13.3-0.6c-4.6,5.2-4.2,15.9,0.5,21.3c5.1,5.8,13.7,3.4,16.3-4.1
					C230.3,132.4,228.8,125.3,225,121.1z"/>
				<path class="st7" d="M490.7,368.4c0,0-11.2-20.8-14.8-33.3c-6-22.9-57.1-91.2-112-94.9c-30.1-2-38.2,14.4-76.2,12.2
					c-35.3-2-58.6-17.8-73.7-26.6c-8.4-4.9-27.6-20.3-27.6-20.3s3.7,9,5.6,28.1c1.8,19.1,21,78.9,63.2,98.4
					c38.4,17.7,60.3-8.3,133,0.7c39.8,4.9,63.1,16.4,76,20.1C470.1,354.4,490.7,368.4,490.7,368.4z"/>
				<path class="st4" d="M161.6,195.2c-3-7.4-35.2-14.4-51.2-8.7c-5.9,2.1,25.4,40,42.1,29C157.6,212.2,163.4,199.6,161.6,195.2z"/>
			</g>
			<g>
				<g>
					<path class="st2" d="M296.5,399.9c0,0,1.7-5.1,4.7-5.2c3-0.1,3.7,0.7,3.7,0.7s-3.5-1.1-4.1,1.9
						C300.2,400.4,296.5,399.9,296.5,399.9z"/>
					<path class="st2" d="M294.4,394.3c0,0-0.3,5.4,2.4,6.7c2.8,1.3,3.7,0.9,3.7,0.9s-3.7-0.4-3.1-3.4
						C298.1,395.3,294.4,394.3,294.4,394.3z"/>
				</g>
				<path class="st3" d="M291.2,457.8c-2.3,2.4,1.1,9.9-1.4,13.1c-0.1,0.1-0.2,0.3-0.2,0.3c-2,2.4-4.4,2.9-4.3,3.2
					c0.1,0.5,4.9-1.4,7.5,0.7c1.7,1.4,1.7,3.8,2.5,3.8c1,0,1-4.4,2.8-4.9c1.6-0.5,2.5,2.6,3.8,1.9c1.9-1.4-3.7-4.8-4.8-9.2
					c-1.1-4.8,2.1-6.2,0.3-8.3C296.2,456.7,292.6,456.3,291.2,457.8z"/>
				<path class="st3" d="M299.8,457.2c0.3,4.4,0,8-0.4,8.5c-0.9,1.1-1.9,2.2-3.5,2.7c-0.2,0.1-0.6,0.2-0.6,0.3
					c0,0.2,3.7-1.3,6.2,0.1c2,1.1,2.3,3.4,3.1,3.3c1-0.2,0.4-3,2.2-4.2c1.7-1.2,4.3,0,4.5-0.4c0.2-0.5-4.5-1.2-6.1-4.1
					c-2-3.8,2.9-8.5,0.9-10.8c-1-1.2-6.4-1.3-7.2-0.3C298.3,453.2,299.6,454.5,299.8,457.2z"/>
				<path class="st7" d="M238.7,481.2c0,0,23.5-38.4,28.7-46.8c5.2-8.4,9.6-19.8,13.4-25.8c3.8-6,8.3-10,19.4-9
					c11.1,1,14.2,7.1,15,9.2c0.8,2.1,1.4,5.1,3.6,6.4c2.3,1.2,10.1,3.8,9.3,5c-0.8,1.2-5.9,3.7-6.6,6.4c-0.7,2.7-3.3,16.4-5.7,22.7
					c-2.4,6.3-1.8,9.6-10.4,12.1c-8.6,2.5-30.6-2.4-40.9,4.8C254.4,473.4,238.7,481.2,238.7,481.2z"/>
				<path class="st5" d="M294.2,408c3.6-2.8,10-4,14-0.9c4.4,3.4,3.6,10.4-0.3,14.3c-4.1,4-12,5-16,1.2
					C287.8,418.6,289.7,411.5,294.2,408z"/>
				<path class="st6" d="M296.8,408.9c2.7-2.2,6.7-2.3,9.3-0.1c3.3,2.8,3.2,8.4,0,11.2c-3.5,3-9.5,1.6-11.4-2.4
					C293.3,414.7,294.2,411,296.8,408.9z"/>
				<path class="st5" d="M301,409.6c0.9-0.9,2.1-1,2.9-0.1c1,1.1,0.9,3.5-0.1,4.6c-1.1,1.3-3,0.7-3.5-0.9
					C299.8,412.1,300.1,410.5,301,409.6z"/>
				<path class="st4" d="M243,463.6c0,0,2.5-4.5,3.2-7.3c1.3-5,12.4-19.9,24.4-20.7c6.6-0.4,8.3,3.1,16.6,2.7
					c7.7-0.4,12.8-3.9,16.1-5.8c1.8-1.1,6-4.4,6-4.4s-0.8,2-1.2,6.1c-0.4,4.2-4.6,17.2-13.8,21.4c-8.4,3.9-13.1-1.8-29,0.1
					c-8.7,1.1-13.8,3.6-16.6,4.4C247.5,460.5,243,463.6,243,463.6z"/>
				<path class="st7" d="M314.8,425.8c0.7-1.6,7.7-3.1,11.2-1.9c1.3,0.5-5.5,8.7-9.2,6.3C315.7,429.5,314.4,426.7,314.8,425.8z"/>
			</g>
			<g>
				<g>
					<path class="st2" d="M89.6,315.4c0,0-3.3-10.3-9.4-10.5c-6.1-0.1-7.5,1.3-7.5,1.3s7.1-2.3,8.2,3.9
						C82.1,316.4,89.6,315.4,89.6,315.4z"/>
					<path class="st2" d="M93.8,304c0,0,0.7,10.9-4.9,13.4c-5.6,2.6-7.4,1.8-7.4,1.8s7.4-0.8,6.2-6.9C86.5,306.2,93.8,304,93.8,304z
						"/>
				</g>
				<path class="st3" d="M100.5,432.4c4.7,4.8-2.2,20,2.7,26.5c0.2,0.3,0.5,0.6,0.5,0.6c4,4.9,8.8,5.8,8.6,6.5
					c-0.2,1-9.9-2.9-15.2,1.3c-3.5,2.8-3.4,7.7-5,7.7c-2.1-0.1-1.9-8.9-5.7-10c-3.2-1-5,5.3-7.7,3.9c-3.9-2.9,7.6-9.6,9.7-18.6
					c2.2-9.6-4.2-12.5-0.7-16.9C90.4,430.1,97.6,429.5,100.5,432.4z"/>
				<path class="st3" d="M83,431.2c-0.7,9-0.1,16.2,0.8,17.1c1.9,2.1,3.9,4.4,7,5.6c0.4,0.2,1.3,0.5,1.2,0.6
					c-0.1,0.5-7.4-2.6-12.5,0.3c-4,2.3-4.6,6.9-6.3,6.6c-1.9-0.3-0.9-6-4.4-8.5c-3.5-2.5-8.7,0-9-0.8c-0.3-1,9.2-2.4,12.2-8.4
					c4-7.7-5.8-17.2-1.9-21.7c2.1-2.4,12.9-2.6,14.5-0.6C86.1,423.2,83.4,425.7,83,431.2z"/>
				<path class="st4" d="M206.5,479.7c0,0-47.5-77.6-58.1-94.5c-10.6-16.9-19.5-39.9-27.1-52.1c-7.6-12.2-16.8-20.1-39.2-18.2
					c-22.4,2-28.7,14.4-30.3,18.6c-1.6,4.2-2.7,10.4-7.3,12.9c-4.6,2.5-20.4,7.6-18.8,10.1c1.6,2.5,11.9,7.4,13.3,12.9
					c1.4,5.5,6.7,33.2,11.5,46c4.9,12.7,3.6,19.4,20.9,24.5c17.4,5.1,61.9-4.8,82.6,9.7C174.8,464,206.5,479.7,206.5,479.7z"/>
				<path class="st5" d="M94.3,331.8c-7.3-5.6-20.3-8.1-28.3-1.9c-8.9,6.9-7.4,21.1,0.6,28.8c8.2,8,24.2,10,32.3,2.4
					C107.2,353.3,103.5,338.8,94.3,331.8z"/>
				<path class="st6" d="M89.1,333.7c-5.4-4.4-13.6-4.6-18.8-0.2c-6.7,5.6-6.4,17,0.1,22.5c7.1,6,19.2,3.2,23.1-4.8
					C96.2,345.4,94.3,338,89.1,333.7z"/>
				<path class="st5" d="M80.7,335.1c-1.7-1.9-4.3-2.1-5.9-0.3c-2,2.3-1.9,7,0.2,9.4c2.3,2.6,6,1.5,7.2-1.8
					C83,340.1,82.3,336.9,80.7,335.1z"/>
				<path class="st7" d="M197.7,444.1c0,0-5-9.2-6.5-14.7c-2.6-10.1-25.2-40.2-49.3-41.8c-13.3-0.9-16.8,6.3-33.6,5.4
					c-15.5-0.9-25.8-7.9-32.5-11.7c-3.7-2.2-12.1-8.9-12.1-8.9s1.7,4,2.5,12.4c0.8,8.4,9.2,34.8,27.8,43.3
					c16.9,7.8,26.6-3.7,58.6,0.3c17.5,2.2,27.8,7.2,33.5,8.9C188.6,437.9,197.7,444.1,197.7,444.1z"/>
				<path class="st4" d="M52.7,367.8c-1.3-3.2-15.5-6.3-22.6-3.8c-2.6,0.9,11.2,17.6,18.5,12.8C51,375.2,53.5,369.7,52.7,367.8z"/>
			</g>
		</g>
	</g>
</g>
</svg>
