<?xml version="1.0" encoding="utf-8"?>
<!-- Generator: Adobe Illustrator 25.0.1, SVG Export Plug-In . SVG Version: 6.00 Build 0)  -->
<svg version="1.1" id="Layer_1" xmlns="http://www.w3.org/2000/svg" xmlns:xlink="http://www.w3.org/1999/xlink" x="0px" y="0px"
	 viewBox="0 0 669 717" style="enable-background:new 0 0 669 717;" xml:space="preserve">
<style type="text/css">
	.st0{fill:#127E9B;}
	.st1{fill:#73C9C3;}
	.st2{fill:#FBD1BF;}
	.st3{fill:#D4A043;}
	.st4{fill:#FCD484;}
	.st5{fill:#FFFFFF;}
	.st6{fill:#127E9A;}
	.st7{fill:#E7B249;}
</style>
<g>
	<g>
		<path class="st0" d="M217.5,652.2c-23.7-6.1,5.8-24.1,5.8-24.1l77.6-50.7c7.5-4.9,21.4-11.8,26.6-4.7c5.2,7.1,11.2,20.4,15.8,28.1
			l9.2,15.7c5.2,7.7,11.8,3.1,11.8,3.1l16-9.3c7.8-4.5,19.5-12.9,27.4-16.1s16.8,9.1,20.9,17.1l42.8,81.9
			c17.6,29.4-5.7,23.4-5.7,23.4L217.5,652.2L217.5,652.2z M241.9,600.3c-7.5,4.9-19,13.9-26.5,18.9c-8.5,5.7-17.4,9.3-14-3.6
			l33.9-129.3c2.3-8.7,6.4-25.4,11.5-20.9c1.9,1.7,4.4,4.8,7.4,10l38.5,52.6c5.3,7.3,13.1,16.5,15,21.8c1.2,3.3,1.3,6.9-2.3,9
			L241.9,600.3z M385.5,588.5c-8.2,3.8-17.5,9.7-21.3,8.8c-3.7-1-9.2-10.6-14.6-17.8l-83.9-113.8c-5.4-7.2-14.2-21.3-7.6-22.8
			c4.7-1.1,12.1,0.9,12.1,0.9L520,508.5c22.5,5.8,8.2,14,8.2,14L385.5,588.5z M483.2,688.7c-4.1-8-9.8-21.5-14-29.5l-35.3-67.1
			c-2.1-3.6-0.4-6.7,2.3-9c4.3-3.7,15.5-8,23.7-11.8l44.4-20.5c8.2-3.8,19.4-10.5,26.1-11.9c6.7-1.4,2.2,15.1-0.1,23.9l-33.3,129.5
			C493.8,705.3,487.8,697.7,483.2,688.7z"/>
	</g>
	<g>
		<g>
			<path class="st1" d="M497.4,39.2c0,0,18.5-30.1,37.9-25.9c19.4,4.3,22.7,10,22.7,10s-20.7-12.7-29.1,6.1
				C520.5,48.2,497.4,39.2,497.4,39.2z"/>
			<path class="st1" d="M492.9,0c0,0-10.6,33.9,5.1,46.4s22,11.4,22,11.4s-22.8-8.1-14.2-26.8C514.3,12.3,492.9,0,492.9,0z"/>
		</g>
		<path class="st2" d="M363.3,362.7c-20.3,8.7-18.2,63.1-41.1,76.8c-1,0.6-2.1,1.2-2.1,1.2c-18,9.7-33.7,6.7-34.1,8.9
			c-0.5,3.3,33.4,3.6,44.2,22.8c7.2,12.7,0.6,27.6,5.5,29.4c6.5,2.4,16.8-24.4,29.6-23.1c11,1.1,8.5,22.1,18.5,21.3
			c15.3-3.9-11-38.4-6.2-68c5.2-31.9,28.2-32.4,22.9-50.1C396.5,368.4,375.5,357.4,363.3,362.7z"/>
		<path class="st2" d="M420.1,415.5c-4.8,29-12.3,51.3-15.6,53.6c-7.7,5.3-15.7,10.9-26.5,12.2c-1.4,0.2-4.4,0.5-4.4,1
			c-0.1,1.6,25.4-2.6,39.5,10.6c11,10.3,9.1,25.5,14.9,25.9c6.4,0.5,7.5-18.4,20.5-23.7c12.8-5.2,27.7,6.7,29.2,4.3
			c1.9-3.1-27.2-14.6-32.3-36c-6.6-27.5,31.8-50,22.8-67.4c-4.8-9.4-38.8-18.2-45.4-13C416.5,387.9,423.1,397.8,420.1,415.5z"/>
		<path class="st3" d="M85.9,169.4c57.3-30.2,179.5-54.4,243-16c34.8,21-10.1,46.9,33.5,74c28.5,18,77,25.2,100.8,24.1
			c31-1.6,41-0.5,21,16.7c-20,17.2-83.5,81.6-144.6,70c-55.6-10.6-60.5-42.4-147.7-88.9c-47.7-25.4-46-29-90-44
			S28.6,199.6,85.9,169.4z"/>
		<path class="st4" d="M0,469.7c0,0,210.5-209.2,257.1-254.7c46.6-45.5,92.6-111.6,126.2-144.3c33.6-32.7,68.8-50.9,138.2-27.4
			c69.4,23.5,79.8,67.9,81.7,82.5c1.9,14.6,0.7,35,13.3,46.4c12.6,11.4,58.8,40,51.9,46.6c-6.9,6.6-43.5,14.3-52.3,30.7
			c-8.8,16.4-46.8,100.2-72.1,136.8c-25.3,36.6-26.3,58.8-85.3,61.4c-58.9,2.6-192.5-63-269.3-33.1C112.8,444.5,0,469.7,0,469.7z"/>
		<path class="st5" d="M469.8,87.5c27.5-12.2,70.5-10.2,91.3,15.9c22.9,28.8,7.1,72.5-24.1,90.9c-32.2,19-84.4,13.1-104.2-17.3
			C412.5,145.8,435.5,102.7,469.8,87.5z"/>
		<path class="st6" d="M484.9,97.6c20.6-9.9,46.7-4.2,59.8,13.8c16.8,23,7.3,58.8-17.7,71.4c-27.1,13.6-63.4-4.7-69.4-33.2
			C453.3,129.4,465.1,107.1,484.9,97.6z"/>
		<path class="st5" d="M510.6,108.7c7-4.7,15.2-3.2,18.9,3.7c4.7,8.8,0.5,23.7-8,29.6c-9.2,6.4-20.3,0.1-21.3-11.3
			C499.4,122.6,503.9,113.2,510.6,108.7z"/>
		<path class="st7" d="M120.1,245.8c49.8-41.4,116.5-80.2,186.6-55.9c38.4,13.3,40.3,37.4,88.6,54.8c31.6,11.7,80.6,8.7,103.6,2.7
			c30-8,40-9,24,12c-16,21-64.7,97.2-126.8,98.6c-56.6,1.2-71.3-38.2-166.2-65.6c-52-15-71.2-21.3-104.1-19.1
			S70.3,287.3,120.1,245.8z"/>
		<path class="st4" d="M573.9,233.7c6.7-9.3,54-8.1,74.4,5.3c7.5,4.9-49.1,47.3-68.6,26.2C573.8,258.8,570,239.2,573.9,233.7z"/>
	</g>
</g>
</svg>
