<?xml version="1.0" encoding="utf-8"?>
<!-- Generator: Adobe Illustrator 25.0.1, SVG Export Plug-In . SVG Version: 6.00 Build 0)  -->
<svg version="1.1" id="Layer_1" xmlns="http://www.w3.org/2000/svg" xmlns:xlink="http://www.w3.org/1999/xlink" x="0px" y="0px"
	 viewBox="0 0 647.1 489" style="enable-background:new 0 0 647.1 489;" xml:space="preserve">
<style type="text/css">
	.st0{fill:#C2D8E3;}
</style>
<path class="st0" d="M585,215.3c6.2-16.1,9.6-33.6,9.6-51.9c0-80-64.9-144.9-144.9-144.9c-40.2,0-76.5,16.4-102.8,42.8
	C328.7,25,291.1,0,247.6,0c-37.3,0-70.4,18.4-90.5,46.7c-10.6-3-21.7-4.6-33.3-4.6C55.4,42.1,0,97.5,0,165.9
	c0,30.2,10.8,57.9,28.8,79.4C10.9,265.1,0,291.3,0,320.1c0,61.4,49.8,111.2,111.2,111.2c28.4,0,54.2-10.6,73.9-28.1
	c35.7,51.6,95.3,85.4,162.8,85.4c75.4,0,140.9-42.2,174.4-104.2c9.7,3.6,20.2,5.5,31.1,5.5c49.8,0,90.1-40.3,90.1-90.1
	C643.5,261.1,619.2,228.1,585,215.3z"/>
</svg>
