<?xml version="1.0" encoding="utf-8"?>
<!-- Generator: Adobe Illustrator 25.0.1, SVG Export Plug-In . SVG Version: 6.00 Build 0)  -->
<svg version="1.1" id="Layer_4" xmlns="http://www.w3.org/2000/svg" xmlns:xlink="http://www.w3.org/1999/xlink" x="0px" y="0px"
	 viewBox="0 0 3240 330" style="enable-background:new 0 0 3240 330;" xml:space="preserve">
<style type="text/css">
	.st0{fill:#E1EAF0;}
</style>
<g>
	<path class="st0" d="M9.8,329H3240V175.6c-26-26.7-62.4-43.2-102.6-43.2c-66.4,0-122.3,45.2-138.6,106.5
		c-19.5-15.3-44.1-24.4-70.9-24.4c-46.7,0-87,27.9-104.9,68c-39.5-50.2-100.7-82.5-169.5-82.5c-35.7,0-69.3,8.7-99,24
		C2436.2,95.5,2266.5,15,2078,15c-195,0-370,86.2-488.7,222.6C1551.6,174.9,1483,133,1404.5,133c-41.2,0-79.6,11.5-112.3,31.6
		C1234.8,66.2,1128.1,0,1006,0C885.2,0,779.6,64.7,721.8,161.3C677.5,97.1,603.4,55,519.5,55c-54.6,0-105.1,17.8-145.8,48
		c-39.5-49.9-100.6-82-169.2-82C109.3,21,28.5,82.7,0,168.4v136.2C2.8,313,6.1,321.1,9.8,329z"/>
</g>
</svg>
