<?xml version="1.0" encoding="utf-8"?>
<!-- Generator: Adobe Illustrator 25.0.1, SVG Export Plug-In . SVG Version: 6.00 Build 0)  -->
<svg version="1.1" id="Layer_1" xmlns="http://www.w3.org/2000/svg" xmlns:xlink="http://www.w3.org/1999/xlink" x="0px" y="0px"
	 viewBox="0 0 802.5 670" style="enable-background:new 0 0 802.5 670;" xml:space="preserve">
<style type="text/css">
	.st0{fill:#C5E6DA;}
</style>
<g>
	<path class="st0" d="M104.5,243.9l72.5-72.5c4-4,4-10.6,0-14.6c-4-4-10.6-4-14.6,0l-72.5,72.5l-72.5-72.5c-4-4-10.6-4-14.6,0
		c-4,4-4,10.6,0,14.6l72.5,72.5L2.9,316.4c-4,4-4,10.6,0,14.6c2,2,4.7,3,7.3,3s5.3-1,7.3-3l72.5-72.5l72.5,72.5c2,2,4.7,3,7.3,3
		s5.3-1,7.3-3c4-4,4-10.6,0-14.6L104.5,243.9z"/>
	<path class="st0" d="M504.5,579.9l72.5-72.5c4-4,4-10.6,0-14.6s-10.6-4-14.6,0l-72.5,72.5l-72.5-72.5c-4-4-10.6-4-14.6,0
		s-4,10.6,0,14.6l72.5,72.5l-72.5,72.5c-4,4-4,10.6,0,14.6c2,2,4.7,3,7.3,3s5.3-1,7.3-3l72.5-72.5l72.5,72.5c2,2,4.7,3,7.3,3
		c2.6,0,5.3-1,7.3-3c4-4,4-10.6,0-14.6L504.5,579.9z"/>
</g>
</svg>
