<?xml version="1.0" encoding="utf-8"?>
<!-- Generator: Adobe Illustrator 25.0.1, SVG Export Plug-In . SVG Version: 6.00 Build 0)  -->
<svg version="1.1" xmlns="http://www.w3.org/2000/svg" xmlns:xlink="http://www.w3.org/1999/xlink" x="0px" y="0px"
	 viewBox="0 0 512 512" style="enable-background:new 0 0 512 512;" xml:space="preserve">
<style type="text/css">
	.st0{fill:none;}
	.st1{fill:#F4EC83;}
	.st2{fill:#C5E6DA;}
	.st3{fill:#73CAC3;}
	.st4{fill:#5F717A;}
	.st5{fill:#E3BF78;}
	.st6{fill:#D3EFFB;}
	.st7{fill:#AB7575;}
	.st8{fill:#FCD485;}
	.st9{fill:#D69292;}
	.st10{fill:#68B6B0;}
	.st11{display:none;}
	.st12{display:inline;fill:#AFBCC2;}
	.st13{display:inline;fill:#E1EAF0;}
	.st14{display:inline;}
	.st15{fill:#AFBCC2;}
	.st16{display:inline;fill:#92A3AC;}
	.st17{display:inline;fill:#C2D8E3;}
	.st18{fill:#E1EAF0;}
	.st19{display:inline;fill:#575B6D;}
	.st20{display:inline;fill:#414451;}
	.st21{fill:#AE6C6C;}
	.st22{fill:#B36241;}
	.st23{fill:#965336;}
	.st24{fill:#FBD485;}
	.st25{fill:#83442E;}
	.st26{fill:#2A2615;}
	.st27{fill:#FFFFFF;}
	.st28{fill:#653412;}
	.st29{fill:#9F5617;}
	.st30{fill:#3D444B;}
	.st31{fill:#975436;}
	.st32{fill:#076077;}
	.st33{fill:#9B4D34;}
	.st34{fill:#462814;}
	.st35{clip-path:url(#SVGID_2_);}
	.st36{clip-path:url(#SVGID_4_);}
	.st37{fill:#F9C9B3;}
	.st38{fill:#F7EBEB;}
	.st39{clip-path:url(#SVGID_10_);fill:url(#SVGID_11_);stroke:url(#SVGID_12_);stroke-width:0.5492;stroke-miterlimit:10;}
	.st40{fill:#A05339;stroke:#FCD2C0;stroke-width:0.4119;stroke-linejoin:round;stroke-miterlimit:10;}
	.st41{fill:none;stroke:#FCD2C0;stroke-width:0.4119;stroke-linejoin:round;stroke-miterlimit:10;}
	.st42{fill:none;stroke:#FCD2C0;stroke-width:0.2746;stroke-linejoin:round;stroke-miterlimit:10.0006;}
	.st43{fill:#462713;}
	.st44{clip-path:url(#SVGID_14_);fill:#E85B54;}
	.st45{fill:#D77761;}
	.st46{fill:#FFF164;}
	.st47{fill:#EAC246;}
	.st48{fill:#CBA53C;}
	.st49{fill:#C2D8E3;}
	.st50{fill:#127E9B;}
</style>
<pattern  y="512" width="32" height="32.1" patternUnits="userSpaceOnUse" id="SVGID_7_" viewBox="4.5 -36.5 32 32.1" style="overflow:visible;">
	<g>
		<rect x="4.5" y="-36.5" class="st0" width="32" height="32.1"/>
		<g>
			<rect x="4.5" y="-36.5" class="st0" width="32" height="32.1"/>
			<g id="fleur_14_">
				<ellipse class="st1" cx="28.5" cy="-34.7" rx="0.6" ry="2.6"/>
				<ellipse transform="matrix(0.866 -0.5001 0.5001 0.866 21.5517 10.224)" class="st1" cx="29.9" cy="-35.1" rx="0.6" ry="2.6"/>
				<ellipse transform="matrix(0.4983 -0.867 0.867 0.4983 46.6275 8.6561)" class="st1" cx="30.8" cy="-36" rx="0.6" ry="2.6"/>
				<ellipse transform="matrix(0.8558 -0.5173 0.5173 0.8558 22.419 8.4392)" class="st1" cx="26.3" cy="-36" rx="2.6" ry="0.6"/>
				<ellipse transform="matrix(0.481 -0.8767 0.8767 0.481 44.8336 5.765)" class="st1" cx="27.3" cy="-35" rx="2.6" ry="0.6"/>
			</g>
			<g id="fleur_13_">
				<ellipse class="st1" cx="12.5" cy="-34.7" rx="0.6" ry="2.6"/>
				<ellipse transform="matrix(0.866 -0.5001 0.5001 0.866 19.4101 2.2224)" class="st1" cx="13.9" cy="-35.1" rx="0.6" ry="2.6"/>
				<ellipse transform="matrix(0.4983 -0.867 0.867 0.4983 38.6108 -5.2156)" class="st1" cx="14.8" cy="-36" rx="0.6" ry="2.6"/>
				<ellipse transform="matrix(0.8558 -0.5173 0.5173 0.8558 20.1149 0.1624)" class="st1" cx="10.3" cy="-36" rx="2.6" ry="0.6"/>
				<ellipse transform="matrix(0.481 -0.8767 0.8767 0.481 36.5393 -8.2624)" class="st1" cx="11.3" cy="-35" rx="2.6" ry="0.6"/>
			</g>
			<g id="fleur_7_">
				<ellipse class="st1" cx="36.5" cy="-18.7" rx="0.6" ry="2.6"/>
				<ellipse transform="matrix(0.866 -0.5001 0.5001 0.866 14.5709 16.3631)" class="st1" cx="37.8" cy="-19" rx="0.6" ry="2.6"/>
				<ellipse transform="matrix(0.4983 -0.867 0.867 0.4983 36.8144 23.5599)" class="st1" cx="38.8" cy="-20" rx="0.6" ry="2.6"/>
				<ellipse transform="matrix(0.8615 -0.5078 0.5078 0.8615 16.85 16.5415)" class="st1" cx="38.7" cy="-22.6" rx="2.6" ry="0.6"/>
				
					<ellipse transform="matrix(0.4906 -0.8714 0.8714 0.4906 39.7234 20.9699)" class="st1" cx="37.8" cy="-23.5" rx="2.6" ry="0.6"/>
				
					<ellipse transform="matrix(0.9999 -1.093165e-02 1.093165e-02 0.9999 0.2635 0.3979)" class="st1" cx="36.5" cy="-23.9" rx="0.6" ry="2.6"/>
				
					<ellipse transform="matrix(0.8605 -0.5095 0.5095 0.8605 16.8849 14.6715)" class="st1" cx="35.2" cy="-23.5" rx="0.6" ry="2.6"/>
				
					<ellipse transform="matrix(0.4888 -0.8724 0.8724 0.4888 37.1295 18.4153)" class="st1" cx="34.3" cy="-22.5" rx="0.6" ry="2.6"/>
				
					<ellipse transform="matrix(0.9999 -1.652858e-02 1.652858e-02 0.9999 0.355 0.5579)" class="st1" cx="33.9" cy="-21.2" rx="2.6" ry="0.6"/>
				
					<ellipse transform="matrix(0.8558 -0.5173 0.5173 0.8558 15.2426 14.8782)" class="st1" cx="34.3" cy="-19.9" rx="2.6" ry="0.6"/>
				<ellipse transform="matrix(0.481 -0.8767 0.8767 0.481 34.9533 21.1122)" class="st1" cx="35.3" cy="-19" rx="2.6" ry="0.6"/>
				<ellipse class="st1" cx="36.5" cy="-21.3" rx="0.8" ry="0.8"/>
			</g>
			<g id="fleur_5_">
				<ellipse class="st1" cx="20.5" cy="-18.7" rx="0.6" ry="2.6"/>
				<ellipse transform="matrix(0.866 -0.5001 0.5001 0.866 12.4293 8.3615)" class="st1" cx="21.8" cy="-19" rx="0.6" ry="2.6"/>
				<ellipse transform="matrix(0.4983 -0.867 0.867 0.4983 28.7475 9.7749)" class="st1" cx="22.8" cy="-20" rx="0.6" ry="2.6"/>
				
					<ellipse transform="matrix(1 -5.509855e-03 5.509855e-03 1 0.1177 0.1271)" class="st1" cx="23.1" cy="-21.3" rx="2.6" ry="0.6"/>
				<ellipse transform="matrix(0.8615 -0.5078 0.5078 0.8615 14.636 8.4166)" class="st1" cx="22.7" cy="-22.6" rx="2.6" ry="0.6"/>
				
					<ellipse transform="matrix(0.4906 -0.8714 0.8714 0.4906 31.5824 7.0272)" class="st1" cx="21.8" cy="-23.5" rx="2.6" ry="0.6"/>
				
					<ellipse transform="matrix(0.9999 -1.093165e-02 1.093165e-02 0.9999 0.2625 0.223)" class="st1" cx="20.5" cy="-23.9" rx="0.6" ry="2.6"/>
				<ellipse transform="matrix(0.8605 -0.5095 0.5095 0.8605 14.655 6.5194)" class="st1" cx="19.2" cy="-23.5" rx="0.6" ry="2.6"/>
				<ellipse transform="matrix(0.4888 -0.8724 0.8724 0.4888 28.96 4.4567)" class="st1" cx="18.3" cy="-22.5" rx="0.6" ry="2.6"/>
				
					<ellipse transform="matrix(0.9999 -1.652853e-02 1.652853e-02 0.9999 0.3529 0.2934)" class="st1" cx="17.9" cy="-21.2" rx="2.6" ry="0.6"/>
				
					<ellipse transform="matrix(0.8558 -0.5173 0.5173 0.8558 12.9385 6.6014)" class="st1" cx="18.3" cy="-19.9" rx="2.6" ry="0.6"/>
				<ellipse transform="matrix(0.481 -0.8767 0.8767 0.481 26.659 7.0847)" class="st1" cx="19.3" cy="-19" rx="2.6" ry="0.6"/>
				<ellipse class="st1" cx="20.5" cy="-21.3" rx="0.8" ry="0.8"/>
			</g>
			<g id="fleur_3_">
				<ellipse class="st1" cx="4.5" cy="-18.7" rx="0.6" ry="2.6"/>
				<ellipse transform="matrix(0.866 -0.5001 0.5001 0.866 10.2878 0.36)" class="st1" cx="5.8" cy="-19" rx="0.6" ry="2.6"/>
				<ellipse transform="matrix(0.4983 -0.867 0.867 0.4983 20.7307 -4.0968)" class="st1" cx="6.8" cy="-20" rx="0.6" ry="2.6"/>
				
					<ellipse transform="matrix(1 -5.509855e-03 5.509855e-03 1 0.1175 3.894489e-02)" class="st1" cx="7.1" cy="-21.3" rx="2.6" ry="0.6"/>
				<ellipse transform="matrix(0.8615 -0.5078 0.5078 0.8615 12.4081 0.3425)" class="st1" cx="6.8" cy="-22.6" rx="2.6" ry="0.6"/>
				
					<ellipse transform="matrix(0.4906 -0.8714 0.8714 0.4906 23.4414 -6.9156)" class="st1" cx="5.8" cy="-23.5" rx="2.6" ry="0.6"/>
				
					<ellipse transform="matrix(0.9999 -1.093165e-02 1.093165e-02 0.9999 0.2615 4.805918e-02)" class="st1" cx="4.5" cy="-23.9" rx="0.6" ry="2.6"/>
				<ellipse transform="matrix(0.8605 -0.5095 0.5095 0.8605 12.425 -1.6327)" class="st1" cx="3.2" cy="-23.5" rx="0.6" ry="2.6"/>
				<ellipse transform="matrix(0.4888 -0.8724 0.8724 0.4888 20.7904 -9.502)" class="st1" cx="2.3" cy="-22.5" rx="0.6" ry="2.6"/>
				
					<ellipse transform="matrix(0.8558 -0.5173 0.5173 0.8558 10.6343 -1.6753)" class="st1" cx="2.3" cy="-19.9" rx="2.6" ry="0.6"/>
				<ellipse transform="matrix(0.481 -0.8767 0.8767 0.481 18.3648 -6.9427)" class="st1" cx="3.3" cy="-19" rx="2.6" ry="0.6"/>
				<ellipse class="st1" cx="4.5" cy="-21.3" rx="0.8" ry="0.8"/>
			</g>
			<g id="fleur_2_">
				<ellipse class="st1" cx="28.5" cy="-2.6" rx="0.6" ry="2.6"/>
				<ellipse transform="matrix(0.866 -0.5001 0.5001 0.866 5.4986 14.514)" class="st1" cx="29.8" cy="-3" rx="0.6" ry="2.6"/>
				<ellipse transform="matrix(0.4983 -0.867 0.867 0.4983 18.8842 24.7654)" class="st1" cx="30.8" cy="-3.9" rx="0.6" ry="2.6"/>
				
					<ellipse transform="matrix(1 -5.509855e-03 5.509855e-03 1 2.967165e-02 0.1714)" class="st1" cx="31.1" cy="-5.3" rx="2.6" ry="0.6"/>
				<ellipse transform="matrix(0.8615 -0.5078 0.5078 0.8615 7.618 14.7036)" class="st1" cx="30.8" cy="-6.6" rx="2.6" ry="0.6"/>
				
					<ellipse transform="matrix(0.4906 -0.8714 0.8714 0.4906 21.7101 22.1781)" class="st1" cx="29.8" cy="-7.5" rx="2.6" ry="0.6"/>
				
					<ellipse transform="matrix(0.9999 -1.093165e-02 1.093165e-02 0.9999 8.698244e-02 0.3114)" class="st1" cx="28.5" cy="-7.8" rx="0.6" ry="2.6"/>
				<ellipse transform="matrix(0.8605 -0.5095 0.5095 0.8605 7.6178 12.836)" class="st1" cx="27.2" cy="-7.5" rx="0.6" ry="2.6"/>
				
					<ellipse transform="matrix(0.4888 -0.8724 0.8724 0.4888 19.0861 19.6442)" class="st1" cx="26.3" cy="-6.5" rx="0.6" ry="2.6"/>
				
					<ellipse transform="matrix(0.9999 -1.652853e-02 1.652853e-02 0.9999 8.947889e-02 0.4278)" class="st1" cx="25.9" cy="-5.2" rx="2.6" ry="0.6"/>
				<ellipse transform="matrix(0.8558 -0.5173 0.5173 0.8558 5.8138 13.0549)" class="st1" cx="26.3" cy="-3.9" rx="2.6" ry="0.6"/>
				<ellipse transform="matrix(0.481 -0.8767 0.8767 0.481 16.7787 22.4319)" class="st1" cx="27.3" cy="-3" rx="2.6" ry="0.6"/>
				<ellipse class="st1" cx="28.5" cy="-5.2" rx="0.8" ry="0.8"/>
			</g>
			<g id="fleur_1_">
				<ellipse class="st1" cx="12.5" cy="-2.6" rx="0.6" ry="2.6"/>
				<ellipse transform="matrix(0.866 -0.5001 0.5001 0.866 3.357 6.5124)" class="st1" cx="13.8" cy="-3" rx="0.6" ry="2.6"/>
				<ellipse transform="matrix(0.4983 -0.867 0.867 0.4983 10.8674 10.8937)" class="st1" cx="14.8" cy="-3.9" rx="0.6" ry="2.6"/>
				
					<ellipse transform="matrix(1 -5.509855e-03 5.509855e-03 1 2.942922e-02 8.326839e-02)" class="st1" cx="15.1" cy="-5.3" rx="2.6" ry="0.6"/>
				<ellipse transform="matrix(0.8615 -0.5078 0.5078 0.8615 5.404 6.5787)" class="st1" cx="14.8" cy="-6.6" rx="2.6" ry="0.6"/>
				<ellipse transform="matrix(0.4906 -0.8714 0.8714 0.4906 13.5691 8.2353)" class="st1" cx="13.8" cy="-7.5" rx="2.6" ry="0.6"/>
				
					<ellipse transform="matrix(0.9999 -1.093165e-02 1.093165e-02 0.9999 8.602754e-02 0.1365)" class="st1" cx="12.5" cy="-7.8" rx="0.6" ry="2.6"/>
				<ellipse transform="matrix(0.8605 -0.5095 0.5095 0.8605 5.3879 4.6838)" class="st1" cx="11.2" cy="-7.5" rx="0.6" ry="2.6"/>
				<ellipse transform="matrix(0.4888 -0.8724 0.8724 0.4888 10.9165 5.6856)" class="st1" cx="10.3" cy="-6.5" rx="0.6" ry="2.6"/>
				
					<ellipse transform="matrix(0.9999 -1.652852e-02 1.652852e-02 0.9999 8.729581e-02 0.1634)" class="st1" cx="9.9" cy="-5.2" rx="2.6" ry="0.6"/>
				<ellipse transform="matrix(0.8558 -0.5173 0.5173 0.8558 3.5097 4.7782)" class="st1" cx="10.3" cy="-3.9" rx="2.6" ry="0.6"/>
				<ellipse transform="matrix(0.481 -0.8767 0.8767 0.481 8.4844 8.4045)" class="st1" cx="11.3" cy="-3" rx="2.6" ry="0.6"/>
				<ellipse class="st1" cx="12.5" cy="-5.2" rx="0.8" ry="0.8"/>
			</g>
		</g>
	</g>
</pattern>
<pattern  y="512" width="32" height="32.1" patternUnits="userSpaceOnUse" id="SVGID_8_" viewBox="4.5 -36.5 32 32.1" style="overflow:visible;">
	<g>
		<rect x="4.5" y="-36.5" class="st0" width="32" height="32.1"/>
		<g>
			<rect x="4.5" y="-36.5" class="st0" width="32" height="32.1"/>
			<g id="fleur_21_">
				<ellipse class="st1" cx="28.5" cy="-34.7" rx="0.6" ry="2.6"/>
				<ellipse transform="matrix(0.866 -0.5001 0.5001 0.866 21.5517 10.224)" class="st1" cx="29.9" cy="-35.1" rx="0.6" ry="2.6"/>
				<ellipse transform="matrix(0.4983 -0.867 0.867 0.4983 46.6275 8.6561)" class="st1" cx="30.8" cy="-36" rx="0.6" ry="2.6"/>
				<ellipse transform="matrix(0.8558 -0.5173 0.5173 0.8558 22.419 8.4392)" class="st1" cx="26.3" cy="-36" rx="2.6" ry="0.6"/>
				<ellipse transform="matrix(0.481 -0.8767 0.8767 0.481 44.8336 5.765)" class="st1" cx="27.3" cy="-35" rx="2.6" ry="0.6"/>
			</g>
			<g id="fleur_20_">
				<ellipse class="st1" cx="12.5" cy="-34.7" rx="0.6" ry="2.6"/>
				<ellipse transform="matrix(0.866 -0.5001 0.5001 0.866 19.4101 2.2224)" class="st1" cx="13.9" cy="-35.1" rx="0.6" ry="2.6"/>
				<ellipse transform="matrix(0.4983 -0.867 0.867 0.4983 38.6108 -5.2156)" class="st1" cx="14.8" cy="-36" rx="0.6" ry="2.6"/>
				<ellipse transform="matrix(0.8558 -0.5173 0.5173 0.8558 20.1149 0.1624)" class="st1" cx="10.3" cy="-36" rx="2.6" ry="0.6"/>
				<ellipse transform="matrix(0.481 -0.8767 0.8767 0.481 36.5393 -8.2624)" class="st1" cx="11.3" cy="-35" rx="2.6" ry="0.6"/>
			</g>
			<g id="fleur_19_">
				<ellipse class="st1" cx="36.5" cy="-18.7" rx="0.6" ry="2.6"/>
				<ellipse transform="matrix(0.866 -0.5001 0.5001 0.866 14.5709 16.3631)" class="st1" cx="37.8" cy="-19" rx="0.6" ry="2.6"/>
				<ellipse transform="matrix(0.4983 -0.867 0.867 0.4983 36.8144 23.5599)" class="st1" cx="38.8" cy="-20" rx="0.6" ry="2.6"/>
				<ellipse transform="matrix(0.8615 -0.5078 0.5078 0.8615 16.85 16.5415)" class="st1" cx="38.7" cy="-22.6" rx="2.6" ry="0.6"/>
				
					<ellipse transform="matrix(0.4906 -0.8714 0.8714 0.4906 39.7234 20.9699)" class="st1" cx="37.8" cy="-23.5" rx="2.6" ry="0.6"/>
				
					<ellipse transform="matrix(0.9999 -1.093165e-02 1.093165e-02 0.9999 0.2635 0.3979)" class="st1" cx="36.5" cy="-23.9" rx="0.6" ry="2.6"/>
				
					<ellipse transform="matrix(0.8605 -0.5095 0.5095 0.8605 16.8849 14.6715)" class="st1" cx="35.2" cy="-23.5" rx="0.6" ry="2.6"/>
				
					<ellipse transform="matrix(0.4888 -0.8724 0.8724 0.4888 37.1295 18.4153)" class="st1" cx="34.3" cy="-22.5" rx="0.6" ry="2.6"/>
				
					<ellipse transform="matrix(0.9999 -1.652858e-02 1.652858e-02 0.9999 0.355 0.5579)" class="st1" cx="33.9" cy="-21.2" rx="2.6" ry="0.6"/>
				
					<ellipse transform="matrix(0.8558 -0.5173 0.5173 0.8558 15.2426 14.8782)" class="st1" cx="34.3" cy="-19.9" rx="2.6" ry="0.6"/>
				<ellipse transform="matrix(0.481 -0.8767 0.8767 0.481 34.9533 21.1122)" class="st1" cx="35.3" cy="-19" rx="2.6" ry="0.6"/>
				<ellipse class="st1" cx="36.5" cy="-21.3" rx="0.8" ry="0.8"/>
			</g>
			<g id="fleur_18_">
				<ellipse class="st1" cx="20.5" cy="-18.7" rx="0.6" ry="2.6"/>
				<ellipse transform="matrix(0.866 -0.5001 0.5001 0.866 12.4293 8.3615)" class="st1" cx="21.8" cy="-19" rx="0.6" ry="2.6"/>
				<ellipse transform="matrix(0.4983 -0.867 0.867 0.4983 28.7475 9.7749)" class="st1" cx="22.8" cy="-20" rx="0.6" ry="2.6"/>
				
					<ellipse transform="matrix(1 -5.509855e-03 5.509855e-03 1 0.1177 0.1271)" class="st1" cx="23.1" cy="-21.3" rx="2.6" ry="0.6"/>
				<ellipse transform="matrix(0.8615 -0.5078 0.5078 0.8615 14.636 8.4166)" class="st1" cx="22.7" cy="-22.6" rx="2.6" ry="0.6"/>
				
					<ellipse transform="matrix(0.4906 -0.8714 0.8714 0.4906 31.5824 7.0272)" class="st1" cx="21.8" cy="-23.5" rx="2.6" ry="0.6"/>
				
					<ellipse transform="matrix(0.9999 -1.093165e-02 1.093165e-02 0.9999 0.2625 0.223)" class="st1" cx="20.5" cy="-23.9" rx="0.6" ry="2.6"/>
				<ellipse transform="matrix(0.8605 -0.5095 0.5095 0.8605 14.655 6.5194)" class="st1" cx="19.2" cy="-23.5" rx="0.6" ry="2.6"/>
				<ellipse transform="matrix(0.4888 -0.8724 0.8724 0.4888 28.96 4.4567)" class="st1" cx="18.3" cy="-22.5" rx="0.6" ry="2.6"/>
				
					<ellipse transform="matrix(0.9999 -1.652853e-02 1.652853e-02 0.9999 0.3529 0.2934)" class="st1" cx="17.9" cy="-21.2" rx="2.6" ry="0.6"/>
				
					<ellipse transform="matrix(0.8558 -0.5173 0.5173 0.8558 12.9385 6.6014)" class="st1" cx="18.3" cy="-19.9" rx="2.6" ry="0.6"/>
				<ellipse transform="matrix(0.481 -0.8767 0.8767 0.481 26.659 7.0847)" class="st1" cx="19.3" cy="-19" rx="2.6" ry="0.6"/>
				<ellipse class="st1" cx="20.5" cy="-21.3" rx="0.8" ry="0.8"/>
			</g>
			<g id="fleur_17_">
				<ellipse class="st1" cx="4.5" cy="-18.7" rx="0.6" ry="2.6"/>
				<ellipse transform="matrix(0.866 -0.5001 0.5001 0.866 10.2878 0.36)" class="st1" cx="5.8" cy="-19" rx="0.6" ry="2.6"/>
				<ellipse transform="matrix(0.4983 -0.867 0.867 0.4983 20.7307 -4.0968)" class="st1" cx="6.8" cy="-20" rx="0.6" ry="2.6"/>
				
					<ellipse transform="matrix(1 -5.509855e-03 5.509855e-03 1 0.1175 3.894489e-02)" class="st1" cx="7.1" cy="-21.3" rx="2.6" ry="0.6"/>
				<ellipse transform="matrix(0.8615 -0.5078 0.5078 0.8615 12.4081 0.3425)" class="st1" cx="6.8" cy="-22.6" rx="2.6" ry="0.6"/>
				
					<ellipse transform="matrix(0.4906 -0.8714 0.8714 0.4906 23.4414 -6.9156)" class="st1" cx="5.8" cy="-23.5" rx="2.6" ry="0.6"/>
				
					<ellipse transform="matrix(0.9999 -1.093165e-02 1.093165e-02 0.9999 0.2615 4.805918e-02)" class="st1" cx="4.5" cy="-23.9" rx="0.6" ry="2.6"/>
				<ellipse transform="matrix(0.8605 -0.5095 0.5095 0.8605 12.425 -1.6327)" class="st1" cx="3.2" cy="-23.5" rx="0.6" ry="2.6"/>
				<ellipse transform="matrix(0.4888 -0.8724 0.8724 0.4888 20.7904 -9.502)" class="st1" cx="2.3" cy="-22.5" rx="0.6" ry="2.6"/>
				
					<ellipse transform="matrix(0.8558 -0.5173 0.5173 0.8558 10.6343 -1.6753)" class="st1" cx="2.3" cy="-19.9" rx="2.6" ry="0.6"/>
				<ellipse transform="matrix(0.481 -0.8767 0.8767 0.481 18.3648 -6.9427)" class="st1" cx="3.3" cy="-19" rx="2.6" ry="0.6"/>
				<ellipse class="st1" cx="4.5" cy="-21.3" rx="0.8" ry="0.8"/>
			</g>
			<g id="fleur_16_">
				<ellipse class="st1" cx="28.5" cy="-2.6" rx="0.6" ry="2.6"/>
				<ellipse transform="matrix(0.866 -0.5001 0.5001 0.866 5.4986 14.514)" class="st1" cx="29.8" cy="-3" rx="0.6" ry="2.6"/>
				<ellipse transform="matrix(0.4983 -0.867 0.867 0.4983 18.8842 24.7654)" class="st1" cx="30.8" cy="-3.9" rx="0.6" ry="2.6"/>
				
					<ellipse transform="matrix(1 -5.509855e-03 5.509855e-03 1 2.967165e-02 0.1714)" class="st1" cx="31.1" cy="-5.3" rx="2.6" ry="0.6"/>
				<ellipse transform="matrix(0.8615 -0.5078 0.5078 0.8615 7.618 14.7036)" class="st1" cx="30.8" cy="-6.6" rx="2.6" ry="0.6"/>
				
					<ellipse transform="matrix(0.4906 -0.8714 0.8714 0.4906 21.7101 22.1781)" class="st1" cx="29.8" cy="-7.5" rx="2.6" ry="0.6"/>
				
					<ellipse transform="matrix(0.9999 -1.093165e-02 1.093165e-02 0.9999 8.698244e-02 0.3114)" class="st1" cx="28.5" cy="-7.8" rx="0.6" ry="2.6"/>
				<ellipse transform="matrix(0.8605 -0.5095 0.5095 0.8605 7.6178 12.836)" class="st1" cx="27.2" cy="-7.5" rx="0.6" ry="2.6"/>
				
					<ellipse transform="matrix(0.4888 -0.8724 0.8724 0.4888 19.0861 19.6442)" class="st1" cx="26.3" cy="-6.5" rx="0.6" ry="2.6"/>
				
					<ellipse transform="matrix(0.9999 -1.652853e-02 1.652853e-02 0.9999 8.947889e-02 0.4278)" class="st1" cx="25.9" cy="-5.2" rx="2.6" ry="0.6"/>
				<ellipse transform="matrix(0.8558 -0.5173 0.5173 0.8558 5.8138 13.0549)" class="st1" cx="26.3" cy="-3.9" rx="2.6" ry="0.6"/>
				<ellipse transform="matrix(0.481 -0.8767 0.8767 0.481 16.7787 22.4319)" class="st1" cx="27.3" cy="-3" rx="2.6" ry="0.6"/>
				<ellipse class="st1" cx="28.5" cy="-5.2" rx="0.8" ry="0.8"/>
			</g>
			<g id="fleur_15_">
				<ellipse class="st1" cx="12.5" cy="-2.6" rx="0.6" ry="2.6"/>
				<ellipse transform="matrix(0.866 -0.5001 0.5001 0.866 3.357 6.5124)" class="st1" cx="13.8" cy="-3" rx="0.6" ry="2.6"/>
				<ellipse transform="matrix(0.4983 -0.867 0.867 0.4983 10.8674 10.8937)" class="st1" cx="14.8" cy="-3.9" rx="0.6" ry="2.6"/>
				
					<ellipse transform="matrix(1 -5.509855e-03 5.509855e-03 1 2.942922e-02 8.326839e-02)" class="st1" cx="15.1" cy="-5.3" rx="2.6" ry="0.6"/>
				<ellipse transform="matrix(0.8615 -0.5078 0.5078 0.8615 5.404 6.5787)" class="st1" cx="14.8" cy="-6.6" rx="2.6" ry="0.6"/>
				<ellipse transform="matrix(0.4906 -0.8714 0.8714 0.4906 13.5691 8.2353)" class="st1" cx="13.8" cy="-7.5" rx="2.6" ry="0.6"/>
				
					<ellipse transform="matrix(0.9999 -1.093165e-02 1.093165e-02 0.9999 8.602754e-02 0.1365)" class="st1" cx="12.5" cy="-7.8" rx="0.6" ry="2.6"/>
				<ellipse transform="matrix(0.8605 -0.5095 0.5095 0.8605 5.3879 4.6838)" class="st1" cx="11.2" cy="-7.5" rx="0.6" ry="2.6"/>
				<ellipse transform="matrix(0.4888 -0.8724 0.8724 0.4888 10.9165 5.6856)" class="st1" cx="10.3" cy="-6.5" rx="0.6" ry="2.6"/>
				
					<ellipse transform="matrix(0.9999 -1.652852e-02 1.652852e-02 0.9999 8.729581e-02 0.1634)" class="st1" cx="9.9" cy="-5.2" rx="2.6" ry="0.6"/>
				<ellipse transform="matrix(0.8558 -0.5173 0.5173 0.8558 3.5097 4.7782)" class="st1" cx="10.3" cy="-3.9" rx="2.6" ry="0.6"/>
				<ellipse transform="matrix(0.481 -0.8767 0.8767 0.481 8.4844 8.4045)" class="st1" cx="11.3" cy="-3" rx="2.6" ry="0.6"/>
				<ellipse class="st1" cx="12.5" cy="-5.2" rx="0.8" ry="0.8"/>
			</g>
		</g>
	</g>
</pattern>
<g id="Layer_1">
	<g id="Layer_3">
		<circle class="st2" cx="256" cy="256" r="256"/>
	</g>
	<g>
		<path class="st3" d="M299.5,132.7h-38.6V92.2h38.6c4.4,0,8,3.6,8,8v24.4C307.5,129.1,303.9,132.7,299.5,132.7z"/>
		<path class="st4" d="M260.9,165.5c-2.8,0-5-2.2-5-5V92.2c0-2.8,2.2-5,5-5c2.8,0,5,2.2,5,5v68.3
			C265.9,163.2,263.7,165.5,260.9,165.5z"/>
		<path class="st5" d="M122.6,260.7v164.1h41.9h192.7h41.9V260.7"/>
		<path class="st6" d="M357.2,380.5h13.5c6,0,10.9-4.9,10.9-10.9v-59.3c0-6-4.9-10.9-10.9-10.9h-13.5"/>
		<path class="st7" d="M370.8,385.5h-25.1c-2.8,0-5-2.2-5-5c0-2.8,2.2-5,5-5h25.1c3.3,0,5.9-2.7,5.9-5.9v-59.3
			c0-3.3-2.7-5.9-5.9-5.9h-25.1c-2.8,0-5-2.2-5-5s2.2-5,5-5h25.1c8.8,0,16,7.2,16,16v59.3C386.7,378.4,379.6,385.5,370.8,385.5z"/>
		<path class="st6" d="M164.6,299.4H151c-6,0-10.9,4.9-10.9,10.9v59.3c0,6,4.9,10.9,10.9,10.9h13.5"/>
		<path class="st7" d="M140.1,374.6c-2.8,0-5-2.2-5-5v-59.3c0-8.8,7.2-16,16-16h33.1c2.8,0,5,2.2,5,5s-2.2,5-5,5H151
			c-3.3,0-5.9,2.7-5.9,5.9v59.3C145.1,372.3,142.9,374.6,140.1,374.6L140.1,374.6z"/>
		<path class="st7" d="M164.6,269.2h-57.4l34-93.8h119.7h119.7l34,93.8h-57.4"/>
		<path class="st8" d="M357.2,269.2v155.7H164.6V269.2l89.6-101.1l6.7-7.6l6.7,7.6L357.2,269.2z"/>
		<path class="st5" d="M357.2,269.2v39.7c-4.6,0-9.2-1.9-12.5-5.6l-83.8-94.5l-83.8,94.5c-3.3,3.7-7.9,5.6-12.5,5.6v-39.7
			l89.6-101.1c2.1-0.9,4.4-1.4,6.7-1.4c2.3,0,4.6,0.5,6.7,1.4L357.2,269.2z"/>
		<path class="st9" d="M357.2,285.9c-4.6,0-9.2-1.9-12.6-5.6l-83.8-94.5l-83.8,94.5c-6.1,6.9-16.7,7.6-23.7,1.4
			c-6.9-6.1-7.6-16.7-1.4-23.7l96.3-108.7c3.2-3.6,7.7-5.6,12.5-5.6c4.8,0,9.4,2.1,12.5,5.6l96.3,108.7c6.1,6.9,5.5,17.5-1.4,23.7
			C365.2,284.5,361.2,285.9,357.2,285.9L357.2,285.9z"/>
		<circle class="st6" cx="260.9" cy="244" r="24.2"/>
		<path class="st9" d="M260.9,273.3c-16.1,0-29.3-13.1-29.3-29.3s13.1-29.3,29.3-29.3c16.1,0,29.3,13.1,29.3,29.3
			S277,273.3,260.9,273.3z M260.9,224.8c-10.6,0-19.2,8.6-19.2,19.2s8.6,19.2,19.2,19.2c10.6,0,19.2-8.6,19.2-19.2
			S271.5,224.8,260.9,224.8L260.9,224.8z"/>
		<path class="st6" d="M236.4,380.5h-27c-6,0-10.9-4.9-10.9-10.9v-59.3c0-6,4.9-10.9,10.9-10.9h27c6,0,10.9,4.9,10.9,10.9v59.3
			C247.3,375.6,242.4,380.5,236.4,380.5z"/>
		<path class="st6" d="M312.4,380.5h-27c-6,0-10.9-4.9-10.9-10.9v-59.3c0-6,4.9-10.9,10.9-10.9h27c6,0,10.9,4.9,10.9,10.9v59.3
			C323.4,375.6,318.5,380.5,312.4,380.5z"/>
		<g>
			<path class="st9" d="M312.4,294.3h-27c-8.8,0-16,7.2-16,16v17.6c0,0,0,0,0,0.1s0,0,0,0.1v41.5c0,8.8,7.2,16,16,16h27
				c8.8,0,16-7.2,16-16v-59.3C328.4,301.5,321.2,294.3,312.4,294.3L312.4,294.3z M285.4,304.4h27c3.3,0,5.9,2.7,5.9,5.9v12.6h-38.9
				v-12.6C279.5,307,282.1,304.4,285.4,304.4z M312.4,375.5h-27c-3.3,0-5.9-2.7-5.9-5.9V333h38.9v36.6
				C318.3,372.8,315.7,375.5,312.4,375.5L312.4,375.5z"/>
			<path class="st9" d="M252.4,327.9v-17.6c0-8.8-7.2-16-16-16h-27c-8.8,0-16,7.2-16,16v59.3c0,8.8,7.2,16,16,16h27
				c8.8,0,16-7.2,16-16V328C252.4,328,252.4,328,252.4,327.9C252.4,327.9,252.4,327.9,252.4,327.9z M209.4,304.4h27
				c3.3,0,5.9,2.7,5.9,5.9v12.6h-38.9v-12.6C203.4,307,206.1,304.4,209.4,304.4L209.4,304.4z M236.4,375.5h-27
				c-3.3,0-5.9-2.7-5.9-5.9V333h38.9v36.6C242.3,372.8,239.7,375.5,236.4,375.5L236.4,375.5z"/>
		</g>
		<path class="st3" d="M231.7,395.3c0,16.3-13.2,29.5-29.5,29.5h-75.2c-16.3,0-29.5-13.2-29.5-29.5c0-16.3,13.2-29.5,29.5-29.5
			c1.4,0,2.7,0.1,4,0.3c6.8-11.5,19.3-19.2,33.6-19.2c14.3,0,26.8,7.7,33.6,19.2c1.3-0.2,2.6-0.3,4-0.3
			C218.5,365.8,231.7,379,231.7,395.3z"/>
		<path class="st10" d="M151,380.5c0,0-25.8,13.4-7.4,44.3h-16.6c-16.3,0-29.5-13.2-29.5-29.5c0-16.3,13.2-29.5,29.5-29.5
			c1.4,0,2.7,0.1,4,0.3c6.8-11.5,19.3-19.2,33.6-19.2C148.2,346.8,142.7,363.6,151,380.5L151,380.5z"/>
		<path class="st4" d="M266.3,249.1h-5.5c-2.8,0-5-2.2-5-5v-9.6c0-2.8,2.2-5,5-5s5,2.2,5,5v4.6h0.4c2.8,0,5,2.2,5,5
			C271.4,246.8,269.1,249.1,266.3,249.1z"/>
	</g>
	<g class="st11">
		<path class="st12" d="M310.6,408.7h82.2V185.5c0-4.4-3.6-7.9-7.9-7.9h-74.2L310.6,408.7z"/>
		<path class="st13" d="M310.6,378.7h56.8c4.4,0,7.9-3.6,7.9-7.9v-51.8c0-4.4-3.6-7.9-7.9-7.9h-56.8V378.7z"/>
		<path class="st13" d="M310.6,275.3h56.8c4.4,0,7.9-3.6,7.9-7.9v-51.8c0-4.4-3.6-7.9-7.9-7.9h-56.8V275.3z"/>
		<g class="st14">
			<path class="st15" d="M375.3,247.4h-41.6c-3.3,0-6-2.7-6-6s2.7-6,6-6h41.6c3.3,0,6,2.7,6,6S378.6,247.4,375.3,247.4z"/>
		</g>
		<g class="st14">
			<path class="st15" d="M375.3,350.8h-41.6c-3.3,0-6-2.7-6-6s2.7-6,6-6h41.6c3.3,0,6,2.7,6,6C381.3,348.1,378.6,350.8,375.3,350.8z
				"/>
		</g>
		<path class="st16" d="M392.7,177.6h-23.8c4.4,0,7.9,3.6,7.9,7.9v223.2h23.8V185.5C400.7,181.2,397.1,177.6,392.7,177.6
			L392.7,177.6z"/>
		<path class="st12" d="M201.5,408.7h-90.1V185.5c0-4.4,3.6-7.9,7.9-7.9h82.2V408.7z"/>
		<path class="st16" d="M154.6,177.6h23.8v231.1h-23.8L154.6,177.6z"/>
		<path class="st13" d="M201.5,378.7h-56.8c-4.4,0-7.9-3.6-7.9-7.9v-51.8c0-4.4,3.6-7.9,7.9-7.9h56.8V378.7z"/>
		<path class="st17" d="M154.6,311h46.9v67.7h-46.9V311z"/>
		<path class="st13" d="M201.5,275.3h-56.8c-4.4,0-7.9-3.6-7.9-7.9v-51.8c0-4.4,3.6-7.9,7.9-7.9h56.8V275.3z"/>
		<path class="st17" d="M154.6,207.6h46.9v67.7h-46.9V207.6z"/>
		<path class="st12" d="M325.7,408.7H178.4V111.2c0-4.4,3.6-7.9,7.9-7.9h131.4c4.4,0,7.9,3.6,7.9,7.9L325.7,408.7L325.7,408.7z"/>
		<path class="st16" d="M325.7,103.3h-23.8c4.4,0,7.9,3.6,7.9,7.9v297.5h23.8V111.2C333.7,106.9,330.1,103.3,325.7,103.3
			L325.7,103.3z"/>
		<g class="st14">
			<path class="st18" d="M209.5,254h24.1c4.4,0,7.9,3.6,7.9,7.9V286c0,4.4-3.6,7.9-7.9,7.9h-24.1c-4.4,0-7.9-3.6-7.9-7.9v-24.1
				C201.5,257.5,205.1,254,209.5,254z"/>
			<path class="st18" d="M278.5,254h24.1c4.4,0,7.9,3.6,7.9,7.9V286c0,4.4-3.6,7.9-7.9,7.9h-24.1c-4.4,0-7.9-3.6-7.9-7.9v-24.1
				C270.6,257.5,274.2,254,278.5,254z"/>
			<path class="st18" d="M209.5,192.7h24.1c4.4,0,7.9,3.6,7.9,7.9v24.1c0,4.4-3.6,7.9-7.9,7.9h-24.1c-4.4,0-7.9-3.6-7.9-7.9v-24.1
				C201.5,196.3,205.1,192.7,209.5,192.7z"/>
			<path class="st18" d="M278.5,192.7h24.1c4.4,0,7.9,3.6,7.9,7.9v24.1c0,4.4-3.6,7.9-7.9,7.9h-24.1c-4.4,0-7.9-3.6-7.9-7.9v-24.1
				C270.6,196.3,274.2,192.7,278.5,192.7z"/>
			<path class="st18" d="M209.5,131.5h24.1c4.4,0,7.9,3.6,7.9,7.9v24.1c0,4.4-3.6,7.9-7.9,7.9h-24.1c-4.4,0-7.9-3.6-7.9-7.9v-24.1
				C201.5,135,205.1,131.5,209.5,131.5z"/>
			<path class="st18" d="M278.5,131.5h24.1c4.4,0,7.9,3.6,7.9,7.9v24.1c0,4.4-3.6,7.9-7.9,7.9h-24.1c-4.4,0-7.9-3.6-7.9-7.9v-24.1
				C270.6,135,274.2,131.5,278.5,131.5z"/>
		</g>
		<g class="st14">
			<path class="st15" d="M178.4,247.4h-41.6c-3.3,0-6-2.7-6-6s2.7-6,6-6h41.6c3.3,0,6,2.7,6,6S181.7,247.4,178.4,247.4z"/>
		</g>
		<g class="st14">
			<path class="st15" d="M178.4,350.8h-41.6c-3.3,0-6-2.7-6-6s2.7-6,6-6h41.6c3.3,0,6,2.7,6,6C184.4,348.1,181.7,350.8,178.4,350.8z
				"/>
		</g>
		<path class="st13" d="M286.8,344.8H262l-6-6l-6,6h-24.8v63.9h61.5V344.8z"/>
		<path class="st17" d="M286.8,344.8H262l-6-6l-6,6h-24.8v14.3h61.5V344.8z"/>
		<path class="st16" d="M250.1,408.7H262v-63.9l-6-6l-6,6V408.7z"/>
		<path class="st12" d="M250.1,359.1H262v-14.3l-6-6l-6,6V359.1z"/>
		<path class="st19" d="M286.3,322.1h-68.5c-4.4,0-7.9,3.6-7.9,7.9v6.9c0,4.4,3.6,7.9,7.9,7.9h68.5c4.4,0,7.9-3.6,7.9-7.9V330
			C294.3,325.7,290.7,322.1,286.3,322.1z"/>
		<path class="st20" d="M294.3,322.1h-15.9c4.4,0,7.9,3.6,7.9,7.9v6.9c0,4.4-3.6,7.9-7.9,7.9h15.9c4.4,0,7.9-3.6,7.9-7.9V330
			C302.2,325.7,298.7,322.1,294.3,322.1z"/>
		<g class="st14">
			<g>
				<path class="st21" d="M400.6,408.7c-3.3,0-6-2.7-6-6v-45.5c0-3.3,2.7-6,6-6s6,2.7,6,6v45.5C406.5,406,403.9,408.7,400.6,408.7z"
					/>
			</g>
			<path class="st3" d="M404.2,295.3l13.5,45.9c0.8,1.6,0.3,3.5-1,4.7l-13.5,18.4c-1.5,1.3-3.7,1.3-5.2,0l-21.4-18.4
				c-1.4-1.2-1.8-3.1-1-4.7l21.4-45.9C398.4,292.3,402.7,292.3,404.2,295.3z"/>
			<path class="st10" d="M425.6,341.2l-21.4-45.9c-1.4-3.1-5.8-3.1-7.2,0l-4.3,9.3l17.1,36.6c0.8,1.6,0.3,3.5-1,4.7l-16.1,13.8
				l5.4,4.6c1.5,1.3,3.7,1.3,5.2,0l21.4-18.4C426,344.7,426.4,342.8,425.6,341.2L425.6,341.2z"/>
		</g>
		<g class="st14">
			<g>
				<path class="st21" d="M111.4,408.7c-3.3,0-6-2.7-6-6v-45.5c0-3.3,2.7-6,6-6c3.3,0,6,2.7,6,6v45.5
					C117.4,406,114.7,408.7,111.4,408.7z"/>
			</g>
			<path class="st3" d="M115,295.3l13.5,45.9c0.8,1.6,0.3,3.5-1,4.7L114,364.3c-1.5,1.3-3.7,1.3-5.2,0l-21.4-18.4
				c-1.4-1.2-1.8-3.1-1-4.7l21.4-45.9C109.3,292.3,113.6,292.3,115,295.3z"/>
			<path class="st10" d="M136.5,341.2L115,295.3c-1.4-3.1-5.8-3.1-7.2,0l-4.3,9.3l17.1,36.6c0.8,1.6,0.3,3.5-1,4.7l-16.1,13.8
				l5.4,4.6c1.5,1.3,3.7,1.3,5.2,0l21.4-18.4C136.8,344.7,137.2,342.8,136.5,341.2z"/>
		</g>
	</g>
	<g id="Layer_2">
	</g>
	<g class="st11">
		<path class="st22" d="M221.5,415.8c-0.6-0.3,0.8-7.3,1-8.4c-4.7-11.8-7.5-33-7.5-33s9.5-0.3,17.3,0.5c3.7,12.6,0.7,27.4-0.4,31.9
			c1.6,0.8,6.9,3.2,6.9,4c0,0.9-0.6,2.6-4.5,0c0,0,1.6,7.2-0.5,7c-2.1-0.2-2.4-2.7-2.4-2.7s-1,3.4-1.7,3c-0.8-0.4-2.3-2.4-2.3-2.4
			s-1.4,2.6-2.4,2.1s-1.1-3.2-1.1-3.2S222.3,416.2,221.5,415.8z"/>
		<g class="st14">
			<path id="arrière_bras_d_2_" class="st23" d="M256.7,377.4c0,0,5.8,9.8,18.1,10c25.6-33.2,36.3-61.3,36.3-61.3
				s10.6-34.4-6.6-40.5c0,0-8.1-4.5-23.3,28.2C281.1,313.8,257.8,359.6,256.7,377.4z"/>
			<path class="st24" d="M391.9,385.5c5.5-35.4,9.4-71.8,9.9-80.4V305c0.9-18.8-4.2-22.6-7.3-25.8c-0.5-0.5-1.4-1-2.6-1.5
				c0,0,0,0-0.1,0c-4.9-1.9-15-3.1-27.6-3.1c-1,0-2,0-3.1,0c-2.4,0-4.9,0.1-7.5,0.3c-6.1,0.3-12.6,1-19.1,2
				c-1.8,0.2-3.6,0.6-5.4,0.9c-0.6,0.1-1.1,0.2-1.7,0.3c-5.5,1.1-11,2.5-16.2,4.2c-3.8,1.2-13.6,4.4-14.5,5.9
				c-1,1.4-2.4,11.4-2.6,12.2c-3.4,11.3-3.1,33.5-3.1,33.5s-5.2,9.2-5.3,11c-0.1,2-0.3,4.7,0.1,7.9c0,0.4,0.1,0.8,0.1,1.2
				c0.3,1.8,0.7,3.6,1.4,5.5l0,0c0.5,1.4,1.1,2.8,2,4.1c0.4,0.7,0.8,1.3,1.3,2c1.1,1.6,2.5,3.1,4.1,4.7c0,0,0,1.1,0,3.3
				c0,2,0,4.9,0,8.3c0,2.3-3,35-4.6,54C329.2,429.2,364.2,411.2,391.9,385.5z"/>
			<path class="st25" d="M364.2,274.6c-0.3,4.5-1.5,8.3-2.2,11.1c-3.9,14.8-18.6,23.8-32.8,20.1c-11-2.9-16.8-12.5-17.8-23.5
				C342.5,270.4,353.7,275,364.2,274.6z"/>
			<path id="cou_2_" class="st25" d="M355.4,295.2l-24,2.3c-0.1,0-0.3-0.1-0.3-0.2l-4.6-47c0-0.1,0.1-0.3,0.2-0.3l24-2.3
				c0.1,0,0.3,0.1,0.3,0.2l4.6,47C355.7,295.1,355.5,295.2,355.4,295.2z"/>
			<g>
				<path class="st23" d="M281.8,218c9.9,65.1,48.9,60,48.9,60s36.1-5.4,30.4-74.4C344.8,146.4,276.8,166.3,281.8,218z"/>
				<path class="st26" d="M318.1,182c0,0-3.4,6.7-10.9,7.5c-0.6,8-13.8,15.8-20.8,15.8c0,0,0,12.1-3.8,15.2c0,0,1.7,9.9,4.7,19.9
					c0,0-9.5,4.9-15.4-8.5c-11-1.1-7.4-9.6-7.4-9.6c-7.3-4.1-15.5-10.3-7.6-23.9c0,0-7.9-20.8,7.4-21.3c0,0-7.5-14.2,8.9-15.2
					c0,0,2.9-19.3,16.6-15.1c0,0,10.1-18.4,20.9-8.3c0,0,28.6-14.1,39,5.9c0,0,11.4-2.1,14,11.1c0,0,11.7-6.2,15.3,13.4
					c0,0,7.3,9.8,4.1,18.1c0,0,9.6,11.9-2.3,27.1c0,0-5.5,24.3-21.4,25.7c0,0,2.4-19.1,2.1-27c0,0-10.6,2.1-15.3-16.1
					c-8.3,0.4-13-3.6-15.2-9.3C324.4,189.2,318.1,182,318.1,182z"/>
				<g id="cil_G_4_">
					
						<ellipse transform="matrix(0.9953 -9.723133e-02 9.723133e-02 0.9953 -20.2811 33.7744)" class="st27" cx="336.4" cy="225" rx="10.2" ry="8.9"/>
					<path class="st28" d="M350.8,220.3l-5,0.9c0,0-2.8-5.4-9.9-5c-5.9,0.5-8.7,4.1-9.5,7.6c0,0,2-13.1,18.1-7.5l2.6-1l-0.3,2.1
						l3.1-0.2l-1.4,2.1L350.8,220.3z"/>
				</g>
				<g id="pupil_G_4_">
					<g id="pupil_gauche_4_">
						
							<ellipse transform="matrix(0.9953 -9.723133e-02 9.723133e-02 0.9953 -20.5271 33.6703)" class="st29" cx="335.2" cy="227.5" rx="6.2" ry="6.6"/>
						
							<ellipse transform="matrix(0.9953 -9.723133e-02 9.723133e-02 0.9953 -20.5271 33.6703)" class="st30" cx="335.2" cy="227.5" rx="2.8" ry="3"/>
						
							<ellipse transform="matrix(0.4153 -0.9097 0.9097 0.4153 -11.1368 434.2854)" class="st27" cx="332.3" cy="225.8" rx="1.7" ry="1.2"/>
					</g>
					
						<ellipse transform="matrix(0.9953 -9.723133e-02 9.723133e-02 0.9953 -20.7639 34.0486)" class="st27" cx="339" cy="230.1" rx="0.6" ry="0.5"/>
				</g>
				<g id="cil_D_1_">
					
						<ellipse transform="matrix(0.3032 -0.9529 0.9529 0.3032 -16.2486 444.4735)" class="st27" cx="295.8" cy="233.3" rx="9" ry="8.6"/>
					<path class="st28" d="M283.6,231.5l3.9,0.1c0,0,1.3-5.9,7.2-7.1c4-0.7,7.7,1.3,9.3,5.4c0,0-4.1-12.5-16.4-3.4l-2.3-0.4l0.6,2
						l-2.6,0.4l1.5,1.7L283.6,231.5z"/>
				</g>
				<g id="pupil_D_1_">
					<g id="pupil_gauche_3_">
						
							<ellipse transform="matrix(0.9997 -2.337058e-02 2.337058e-02 0.9997 -5.4318 6.956)" class="st29" cx="294.9" cy="235.9" rx="5.1" ry="6.5"/>
						
							<ellipse transform="matrix(0.9997 -2.344178e-02 2.344178e-02 0.9997 -5.4481 6.9774)" class="st30" cx="294.9" cy="235.9" rx="2.3" ry="2.9"/>
						
							<ellipse transform="matrix(0.3024 -0.9532 0.9532 0.3024 -18.763 442.0049)" class="st27" cx="292.6" cy="233.8" rx="1.6" ry="1"/>
					</g>
					
						<ellipse transform="matrix(6.881541e-02 -0.9976 0.9976 6.881541e-02 38.2817 518.6524)" class="st27" cx="297" cy="238.8" rx="0.5" ry="0.5"/>
				</g>
				<g>
					<path class="st31" d="M312.1,243.8c0,0-3.1,7.5,5,5.9c8.1-1.6,6.8-4.2,6.8-4.2"/>
					<path class="st28" d="M312.5,244c0,0.8-0.1,1.5-0.1,2.2c0,0.7,0.2,1.3,0.4,1.8c0.3,0.4,0.6,0.7,1.2,0.8c0.6,0.1,1.3,0.1,2,0
						c0.7,0,1.5-0.2,2.2-0.4l1.1-0.2l1.1-0.3c0.7-0.2,1.4-0.5,2-0.9l0.2-0.1l0.2-0.1c0.1-0.1,0.2-0.2,0.3-0.3
						c0.1-0.1,0.1-0.2,0.2-0.4c0-0.1,0-0.3,0-0.3l0-0.3c0-0.2,0.2-0.3,0.4-0.3c0.1,0,0.2,0.1,0.2,0.2c0.1,0.2,0.1,0.3,0.1,0.4
						c0,0.1,0,0.3,0,0.4c0,0.3-0.1,0.5-0.2,0.8c-0.2,0.5-0.5,0.9-0.9,1.1c-0.7,0.6-1.5,1-2.2,1.4c-0.4,0.2-0.8,0.3-1.2,0.5l-1.2,0.4
						c-0.8,0.2-1.6,0.4-2.5,0.6c-0.9,0.1-1.8,0.1-2.8,0c-0.5-0.1-1-0.3-1.5-0.6c-0.5-0.3-0.9-0.8-1.1-1.3c-0.5-1-0.5-2-0.3-2.9
						c0.2-0.9,0.5-1.7,1-2.4c0.1-0.2,0.4-0.2,0.6-0.1C312.5,243.7,312.5,243.8,312.5,244L312.5,244z"/>
				</g>
				<path class="st28" d="M327.1,203.7c0,0-1.8,1.8,0,1.8c2.6-0.2,6.4-1.7,8.9,0.1C336.5,205.5,335.4,201.7,327.1,203.7z"/>
				<path class="st28" d="M295.4,206.8c0,0,2.1,1,0.8,1.7c-2,0.5-6.3,1.2-7.9,3.2C287.7,211.6,289.4,207.2,295.4,206.8z"/>
				<path class="st28" d="M310.9,263.8c0.6-0.7,2.9,0.6,6,0.4c1-0.1,2.5-0.5,3.8-0.7c0.6-0.1,4,0.1,4,0.1s2-0.8,4.3-1.2
					c4.8-0.4,7.6-2.7,7.6-2.7s-2,6.7-11.3,8.1c-3.5,0.2-6.3-0.1-8.5-0.7C313.3,266.2,310.9,263.8,310.9,263.8z"/>
				<path class="st23" d="M359.9,219.1c0,0,8.4-0.8,6.8,9c-1,6.6-4.3,7.9-8.9,7C358.3,231.9,359.9,219.1,359.9,219.1z"/>
			</g>
			<path class="st32" d="M285.4,436.8L262.5,247c0,0-17.2-13.4-41.1-24.6c-41.5-18.7-99.6,21.3-99.6,21.3s28.8,124.4,43.5,173.5
				c27.2,13.9,58.1,21.7,90.7,21.7C266,438.9,275.9,438.1,285.4,436.8z"/>
			<path class="st33" d="M206.9,255.5c-37.2,3-47.4-30.2-47.4-30.8c5.9-3,12.3-5.2,19.2-7.3c23-5.6,40.5,4,40.5,4
				S236.9,251.6,206.9,255.5z"/>
			<polygon id="cou" class="st33" points="191.3,235.5 165.8,235.4 167.2,200.6 192.9,204 			"/>
			<g id="tete">
				<path class="st34" d="M228.4,178.3c0,0,15.1,4,21.6-11.3c0,0,9.1-1.1,8.6-9.4c0,0,11.6-3,6.5-16.6c0,0,11.5-13-1.7-19.2
					c0,0,8.7-15.5-10.6-15.6c0,0,8.8-12.2-8.2-11.2c0,0-2.1-17.9-20.9-11.9c0,0-3.3-12.9-15.7-6.4c0,0-9.7-8.4-16,0.2
					c0,0-10.3-4.2-15.7,4.2c0,0-12.3-7.4-17.5,6.4c0,0-12.3-2.6-10.6,10.1c0,0-12,5.3-8.2,14.7c0,0-10.7,2.7-4.5,11.7
					c0,0-6.8,7.3,1.1,13.1c0,0-3.1,6.7,1.8,10.4c0,0,1.7,14.8,8.4,18c0,0,4.9,14.3,18.5,16.5C178.9,184.4,228.4,178.3,228.4,178.3z"
					/>
				<path class="st22" d="M198.3,224.8L198.3,224.8c20.7,1.6,38.6-13.8,40.3-34.5l4.3-51.4c0.5-6.8-4.6-12.7-11.3-13.2l-51.2-4
					c-6.2-0.5-11.7,4.2-12.2,10.5l-1,68.3C166.3,216.7,187.9,224.1,198.3,224.8z"/>
				<path class="st22" d="M168,164.8c0,0-10.7-5.2-9.3,9.1c0.9,10.9,9.7,14.4,13.4,10.4C175.6,171,168,164.8,168,164.8z"/>
				<path class="st34" d="M160.5,166l6.9,4c1.4,0.9,3.2-0.1,3.3-1.8l0.4-30.8c0.4-6.8,6-12.1,12.8-12.1c18,0,36.3,0.7,48.3,1.7
					c0.8,0,9.7,2.1,10.7,11.2c0.3,2.6,1.2,6.1,0.9,13c-0.1,2.6,3.6,3.2,4.3,0.8l4.1-13.8c0.1-0.3,0.1-0.6,0.1-1
					c0.1-4.1-0.5-31.6-45-30.4c-45.5,1.3-48.8,18.1-49,19.9c0,0.1,0,0.2,0,0.3l1.1,37C159.4,164.9,159.9,165.6,160.5,166z"/>
				<g>
					<path class="st22" d="M221.6,184.4c0,0,9.1,10.6-2,12.9c-11.1,2.3-11.4-2.8-11.4-2.8"/>
					<path class="st28" d="M221.9,184.1c1,0.9,1.8,1.9,2.5,3c0.7,1.1,1.3,2.3,1.6,3.7c0.1,0.7,0.2,1.4,0.1,2.2s-0.4,1.5-0.8,2.2
						c-0.4,0.7-1,1.2-1.6,1.6c-0.6,0.4-1.2,0.7-1.9,1c-0.3,0.1-0.7,0.2-1,0.3l-1,0.2c-0.6,0.1-1.3,0.2-1.9,0.3
						c-0.6,0.1-1.3,0.1-2,0.2c-0.3,0-0.7,0-1,0s-0.7,0-1,0c-1.3-0.1-2.7-0.3-3.9-1c-0.3-0.1-0.6-0.4-0.9-0.6
						c-0.3-0.2-0.5-0.5-0.8-0.8c-0.1-0.1-0.2-0.3-0.3-0.4c-0.1-0.1-0.2-0.3-0.2-0.5c-0.1-0.3-0.2-0.7-0.2-1.1c0-0.2,0.2-0.4,0.4-0.4
						c0.2,0,0.4,0.1,0.4,0.3v0c0,0.2,0.1,0.5,0.3,0.7c0,0.1,0.1,0.2,0.2,0.3c0.1,0.1,0.1,0.2,0.3,0.3c0.4,0.4,0.9,0.6,1.4,0.8
						c1,0.4,2.2,0.5,3.4,0.5c0.6,0,1.2,0,1.8-0.1c0.6-0.1,1.2-0.1,1.8-0.3c0.6-0.1,1.2-0.2,1.8-0.4l0.9-0.2l0.8-0.3
						c1-0.4,1.9-1,2.4-1.8c0.5-0.8,0.6-1.8,0.4-2.8c-0.3-2.1-1.5-4.4-2.7-6.5l0,0c-0.1-0.2,0-0.5,0.1-0.6
						C221.6,184,221.8,184,221.9,184.1z"/>
				</g>
				<path class="st28" d="M197.5,143.1c0,0,2.3,1.6,0.4,2c-2.9,0.3-7.4-0.7-9.8,1.8C187.4,146.9,187.8,142.4,197.5,143.1z"/>
				<path class="st28" d="M229.2,145.2c0,0-2.3,1.1-0.8,2c2.3,0.5,7.2,1.2,8.9,3.4C238,150.4,236,145.4,229.2,145.2z"/>
				<g id="cil_G_1_">
					
						<ellipse transform="matrix(7.663394e-02 -0.9971 0.9971 7.663394e-02 11.3342 351.0732)" class="st27" cx="195.2" cy="169.4" rx="8.5" ry="9.9"/>
					<path class="st28" d="M186,166.1c0,0,2.8-5.4,9.5-5.1c5.4,0.6,9,3.8,9.6,6.9c0.2-1.4-0.8-3.7-1.9-4.9c-1.9-2-3.8-3.3-7.1-3.5
						c-4.2,0.2-7,2-8.2,3.5C186.7,164.5,186,166.1,186,166.1z"/>
				</g>
				<g id="cil_G_3_">
					
						<ellipse transform="matrix(0.4203 -0.9074 0.9074 0.4203 -21.7446 309.6378)" class="st27" cx="231.5" cy="171.8" rx="7.9" ry="8.2"/>
					<path class="st28" d="M239.3,170c0,0-1.6-5.4-7-6.1c-4.5-0.2-7.8,2.1-8.7,4.9c0-1.3,1.1-3.2,2.1-4.2c1.8-1.6,3.5-2.5,6.2-2.1
						c3.4,0.8,5.4,2.8,6.2,4.4C238.9,168.5,239.3,170,239.3,170z"/>
				</g>
				<g>
					<g>
						<defs>
							
								<ellipse id="SVGID_1_" transform="matrix(7.663394e-02 -0.9971 0.9971 7.663394e-02 11.3342 351.0732)" cx="195.2" cy="169.4" rx="8.5" ry="9.9"/>
						</defs>
						<clipPath id="SVGID_2_">
							<use xlink:href="#SVGID_1_"  style="overflow:visible;"/>
						</clipPath>
						<g id="pupil_G_1_" class="st35">
							<g id="pupil_gauche_6_">
								
									<ellipse transform="matrix(7.663394e-02 -0.9971 0.9971 7.663394e-02 8.9541 356.4583)" class="st29" cx="196.9" cy="173.4" rx="6.7" ry="5.9"/>
								
									<ellipse transform="matrix(7.663394e-02 -0.9971 0.9971 7.663394e-02 8.9541 356.4583)" class="st30" cx="196.9" cy="173.4" rx="3" ry="2.6"/>
								
									<ellipse transform="matrix(0.4505 -0.8928 0.8928 0.4505 -45.6065 268.2109)" class="st27" cx="195.1" cy="171.2" rx="1.7" ry="1.1"/>
							</g>
						</g>
					</g>
				</g>
				<g>
					<g>
						<defs>
							
								<ellipse id="SVGID_3_" transform="matrix(0.4203 -0.9074 0.9074 0.4203 -21.7446 309.6378)" cx="231.5" cy="171.8" rx="7.9" ry="8.2"/>
						</defs>
						<clipPath id="SVGID_4_">
							<use xlink:href="#SVGID_3_"  style="overflow:visible;"/>
						</clipPath>
						<g id="pupil_G_3_" class="st36">
							<g id="pupil_gauche_2_">
								
									<ellipse transform="matrix(5.023591e-02 -0.9987 0.9987 5.023591e-02 45.4794 398.3965)" class="st29" cx="232.2" cy="175.3" rx="6.1" ry="4.9"/>
								
									<ellipse transform="matrix(5.031126e-02 -0.9987 0.9987 5.031126e-02 45.4634 398.3824)" class="st30" cx="232.2" cy="175.3" rx="2.7" ry="2.1"/>
								
									<ellipse transform="matrix(0.4194 -0.9078 0.9078 0.4194 -23.6242 309.573)" class="st27" cx="230.2" cy="173.3" rx="1.5" ry="1"/>
							</g>
						</g>
					</g>
				</g>
			</g>
			<g>
				<path class="st22" d="M323.3,372.4c0.2-0.7-6-4.3-6.9-4.9c-5.6-11.4-19.7-27.6-19.7-27.6s-6.6,6.8-11.2,13.3
					c6.9,11.2,19.9,18.7,24.1,20.9c-0.5,1.7-2.2,7.3-1.7,7.9c0.6,0.6,2.4,1.3,3-3.4c0,0,4.3,6,5.5,4.3c1.3-1.7-0.4-3.6-0.4-3.6
					s3.1,1.5,3.3,0.7c0.2-0.8-0.2-3.3-0.2-3.3s2.9,0.7,3.2-0.4c0.3-1-1.7-3-1.7-3S323.1,373.1,323.3,372.4z"/>
				<path class="st37" d="M270.8,323.8c0,0,21.6-7.5,49.8,46.1c0,0-7.9,6-16,6c0,0-33.7-31.2-39.1-40.6
					C260.2,325.8,270.8,323.8,270.8,323.8z"/>
			</g>
			<path class="st37" d="M302.7,386.5c-1.1-5.1-4.3-12.6-4.3-12.6l-32.5,8l-9.9,2.4l-17.7,5.1c3.1,12.2,9.9,34,15.6,49.4
				c0.7,0,1.4,0,2.1,0c20,0,39.4-3,57.6-8.5C312.9,416.2,303.6,390.4,302.7,386.5z"/>
			<g>
				<g>
					<g>
						<path id="SVGID_5_" class="st38" d="M230.8,345.3c0,0,6.9,51.8,9.9,57.3c12.7-1,61.9-11.9,60.7-17.4
							c0-5.3-15.2-45.3-21.4-55.2C273.9,320.3,240.9,326.4,230.8,345.3z"/>
					</g>
					<g>
						<defs>
							<path id="SVGID_6_" d="M230.8,345.3c0,0,6.9,51.8,9.9,57.3c12.7-1,61.9-11.9,60.7-17.4c0-5.3-15.2-45.3-21.4-55.2
								C273.9,320.3,240.9,326.4,230.8,345.3z"/>
						</defs>
						<clipPath id="SVGID_10_">
							<use xlink:href="#SVGID_6_"  style="overflow:visible;"/>
						</clipPath>
						
							<pattern  id="SVGID_11_" xlink:href="#SVGID_7_" patternTransform="matrix(0.387 -0.1504 -0.1542 -0.3968 -5720.0649 -10814.9043)">
						</pattern>
						
							<pattern  id="SVGID_12_" xlink:href="#SVGID_8_" patternTransform="matrix(0.387 -0.1504 -0.1542 -0.3968 -5712.5757 -10798.6191)">
						</pattern>
						<path class="st39" d="M230.1,345.1c0,0,3,49.1,14.3,56.7c0,0,29.5-4,58.5-14.7C300,365,292.8,354,292.8,354
							s-10.5-25.5-17.1-27.1C255.6,323.5,240,325.9,230.1,345.1z"/>
					</g>
				</g>
				<g>
					<path class="st40" d="M244.1,339c4.7,6,28.1,15.9,30.5-11.1C256.4,326.2,244.1,339,244.1,339z"/>
					<path class="st41" d="M261.9,345.4c0,0,3.8-1,5.2-2.4c0,0,3.1,9.2,3.6,9.8c0,0-3.4,2.3-4.6,2.2
						C265,354.2,262.1,346.9,261.9,345.4z"/>
					
						<ellipse transform="matrix(0.7963 -0.605 0.605 0.7963 -155.8398 231.2605)" class="st42" cx="265.4" cy="347" rx="0.7" ry="0.7"/>
					<ellipse class="st42" cx="266.8" cy="350.8" rx="0.8" ry="0.8"/>
				</g>
			</g>
			<g>
				<path class="st37" d="M244.8,396.8L244.8,396.8c0-2.1,0-4.3,0.1-6.6c0-1.4,0-2.8,0-4.3c0-3,0-6.3,0-9.5
					c-0.1-4.9-0.3-9.7-0.5-14.3c-0.4-7.4-2-16.5-3.2-20.9c0-0.1-0.1-0.2-0.1-0.4c-2.6-6.2-7.9-4.5-10-3.4c-0.6,0.3-1,0.5-1,0.5
					s-14,9.2-6.2,53.8c0.7,3.7,1.4,7.7,2.4,12c0,0.3,0.1,0.7,0.2,1c7.2,1.1,16.6-1.2,18.5-2.2C244.9,402.6,244.7,398.6,244.8,396.8z
					"/>
			</g>
			<path class="st22" d="M240.2,406.8c0.2-0.7,0.4-1.7,0.7-2.9c-3,0.7-7,1.3-10.9,1.2c0.3,0.8,0.6,1.6,0.9,2.3
				c-0.2,1.1-1.6,8.1-1,8.4c0.7,0.4,2.4-1.4,2.4-1.4s0.1,2.8,1.1,3.2c1,0.5,2.4-2.1,2.4-2.1s1.6,2,2.3,2.4c0.8,0.4,1.7-3,1.7-3
				s0.3,2.5,2.4,2.7s0.5-7,0.5-7c4,2.7,4.6,0.9,4.5,0C247.1,410.1,241.8,407.5,240.2,406.8z"/>
			<g>
				<path class="st22" d="M294.4,290c-0.1-0.9-0.2-1.9-0.4-2.8c-4.6-24.8-28.4-41.3-53.2-36.7s-41.3,28.4-36.7,53.2
					c0.1,0.7,0.3,1.3,0.4,2c-2.2,0-9.3,2.3-3,11c4,4.7,7.1,4.4,9.1,3.2c10.1,15.6,29.5,24.8,48.4,21.3c17.5-6.6,32.3-21.3,35.2-39.5
					c2.6,0.6,5.8-0.2,5.5-7.2C299.4,286.5,296.4,288,294.4,290z"/>
				
					<ellipse transform="matrix(0.9836 -0.1801 0.1801 0.9836 -49.3717 53.9856)" class="st27" cx="272.6" cy="298.9" rx="10.1" ry="9.4"/>
				<path class="st43" d="M200.3,301.8c0,0,3.2,10,5.6,0.5c0,0,4.6-3,1.5-9.6c0,0,4.3-2.5,3.4-8.6c0,0,7.5-5.2,5.6-10.3
					c0,0,8.9-2,8.3-10.3c0,0,10.4-0.4,11.1-4.9c0,0,4.7,3.7,7.6-0.2c0,0,5.2,3.6,7.9-0.3c0,0,4.7,6.9,9.5,2c1.4,0.3,2.6,6,7.8,3.1
					c0.9-0.2,0.9,6.1,6.7,4.1c-1.8-2.5,0.9,6.7,5.7,6.9c0,0,2,7.3,6.4,5.9c0,0-0.9,3.4,3.6,3.7c0,0,2.6,5.9,6.9,2.6
					c0,0,2-3.3,0.6-5.9c0-1.1,2.2-4.8-1.3-8.1c0,0,2.8-1.9-2.2-6c0,0,0.1-5.1-3.1-6.5c0,0-0.2-5.5-5-5.6c0,0,1.4-5.4-5.2-5.3
					c0,0,2.7-7-5.1-5.2c0,0-0.6-5.6-6.3-3.4c0,0-1.1-6.2-6.4-3.8c0,0-1.7-5.9-8.6-3.2c0,0-4.6-5.2-9.7-0.1c0,0-5-6.7-12.2,1.9
					c0,0-9.7-0.1-8.4,3.8c0,0-9.3,1-7.9,6.6c0,0-4.3-1.1-5.1,2.9c0,0-7.1,1.1-6.1,7.4c0,0-5.5,1.2-4,7.6c0,0-5.1,1.9-3.2,9.4
					c0,0-4,3.9-1.9,8.2c0,0-3.8,3.8-0.3,8.6c0,0-3.3,3.1,0.3,6.4C193.6,300.9,200.3,301.8,200.3,301.8z"/>
				<path class="st28" d="M258.9,314.3c0.5,0.4,1,1,1.3,1.6c0.1,0.3,0.3,0.7,0.3,1c0,0.4,0,0.8-0.1,1.2c-0.1,0.4-0.4,0.8-0.7,1.1
					c-0.3,0.3-0.7,0.5-1,0.6c-0.7,0.3-1.3,0.4-2,0.5c-1.3,0.1-2.5,0.2-3.9,0c-0.7-0.1-1.3-0.2-2-0.5c-0.3-0.1-0.6-0.3-0.9-0.6
					c-0.3-0.3-0.5-0.7-0.4-1.2c0-0.1,0.1-0.2,0.3-0.2c0,0,0.1,0,0.2,0.1l0.1,0.2c0,0,0,0.1,0.1,0.2c0,0,0.1,0.1,0.1,0.1l0.1,0.1
					c0.2,0.1,0.4,0.2,0.7,0.3c0.5,0.1,1.1,0.1,1.7,0.1h0.9l0.9,0c0.6,0,1.2-0.1,1.8-0.2s1.1-0.2,1.6-0.4c0.4-0.2,0.8-0.5,0.9-0.8
					c0.1-0.3,0.1-0.8,0-1.3s-0.3-1.1-0.6-1.6v0c-0.1-0.1,0-0.3,0.2-0.4C258.7,314.2,258.8,314.2,258.9,314.3z"/>
				<path class="st28" d="M260.7,274.4c0,0-2.2,1.9-0.1,2c3,0,7.4-1.5,10.1,0.7C271.4,277,270.4,272.6,260.7,274.4z"/>
				<path class="st28" d="M233.3,279.4c0,0,2.5,0.9,1,1.9c-2.3,0.7-7.1,2-8.7,4.4C225,285.6,226.5,280.3,233.3,279.4z"/>
				<g>
					<g>
						<path id="SVGID_9_" class="st28" d="M248.8,331.2c0,0,9.2-0.1,13-3.1c0,0,2.2-2,4.2,0.1c2.7,2.9-4.7,8.3-13.6,7.7
							c-3.6-0.7-4.8-1.8-4.8-1.8S245.2,331.4,248.8,331.2z"/>
					</g>
					<g>
						<defs>
							<path id="SVGID_13_" d="M248.8,331.2c0,0,9.2-0.1,13-3.1c0,0,2.2-2,4.2,0.1c2.7,2.9-4.7,8.3-13.6,7.7
								c-3.6-0.7-4.8-1.8-4.8-1.8S245.2,331.4,248.8,331.2z"/>
						</defs>
						<clipPath id="SVGID_14_">
							<use xlink:href="#SVGID_13_"  style="overflow:visible;"/>
						</clipPath>
						<path class="st44" d="M250.8,338.1c0,0,2-9.8,14.2-3.4C261.2,341.7,250.8,338.1,250.8,338.1z"/>
					</g>
				</g>
				<path class="st28" d="M286.3,292.8l-4.9,1.3c0,0-3.3-5.5-10.2-4.6c-5.8,0.9-8.2,5-8.7,8.8c0,0,0.7-14,17.1-9.3l2.4-1.2L282,290
					l3-0.5l-1.2,2.3L286.3,292.8z"/>
				
					<ellipse transform="matrix(0.9836 -0.1801 0.1801 0.9836 -51.4912 46.9101)" class="st27" cx="232.6" cy="307" rx="10.1" ry="9.5"/>
				<path class="st28" d="M218,306.2l4.6-0.2c0,0,1-6.4,7.8-8.1c4.6-1,9.1,0.7,11.4,4.9c0,0-6-12.8-19.5-2.1l-2.7-0.2l1,2l-3,0.7
					l2,1.7L218,306.2z"/>
				
					<ellipse transform="matrix(0.9836 -0.1801 0.1801 0.9836 -52.1699 55.4412)" class="st45" cx="279.2" cy="315" rx="3.6" ry="2.1"/>
				
					<ellipse transform="matrix(0.9684 -0.2495 0.2495 0.9684 -73.7847 68.3762)" class="st45" cx="232.8" cy="325.2" rx="3.6" ry="2.1"/>
				<path class="st28" d="M295.9,290.9c0,0,4.2,5.9-0.6,9.1C295.3,300,297.2,295.6,295.9,290.9z"/>
				<path class="st28" d="M202.9,308.6c0,0-1.7,7,4,8.2C206.9,316.9,203.5,313.4,202.9,308.6z"/>
				<g>
					<g id="pupil_gauche">
						
							<ellipse transform="matrix(0.9836 -0.1801 0.1801 0.9836 -49.4247 54.0771)" class="st29" cx="273.1" cy="299.2" rx="6.5" ry="7.4"/>
						
							<ellipse transform="matrix(0.9836 -0.1801 0.1801 0.9836 -49.4247 54.0771)" class="st30" cx="273.1" cy="299.2" rx="2.9" ry="3.3"/>
						
							<ellipse transform="matrix(0.2509 -0.968 0.968 0.2509 -85.9247 484.1776)" class="st27" cx="269.9" cy="297.6" rx="1.9" ry="1.3"/>
					</g>
					<circle class="st27" cx="279" cy="301.5" r="0.6"/>
				</g>
				<g>
					<g id="pupil_gauche_1_">
						
							<ellipse transform="matrix(0.9836 -0.1801 0.1801 0.9836 -51.5573 46.9591)" class="st29" cx="232.8" cy="307.4" rx="6.5" ry="7.4"/>
						
							<ellipse transform="matrix(0.9836 -0.1801 0.1801 0.9836 -51.5573 46.9591)" class="st30" cx="232.8" cy="307.4" rx="2.9" ry="3.3"/>
						
							<ellipse transform="matrix(0.2892 -0.9573 0.9573 0.2892 -128.9253 436.9362)" class="st27" cx="229.8" cy="305.3" rx="1.9" ry="1.3"/>
					</g>
					<circle class="st27" cx="237.5" cy="310.2" r="0.6"/>
				</g>
				<path class="st46" d="M201.4,304.6c0,0,0.2,1.1,1.1,1.4c0,0-8.6-45.1,39.5-55.8c0,0,40.7-6.7,52.1,37.8c0,0,5,4,1.3-7.8
					c-3.8-11.9-20.6-49.4-55.6-39.7C186.1,255.5,201.4,304.6,201.4,304.6z"/>
				<path class="st47" d="M205.5,262.3c0,0-8.2,2-6.2,7.5c2.7,4.4,6.2,2.3,6.2,2.3s1.7,0.3,2.2,2.1c0.5,1.9,4.4,0,3.6-5.9
					c2.5-4.2,6.4-6.2,6.4-6.2s0.8-4-4.5-2.1c0,0-2.2-1.1-1.7-4.6C209,253.1,204.7,258.4,205.5,262.3z"/>
				<circle class="st48" cx="208.4" cy="265.5" r="3.3"/>
			</g>
			<path class="st28" d="M192.1,208.4c1.1,0,2.2,1.6,8.1,1.8c2,0.1,4.2,0.1,6.6,0c0,0,3.2,0.1,4,2c0,0,1.5-2.3,5.5-2.2
				c3.2,0.2,5.1-1.4,5.1-1.4s-5.1,8.4-17,6.5C200.8,214.6,191,208.3,192.1,208.4z"/>
			<g id="bras_2_">
				<path id="arrière_bras_d_1_" class="st23" d="M344.7,369.7c0,0,6,11.9,18.4,12.1c25.6-33.2,36-63.4,36-63.4s10.6-34.4-6.6-40.5
					c0,0-8.1-4.5-23.3,28.2C369.1,306.1,345.7,351.8,344.7,369.7z"/>
				<path class="st23" d="M364.1,379.7L364.1,379.7c-0.1,0.3-0.2,0.5-0.3,0.7l0,0c-0.2,0.5-0.4,0.9-0.7,1.3l-6.6,1.1c0,0,0,0,0,0
					l-37.1,6.3l-2.8,0.5l-4.3,0.7l-1.6,0.3l-5.4,0.9l-7.6,1.3l-12.1,2.1l-3.4,0.6c-0.6,0-1.1,0-1.6-0.1c-1.3-0.3-1.9-1.3-2.2-2.8
					c-0.2-1.1-0.3-2.5-0.5-3.9c-0.5-4-0.4-7.8,3.6-8.3l3-1l3.5-1.1l2.6-0.8l2.6-0.8l2.5-0.8l17-5.2l2.7-0.8l29.2-8.9l5.4-1.7
					C356.1,358.3,367.9,369.9,364.1,379.7z"/>
				<path class="st23" d="M285.6,380.2c-4.7-3.8-6.9-3.5-10.1-4.9c-2-0.9-5.6-1.3-7.1-0.9l-7.9-1.9c0,0-1.3-0.7-1.5,0.9
					c0.7,3,2.5,3.1,4.2,3.5l2.9,0.7c3.8,0.9,1.3,3.3-3.4,2.9l-10-0.2c-1.2,0-3.5,0.1-3.6,1.3c0,1.2,2,1.6,3.2,1.6c0,0,8.7,0.3,9,0.4
					c0.3,0,0.6,0.4-0.1,0.6l-11.2-0.2c-1.2,0-3.1,0.4-3.1,1.7c0,1.2,2,1.5,3.2,1.5c0,0,10.4,0.2,10.7,0.2c0.3-0.1,0.4,0.4,0.1,0.4
					l-9.6,0.3c-1.2,0-3,0.1-3.3,1.4c-0.1,1.7,2,1.7,3.3,1.7c0,0,9.9-0.2,10.1-0.1c0.4,0.1,0.3,0.3,0,0.4l-6.9,0.1
					c-1.2,0-2.6,0.4-2.6,1.6s1.7,1.2,3,1.2c0,0,6.6,0.4,8.3,0.6c4.9,1.8,14,1,19,0.4c2-0.2,3.4-0.6,3.4-0.6S290.6,388.2,285.6,380.2
					z"/>
			</g>
			<g id="bras_g_1_">
				<path class="st22" d="M174.7,396.7C174.7,396.7,174.7,396.8,174.7,396.7c0.1,0.2,0.3,0.4,0.5,0.6l0,0c0.3,0.4,6.2,0.4,6.2,0.4
					l38.5-7.7l2.7-0.5l4.2-0.8l1.6-0.3l5.4-1l7.5-1.4l12.1-2.3l3.4-0.7c0.6-0.2,1.1-0.4,1.5-0.6c1.1-0.8,1.3-1.9,1-3.4
					c-0.2-1.1-0.6-2.4-0.9-3.9c-1-4-2.3-7.4-6.3-6.6l-3.2,0.2l-3.7,0.2l-2.7,0.2l-2.7,0.1l-2.7,0.1l-17.8,1l-2.8,0.1l-30.5,1.8
					l-5.7,0.3C174.7,373.9,167.7,388.9,174.7,396.7z"/>
				<path class="st22" d="M248.4,369.9c3-5.2,5.3-5.7,7.8-8.1c1.5-1.5,4.8-3.2,6.4-3.3l6.8-4.5c0,0,1-1.1,1.8,0.3
					c0.4,3.1-1.3,3.8-2.8,4.8l-2.5,1.7c-3.2,2.2-0.1,3.6,4.2,1.5l9.3-3.7c1.1-0.4,3.3-1.1,3.8,0c0.4,1.1-1.3,2.2-2.4,2.6
					c0,0-8.1,3.3-8.3,3.5c-0.3,0.1-0.4,0.6,0.3,0.5l10.4-4c1.1-0.4,3.1-0.7,3.5,0.5c0.4,1.1-1.3,2.1-2.5,2.5c0,0-9.7,3.9-10,3.9
					c-0.4,0-0.3,0.5,0,0.4l9.1-3c1.1-0.4,2.9-1,3.6,0.2c0.7,1.5-1.3,2.2-2.5,2.7c0,0-9.3,3.3-9.6,3.4c-0.4,0.2-0.2,0.4,0.1,0.3
					l6.5-2.3c1.1-0.4,2.5-0.5,3,0.6c0.4,1.1-1.2,1.7-2.3,2.2c0,0-6,2.7-7.6,3.5c-4,3.4-12.8,5.9-17.7,7c-2,0.5-3.4,0.7-3.4,0.7
					S246.6,379.1,248.4,369.9z"/>
				<path class="st22" d="M184.1,396.7L184.1,396.7c7.2-4,6.6-12.5,2.6-19.7l-29.5-60.1c-4-7.2-13-9.9-20.3-5.9l0,0
					c-7.2,4-9.9,13-5.9,20.3l32.7,59.5C165.3,395.8,176.9,400.7,184.1,396.7z"/>
				<g id="manche_g_1_">
					<path id="manche_gauche_1_" class="st49" d="M121.8,243.6c-9.9,3.8-17.2,11.8-7.6,60.6c1.1,2.9,16.8,74.4,54.7,94
						c0,0,0.8-9.3,14.4-29.3c-6.6-5.2-21.2-66.3-34.5-96.4C135.6,241.4,131.3,240.3,121.8,243.6z"/>
					<path class="st50" d="M170.4,402l19.4-29.4c0.9-1.6,0.3-3.6-1.3-4.4l-4-2.2c-1.6-0.9-3.6-0.3-4.4,1.3l-19.4,29.4
						c-0.9,1.6-0.3,3.6,1.3,4.4l4,2.2C167.6,404.1,169.6,403.5,170.4,402z"/>
				</g>
			</g>
		</g>
	</g>
</g>
<g id="Layer_3_3_">
</g>
</svg>
