<?xml version="1.0" encoding="utf-8"?>
<!-- Generator: Adobe Illustrator 25.0.1, SVG Export Plug-In . SVG Version: 6.00 Build 0)  -->
<svg version="1.1" id="Layer_1" xmlns="http://www.w3.org/2000/svg" xmlns:xlink="http://www.w3.org/1999/xlink" x="0px" y="0px"
	 viewBox="0 0 512 512" style="enable-background:new 0 0 512 512;" xml:space="preserve">
<style type="text/css">
	.st0{fill:none;}
	.st1{fill:#F4EC83;}
	.st2{display:none;}
	.st3{display:inline;fill:#AFBCC2;}
	.st4{display:inline;fill:#E1EAF0;}
	.st5{display:inline;}
	.st6{fill:#AFBCC2;}
	.st7{display:inline;fill:#92A3AC;}
	.st8{display:inline;fill:#C2D8E3;}
	.st9{fill:#E1EAF0;}
	.st10{display:inline;fill:#575B6D;}
	.st11{display:inline;fill:#414451;}
	.st12{fill:#AE6C6C;}
	.st13{fill:#73CAC3;}
	.st14{fill:#68B6B0;}
	.st15{display:inline;fill:#B36241;}
	.st16{fill:#965336;}
	.st17{fill:#FBD485;}
	.st18{fill:#83442E;}
	.st19{fill:#2A2615;}
	.st20{fill:#FFFFFF;}
	.st21{fill:#653412;}
	.st22{fill:#9F5617;}
	.st23{fill:#3D444B;}
	.st24{fill:#975436;}
	.st25{fill:#076077;}
	.st26{fill:#9B4D34;}
	.st27{fill:#462814;}
	.st28{fill:#B36241;}
	.st29{clip-path:url(#SVGID_2_);}
	.st30{clip-path:url(#SVGID_4_);}
	.st31{fill:#F9C9B3;}
	.st32{fill:#F7EBEB;}
	.st33{clip-path:url(#SVGID_7_);fill:url(#SVGID_8_);stroke:url(#SVGID_10_);stroke-width:0.5492;stroke-miterlimit:10;}
	.st34{fill:#A05339;stroke:#FCD2C0;stroke-width:0.4119;stroke-linejoin:round;stroke-miterlimit:10;}
	.st35{fill:none;stroke:#FCD2C0;stroke-width:0.4119;stroke-linejoin:round;stroke-miterlimit:10;}
	.st36{fill:none;stroke:#FCD2C0;stroke-width:0.2746;stroke-linejoin:round;stroke-miterlimit:10.0012;}
	.st37{fill:none;stroke:#FCD2C0;stroke-width:0.2746;stroke-linejoin:round;stroke-miterlimit:10.0006;}
	.st38{fill:#462713;}
	.st39{clip-path:url(#SVGID_14_);fill:#E85B54;}
	.st40{fill:#D77761;}
	.st41{fill:#FFF164;}
	.st42{fill:#EAC246;}
	.st43{fill:#CBA53C;}
	.st44{fill:#C2D8E3;}
	.st45{fill:#127E9B;}
	.st46{fill:#C5E6DA;}
	.st47{fill:#B0945D;}
	.st48{fill:#907F5D;}
	.st49{fill:#EAB883;}
	.st50{fill:#D8A373;}
	.st51{fill:#4C4846;}
	.st52{fill:#3F3B39;}
	.st53{fill:#A6614A;}
	.st54{fill:#BB7356;}
	.st55{fill:#DADADA;}
	.st56{fill:#CECCCA;}
	.st57{fill:#F7CF9C;}
	.st58{fill:#66ADA6;}
	.st59{fill:#FCD485;}
	.st60{fill:#E3BF78;}
	.st61{fill:#FDE1AA;}
	.st62{fill:#DD9A5E;}
	.st63{fill:#D38D54;}
	.st64{fill:#EDAE6B;}
	.st65{fill:#7F7369;}
	.st66{fill:#72655A;}
</style>
<pattern  y="512" width="32" height="32.1" patternUnits="userSpaceOnUse" id="SVGID_11_" viewBox="4.5 -33 32 32.1" style="overflow:visible;">
	<g>
		<rect x="4.5" y="-33" class="st0" width="32" height="32.1"/>
		<g>
			<rect x="4.5" y="-33" class="st0" width="32" height="32.1"/>
			<g>
				<rect x="4.5" y="-33" class="st0" width="32" height="32.1"/>
				<g id="fleur_21_">
					<ellipse class="st1" cx="28.5" cy="-2.7" rx="0.6" ry="2.6"/>
					<ellipse transform="matrix(0.866 -0.5001 0.5001 0.866 5.1512 14.6424)" class="st1" cx="29.9" cy="-2.3" rx="0.6" ry="2.6"/>
					<ellipse transform="matrix(0.4983 -0.867 0.867 0.4983 16.6731 25.9567)" class="st1" cx="30.8" cy="-1.4" rx="0.6" ry="2.6"/>
					
						<ellipse transform="matrix(0.8558 -0.5173 0.5173 0.8558 4.5381 13.4002)" class="st1" cx="26.3" cy="-1.4" rx="2.6" ry="0.6"/>
					<ellipse transform="matrix(0.481 -0.8767 0.8767 0.481 16.2727 22.6675)" class="st1" cx="27.3" cy="-2.4" rx="2.6" ry="0.6"/>
				</g>
				<g id="fleur_20_">
					<ellipse class="st1" cx="12.5" cy="-2.7" rx="0.6" ry="2.6"/>
					<ellipse transform="matrix(0.866 -0.5001 0.5001 0.866 3.0071 6.6423)" class="st1" cx="13.9" cy="-2.3" rx="0.6" ry="2.6"/>
					<ellipse transform="matrix(0.4983 -0.867 0.867 0.4983 8.6514 12.0936)" class="st1" cx="14.8" cy="-1.4" rx="0.6" ry="2.6"/>
					<ellipse transform="matrix(0.8558 -0.5173 0.5173 0.8558 2.2314 5.125)" class="st1" cx="10.3" cy="-1.4" rx="2.6" ry="0.6"/>
					<ellipse transform="matrix(0.481 -0.8767 0.8767 0.481 7.9737 8.6487)" class="st1" cx="11.3" cy="-2.4" rx="2.6" ry="0.6"/>
				</g>
				<g id="fleur_19_">
					<ellipse class="st1" cx="36.5" cy="-18.7" rx="0.6" ry="2.6"/>
					
						<ellipse transform="matrix(0.866 -0.5001 0.5001 0.866 14.2784 16.4373)" class="st1" cx="37.8" cy="-18.4" rx="0.6" ry="2.6"/>
					
						<ellipse transform="matrix(0.4983 -0.867 0.867 0.4983 34.5299 24.9346)" class="st1" cx="38.8" cy="-17.4" rx="0.6" ry="2.6"/>
					
						<ellipse transform="matrix(0.8615 -0.5078 0.5078 0.8615 12.8956 17.6045)" class="st1" cx="38.7" cy="-14.8" rx="2.6" ry="0.6"/>
					
						<ellipse transform="matrix(0.4906 -0.8714 0.8714 0.4906 31.3781 25.8423)" class="st1" cx="37.8" cy="-13.9" rx="2.6" ry="0.6"/>
					
						<ellipse transform="matrix(0.9999 -1.093209e-02 1.093209e-02 0.9999 0.1499 0.3982)" class="st1" cx="36.5" cy="-13.5" rx="0.6" ry="2.6"/>
					
						<ellipse transform="matrix(0.8605 -0.5095 0.5095 0.8605 12.0087 15.9919)" class="st1" cx="35.2" cy="-13.9" rx="0.6" ry="2.6"/>
					
						<ellipse transform="matrix(0.4888 -0.8724 0.8724 0.4888 30.5241 22.274)" class="st1" cx="34.3" cy="-14.9" rx="0.6" ry="2.6"/>
					
						<ellipse transform="matrix(0.9999 -1.652802e-02 1.652802e-02 0.9999 0.2726 0.5581)" class="st1" cx="33.9" cy="-16.2" rx="2.6" ry="0.6"/>
					
						<ellipse transform="matrix(0.8558 -0.5173 0.5173 0.8558 14.0092 15.2193)" class="st1" cx="34.3" cy="-17.5" rx="2.6" ry="0.6"/>
					
						<ellipse transform="matrix(0.481 -0.8767 0.8767 0.481 34.4754 21.3576)" class="st1" cx="35.3" cy="-18.4" rx="2.6" ry="0.6"/>
					<ellipse class="st1" cx="36.5" cy="-16.1" rx="0.8" ry="0.8"/>
				</g>
				<g id="fleur_18_">
					<ellipse class="st1" cx="20.5" cy="-18.7" rx="0.6" ry="2.6"/>
					<ellipse transform="matrix(0.866 -0.5001 0.5001 0.866 12.1344 8.4371)" class="st1" cx="21.8" cy="-18.4" rx="0.6" ry="2.6"/>
					
						<ellipse transform="matrix(0.4983 -0.867 0.867 0.4983 26.5583 10.9845)" class="st1" cx="22.8" cy="-17.5" rx="0.6" ry="2.6"/>
					
						<ellipse transform="matrix(1 -5.509771e-03 5.509771e-03 1 8.913769e-02 0.127)" class="st1" cx="23.1" cy="-16.1" rx="2.6" ry="0.6"/>
					
						<ellipse transform="matrix(0.8615 -0.5078 0.5078 0.8615 10.6795 9.4809)" class="st1" cx="22.7" cy="-14.8" rx="2.6" ry="0.6"/>
					
						<ellipse transform="matrix(0.4906 -0.8714 0.8714 0.4906 23.2322 11.9084)" class="st1" cx="21.8" cy="-13.9" rx="2.6" ry="0.6"/>
					
						<ellipse transform="matrix(0.9999 -1.093209e-02 1.093209e-02 0.9999 0.149 0.2233)" class="st1" cx="20.5" cy="-13.5" rx="0.6" ry="2.6"/>
					
						<ellipse transform="matrix(0.8605 -0.5095 0.5095 0.8605 9.7766 7.8412)" class="st1" cx="19.2" cy="-13.9" rx="0.6" ry="2.6"/>
					
						<ellipse transform="matrix(0.4888 -0.8724 0.8724 0.4888 22.3497 8.3243)" class="st1" cx="18.3" cy="-14.9" rx="0.6" ry="2.6"/>
					
						<ellipse transform="matrix(0.9999 -1.652792e-02 1.652792e-02 0.9999 0.2704 0.2937)" class="st1" cx="17.9" cy="-16.2" rx="2.6" ry="0.6"/>
					
						<ellipse transform="matrix(0.8558 -0.5173 0.5173 0.8558 11.7025 6.9441)" class="st1" cx="18.3" cy="-17.5" rx="2.6" ry="0.6"/>
					<ellipse transform="matrix(0.481 -0.8767 0.8767 0.481 26.1763 7.3388)" class="st1" cx="19.3" cy="-18.4" rx="2.6" ry="0.6"/>
					<ellipse class="st1" cx="20.5" cy="-16.1" rx="0.8" ry="0.8"/>
				</g>
				<g id="fleur_17_">
					<ellipse class="st1" cx="4.5" cy="-18.7" rx="0.6" ry="2.6"/>
					<ellipse transform="matrix(0.866 -0.5001 0.5001 0.866 9.9904 0.437)" class="st1" cx="5.8" cy="-18.4" rx="0.6" ry="2.6"/>
					<ellipse transform="matrix(0.4983 -0.867 0.867 0.4983 18.5366 -2.8787)" class="st1" cx="6.8" cy="-17.5" rx="0.6" ry="2.6"/>
					
						<ellipse transform="matrix(1 -5.509771e-03 5.509771e-03 1 8.889484e-02 3.888511e-02)" class="st1" cx="7.1" cy="-16.1" rx="2.6" ry="0.6"/>
					<ellipse transform="matrix(0.8615 -0.5078 0.5078 0.8615 8.4734 1.394)" class="st1" cx="6.8" cy="-14.8" rx="2.6" ry="0.6"/>
					
						<ellipse transform="matrix(0.4906 -0.8714 0.8714 0.4906 15.0861 -2.0254)" class="st1" cx="5.8" cy="-13.9" rx="2.6" ry="0.6"/>
					
						<ellipse transform="matrix(0.9999 -1.093209e-02 1.093209e-02 0.9999 0.148 4.840334e-02)" class="st1" cx="4.5" cy="-13.5" rx="0.6" ry="2.6"/>
					
						<ellipse transform="matrix(0.8605 -0.5095 0.5095 0.8605 7.5445 -0.3095)" class="st1" cx="3.2" cy="-13.9" rx="0.6" ry="2.6"/>
					
						<ellipse transform="matrix(0.4888 -0.8724 0.8724 0.4888 14.1751 -5.6256)" class="st1" cx="2.3" cy="-14.9" rx="0.6" ry="2.6"/>
					
						<ellipse transform="matrix(0.8558 -0.5173 0.5173 0.8558 9.3958 -1.3312)" class="st1" cx="2.3" cy="-17.5" rx="2.6" ry="0.6"/>
					<ellipse transform="matrix(0.481 -0.8767 0.8767 0.481 17.8774 -6.68)" class="st1" cx="3.3" cy="-18.4" rx="2.6" ry="0.6"/>
					<ellipse class="st1" cx="4.5" cy="-16.1" rx="0.8" ry="0.8"/>
				</g>
				<g id="fleur_16_">
					<ellipse class="st1" cx="28.5" cy="-34.8" rx="0.6" ry="2.6"/>
					
						<ellipse transform="matrix(0.866 -0.5001 0.5001 0.866 21.2116 10.2918)" class="st1" cx="29.8" cy="-34.4" rx="0.6" ry="2.6"/>
					<ellipse transform="matrix(0.4983 -0.867 0.867 0.4983 44.5518 9.9256)" class="st1" cx="30.9" cy="-33.5" rx="0.6" ry="2.6"/>
					
						<ellipse transform="matrix(1 -5.509771e-03 5.509771e-03 1 0.1774 0.1709)" class="st1" cx="31.1" cy="-32.1" rx="2.6" ry="0.6"/>
					
						<ellipse transform="matrix(0.8615 -0.5078 0.5078 0.8615 19.9026 11.3759)" class="st1" cx="30.8" cy="-30.8" rx="2.6" ry="0.6"/>
					
						<ellipse transform="matrix(0.4906 -0.8714 0.8714 0.4906 41.2726 10.7096)" class="st1" cx="29.8" cy="-29.9" rx="2.6" ry="0.6"/>
					
						<ellipse transform="matrix(0.9999 -1.093209e-02 1.093209e-02 0.9999 0.3255 0.3098)" class="st1" cx="28.5" cy="-29.6" rx="0.6" ry="2.6"/>
					
						<ellipse transform="matrix(0.8605 -0.5095 0.5095 0.8605 19.0488 9.683)" class="st1" cx="27.2" cy="-29.9" rx="0.6" ry="2.6"/>
					
						<ellipse transform="matrix(0.4888 -0.8724 0.8724 0.4888 40.4204 7.1049)" class="st1" cx="26.3" cy="-30.9" rx="0.6" ry="2.6"/>
					
						<ellipse transform="matrix(0.9999 -1.652792e-02 1.652792e-02 0.9999 0.536 0.4237)" class="st1" cx="25.9" cy="-32.2" rx="2.6" ry="0.6"/>
					
						<ellipse transform="matrix(0.8558 -0.5173 0.5173 0.8558 21.1367 8.7735)" class="st1" cx="26.3" cy="-33.5" rx="2.6" ry="0.6"/>
					<ellipse transform="matrix(0.481 -0.8767 0.8767 0.481 44.379 6.0288)" class="st1" cx="27.3" cy="-34.5" rx="2.6" ry="0.6"/>
					<ellipse class="st1" cx="28.5" cy="-32.2" rx="0.8" ry="0.8"/>
				</g>
				<g id="fleur_15_">
					<ellipse class="st1" cx="12.5" cy="-34.8" rx="0.6" ry="2.6"/>
					<ellipse transform="matrix(0.866 -0.5001 0.5001 0.866 19.0676 2.2917)" class="st1" cx="13.8" cy="-34.4" rx="0.6" ry="2.6"/>
					
						<ellipse transform="matrix(0.4983 -0.867 0.867 0.4983 36.5301 -3.9376)" class="st1" cx="14.9" cy="-33.5" rx="0.6" ry="2.6"/>
					
						<ellipse transform="matrix(1 -5.509771e-03 5.509771e-03 1 0.1772 8.272090e-02)" class="st1" cx="15.1" cy="-32.1" rx="2.6" ry="0.6"/>
					
						<ellipse transform="matrix(0.8615 -0.5078 0.5078 0.8615 17.6865 3.2523)" class="st1" cx="14.8" cy="-30.8" rx="2.6" ry="0.6"/>
					
						<ellipse transform="matrix(0.4906 -0.8714 0.8714 0.4906 33.1265 -3.2242)" class="st1" cx="13.8" cy="-29.9" rx="2.6" ry="0.6"/>
					
						<ellipse transform="matrix(0.9999 -1.093209e-02 1.093209e-02 0.9999 0.3245 0.1349)" class="st1" cx="12.5" cy="-29.6" rx="0.6" ry="2.6"/>
					
						<ellipse transform="matrix(0.8605 -0.5095 0.5095 0.8605 16.8167 1.5323)" class="st1" cx="11.2" cy="-29.9" rx="0.6" ry="2.6"/>
					
						<ellipse transform="matrix(0.4888 -0.8724 0.8724 0.4888 32.2459 -6.845)" class="st1" cx="10.3" cy="-30.9" rx="0.6" ry="2.6"/>
					
						<ellipse transform="matrix(0.9999 -1.652790e-02 1.652790e-02 0.9999 0.5338 0.1593)" class="st1" cx="9.9" cy="-32.2" rx="2.6" ry="0.6"/>
					
						<ellipse transform="matrix(0.8558 -0.5173 0.5173 0.8558 18.8301 0.4982)" class="st1" cx="10.3" cy="-33.5" rx="2.6" ry="0.6"/>
					<ellipse transform="matrix(0.481 -0.8767 0.8767 0.481 36.08 -7.99)" class="st1" cx="11.3" cy="-34.5" rx="2.6" ry="0.6"/>
					<ellipse class="st1" cx="12.5" cy="-32.2" rx="0.8" ry="0.8"/>
				</g>
			</g>
		</g>
	</g>
</pattern>
<pattern  y="512" width="32" height="32.1" patternUnits="userSpaceOnUse" id="SVGID_12_" viewBox="4.5 -33 32 32.1" style="overflow:visible;">
	<g>
		<rect x="4.5" y="-33" class="st0" width="32" height="32.1"/>
		<g>
			<rect x="4.5" y="-33" class="st0" width="32" height="32.1"/>
			<g>
				<rect x="4.5" y="-33" class="st0" width="32" height="32.1"/>
				<g id="fleur_28_">
					<ellipse class="st1" cx="28.5" cy="-2.7" rx="0.6" ry="2.6"/>
					<ellipse transform="matrix(0.866 -0.5001 0.5001 0.866 5.1512 14.6424)" class="st1" cx="29.9" cy="-2.3" rx="0.6" ry="2.6"/>
					<ellipse transform="matrix(0.4983 -0.867 0.867 0.4983 16.6731 25.9567)" class="st1" cx="30.8" cy="-1.4" rx="0.6" ry="2.6"/>
					
						<ellipse transform="matrix(0.8558 -0.5173 0.5173 0.8558 4.5381 13.4002)" class="st1" cx="26.3" cy="-1.4" rx="2.6" ry="0.6"/>
					<ellipse transform="matrix(0.481 -0.8767 0.8767 0.481 16.2727 22.6675)" class="st1" cx="27.3" cy="-2.4" rx="2.6" ry="0.6"/>
				</g>
				<g id="fleur_27_">
					<ellipse class="st1" cx="12.5" cy="-2.7" rx="0.6" ry="2.6"/>
					<ellipse transform="matrix(0.866 -0.5001 0.5001 0.866 3.0071 6.6423)" class="st1" cx="13.9" cy="-2.3" rx="0.6" ry="2.6"/>
					<ellipse transform="matrix(0.4983 -0.867 0.867 0.4983 8.6514 12.0936)" class="st1" cx="14.8" cy="-1.4" rx="0.6" ry="2.6"/>
					<ellipse transform="matrix(0.8558 -0.5173 0.5173 0.8558 2.2314 5.125)" class="st1" cx="10.3" cy="-1.4" rx="2.6" ry="0.6"/>
					<ellipse transform="matrix(0.481 -0.8767 0.8767 0.481 7.9737 8.6487)" class="st1" cx="11.3" cy="-2.4" rx="2.6" ry="0.6"/>
				</g>
				<g id="fleur_26_">
					<ellipse class="st1" cx="36.5" cy="-18.7" rx="0.6" ry="2.6"/>
					
						<ellipse transform="matrix(0.866 -0.5001 0.5001 0.866 14.2784 16.4373)" class="st1" cx="37.8" cy="-18.4" rx="0.6" ry="2.6"/>
					
						<ellipse transform="matrix(0.4983 -0.867 0.867 0.4983 34.5299 24.9346)" class="st1" cx="38.8" cy="-17.4" rx="0.6" ry="2.6"/>
					
						<ellipse transform="matrix(0.8615 -0.5078 0.5078 0.8615 12.8956 17.6045)" class="st1" cx="38.7" cy="-14.8" rx="2.6" ry="0.6"/>
					
						<ellipse transform="matrix(0.4906 -0.8714 0.8714 0.4906 31.3781 25.8423)" class="st1" cx="37.8" cy="-13.9" rx="2.6" ry="0.6"/>
					
						<ellipse transform="matrix(0.9999 -1.093209e-02 1.093209e-02 0.9999 0.1499 0.3982)" class="st1" cx="36.5" cy="-13.5" rx="0.6" ry="2.6"/>
					
						<ellipse transform="matrix(0.8605 -0.5095 0.5095 0.8605 12.0087 15.9919)" class="st1" cx="35.2" cy="-13.9" rx="0.6" ry="2.6"/>
					
						<ellipse transform="matrix(0.4888 -0.8724 0.8724 0.4888 30.5241 22.274)" class="st1" cx="34.3" cy="-14.9" rx="0.6" ry="2.6"/>
					
						<ellipse transform="matrix(0.9999 -1.652802e-02 1.652802e-02 0.9999 0.2726 0.5581)" class="st1" cx="33.9" cy="-16.2" rx="2.6" ry="0.6"/>
					
						<ellipse transform="matrix(0.8558 -0.5173 0.5173 0.8558 14.0092 15.2193)" class="st1" cx="34.3" cy="-17.5" rx="2.6" ry="0.6"/>
					
						<ellipse transform="matrix(0.481 -0.8767 0.8767 0.481 34.4754 21.3576)" class="st1" cx="35.3" cy="-18.4" rx="2.6" ry="0.6"/>
					<ellipse class="st1" cx="36.5" cy="-16.1" rx="0.8" ry="0.8"/>
				</g>
				<g id="fleur_25_">
					<ellipse class="st1" cx="20.5" cy="-18.7" rx="0.6" ry="2.6"/>
					<ellipse transform="matrix(0.866 -0.5001 0.5001 0.866 12.1344 8.4371)" class="st1" cx="21.8" cy="-18.4" rx="0.6" ry="2.6"/>
					
						<ellipse transform="matrix(0.4983 -0.867 0.867 0.4983 26.5583 10.9845)" class="st1" cx="22.8" cy="-17.5" rx="0.6" ry="2.6"/>
					
						<ellipse transform="matrix(1 -5.509771e-03 5.509771e-03 1 8.913769e-02 0.127)" class="st1" cx="23.1" cy="-16.1" rx="2.6" ry="0.6"/>
					
						<ellipse transform="matrix(0.8615 -0.5078 0.5078 0.8615 10.6795 9.4809)" class="st1" cx="22.7" cy="-14.8" rx="2.6" ry="0.6"/>
					
						<ellipse transform="matrix(0.4906 -0.8714 0.8714 0.4906 23.2322 11.9084)" class="st1" cx="21.8" cy="-13.9" rx="2.6" ry="0.6"/>
					
						<ellipse transform="matrix(0.9999 -1.093209e-02 1.093209e-02 0.9999 0.149 0.2233)" class="st1" cx="20.5" cy="-13.5" rx="0.6" ry="2.6"/>
					
						<ellipse transform="matrix(0.8605 -0.5095 0.5095 0.8605 9.7766 7.8412)" class="st1" cx="19.2" cy="-13.9" rx="0.6" ry="2.6"/>
					
						<ellipse transform="matrix(0.4888 -0.8724 0.8724 0.4888 22.3497 8.3243)" class="st1" cx="18.3" cy="-14.9" rx="0.6" ry="2.6"/>
					
						<ellipse transform="matrix(0.9999 -1.652792e-02 1.652792e-02 0.9999 0.2704 0.2937)" class="st1" cx="17.9" cy="-16.2" rx="2.6" ry="0.6"/>
					
						<ellipse transform="matrix(0.8558 -0.5173 0.5173 0.8558 11.7025 6.9441)" class="st1" cx="18.3" cy="-17.5" rx="2.6" ry="0.6"/>
					<ellipse transform="matrix(0.481 -0.8767 0.8767 0.481 26.1763 7.3388)" class="st1" cx="19.3" cy="-18.4" rx="2.6" ry="0.6"/>
					<ellipse class="st1" cx="20.5" cy="-16.1" rx="0.8" ry="0.8"/>
				</g>
				<g id="fleur_24_">
					<ellipse class="st1" cx="4.5" cy="-18.7" rx="0.6" ry="2.6"/>
					<ellipse transform="matrix(0.866 -0.5001 0.5001 0.866 9.9904 0.437)" class="st1" cx="5.8" cy="-18.4" rx="0.6" ry="2.6"/>
					<ellipse transform="matrix(0.4983 -0.867 0.867 0.4983 18.5366 -2.8787)" class="st1" cx="6.8" cy="-17.5" rx="0.6" ry="2.6"/>
					
						<ellipse transform="matrix(1 -5.509771e-03 5.509771e-03 1 8.889484e-02 3.888511e-02)" class="st1" cx="7.1" cy="-16.1" rx="2.6" ry="0.6"/>
					<ellipse transform="matrix(0.8615 -0.5078 0.5078 0.8615 8.4734 1.394)" class="st1" cx="6.8" cy="-14.8" rx="2.6" ry="0.6"/>
					
						<ellipse transform="matrix(0.4906 -0.8714 0.8714 0.4906 15.0861 -2.0254)" class="st1" cx="5.8" cy="-13.9" rx="2.6" ry="0.6"/>
					
						<ellipse transform="matrix(0.9999 -1.093209e-02 1.093209e-02 0.9999 0.148 4.840334e-02)" class="st1" cx="4.5" cy="-13.5" rx="0.6" ry="2.6"/>
					
						<ellipse transform="matrix(0.8605 -0.5095 0.5095 0.8605 7.5445 -0.3095)" class="st1" cx="3.2" cy="-13.9" rx="0.6" ry="2.6"/>
					
						<ellipse transform="matrix(0.4888 -0.8724 0.8724 0.4888 14.1751 -5.6256)" class="st1" cx="2.3" cy="-14.9" rx="0.6" ry="2.6"/>
					
						<ellipse transform="matrix(0.8558 -0.5173 0.5173 0.8558 9.3958 -1.3312)" class="st1" cx="2.3" cy="-17.5" rx="2.6" ry="0.6"/>
					<ellipse transform="matrix(0.481 -0.8767 0.8767 0.481 17.8774 -6.68)" class="st1" cx="3.3" cy="-18.4" rx="2.6" ry="0.6"/>
					<ellipse class="st1" cx="4.5" cy="-16.1" rx="0.8" ry="0.8"/>
				</g>
				<g id="fleur_23_">
					<ellipse class="st1" cx="28.5" cy="-34.8" rx="0.6" ry="2.6"/>
					
						<ellipse transform="matrix(0.866 -0.5001 0.5001 0.866 21.2116 10.2918)" class="st1" cx="29.8" cy="-34.4" rx="0.6" ry="2.6"/>
					<ellipse transform="matrix(0.4983 -0.867 0.867 0.4983 44.5518 9.9256)" class="st1" cx="30.9" cy="-33.5" rx="0.6" ry="2.6"/>
					
						<ellipse transform="matrix(1 -5.509771e-03 5.509771e-03 1 0.1774 0.1709)" class="st1" cx="31.1" cy="-32.1" rx="2.6" ry="0.6"/>
					
						<ellipse transform="matrix(0.8615 -0.5078 0.5078 0.8615 19.9026 11.3759)" class="st1" cx="30.8" cy="-30.8" rx="2.6" ry="0.6"/>
					
						<ellipse transform="matrix(0.4906 -0.8714 0.8714 0.4906 41.2726 10.7096)" class="st1" cx="29.8" cy="-29.9" rx="2.6" ry="0.6"/>
					
						<ellipse transform="matrix(0.9999 -1.093209e-02 1.093209e-02 0.9999 0.3255 0.3098)" class="st1" cx="28.5" cy="-29.6" rx="0.6" ry="2.6"/>
					
						<ellipse transform="matrix(0.8605 -0.5095 0.5095 0.8605 19.0488 9.683)" class="st1" cx="27.2" cy="-29.9" rx="0.6" ry="2.6"/>
					
						<ellipse transform="matrix(0.4888 -0.8724 0.8724 0.4888 40.4204 7.1049)" class="st1" cx="26.3" cy="-30.9" rx="0.6" ry="2.6"/>
					
						<ellipse transform="matrix(0.9999 -1.652792e-02 1.652792e-02 0.9999 0.536 0.4237)" class="st1" cx="25.9" cy="-32.2" rx="2.6" ry="0.6"/>
					
						<ellipse transform="matrix(0.8558 -0.5173 0.5173 0.8558 21.1367 8.7735)" class="st1" cx="26.3" cy="-33.5" rx="2.6" ry="0.6"/>
					<ellipse transform="matrix(0.481 -0.8767 0.8767 0.481 44.379 6.0288)" class="st1" cx="27.3" cy="-34.5" rx="2.6" ry="0.6"/>
					<ellipse class="st1" cx="28.5" cy="-32.2" rx="0.8" ry="0.8"/>
				</g>
				<g id="fleur_22_">
					<ellipse class="st1" cx="12.5" cy="-34.8" rx="0.6" ry="2.6"/>
					<ellipse transform="matrix(0.866 -0.5001 0.5001 0.866 19.0676 2.2917)" class="st1" cx="13.8" cy="-34.4" rx="0.6" ry="2.6"/>
					
						<ellipse transform="matrix(0.4983 -0.867 0.867 0.4983 36.5301 -3.9376)" class="st1" cx="14.9" cy="-33.5" rx="0.6" ry="2.6"/>
					
						<ellipse transform="matrix(1 -5.509771e-03 5.509771e-03 1 0.1772 8.272090e-02)" class="st1" cx="15.1" cy="-32.1" rx="2.6" ry="0.6"/>
					
						<ellipse transform="matrix(0.8615 -0.5078 0.5078 0.8615 17.6865 3.2523)" class="st1" cx="14.8" cy="-30.8" rx="2.6" ry="0.6"/>
					
						<ellipse transform="matrix(0.4906 -0.8714 0.8714 0.4906 33.1265 -3.2242)" class="st1" cx="13.8" cy="-29.9" rx="2.6" ry="0.6"/>
					
						<ellipse transform="matrix(0.9999 -1.093209e-02 1.093209e-02 0.9999 0.3245 0.1349)" class="st1" cx="12.5" cy="-29.6" rx="0.6" ry="2.6"/>
					
						<ellipse transform="matrix(0.8605 -0.5095 0.5095 0.8605 16.8167 1.5323)" class="st1" cx="11.2" cy="-29.9" rx="0.6" ry="2.6"/>
					
						<ellipse transform="matrix(0.4888 -0.8724 0.8724 0.4888 32.2459 -6.845)" class="st1" cx="10.3" cy="-30.9" rx="0.6" ry="2.6"/>
					
						<ellipse transform="matrix(0.9999 -1.652790e-02 1.652790e-02 0.9999 0.5338 0.1593)" class="st1" cx="9.9" cy="-32.2" rx="2.6" ry="0.6"/>
					
						<ellipse transform="matrix(0.8558 -0.5173 0.5173 0.8558 18.8301 0.4982)" class="st1" cx="10.3" cy="-33.5" rx="2.6" ry="0.6"/>
					<ellipse transform="matrix(0.481 -0.8767 0.8767 0.481 36.08 -7.99)" class="st1" cx="11.3" cy="-34.5" rx="2.6" ry="0.6"/>
					<ellipse class="st1" cx="12.5" cy="-32.2" rx="0.8" ry="0.8"/>
				</g>
			</g>
		</g>
	</g>
</pattern>
<g id="Layer_1_1_">
	<g class="st2">
		<path class="st3" d="M-1285.4,408.7h82.2V185.5c0-4.4-3.6-7.9-7.9-7.9h-74.2L-1285.4,408.7L-1285.4,408.7z"/>
		<path class="st4" d="M-1285.4,378.7h56.8c4.4,0,7.9-3.6,7.9-7.9V319c0-4.4-3.6-7.9-7.9-7.9h-56.8V378.7z"/>
		<path class="st4" d="M-1285.4,275.3h56.8c4.4,0,7.9-3.6,7.9-7.9v-51.8c0-4.4-3.6-7.9-7.9-7.9h-56.8V275.3z"/>
		<g class="st5">
			<path class="st6" d="M-1220.7,247.4h-41.6c-3.3,0-6-2.7-6-6s2.7-6,6-6h41.6c3.3,0,6,2.7,6,6S-1217.4,247.4-1220.7,247.4z"/>
		</g>
		<g class="st5">
			<path class="st6" d="M-1220.7,350.8h-41.6c-3.3,0-6-2.7-6-6s2.7-6,6-6h41.6c3.3,0,6,2.7,6,6
				C-1214.7,348.1-1217.4,350.8-1220.7,350.8z"/>
		</g>
		<path class="st7" d="M-1203.3,177.6h-23.8c4.4,0,7.9,3.6,7.9,7.9v223.2h23.8V185.5C-1195.3,181.2-1198.9,177.6-1203.3,177.6
			L-1203.3,177.6z"/>
		<path class="st3" d="M-1394.5,408.7h-90.1V185.5c0-4.4,3.6-7.9,7.9-7.9h82.2V408.7z"/>
		<path class="st7" d="M-1441.4,177.6h23.8v231.1h-23.8V177.6z"/>
		<path class="st4" d="M-1394.5,378.7h-56.8c-4.4,0-7.9-3.6-7.9-7.9V319c0-4.4,3.6-7.9,7.9-7.9h56.8V378.7z"/>
		<path class="st8" d="M-1441.4,311h46.9v67.7h-46.9V311z"/>
		<path class="st4" d="M-1394.5,275.3h-56.8c-4.4,0-7.9-3.6-7.9-7.9v-51.8c0-4.4,3.6-7.9,7.9-7.9h56.8V275.3z"/>
		<path class="st8" d="M-1441.4,207.6h46.9v67.7h-46.9V207.6z"/>
		<path class="st3" d="M-1270.3,408.7h-147.3V111.2c0-4.4,3.6-7.9,7.9-7.9h131.4c4.4,0,7.9,3.6,7.9,7.9L-1270.3,408.7L-1270.3,408.7
			z"/>
		<path class="st7" d="M-1270.3,103.3h-23.8c4.4,0,7.9,3.6,7.9,7.9v297.5h23.8V111.2C-1262.3,106.9-1265.9,103.3-1270.3,103.3
			L-1270.3,103.3z"/>
		<g class="st5">
			<path class="st9" d="M-1386.5,254h24.1c4.4,0,7.9,3.6,7.9,7.9V286c0,4.4-3.6,7.9-7.9,7.9h-24.1c-4.4,0-7.9-3.6-7.9-7.9v-24.1
				C-1394.5,257.5-1390.9,254-1386.5,254z"/>
			<path class="st9" d="M-1317.5,254h24.1c4.4,0,7.9,3.6,7.9,7.9V286c0,4.4-3.6,7.9-7.9,7.9h-24.1c-4.4,0-7.9-3.6-7.9-7.9v-24.1
				C-1325.4,257.5-1321.8,254-1317.5,254z"/>
			<path class="st9" d="M-1386.5,192.7h24.1c4.4,0,7.9,3.6,7.9,7.9v24.1c0,4.4-3.6,7.9-7.9,7.9h-24.1c-4.4,0-7.9-3.6-7.9-7.9v-24.1
				C-1394.5,196.3-1390.9,192.7-1386.5,192.7z"/>
			<path class="st9" d="M-1317.5,192.7h24.1c4.4,0,7.9,3.6,7.9,7.9v24.1c0,4.4-3.6,7.9-7.9,7.9h-24.1c-4.4,0-7.9-3.6-7.9-7.9v-24.1
				C-1325.4,196.3-1321.8,192.7-1317.5,192.7z"/>
			<path class="st9" d="M-1386.5,131.5h24.1c4.4,0,7.9,3.6,7.9,7.9v24.1c0,4.4-3.6,7.9-7.9,7.9h-24.1c-4.4,0-7.9-3.6-7.9-7.9v-24.1
				C-1394.5,135-1390.9,131.5-1386.5,131.5z"/>
			<path class="st9" d="M-1317.5,131.5h24.1c4.4,0,7.9,3.6,7.9,7.9v24.1c0,4.4-3.6,7.9-7.9,7.9h-24.1c-4.4,0-7.9-3.6-7.9-7.9v-24.1
				C-1325.4,135-1321.8,131.5-1317.5,131.5z"/>
		</g>
		<g class="st5">
			<path class="st6" d="M-1417.6,247.4h-41.6c-3.3,0-6-2.7-6-6s2.7-6,6-6h41.6c3.3,0,6,2.7,6,6S-1414.3,247.4-1417.6,247.4z"/>
		</g>
		<g class="st5">
			<path class="st6" d="M-1417.6,350.8h-41.6c-3.3,0-6-2.7-6-6s2.7-6,6-6h41.6c3.3,0,6,2.7,6,6
				C-1411.6,348.1-1414.3,350.8-1417.6,350.8z"/>
		</g>
		<path class="st4" d="M-1309.2,344.8h-24.8l-6-6l-6,6h-24.8v63.9h61.5v-63.9H-1309.2z"/>
		<path class="st8" d="M-1309.2,344.8h-24.8l-6-6l-6,6h-24.8v14.3h61.5v-14.3H-1309.2z"/>
		<path class="st7" d="M-1345.9,408.7h11.9v-63.9l-6-6l-6,6L-1345.9,408.7L-1345.9,408.7z"/>
		<path class="st3" d="M-1345.9,359.1h11.9v-14.3l-6-6l-6,6L-1345.9,359.1L-1345.9,359.1z"/>
		<path class="st10" d="M-1309.7,322.1h-68.5c-4.4,0-7.9,3.6-7.9,7.9v6.9c0,4.4,3.6,7.9,7.9,7.9h68.5c4.4,0,7.9-3.6,7.9-7.9V330
			C-1301.7,325.7-1305.3,322.1-1309.7,322.1z"/>
		<path class="st11" d="M-1301.7,322.1h-15.9c4.4,0,7.9,3.6,7.9,7.9v6.9c0,4.4-3.6,7.9-7.9,7.9h15.9c4.4,0,7.9-3.6,7.9-7.9V330
			C-1293.8,325.7-1297.3,322.1-1301.7,322.1z"/>
		<g class="st5">
			<g>
				<path class="st12" d="M-1195.4,408.7c-3.3,0-6-2.7-6-6v-45.5c0-3.3,2.7-6,6-6s6,2.7,6,6v45.5
					C-1189.5,406-1192.1,408.7-1195.4,408.7z"/>
			</g>
			<path class="st13" d="M-1191.8,295.3l13.5,45.9c0.8,1.6,0.3,3.5-1,4.7l-13.5,18.4c-1.5,1.3-3.7,1.3-5.2,0l-21.4-18.4
				c-1.4-1.2-1.8-3.1-1-4.7l21.4-45.9C-1197.6,292.3-1193.3,292.3-1191.8,295.3z"/>
			<path class="st14" d="M-1170.4,341.2l-21.4-45.9c-1.4-3.1-5.8-3.1-7.2,0l-4.3,9.3l17.1,36.6c0.8,1.6,0.3,3.5-1,4.7l-16.1,13.8
				l5.4,4.6c1.5,1.3,3.7,1.3,5.2,0l21.4-18.4C-1170,344.7-1169.6,342.8-1170.4,341.2L-1170.4,341.2z"/>
		</g>
		<g class="st5">
			<g>
				<path class="st12" d="M-1484.6,408.7c-3.3,0-6-2.7-6-6v-45.5c0-3.3,2.7-6,6-6s6,2.7,6,6v45.5
					C-1478.6,406-1481.3,408.7-1484.6,408.7z"/>
			</g>
			<path class="st13" d="M-1481,295.3l13.5,45.9c0.8,1.6,0.3,3.5-1,4.7l-13.5,18.4c-1.5,1.3-3.7,1.3-5.2,0l-21.4-18.4
				c-1.4-1.2-1.8-3.1-1-4.7l21.4-45.9C-1486.7,292.3-1482.4,292.3-1481,295.3z"/>
			<path class="st14" d="M-1459.5,341.2l-21.4-45.9c-1.4-3.1-5.8-3.1-7.2,0l-4.3,9.3l17.1,36.6c0.8,1.6,0.3,3.5-1,4.7l-16.1,13.8
				l5.4,4.6c1.5,1.3,3.7,1.3,5.2,0l21.4-18.4C-1459.2,344.7-1458.8,342.8-1459.5,341.2z"/>
		</g>
	</g>
	<g id="Layer_2_1_">
	</g>
	<g class="st2">
		<path class="st15" d="M-1374.5,415.8c-0.6-0.3,0.8-7.3,1-8.4c-4.7-11.8-7.5-33-7.5-33s9.5-0.3,17.3,0.5
			c3.7,12.6,0.7,27.4-0.4,31.9c1.6,0.8,6.9,3.2,6.9,4c0,0.9-0.6,2.6-4.5,0c0,0,1.6,7.2-0.5,7s-2.4-2.7-2.4-2.7s-1,3.4-1.7,3
			c-0.8-0.4-2.3-2.4-2.3-2.4s-1.4,2.6-2.4,2.1s-1.1-3.2-1.1-3.2S-1373.7,416.2-1374.5,415.8z"/>
		<g class="st5">
			<path id="arrière_bras_d_2_" class="st16" d="M-1339.3,377.4c0,0,5.8,9.8,18.1,10c25.6-33.2,36.3-61.3,36.3-61.3
				s10.6-34.4-6.6-40.5c0,0-8.1-4.5-23.3,28.2C-1314.9,313.8-1338.2,359.6-1339.3,377.4z"/>
			<path class="st17" d="M-1204.1,385.5c5.5-35.4,9.4-71.8,9.9-80.4V305c0.9-18.8-4.2-22.6-7.3-25.8c-0.5-0.5-1.4-1-2.6-1.5
				c0,0,0,0-0.1,0c-4.9-1.9-15-3.1-27.6-3.1c-1,0-2,0-3.1,0c-2.4,0-4.9,0.1-7.5,0.3c-6.1,0.3-12.6,1-19.1,2
				c-1.8,0.2-3.6,0.6-5.4,0.9c-0.6,0.1-1.1,0.2-1.7,0.3c-5.5,1.1-11,2.5-16.2,4.2c-3.8,1.2-13.6,4.4-14.5,5.9
				c-1,1.4-2.4,11.4-2.6,12.2c-3.4,11.3-3.1,33.5-3.1,33.5s-5.2,9.2-5.3,11c-0.1,2-0.3,4.7,0.1,7.9c0,0.4,0.1,0.8,0.1,1.2
				c0.3,1.8,0.7,3.6,1.4,5.5l0,0c0.5,1.4,1.1,2.8,2,4.1c0.4,0.7,0.8,1.3,1.3,2c1.1,1.6,2.5,3.1,4.1,4.7c0,0,0,1.1,0,3.3
				c0,2,0,4.9,0,8.3c0,2.3-3,35-4.6,54C-1266.8,429.2-1231.8,411.2-1204.1,385.5z"/>
			<path class="st18" d="M-1231.8,274.6c-0.3,4.5-1.5,8.3-2.2,11.1c-3.9,14.8-18.6,23.8-32.8,20.1c-11-2.9-16.8-12.5-17.8-23.5
				C-1253.5,270.4-1242.3,275-1231.8,274.6z"/>
			<path id="cou_2_" class="st18" d="M-1240.6,295.2l-24,2.3c-0.1,0-0.3-0.1-0.3-0.2l-4.6-47c0-0.1,0.1-0.3,0.2-0.3l24-2.3
				c0.1,0,0.3,0.1,0.3,0.2l4.6,47C-1240.3,295.1-1240.5,295.2-1240.6,295.2z"/>
			<g>
				<path class="st16" d="M-1314.2,218c9.9,65.1,48.9,60,48.9,60s36.1-5.4,30.4-74.4C-1251.2,146.4-1319.2,166.3-1314.2,218z"/>
				<path class="st19" d="M-1277.9,182c0,0-3.4,6.7-10.9,7.5c-0.6,8-13.8,15.8-20.8,15.8c0,0,0,12.1-3.8,15.2c0,0,1.7,9.9,4.7,19.9
					c0,0-9.5,4.9-15.4-8.5c-11-1.1-7.4-9.6-7.4-9.6c-7.3-4.1-15.5-10.3-7.6-23.9c0,0-7.9-20.8,7.4-21.3c0,0-7.5-14.2,8.9-15.2
					c0,0,2.9-19.3,16.6-15.1c0,0,10.1-18.4,20.9-8.3c0,0,28.6-14.1,39,5.9c0,0,11.4-2.1,14,11.1c0,0,11.7-6.2,15.3,13.4
					c0,0,7.3,9.8,4.1,18.1c0,0,9.6,11.9-2.3,27.1c0,0-5.5,24.3-21.4,25.7c0,0,2.4-19.1,2.1-27c0,0-10.6,2.1-15.3-16.1
					c-8.3,0.4-13-3.6-15.2-9.3C-1271.6,189.2-1277.9,182-1277.9,182z"/>
				<g id="cil_G_4_">
					
						<ellipse transform="matrix(0.9953 -9.722763e-02 9.722763e-02 0.9953 -27.845 -121.4064)" class="st20" cx="-1259.6" cy="225" rx="10.2" ry="8.9"/>
					<path class="st21" d="M-1245.2,220.3l-5,0.9c0,0-2.8-5.4-9.9-5c-5.9,0.5-8.7,4.1-9.5,7.6c0,0,2-13.1,18.1-7.5l2.6-1l-0.3,2.1
						l3.1-0.2l-1.4,2.1L-1245.2,220.3z"/>
				</g>
				<g id="pupil_G_4_">
					<g id="pupil_gauche_4_">
						
							<ellipse transform="matrix(0.9953 -9.722763e-02 9.722763e-02 0.9953 -28.0938 -121.5109)" class="st22" cx="-1260.8" cy="227.5" rx="6.2" ry="6.6"/>
						
							<ellipse transform="matrix(0.9953 -9.722763e-02 9.722763e-02 0.9953 -28.0938 -121.5109)" class="st23" cx="-1260.8" cy="227.5" rx="2.8" ry="3"/>
						
							<ellipse transform="matrix(0.4153 -0.9097 0.9097 0.4153 -944.3069 -1017.5814)" class="st20" cx="-1263.7" cy="225.8" rx="1.7" ry="1.2"/>
					</g>
					
						<ellipse transform="matrix(0.9953 -9.722763e-02 9.722763e-02 0.9953 -28.3283 -121.1293)" class="st20" cx="-1257" cy="230.1" rx="0.6" ry="0.5"/>
				</g>
				<g id="cil_D_1_">
					
						<ellipse transform="matrix(0.3032 -0.9529 0.9529 0.3032 -1128.316 -1076.4648)" class="st20" cx="-1300.2" cy="233.3" rx="9" ry="8.6"/>
					<path class="st21" d="M-1312.4,231.5l3.9,0.1c0,0,1.3-5.9,7.2-7.1c4-0.7,7.7,1.3,9.3,5.4c0,0-4.1-12.5-16.4-3.4l-2.3-0.4l0.6,2
						l-2.6,0.4l1.5,1.7L-1312.4,231.5z"/>
				</g>
				<g id="pupil_D_1_">
					<g id="pupil_gauche_3_">
						
							<ellipse transform="matrix(0.9997 -2.337121e-02 2.337121e-02 0.9997 -5.8685 -30.343)" class="st22" cx="-1301.1" cy="235.9" rx="5.1" ry="6.5"/>
						
							<ellipse transform="matrix(0.9997 -2.344237e-02 2.344237e-02 0.9997 -5.8875 -30.4353)" class="st23" cx="-1301.1" cy="235.9" rx="2.3" ry="2.9"/>
						
							<ellipse transform="matrix(0.3024 -0.9532 0.9532 0.3024 -1132.1606 -1079.2894)" class="st20" cx="-1303.4" cy="233.8" rx="1.6" ry="1"/>
					</g>
					<ellipse class="st20" cx="-1299.1" cy="238.8" rx="0.5" ry="0.5"/>
				</g>
				<g>
					<path class="st24" d="M-1283.9,243.8c0,0-3.1,7.5,5,5.9s6.8-4.2,6.8-4.2"/>
					<path class="st21" d="M-1283.5,244c0,0.8-0.1,1.5-0.1,2.2s0.2,1.3,0.4,1.8c0.3,0.4,0.6,0.7,1.2,0.8s1.3,0.1,2,0
						c0.7,0,1.5-0.2,2.2-0.4l1.1-0.2l1.1-0.3c0.7-0.2,1.4-0.5,2-0.9l0.2-0.1l0.2-0.1c0.1-0.1,0.2-0.2,0.3-0.3
						c0.1-0.1,0.1-0.2,0.2-0.4c0-0.1,0-0.3,0-0.3v-0.3c0-0.2,0.2-0.3,0.4-0.3c0.1,0,0.2,0.1,0.2,0.2c0.1,0.2,0.1,0.3,0.1,0.4
						c0,0.1,0,0.3,0,0.4c0,0.3-0.1,0.5-0.2,0.8c-0.2,0.5-0.5,0.9-0.9,1.1c-0.7,0.6-1.5,1-2.2,1.4c-0.4,0.2-0.8,0.3-1.2,0.5l-1.2,0.4
						c-0.8,0.2-1.6,0.4-2.5,0.6c-0.9,0.1-1.8,0.1-2.8,0c-0.5-0.1-1-0.3-1.5-0.6s-0.9-0.8-1.1-1.3c-0.5-1-0.5-2-0.3-2.9
						s0.5-1.7,1-2.4c0.1-0.2,0.4-0.2,0.6-0.1C-1283.5,243.7-1283.5,243.8-1283.5,244L-1283.5,244z"/>
				</g>
				<path class="st21" d="M-1268.9,203.7c0,0-1.8,1.8,0,1.8c2.6-0.2,6.4-1.7,8.9,0.1C-1259.5,205.5-1260.6,201.7-1268.9,203.7z"/>
				<path class="st21" d="M-1300.6,206.8c0,0,2.1,1,0.8,1.7c-2,0.5-6.3,1.2-7.9,3.2C-1308.3,211.6-1306.6,207.2-1300.6,206.8z"/>
				<path class="st21" d="M-1285.1,263.8c0.6-0.7,2.9,0.6,6,0.4c1-0.1,2.5-0.5,3.8-0.7c0.6-0.1,4,0.1,4,0.1s2-0.8,4.3-1.2
					c4.8-0.4,7.6-2.7,7.6-2.7s-2,6.7-11.3,8.1c-3.5,0.2-6.3-0.1-8.5-0.7C-1282.7,266.2-1285.1,263.8-1285.1,263.8z"/>
				<path class="st16" d="M-1236.1,219.1c0,0,8.4-0.8,6.8,9c-1,6.6-4.3,7.9-8.9,7C-1237.7,231.9-1236.1,219.1-1236.1,219.1z"/>
			</g>
			<path class="st25" d="M-1310.6,436.8l-22.9-189.8c0,0-17.2-13.4-41.1-24.6c-41.5-18.7-99.6,21.3-99.6,21.3s28.8,124.4,43.5,173.5
				c27.2,13.9,58.1,21.7,90.7,21.7C-1330,438.9-1320.1,438.1-1310.6,436.8z"/>
			<path class="st26" d="M-1389.1,255.5c-37.2,3-47.4-30.2-47.4-30.8c5.9-3,12.3-5.2,19.2-7.3c23-5.6,40.5,4,40.5,4
				S-1359.1,251.6-1389.1,255.5z"/>
			<polygon id="cou" class="st26" points="-1404.7,235.5 -1430.2,235.4 -1428.8,200.6 -1403.1,204 			"/>
			<g id="tete">
				<path class="st27" d="M-1367.6,178.3c0,0,15.1,4,21.6-11.3c0,0,9.1-1.1,8.6-9.4c0,0,11.6-3,6.5-16.6c0,0,11.5-13-1.7-19.2
					c0,0,8.7-15.5-10.6-15.6c0,0,8.8-12.2-8.2-11.2c0,0-2.1-17.9-20.9-11.9c0,0-3.3-12.9-15.7-6.4c0,0-9.7-8.4-16,0.2
					c0,0-10.3-4.2-15.7,4.2c0,0-12.3-7.4-17.5,6.4c0,0-12.3-2.6-10.6,10.1c0,0-12,5.3-8.2,14.7c0,0-10.7,2.7-4.5,11.7
					c0,0-6.8,7.3,1.1,13.1c0,0-3.1,6.7,1.8,10.4c0,0,1.7,14.8,8.4,18c0,0,4.9,14.3,18.5,16.5
					C-1417.1,184.4-1367.6,178.3-1367.6,178.3z"/>
				<path class="st28" d="M-1397.7,224.8L-1397.7,224.8c20.7,1.6,38.6-13.8,40.3-34.5l4.3-51.4c0.5-6.8-4.6-12.7-11.3-13.2l-51.2-4
					c-6.2-0.5-11.7,4.2-12.2,10.5l-1,68.3C-1429.7,216.7-1408.1,224.1-1397.7,224.8z"/>
				<path class="st28" d="M-1428,164.8c0,0-10.7-5.2-9.3,9.1c0.9,10.9,9.7,14.4,13.4,10.4C-1420.4,171-1428,164.8-1428,164.8z"/>
				<path class="st27" d="M-1435.5,166l6.9,4c1.4,0.9,3.2-0.1,3.3-1.8l0.4-30.8c0.4-6.8,6-12.1,12.8-12.1c18,0,36.3,0.7,48.3,1.7
					c0.8,0,9.7,2.1,10.7,11.2c0.3,2.6,1.2,6.1,0.9,13c-0.1,2.6,3.6,3.2,4.3,0.8l4.1-13.8c0.1-0.3,0.1-0.6,0.1-1
					c0.1-4.1-0.5-31.6-45-30.4c-45.5,1.3-48.8,18.1-49,19.9c0,0.1,0,0.2,0,0.3l1.1,37C-1436.6,164.9-1436.1,165.6-1435.5,166z"/>
				<g>
					<path class="st28" d="M-1374.4,184.4c0,0,9.1,10.6-2,12.9c-11.1,2.3-11.4-2.8-11.4-2.8"/>
					<path class="st21" d="M-1374.1,184.1c1,0.9,1.8,1.9,2.5,3s1.3,2.3,1.6,3.7c0.1,0.7,0.2,1.4,0.1,2.2s-0.4,1.5-0.8,2.2
						s-1,1.2-1.6,1.6c-0.6,0.4-1.2,0.7-1.9,1c-0.3,0.1-0.7,0.2-1,0.3l-1,0.2c-0.6,0.1-1.3,0.2-1.9,0.3s-1.3,0.1-2,0.2
						c-0.3,0-0.7,0-1,0s-0.7,0-1,0c-1.3-0.1-2.7-0.3-3.9-1c-0.3-0.1-0.6-0.4-0.9-0.6c-0.3-0.2-0.5-0.5-0.8-0.8
						c-0.1-0.1-0.2-0.3-0.3-0.4c-0.1-0.1-0.2-0.3-0.2-0.5c-0.1-0.3-0.2-0.7-0.2-1.1c0-0.2,0.2-0.4,0.4-0.4c0.2,0,0.4,0.1,0.4,0.3
						l0,0c0,0.2,0.1,0.5,0.3,0.7c0,0.1,0.1,0.2,0.2,0.3s0.1,0.2,0.3,0.3c0.4,0.4,0.9,0.6,1.4,0.8c1,0.4,2.2,0.5,3.4,0.5
						c0.6,0,1.2,0,1.8-0.1c0.6-0.1,1.2-0.1,1.8-0.3c0.6-0.1,1.2-0.2,1.8-0.4l0.9-0.2l0.8-0.3c1-0.4,1.9-1,2.4-1.8s0.6-1.8,0.4-2.8
						c-0.3-2.1-1.5-4.4-2.7-6.5l0,0c-0.1-0.2,0-0.5,0.1-0.6C-1374.4,184-1374.2,184-1374.1,184.1z"/>
				</g>
				<path class="st21" d="M-1398.5,143.1c0,0,2.3,1.6,0.4,2c-2.9,0.3-7.4-0.7-9.8,1.8C-1408.6,146.9-1408.2,142.4-1398.5,143.1z"/>
				<path class="st21" d="M-1366.8,145.2c0,0-2.3,1.1-0.8,2c2.3,0.5,7.2,1.2,8.9,3.4C-1358,150.4-1360,145.4-1366.8,145.2z"/>
				<g id="cil_G_1_">
					
						<ellipse transform="matrix(7.663083e-02 -0.9971 0.9971 7.663083e-02 -1462.4415 -1240.1809)" class="st20" cx="-1400.8" cy="169.5" rx="8.5" ry="9.9"/>
					<path class="st21" d="M-1410,166.1c0,0,2.8-5.4,9.5-5.1c5.4,0.6,9,3.8,9.6,6.9c0.2-1.4-0.8-3.7-1.9-4.9c-1.9-2-3.8-3.3-7.1-3.5
						c-4.2,0.2-7,2-8.2,3.5C-1409.3,164.5-1410,166.1-1410,166.1z"/>
				</g>
				<g id="cil_G_3_">
					
						<ellipse transform="matrix(0.4203 -0.9074 0.9074 0.4203 -946.9348 -1138.5878)" class="st20" cx="-1364.6" cy="171.8" rx="7.9" ry="8.2"/>
					<path class="st21" d="M-1356.7,170c0,0-1.6-5.4-7-6.1c-4.5-0.2-7.8,2.1-8.7,4.9c0-1.3,1.1-3.2,2.1-4.2c1.8-1.6,3.5-2.5,6.2-2.1
						c3.4,0.8,5.4,2.8,6.2,4.4C-1357.1,168.5-1356.7,170-1356.7,170z"/>
				</g>
				<g>
					<g>
						<g>
							<defs>
								
									<ellipse id="SVGID_1_" transform="matrix(7.663083e-02 -0.9971 0.9971 7.663083e-02 -1462.4415 -1240.1809)" cx="-1400.8" cy="169.5" rx="8.5" ry="9.9"/>
							</defs>
							<clipPath id="SVGID_2_">
								<use xlink:href="#SVGID_1_"  style="overflow:visible;"/>
							</clipPath>
							<g id="pupil_G_1_" class="st29">
								<g id="pupil_gauche_6_">
									
										<ellipse transform="matrix(7.663083e-02 -0.9971 0.9971 7.663083e-02 -1464.8208 -1234.7574)" class="st22" cx="-1399.1" cy="173.5" rx="6.7" ry="5.9"/>
									
										<ellipse transform="matrix(7.663083e-02 -0.9971 0.9971 7.663083e-02 -1464.8208 -1234.7574)" class="st23" cx="-1399.1" cy="173.5" rx="3" ry="2.6"/>
									
										<ellipse transform="matrix(0.4505 -0.8928 0.8928 0.4505 -922.625 -1156.6154)" class="st20" cx="-1400.9" cy="171.2" rx="1.7" ry="1.1"/>
								</g>
							</g>
						</g>
					</g>
				</g>
				<g>
					<g>
						<g>
							<defs>
								
									<ellipse id="SVGID_3_" transform="matrix(0.4203 -0.9074 0.9074 0.4203 -946.9348 -1138.5878)" cx="-1364.6" cy="171.8" rx="7.9" ry="8.2"/>
							</defs>
							<clipPath id="SVGID_4_">
								<use xlink:href="#SVGID_3_"  style="overflow:visible;"/>
							</clipPath>
							<g id="pupil_G_3_" class="st30">
								<g id="pupil_gauche_2_">
									
										<ellipse transform="matrix(5.023778e-02 -0.9987 0.9987 5.023778e-02 -1470.2939 -1195.6204)" class="st22" cx="-1363.8" cy="175.2" rx="6.1" ry="4.9"/>
									
										<ellipse transform="matrix(5.031295e-02 -0.9987 0.9987 5.031295e-02 -1470.1946 -1195.6221)" class="st23" cx="-1363.8" cy="175.3" rx="2.7" ry="2.1"/>
									
										<ellipse transform="matrix(0.4194 -0.9078 0.9078 0.4194 -950.2585 -1139.23)" class="st20" cx="-1365.8" cy="173.3" rx="1.5" ry="1"/>
								</g>
							</g>
						</g>
					</g>
				</g>
			</g>
			<g>
				<path class="st28" d="M-1272.7,372.4c0.2-0.7-6-4.3-6.9-4.9c-5.6-11.4-19.7-27.6-19.7-27.6s-6.6,6.8-11.2,13.3
					c6.9,11.2,19.9,18.7,24.1,20.9c-0.5,1.7-2.2,7.3-1.7,7.9c0.6,0.6,2.4,1.3,3-3.4c0,0,4.3,6,5.5,4.3c1.3-1.7-0.4-3.6-0.4-3.6
					s3.1,1.5,3.3,0.7c0.2-0.8-0.2-3.3-0.2-3.3s2.9,0.7,3.2-0.4c0.3-1-1.7-3-1.7-3S-1272.9,373.1-1272.7,372.4z"/>
				<path class="st31" d="M-1325.2,323.8c0,0,21.6-7.5,49.8,46.1c0,0-7.9,6-16,6c0,0-33.7-31.2-39.1-40.6
					C-1335.8,325.8-1325.2,323.8-1325.2,323.8z"/>
			</g>
			<path class="st31" d="M-1293.3,386.5c-1.1-5.1-4.3-12.6-4.3-12.6l-32.5,8l-9.9,2.4l-17.7,5.1c3.1,12.2,9.9,34,15.6,49.4
				c0.7,0,1.4,0,2.1,0c20,0,39.4-3,57.6-8.5C-1283.1,416.2-1292.4,390.4-1293.3,386.5z"/>
			<g>
				<g>
					<g>
						<path id="SVGID_5_" class="st32" d="M-1365.2,345.3c0,0,6.9,51.8,9.9,57.3c12.7-1,61.9-11.9,60.7-17.4
							c0-5.3-15.2-45.3-21.4-55.2C-1322.1,320.3-1355.1,326.4-1365.2,345.3z"/>
					</g>
					<g>
						<g>
							<defs>
								<path id="SVGID_6_" d="M-1365.2,345.3c0,0,6.9,51.8,9.9,57.3c12.7-1,61.9-11.9,60.7-17.4c0-5.3-15.2-45.3-21.4-55.2
									C-1322.1,320.3-1355.1,326.4-1365.2,345.3z"/>
							</defs>
							<clipPath id="SVGID_7_">
								<use xlink:href="#SVGID_6_"  style="overflow:visible;"/>
							</clipPath>
							
								<pattern  id="SVGID_8_" xlink:href="#SVGID_11_" patternTransform="matrix(0.387 -0.1504 0.1542 0.3968 -9883.835 4807.5347)">
							</pattern>
							
								<pattern  id="SVGID_10_" xlink:href="#SVGID_12_" patternTransform="matrix(0.387 -0.1504 0.1542 0.3968 -9876.3457 4791.2485)">
							</pattern>
							<path class="st33" d="M-1365.9,345.1c0,0,3,49.1,14.3,56.7c0,0,29.5-4,58.5-14.7c-2.9-22.1-10.1-33.2-10.1-33.2
								s-10.5-25.5-17.1-27.1C-1340.4,323.5-1356,325.9-1365.9,345.1z"/>
						</g>
					</g>
				</g>
				<g>
					<path class="st34" d="M-1351.9,339c4.7,6,28.1,15.9,30.5-11.1C-1339.6,326.2-1351.9,339-1351.9,339z"/>
					<path class="st35" d="M-1334.1,345.4c0,0,3.8-1,5.2-2.4c0,0,3.1,9.2,3.6,9.8c0,0-3.4,2.3-4.6,2.2
						C-1331,354.2-1333.9,346.9-1334.1,345.4z"/>
					
						<ellipse transform="matrix(0.7963 -0.605 0.605 0.7963 -481.0776 -734.2769)" class="st36" cx="-1330.6" cy="347.1" rx="0.7" ry="0.7"/>
					<ellipse class="st37" cx="-1329.2" cy="350.8" rx="0.8" ry="0.8"/>
				</g>
			</g>
			<g>
				<path class="st31" d="M-1351.2,396.8L-1351.2,396.8c0-2.1,0-4.3,0.1-6.6c0-1.4,0-2.8,0-4.3c0-3,0-6.3,0-9.5
					c-0.1-4.9-0.3-9.7-0.5-14.3c-0.4-7.4-2-16.5-3.2-20.9c0-0.1-0.1-0.2-0.1-0.4c-2.6-6.2-7.9-4.5-10-3.4c-0.6,0.3-1,0.5-1,0.5
					s-14,9.2-6.2,53.8c0.7,3.7,1.4,7.7,2.4,12c0,0.3,0.1,0.7,0.2,1c7.2,1.1,16.6-1.2,18.5-2.2
					C-1351.1,402.6-1351.3,398.6-1351.2,396.8z"/>
			</g>
			<path class="st28" d="M-1355.8,406.8c0.2-0.7,0.4-1.7,0.7-2.9c-3,0.7-7,1.3-10.9,1.2c0.3,0.8,0.6,1.6,0.9,2.3
				c-0.2,1.1-1.6,8.1-1,8.4c0.7,0.4,2.4-1.4,2.4-1.4s0.1,2.8,1.1,3.2c1,0.5,2.4-2.1,2.4-2.1s1.6,2,2.3,2.4c0.8,0.4,1.7-3,1.7-3
				s0.3,2.5,2.4,2.7s0.5-7,0.5-7c4,2.7,4.6,0.9,4.5,0C-1348.9,410.1-1354.2,407.5-1355.8,406.8z"/>
			<g>
				<path class="st28" d="M-1301.6,290c-0.1-0.9-0.2-1.9-0.4-2.8c-4.6-24.8-28.4-41.3-53.2-36.7c-24.8,4.6-41.3,28.4-36.7,53.2
					c0.1,0.7,0.3,1.3,0.4,2c-2.2,0-9.3,2.3-3,11c4,4.7,7.1,4.4,9.1,3.2c10.1,15.6,29.5,24.8,48.4,21.3c17.5-6.6,32.3-21.3,35.2-39.5
					c2.6,0.6,5.8-0.2,5.5-7.2C-1296.6,286.5-1299.6,288-1301.6,290z"/>
				
					<ellipse transform="matrix(0.9836 -0.1801 0.1801 0.9836 -75.4708 -233.4565)" class="st20" cx="-1323.3" cy="298.9" rx="10.1" ry="9.4"/>
				<path class="st38" d="M-1395.7,301.8c0,0,3.2,10,5.6,0.5c0,0,4.6-3,1.5-9.6c0,0,4.3-2.5,3.4-8.6c0,0,7.5-5.2,5.6-10.3
					c0,0,8.9-2,8.3-10.3c0,0,10.4-0.4,11.1-4.9c0,0,4.7,3.7,7.6-0.2c0,0,5.2,3.6,7.9-0.3c0,0,4.7,6.9,9.5,2c1.4,0.3,2.6,6,7.8,3.1
					c0.9-0.2,0.9,6.1,6.7,4.1c-1.8-2.5,0.9,6.7,5.7,6.9c0,0,2,7.3,6.4,5.9c0,0-0.9,3.4,3.6,3.7c0,0,2.6,5.9,6.9,2.6
					c0,0,2-3.3,0.6-5.9c0-1.1,2.2-4.8-1.3-8.1c0,0,2.8-1.9-2.2-6c0,0,0.1-5.1-3.1-6.5c0,0-0.2-5.5-5-5.6c0,0,1.4-5.4-5.2-5.3
					c0,0,2.7-7-5.1-5.2c0,0-0.6-5.6-6.3-3.4c0,0-1.1-6.2-6.4-3.8c0,0-1.7-5.9-8.6-3.2c0,0-4.6-5.2-9.7-0.1c0,0-5-6.7-12.2,1.9
					c0,0-9.7-0.1-8.4,3.8c0,0-9.3,1-7.9,6.6c0,0-4.3-1.1-5.1,2.9c0,0-7.1,1.1-6.1,7.4c0,0-5.5,1.2-4,7.6c0,0-5.1,1.9-3.2,9.4
					c0,0-4,3.9-1.9,8.2c0,0-3.8,3.8-0.3,8.6c0,0-3.3,3.1,0.3,6.4C-1402.4,300.9-1395.7,301.8-1395.7,301.8z"/>
				<path class="st21" d="M-1337.1,314.3c0.5,0.4,1,1,1.3,1.6c0.1,0.3,0.3,0.7,0.3,1c0,0.4,0,0.8-0.1,1.2c-0.1,0.4-0.4,0.8-0.7,1.1
					c-0.3,0.3-0.7,0.5-1,0.6c-0.7,0.3-1.3,0.4-2,0.5c-1.3,0.1-2.5,0.2-3.9,0c-0.7-0.1-1.3-0.2-2-0.5c-0.3-0.1-0.6-0.3-0.9-0.6
					c-0.3-0.3-0.5-0.7-0.4-1.2c0-0.1,0.1-0.2,0.3-0.2c0,0,0.1,0,0.2,0.1l0.1,0.2c0,0,0,0.1,0.1,0.2l0.1,0.1l0.1,0.1
					c0.2,0.1,0.4,0.2,0.7,0.3c0.5,0.1,1.1,0.1,1.7,0.1h0.9h0.9c0.6,0,1.2-0.1,1.8-0.2s1.1-0.2,1.6-0.4c0.4-0.2,0.8-0.5,0.9-0.8
					s0.1-0.8,0-1.3s-0.3-1.1-0.6-1.6l0,0c-0.1-0.1,0-0.3,0.2-0.4C-1337.3,314.2-1337.2,314.2-1337.1,314.3z"/>
				<path class="st21" d="M-1335.3,274.4c0,0-2.2,1.9-0.1,2c3,0,7.4-1.5,10.1,0.7C-1324.6,277-1325.6,272.6-1335.3,274.4z"/>
				<path class="st21" d="M-1362.7,279.4c0,0,2.5,0.9,1,1.9c-2.3,0.7-7.1,2-8.7,4.4C-1371,285.6-1369.5,280.3-1362.7,279.4z"/>
				<g>
					<g>
						<path id="SVGID_9_" class="st21" d="M-1347.2,331.2c0,0,9.2-0.1,13-3.1c0,0,2.2-2,4.2,0.1c2.7,2.9-4.7,8.3-13.6,7.7
							c-3.6-0.7-4.8-1.8-4.8-1.8S-1350.8,331.4-1347.2,331.2z"/>
					</g>
					<g>
						<g>
							<defs>
								<path id="SVGID_13_" d="M-1347.2,331.2c0,0,9.2-0.1,13-3.1c0,0,2.2-2,4.2,0.1c2.7,2.9-4.7,8.3-13.6,7.7
									c-3.6-0.7-4.8-1.8-4.8-1.8S-1350.8,331.4-1347.2,331.2z"/>
							</defs>
							<clipPath id="SVGID_14_">
								<use xlink:href="#SVGID_13_"  style="overflow:visible;"/>
							</clipPath>
							<path class="st39" d="M-1345.2,338.1c0,0,2-9.8,14.2-3.4C-1334.8,341.7-1345.2,338.1-1345.2,338.1z"/>
						</g>
					</g>
				</g>
				<path class="st21" d="M-1309.7,292.8l-4.9,1.3c0,0-3.3-5.5-10.2-4.6c-5.8,0.9-8.2,5-8.7,8.8c0,0,0.7-14,17.1-9.3l2.4-1.2
					l-0.1,2.2l3-0.5l-1.2,2.3L-1309.7,292.8z"/>
				
					<ellipse transform="matrix(0.9836 -0.1801 0.1801 0.9836 -77.5834 -240.5292)" class="st20" cx="-1363.3" cy="307" rx="10.1" ry="9.5"/>
				<path class="st21" d="M-1378,306.2l4.6-0.2c0,0,1-6.4,7.8-8.1c4.6-1,9.1,0.7,11.4,4.9c0,0-6-12.8-19.5-2.1l-2.7-0.2l1,2l-3,0.7
					l2,1.7L-1378,306.2z"/>
				
					<ellipse transform="matrix(0.9836 -0.1801 0.1801 0.9836 -78.2632 -232.0057)" class="st40" cx="-1316.7" cy="315" rx="3.6" ry="2.1"/>
				
					<ellipse transform="matrix(0.9684 -0.2495 0.2495 0.9684 -124.2526 -329.8356)" class="st40" cx="-1363.2" cy="325.2" rx="3.6" ry="2.1"/>
				<path class="st21" d="M-1300.1,290.9c0,0,4.2,5.9-0.6,9.1C-1300.7,300-1298.8,295.6-1300.1,290.9z"/>
				<path class="st21" d="M-1393.1,308.6c0,0-1.7,7,4,8.2C-1389.1,316.9-1392.5,313.4-1393.1,308.6z"/>
				<g>
					<g id="pupil_gauche">
						
							<ellipse transform="matrix(0.9836 -0.1801 0.1801 0.9836 -75.5161 -233.3629)" class="st22" cx="-1322.8" cy="299.2" rx="6.5" ry="7.4"/>
						
							<ellipse transform="matrix(0.9836 -0.1801 0.1801 0.9836 -75.5161 -233.3629)" class="st23" cx="-1322.8" cy="299.2" rx="2.9" ry="3.3"/>
						
							<ellipse transform="matrix(0.2509 -0.968 0.968 0.2509 -1281.4403 -1060.8018)" class="st20" cx="-1326.1" cy="297.6" rx="1.9" ry="1.3"/>
					</g>
					<circle class="st20" cx="-1317" cy="301.5" r="0.6"/>
				</g>
				<g>
					<g id="pupil_gauche_1_">
						
							<ellipse transform="matrix(0.9836 -0.1801 0.1801 0.9836 -77.6529 -240.4862)" class="st22" cx="-1363.1" cy="307.4" rx="6.5" ry="7.4"/>
						
							<ellipse transform="matrix(0.9836 -0.1801 0.1801 0.9836 -77.6529 -240.4862)" class="st23" cx="-1363.1" cy="307.4" rx="2.9" ry="3.3"/>
						
							<ellipse transform="matrix(0.2892 -0.9573 0.9573 0.2892 -1263.3618 -1090.8398)" class="st20" cx="-1366.2" cy="305.3" rx="1.9" ry="1.3"/>
					</g>
					<circle class="st20" cx="-1358.5" cy="310.2" r="0.6"/>
				</g>
				<path class="st41" d="M-1394.6,304.6c0,0,0.2,1.1,1.1,1.4c0,0-8.6-45.1,39.5-55.8c0,0,40.7-6.7,52.1,37.8c0,0,5,4,1.3-7.8
					c-3.8-11.9-20.6-49.4-55.6-39.7C-1409.9,255.5-1394.6,304.6-1394.6,304.6z"/>
				<path class="st42" d="M-1390.5,262.3c0,0-8.2,2-6.2,7.5c2.7,4.4,6.2,2.3,6.2,2.3s1.7,0.3,2.2,2.1c0.5,1.9,4.4,0,3.6-5.9
					c2.5-4.2,6.4-6.2,6.4-6.2s0.8-4-4.5-2.1c0,0-2.2-1.1-1.7-4.6C-1387,253.1-1391.3,258.4-1390.5,262.3z"/>
				<circle class="st43" cx="-1387.6" cy="265.5" r="3.3"/>
			</g>
			<path class="st21" d="M-1403.9,208.4c1.1,0,2.2,1.6,8.1,1.8c2,0.1,4.2,0.1,6.6,0c0,0,3.2,0.1,4,2c0,0,1.5-2.3,5.5-2.2
				c3.2,0.2,5.1-1.4,5.1-1.4s-5.1,8.4-17,6.5C-1395.2,214.6-1405,208.3-1403.9,208.4z"/>
			<g id="bras_2_">
				<path id="arrière_bras_d_1_" class="st16" d="M-1251.3,369.7c0,0,6,11.9,18.4,12.1c25.6-33.2,36-63.4,36-63.4
					s10.6-34.4-6.6-40.5c0,0-8.1-4.5-23.3,28.2C-1226.9,306.1-1250.3,351.8-1251.3,369.7z"/>
				<path class="st16" d="M-1231.9,379.7L-1231.9,379.7c-0.1,0.3-0.2,0.5-0.3,0.7l0,0c-0.2,0.5-0.4,0.9-0.7,1.3l-6.6,1.1l0,0
					l-37.1,6.3l-2.8,0.5l-4.3,0.7l-1.6,0.3l-5.4,0.9l-7.6,1.3l-12.1,2.1l-3.4,0.6c-0.6,0-1.1,0-1.6-0.1c-1.3-0.3-1.9-1.3-2.2-2.8
					c-0.2-1.1-0.3-2.5-0.5-3.9c-0.5-4-0.4-7.8,3.6-8.3l3-1l3.5-1.1l2.6-0.8l2.6-0.8l2.5-0.8l17-5.2l2.7-0.8l29.2-8.9l5.4-1.7
					C-1239.9,358.3-1228.1,369.9-1231.9,379.7z"/>
				<path class="st16" d="M-1310.4,380.2c-4.7-3.8-6.9-3.5-10.1-4.9c-2-0.9-5.6-1.3-7.1-0.9l-7.9-1.9c0,0-1.3-0.7-1.5,0.9
					c0.7,3,2.5,3.1,4.2,3.5l2.9,0.7c3.8,0.9,1.3,3.3-3.4,2.9l-10-0.2c-1.2,0-3.5,0.1-3.6,1.3c0,1.2,2,1.6,3.2,1.6c0,0,8.7,0.3,9,0.4
					s0.6,0.4-0.1,0.6l-11.2-0.2c-1.2,0-3.1,0.4-3.1,1.7c0,1.2,2,1.5,3.2,1.5c0,0,10.4,0.2,10.7,0.2c0.3-0.1,0.4,0.4,0.1,0.4
					l-9.6,0.3c-1.2,0-3,0.1-3.3,1.4c-0.1,1.7,2,1.7,3.3,1.7c0,0,9.9-0.2,10.1-0.1c0.4,0.1,0.3,0.3,0,0.4l-6.9,0.1
					c-1.2,0-2.6,0.4-2.6,1.6s1.7,1.2,3,1.2c0,0,6.6,0.4,8.3,0.6c4.9,1.8,14,1,19,0.4c2-0.2,3.4-0.6,3.4-0.6
					S-1305.4,388.2-1310.4,380.2z"/>
			</g>
			<g id="bras_g_1_">
				<path class="st28" d="M-1421.3,396.7C-1421.3,396.7-1421.3,396.8-1421.3,396.7c0.1,0.2,0.3,0.4,0.5,0.6l0,0
					c0.3,0.4,6.2,0.4,6.2,0.4l38.5-7.7l2.7-0.5l4.2-0.8l1.6-0.3l5.4-1l7.5-1.4l12.1-2.3l3.4-0.7c0.6-0.2,1.1-0.4,1.5-0.6
					c1.1-0.8,1.3-1.9,1-3.4c-0.2-1.1-0.6-2.4-0.9-3.9c-1-4-2.3-7.4-6.3-6.6l-3.2,0.2l-3.7,0.2l-2.7,0.2l-2.7,0.1l-2.7,0.1l-17.8,1
					l-2.8,0.1l-30.5,1.8l-5.7,0.3C-1421.3,373.9-1428.3,388.9-1421.3,396.7z"/>
				<path class="st28" d="M-1347.6,369.9c3-5.2,5.3-5.7,7.8-8.1c1.5-1.5,4.8-3.2,6.4-3.3l6.8-4.5c0,0,1-1.1,1.8,0.3
					c0.4,3.1-1.3,3.8-2.8,4.8l-2.5,1.7c-3.2,2.2-0.1,3.6,4.2,1.5l9.3-3.7c1.1-0.4,3.3-1.1,3.8,0c0.4,1.1-1.3,2.2-2.4,2.6
					c0,0-8.1,3.3-8.3,3.5c-0.3,0.1-0.4,0.6,0.3,0.5l10.4-4c1.1-0.4,3.1-0.7,3.5,0.5c0.4,1.1-1.3,2.1-2.5,2.5c0,0-9.7,3.9-10,3.9
					c-0.4,0-0.3,0.5,0,0.4l9.1-3c1.1-0.4,2.9-1,3.6,0.2c0.7,1.5-1.3,2.2-2.5,2.7c0,0-9.3,3.3-9.6,3.4c-0.4,0.2-0.2,0.4,0.1,0.3
					l6.5-2.3c1.1-0.4,2.5-0.5,3,0.6c0.4,1.1-1.2,1.7-2.3,2.2c0,0-6,2.7-7.6,3.5c-4,3.4-12.8,5.9-17.7,7c-2,0.5-3.4,0.7-3.4,0.7
					S-1349.4,379.1-1347.6,369.9z"/>
				<path class="st28" d="M-1411.9,396.7L-1411.9,396.7c7.2-4,6.6-12.5,2.6-19.7l-29.5-60.1c-4-7.2-13-9.9-20.3-5.9l0,0
					c-7.2,4-9.9,13-5.9,20.3l32.7,59.5C-1430.7,395.8-1419.1,400.7-1411.9,396.7z"/>
				<g id="manche_g_1_">
					<path id="manche_gauche_1_" class="st44" d="M-1474.2,243.6c-9.9,3.8-17.2,11.8-7.6,60.6c1.1,2.9,16.8,74.4,54.7,94
						c0,0,0.8-9.3,14.4-29.3c-6.6-5.2-21.2-66.3-34.5-96.4C-1460.4,241.4-1464.7,240.3-1474.2,243.6z"/>
					<path class="st45" d="M-1425.6,402l19.4-29.4c0.9-1.6,0.3-3.6-1.3-4.4l-4-2.2c-1.6-0.9-3.6-0.3-4.4,1.3l-19.4,29.4
						c-0.9,1.6-0.3,3.6,1.3,4.4l4,2.2C-1428.4,404.1-1426.4,403.5-1425.6,402z"/>
				</g>
			</g>
		</g>
	</g>
	<g id="Layer_3_4_">
		<circle class="st46" cx="255.7" cy="256" r="256"/>
	</g>
	<g>
		<path class="st47" d="M300.4,250.7h-26.9c-4.1,0-7.4-3.3-7.4-7.4l-3.7-62.8c0,0-6-52,25.1-58.8c0,0,12.6-24.6,53.1-16.7
			c0.6,0.1,1.1,0.3,1.6,0.5c16.6,5.2,29.8,16.9,37,31.5c9.8,19.7,6.6,34.3,2.7,106.3c0,4.1-3.3,7.4-7.4,7.4h-69.4"/>
		<path class="st48" d="M305.1,250.7v-8.8c-16.6-7.3-27.2-23.2-27.9-40.7c-0.1-1.3-0.1-28,0-28.5c-0.3-14.8,2-45.8,25.5-51
			c0,0,7.7-15.1,30.5-17.8c-20.5-2.3-35.1,4.4-43.2,14.2c-1.8,2.2-2.5,3.6-2.6,3.7c-21.2,4.7-26.2,30.8-25.5,52.4
			c0,0.1,4.1,69.2,4.1,69.2c0,4.1,3.3,7.4,7.4,7.4C280,250.7,298,250.7,305.1,250.7z"/>
		<path class="st28" d="M239.2,388c0.6-5.4,8.2-73.2,8.7-77.3c2.1-14.7,0.9-23.5,7.9-32c-2.1-2.6-5.2-5-7.2-6.3l-0.2-0.1
			c-7.5-4.5-13.8-4.7-27.7-8.5l0,0l-14.2-6.8l0,0v-17c-11.2,5-25,5.4-37.2,0.1l0,0l-0.1,17l0,0l0,0l0,0l-14.2,6.7l0,0
			c-13.8,3.8-20.2,4-27.7,8.5l-0.2,0.1c-2.9,1.8-6.4,4.8-8.7,8.3c-5,7.5-4.4,11.9-9.3,56.3l0,0c-6,54.5-5.8,50.1-5.8,54.3
			c-0.1,6.9,4.2,17.4,17,17.4c0.8,0,134.8,0,135.6,0C245.8,408.5,238,401.5,239.2,388z"/>
		<g>
			<path class="st26" d="M118.5,388l5.7-51c5.1-51.3,4.1-55.2,9.3-63.1c1.6-2.4,3.6-4.5,5.9-6.2c-1.1,0.3-6.5,1.2-12.3,4.7l-0.2,0.1
				c-8.7,5.3-12.1,12.6-13.3,22.2c-11.5,103-10.6,93.3-10.6,96.6c-0.1,6.9,4.2,17.4,17,17.4c9.5,0,5.9,0,15.4,0
				C123.8,408.7,117.5,400,118.5,388z"/>
			<path class="st26" d="M184.4,271.6v-27.8c-5.2-0.4-10.3-1.5-15.3-3.7l-0.1,17l0,0L184.4,271.6z"/>
		</g>
		<path class="st49" d="M397.8,294.6c-1.1-9.1-4.3-16.7-13.3-22.2l-0.2-0.1c-7.9-4.7-13.6-4.5-40.3-11.6c-1-0.5-1.7-2-1.7-3.7v-15.1
			c-11.9,5.2-25.6,5-37.2-0.1V257c0,1.7-0.7,3.2-1.7,3.7c-26.5,7-32.3,6.9-40.3,11.6l-0.2,0.1c-9.1,5.5-12.2,13.2-13.3,22.2
			c-11,98.8-10.6,93.1-10.6,96.8c-0.2,9.2,6.1,17.4,17,17.4c28.5,0,105.8,0,135.2,0c11.2,0,17.3-8.6,17-17.4
			C408.4,387.7,408.7,392.9,397.8,294.6z"/>
		<path class="st50" d="M254.4,391.3c-0.1-3.5-0.3,1.1,10.6-102.3c1.1-9.2,4.2-16.4,13-22c-2.6,0.8-8.5,1.5-14.9,5.3l-0.2,0.1
			c-9.1,5.5-12.2,13.2-13.3,22.2c-11,99.4-10.6,92-10.6,96.8c-0.1,6.9,4.2,17.4,17,17.4c9.5,0,5.9,0,15.4,0
			C260.3,408.7,254.3,400.4,254.4,391.3z"/>
		<path class="st13" d="M402.5,337c-4.9-43.8-4.7-43.3-5.5-47c-1.6-7.7-6.2-13.7-12.5-17.5c-0.1,0-0.3-0.1-0.2-0.1
			c-7.9-4.7-13.6-4.5-40.3-11.6c-1-0.5-1.7-2-1.7-3.7V242l0,0v-0.1c-11.7,5.2-25.3,5.2-37.2,0v0.1l0,0v15c0,1.7-0.7,3.2-1.7,3.7
			c-26.5,7-32.3,6.9-40.3,11.6c-0.1,0-0.3,0.1-0.2,0.1c-8.6,5.2-12.1,12.5-13.3,22.2l-4.7,42.4l29.9,3.1c1.6,0.2,2.8,1.5,2.7,3.1
			l-3.3,65.4c36.6,0,62.6,0,99.2,0l-3.4-65.2c-0.1-1.7,1.2-3.2,2.9-3.4L402.5,337z"/>
		<path class="st14" d="M244.9,337l14.9,1.6c5.3-49,5-49.2,6-54.1c1.5-7.5,5.9-13.3,12.3-17.4c-1.9,0.6-8.5,1.5-14.9,5.3
			c-0.1,0-0.3,0.1-0.2,0.1c-6.3,3.8-11,9.8-12.5,17.5C249.4,294.6,249.6,295.6,244.9,337z"/>
		<path class="st45" d="M248.4,272.4c-0.1,0-0.3-0.1-0.2-0.1c-7.5-4.5-13.9-4.7-27.6-8.5l0,0l-14.2-6.8l-0.1,0.2c0,0,0,0,0-0.1
			l-18.6,17.5l-18.5-17.5l-14.2,6.7l0,0c-13.8,3.8-20.2,4-27.7,8.5l-0.2,0.1c-8.8,5.3-12.1,12.6-13.3,22.2l-4.7,42.4l29.4,3.1
			c1.9,0.2,3.2,1.8,3.1,3.7l-3.3,65c11.4,0,88.6,0,99.2,0l-3.4-65.2c-0.1-1.7,1.2-3.3,2.9-3.4l7.8-0.8l3.2-28.6
			c2.1-15.1,0.9-23.5,7.8-31.9C254.1,276.9,250,273.4,248.4,272.4z"/>
		<path class="st25" d="M124.2,337c5.3-52.9,4-56.7,10.8-65c1.2-1.5,2.7-2.9,4.4-4.3c-1.4,0.4-6.6,1.3-12.3,4.7l-0.2,0.1
			c-3.9,2.4-7.5,5.9-9.8,10c-4.4,7.8-3,12.7-8.3,54.6l15.2,1.6L124.2,337z"/>
		<path class="st49" d="M356.5,263.8l-12.5-3.1c-1-0.5-1.7-2-1.7-3.7v-16.9l0,0V240c-11.7,5.2-25.3,5.2-37.2,0v0.1l0,0V257
			c0,1.7-0.7,3.2-1.7,3.7l-12.7,3.2C306,289.6,341.3,289.6,356.5,263.8z"/>
		<path id="SVGCleanerId_0" class="st51" d="M129.4,177.6c0-17,0-16.3,0.1-18.5c1.9-45.7,53.7-71.6,91.5-45.3
			c25.4,17.7,24.9,39.7,24.9,63.8"/>
		<g>
			<path id="SVGCleanerId_0_1_" class="st51" d="M129.4,177.6c0-17,0-16.3,0.1-18.5c1.9-45.7,53.7-71.6,91.5-45.3
				c25.4,17.7,24.9,39.7,24.9,63.8"/>
		</g>
		<path class="st52" d="M193.4,103.7c-33.4-3.3-62.8,22.2-64,55.9c-0.1,2.1,0,1.6,0,18H141v-16C141,131.7,163.7,106.6,193.4,103.7z"
			/>
		<g>
			<path class="st53" d="M248.7,182.8c0,6.7-6.5,12.1-14.5,12.1v-24.3C242.2,170.7,248.7,176.1,248.7,182.8z"/>
			<path class="st53" d="M126.5,182.8c0,6.7,6.5,12.1,14.5,12.1v-24.3C133,170.7,126.5,176.1,126.5,182.8z"/>
		</g>
		<g>
			<path class="st26" d="M234.2,184.1V195c10.9,0,17.8-9.6,13-17.6C244.8,181.3,239.9,184.1,234.2,184.1z"/>
			<path class="st26" d="M128,177.4c-4.8,8,2.1,17.6,13,17.6v-10.9C135.3,184.1,130.4,181.3,128,177.4z"/>
		</g>
		<path class="st54" d="M229.8,168.2c-4.2-3.7-6.2-8.8-6.4-14.4c-0.2-4.7-3.9-7.2-8-6.6c-19.1,2.9-37.5,2.8-56-0.1
			c-3.7-0.6-7.5,1.9-7.7,6.6c-0.1,3.7-1,7.3-3,10.4c-2.9,4.6-6.6,6-7.8,6.7c0,29.3-0.6,33.2,2,41.7c8.2,27.3,38.9,40.7,64.4,28.7
			c14.8-7,25.3-21.4,26.7-38.5c0.2-2.7,0.2-1.5,0.2-32C234,170.8,232.1,170.1,229.8,168.2z"/>
		<path class="st28" d="M159.3,221.6c-0.5-1.3-1.1-3.1-1.6-5.1c-2.4-9.4-1.7-14.8-1.7-40c0-4.5,3-4.8,6.1-8.6
			c3.2-3.9,4.5-8.8,4.6-13.9c0.1-2.3,1.1-4.3,2.7-5.5c-3.3-0.3-6.8-0.8-10.2-1.3c-3.9-0.6-7.6,2.4-7.7,6.3
			c-0.1,4.9-1.6,9.5-4.9,13.1c-2.7,3-5.3,3.9-5.9,4.2c0,29-1.2,36.7,4.8,48.9c3.4,6.9,7.4,10.7,7.7,11.1l0,0
			c6.5,7,14.8,11.5,22.6,13.4C175.3,243.7,163.2,232,159.3,221.6z"/>
		<path class="st25" d="M192.2,308.1v-37.8l-4.6,4.3l-4.6-4.4V308c0,2.5,2.1,4.6,4.6,4.6C190.1,312.7,192.2,310.6,192.2,308.1z"/>
		<path class="st55" d="M206.3,256.8l-18.7,17.8l10.1,10.2c1.9,1.9,5.1,1.8,6.8-0.4l16.2-20.6L206.3,256.8z"/>
		<g>
			<polygon class="st28" points="213.5,260.3 206.3,256.8 187.4,274.5 194.2,281.3 			"/>
			<path class="st28" d="M199,285.7c0.8,0.4,1.8,0.5,2.7,0.3L199,285.7z"/>
		</g>
		<path class="st55" d="M169.1,257.1l18.5,17.5l-10.1,10.2c-1.9,1.9-5.1,1.8-6.8-0.4l-16-20.5L169.1,257.1z"/>
		<polygon class="st56" points="174.5,274.5 180.9,281.3 187.6,274.6 169.1,257.1 161.5,260.6 		"/>
		<path class="st50" d="M320.6,266.4v-22.6c-5.5-0.4-10.7-1.7-15.4-3.8c-0.5,13.4,1.2,19.4-1.7,20.7l-12.7,3.2
			c3.2,5.3,7.4,9.8,12.5,13.1l13.2-4.9C316.4,272.2,320.6,270.1,320.6,266.4z"/>
		<path class="st57" d="M365.7,183.9c2.6,0.1,4.7,2.3,4.7,4.9v3.5l0,0l0,0c0,6.5,2.1,26.9-16.8,42.7c-21.6,18-54.5,12.8-69.5-11.4
			c-9.1-14.8-6.9-27.7-6.9-48.1l0,0v-2.4c0-2.7,1.9-5.1,4.6-5.7c4.8-1,12.5-3.7,19.4-11.2c1.8-1.9,4.7-1.8,6.4,0.2
			C314.4,164.7,332.7,182.3,365.7,183.9z"/>
		<path class="st49" d="M292.6,201c-0.1-1.4,0,1.8,0-37.7c-4.1,2.4-7.9,3.6-10.7,4.2c-2.7,0.6-4.6,2.9-4.6,5.7v2.4
			c0,22.2-1.9,33.9,6.9,48.1c9.5,15.4,27.8,24.7,47.4,21.5C310.1,241.6,293.5,223.4,292.6,201z"/>
		<g>
			<path class="st14" d="M365.5,266.1l-9-2.2c-6.9,11.6-19.1,19.3-32.9,19.3C323.6,283.2,365.7,325.3,365.5,266.1z"/>
			<path class="st14" d="M281.9,266.1l9-2.2c6.9,11.6,19.1,19.3,32.9,19.3C323.8,283.2,281.7,325.3,281.9,266.1z"/>
		</g>
		<g>
			<path class="st58" d="M303.8,277.3c-7.4,4-16,5.8-21.5-1.5c4.4,44.5,41.5,7.4,41.5,7.4C316.5,283.2,309.6,281,303.8,277.3z"/>
			<path class="st58" d="M343.6,277.3c7.4,4,16,5.8,21.5-1.5c-4.4,44.5-41.5,7.4-41.5,7.4C330.9,283.2,337.8,281,343.6,277.3z"/>
		</g>
		<path class="st59" d="M260.4,290.7c-0.1,0-0.2-0.1-0.3-0.1c-29.9-9.3-61.1,10.4-65.7,41.3c-1.2,7.8-0.2,13.2-0.6,46.6
			c0,6.2,0,23.8,0,30.2H296c0-2.6,0-69.7-0.1-71.6C295,315.5,280.6,297.1,260.4,290.7z"/>
		<path class="st60" d="M209.2,336.5c1.4-23.9,19.3-44,43.4-47.6c-29-4.2-54.2,15.9-58.2,43c-1.2,7.8-0.2,13.2-0.6,46.6
			c0,6.2,0,23.8,0,30.2h15.3C209.1,332.5,209.1,338.8,209.2,336.5z"/>
		<g>
			<path class="st61" d="M211.7,385.5c-0.1-2.5,1.8-4.7,4.3-4.9c35.3-2.1,45.7-22.6,46.1-23.5c1.1-2.3,3.9-3.2,6.1-2.2
				c2.3,1.1,3.3,3.8,2.2,6.1c-0.5,1.1-12.8,26.3-53.9,28.7C214,390,211.8,388.1,211.7,385.5z"/>
			<path class="st61" d="M296,349c-0.7,1-17.1,40.6-73.2,59.7h23.8c19.5-9.9,37-24,49.5-41.6L296,349L296,349L296,349z"/>
			<path class="st61" d="M296,381.2c-4.1,5.1-12.9,15.3-27.4,27.5h14c5.5-5,9.9-9.5,13.4-13.3C296,390.1,296,384.3,296,381.2z"/>
		</g>
		<g>
			<path class="st62" d="M274.1,327.8c3.6,8.4,3.8,18.3,0,27.1c8-0.8,14.2-6.5,14.2-13.5S282.1,328.6,274.1,327.8z"/>
			<path class="st62" d="M215.7,327.8c-8,0.8-14.2,6.5-14.2,13.5s6.2,12.8,14.2,13.5C212.1,346.4,212,336.5,215.7,327.8z"/>
		</g>
		<g>
			<path class="st63" d="M276.8,343.7c-0.3,4-1.2,7.7-2.7,11.2c10.7-1,17.2-10.6,12.9-18.9C285.2,339.7,281.4,342.6,276.8,343.7z"/>
			<path class="st63" d="M202.8,336c-4.2,8.4,2.3,17.9,12.9,18.9c-1.5-3.5-2.4-7.2-2.7-11.2C208.4,342.6,204.7,339.7,202.8,336z"/>
		</g>
		<path class="st64" d="M261,312.6L261,312.6c-9.9-6.1-22.3-6.1-32.2,0l0,0c-29.3,19.7-14.4,62.1,16.1,62.1
			c17.6,0,31.9-14.9,31.9-33.3C276.9,321.4,261.1,312.7,261,312.6z"/>
		<path class="st62" d="M266.3,366.1c-24.8,6.1-47.2-18.6-39.4-43.3c1-3.3,2.3-5.5,2.4-5.7l0,0c1.5-2.7,3.3-5.2,5.5-7.3
			c-2.1,0.6-4.2,1.6-6,2.7l0,0c-4,2.7-6.8,4.9-10,9.6c-9.1,13.4-7.4,31.9,4.2,43.4C235.2,377.1,253.6,378,266.3,366.1z"/>
		<path class="st65" d="M275,330c-4.3-12.3-13.6-17.1-13.9-17.4l0,0c-9.9-6.1-22.3-6.1-32.2,0l0,0c-4.1,2.8-8.4,6.1-11.9,12.8
			c9.4,11.7,26.1,13.8,38.1,5.5c1.4-1,3.4-1,4.9-0.1c2.5,1.6,5.5,2.3,8.6,1.9C270.9,332.5,273.1,331.5,275,330z"/>
		<path class="st66" d="M225.4,332.5c0-3.2,0.5-6.4,1.5-9.6c1-3.3,2.3-5.5,2.4-5.7l0,0c1.5-2.7,3.3-5.2,5.5-7.3
			c-2.1,0.6-4.4,1.7-6,2.7l0,0c-4.1,2.8-8.4,6.1-11.9,12.8C219.2,328.3,222.1,330.7,225.4,332.5z"/>
	</g>
</g>
<g id="Layer_3_3_">
</g>
</svg>
