<?xml version="1.0" encoding="utf-8"?>
<!-- Generator: Adobe Illustrator 25.0.1, SVG Export Plug-In . SVG Version: 6.00 Build 0)  -->
<svg version="1.1" xmlns="http://www.w3.org/2000/svg" xmlns:xlink="http://www.w3.org/1999/xlink" x="0px" y="0px"
	 viewBox="0 0 512 512" style="enable-background:new 0 0 512 512;" xml:space="preserve">
<style type="text/css">
	.st0{fill:none;}
	.st1{fill:#F4EC83;}
	.st2{display:none;}
	.st3{display:inline;fill:#AFBCC2;}
	.st4{display:inline;fill:#E1EAF0;}
	.st5{display:inline;}
	.st6{fill:#AFBCC2;}
	.st7{display:inline;fill:#92A3AC;}
	.st8{display:inline;fill:#C2D8E3;}
	.st9{fill:#E1EAF0;}
	.st10{display:inline;fill:#575B6D;}
	.st11{display:inline;fill:#414451;}
	.st12{fill:#AE6C6C;}
	.st13{fill:#73CAC3;}
	.st14{fill:#68B6B0;}
	.st15{fill:#B36241;}
	.st16{fill:#965336;}
	.st17{fill:#FBD485;}
	.st18{fill:#83442E;}
	.st19{fill:#2A2615;}
	.st20{fill:#FFFFFF;}
	.st21{fill:#653412;}
	.st22{fill:#9F5617;}
	.st23{fill:#3D444B;}
	.st24{fill:#975436;}
	.st25{fill:#076077;}
	.st26{fill:#9B4D34;}
	.st27{fill:#462814;}
	.st28{clip-path:url(#SVGID_2_);}
	.st29{clip-path:url(#SVGID_4_);}
	.st30{fill:#F9C9B3;}
	.st31{fill:#F7EBEB;}
	.st32{clip-path:url(#SVGID_10_);fill:url(#SVGID_11_);stroke:url(#SVGID_12_);stroke-width:0.5492;stroke-miterlimit:10;}
	.st33{fill:#A05339;stroke:#FCD2C0;stroke-width:0.4119;stroke-linejoin:round;stroke-miterlimit:10;}
	.st34{fill:none;stroke:#FCD2C0;stroke-width:0.4119;stroke-linejoin:round;stroke-miterlimit:10;}
	.st35{fill:none;stroke:#FCD2C0;stroke-width:0.2746;stroke-linejoin:round;stroke-miterlimit:10.0006;}
	.st36{fill:#462713;}
	.st37{clip-path:url(#SVGID_14_);fill:#E85B54;}
	.st38{fill:#D77761;}
	.st39{fill:#FFF164;}
	.st40{fill:#EAC246;}
	.st41{fill:#CBA53C;}
	.st42{fill:#C2D8E3;}
	.st43{fill:#127E9B;}
	.st44{fill:#C5E6DA;}
	.st45{fill:#92A3AC;}
</style>
<pattern  x="-1064" y="512" width="32" height="32.1" patternUnits="userSpaceOnUse" id="SVGID_7_" viewBox="4.5 -36.5 32 32.1" style="overflow:visible;">
	<g>
		<rect x="4.5" y="-36.5" class="st0" width="32" height="32.1"/>
		<g>
			<rect x="4.5" y="-36.5" class="st0" width="32" height="32.1"/>
			<g id="fleur_14_">
				<ellipse class="st1" cx="28.5" cy="-34.7" rx="0.6" ry="2.6"/>
				<ellipse transform="matrix(0.866 -0.5001 0.5001 0.866 21.5517 10.224)" class="st1" cx="29.9" cy="-35.1" rx="0.6" ry="2.6"/>
				<ellipse transform="matrix(0.4983 -0.867 0.867 0.4983 46.6275 8.6561)" class="st1" cx="30.8" cy="-36" rx="0.6" ry="2.6"/>
				<ellipse transform="matrix(0.8558 -0.5173 0.5173 0.8558 22.419 8.4392)" class="st1" cx="26.3" cy="-36" rx="2.6" ry="0.6"/>
				<ellipse transform="matrix(0.481 -0.8767 0.8767 0.481 44.8336 5.765)" class="st1" cx="27.3" cy="-35" rx="2.6" ry="0.6"/>
			</g>
			<g id="fleur_13_">
				<ellipse class="st1" cx="12.5" cy="-34.7" rx="0.6" ry="2.6"/>
				<ellipse transform="matrix(0.866 -0.5001 0.5001 0.866 19.4101 2.2224)" class="st1" cx="13.9" cy="-35.1" rx="0.6" ry="2.6"/>
				<ellipse transform="matrix(0.4983 -0.867 0.867 0.4983 38.6108 -5.2156)" class="st1" cx="14.8" cy="-36" rx="0.6" ry="2.6"/>
				<ellipse transform="matrix(0.8558 -0.5173 0.5173 0.8558 20.1149 0.1624)" class="st1" cx="10.3" cy="-36" rx="2.6" ry="0.6"/>
				<ellipse transform="matrix(0.481 -0.8767 0.8767 0.481 36.5393 -8.2624)" class="st1" cx="11.3" cy="-35" rx="2.6" ry="0.6"/>
			</g>
			<g id="fleur_7_">
				<ellipse class="st1" cx="36.5" cy="-18.7" rx="0.6" ry="2.6"/>
				<ellipse transform="matrix(0.866 -0.5001 0.5001 0.866 14.5709 16.3631)" class="st1" cx="37.8" cy="-19" rx="0.6" ry="2.6"/>
				<ellipse transform="matrix(0.4983 -0.867 0.867 0.4983 36.8144 23.5599)" class="st1" cx="38.8" cy="-20" rx="0.6" ry="2.6"/>
				<ellipse transform="matrix(0.8615 -0.5078 0.5078 0.8615 16.85 16.5415)" class="st1" cx="38.7" cy="-22.6" rx="2.6" ry="0.6"/>
				
					<ellipse transform="matrix(0.4906 -0.8714 0.8714 0.4906 39.7234 20.9699)" class="st1" cx="37.8" cy="-23.5" rx="2.6" ry="0.6"/>
				
					<ellipse transform="matrix(0.9999 -1.093165e-02 1.093165e-02 0.9999 0.2635 0.3979)" class="st1" cx="36.5" cy="-23.9" rx="0.6" ry="2.6"/>
				
					<ellipse transform="matrix(0.8605 -0.5095 0.5095 0.8605 16.8849 14.6715)" class="st1" cx="35.2" cy="-23.5" rx="0.6" ry="2.6"/>
				
					<ellipse transform="matrix(0.4888 -0.8724 0.8724 0.4888 37.1295 18.4153)" class="st1" cx="34.3" cy="-22.5" rx="0.6" ry="2.6"/>
				
					<ellipse transform="matrix(0.9999 -1.652858e-02 1.652858e-02 0.9999 0.355 0.5579)" class="st1" cx="33.9" cy="-21.2" rx="2.6" ry="0.6"/>
				
					<ellipse transform="matrix(0.8558 -0.5173 0.5173 0.8558 15.2426 14.8782)" class="st1" cx="34.3" cy="-19.9" rx="2.6" ry="0.6"/>
				<ellipse transform="matrix(0.481 -0.8767 0.8767 0.481 34.9533 21.1122)" class="st1" cx="35.3" cy="-19" rx="2.6" ry="0.6"/>
				<ellipse class="st1" cx="36.5" cy="-21.3" rx="0.8" ry="0.8"/>
			</g>
			<g id="fleur_5_">
				<ellipse class="st1" cx="20.5" cy="-18.7" rx="0.6" ry="2.6"/>
				<ellipse transform="matrix(0.866 -0.5001 0.5001 0.866 12.4293 8.3615)" class="st1" cx="21.8" cy="-19" rx="0.6" ry="2.6"/>
				<ellipse transform="matrix(0.4983 -0.867 0.867 0.4983 28.7475 9.7749)" class="st1" cx="22.8" cy="-20" rx="0.6" ry="2.6"/>
				
					<ellipse transform="matrix(1 -5.509855e-03 5.509855e-03 1 0.1177 0.1271)" class="st1" cx="23.1" cy="-21.3" rx="2.6" ry="0.6"/>
				<ellipse transform="matrix(0.8615 -0.5078 0.5078 0.8615 14.636 8.4166)" class="st1" cx="22.7" cy="-22.6" rx="2.6" ry="0.6"/>
				
					<ellipse transform="matrix(0.4906 -0.8714 0.8714 0.4906 31.5824 7.0272)" class="st1" cx="21.8" cy="-23.5" rx="2.6" ry="0.6"/>
				
					<ellipse transform="matrix(0.9999 -1.093165e-02 1.093165e-02 0.9999 0.2625 0.223)" class="st1" cx="20.5" cy="-23.9" rx="0.6" ry="2.6"/>
				<ellipse transform="matrix(0.8605 -0.5095 0.5095 0.8605 14.655 6.5194)" class="st1" cx="19.2" cy="-23.5" rx="0.6" ry="2.6"/>
				<ellipse transform="matrix(0.4888 -0.8724 0.8724 0.4888 28.96 4.4567)" class="st1" cx="18.3" cy="-22.5" rx="0.6" ry="2.6"/>
				
					<ellipse transform="matrix(0.9999 -1.652853e-02 1.652853e-02 0.9999 0.3529 0.2934)" class="st1" cx="17.9" cy="-21.2" rx="2.6" ry="0.6"/>
				
					<ellipse transform="matrix(0.8558 -0.5173 0.5173 0.8558 12.9385 6.6014)" class="st1" cx="18.3" cy="-19.9" rx="2.6" ry="0.6"/>
				<ellipse transform="matrix(0.481 -0.8767 0.8767 0.481 26.659 7.0847)" class="st1" cx="19.3" cy="-19" rx="2.6" ry="0.6"/>
				<ellipse class="st1" cx="20.5" cy="-21.3" rx="0.8" ry="0.8"/>
			</g>
			<g id="fleur_3_">
				<ellipse class="st1" cx="4.5" cy="-18.7" rx="0.6" ry="2.6"/>
				<ellipse transform="matrix(0.866 -0.5001 0.5001 0.866 10.2878 0.36)" class="st1" cx="5.8" cy="-19" rx="0.6" ry="2.6"/>
				<ellipse transform="matrix(0.4983 -0.867 0.867 0.4983 20.7307 -4.0968)" class="st1" cx="6.8" cy="-20" rx="0.6" ry="2.6"/>
				
					<ellipse transform="matrix(1 -5.509855e-03 5.509855e-03 1 0.1175 3.894489e-02)" class="st1" cx="7.1" cy="-21.3" rx="2.6" ry="0.6"/>
				<ellipse transform="matrix(0.8615 -0.5078 0.5078 0.8615 12.4081 0.3425)" class="st1" cx="6.8" cy="-22.6" rx="2.6" ry="0.6"/>
				
					<ellipse transform="matrix(0.4906 -0.8714 0.8714 0.4906 23.4414 -6.9156)" class="st1" cx="5.8" cy="-23.5" rx="2.6" ry="0.6"/>
				
					<ellipse transform="matrix(0.9999 -1.093165e-02 1.093165e-02 0.9999 0.2615 4.805918e-02)" class="st1" cx="4.5" cy="-23.9" rx="0.6" ry="2.6"/>
				<ellipse transform="matrix(0.8605 -0.5095 0.5095 0.8605 12.425 -1.6327)" class="st1" cx="3.2" cy="-23.5" rx="0.6" ry="2.6"/>
				<ellipse transform="matrix(0.4888 -0.8724 0.8724 0.4888 20.7904 -9.502)" class="st1" cx="2.3" cy="-22.5" rx="0.6" ry="2.6"/>
				
					<ellipse transform="matrix(0.8558 -0.5173 0.5173 0.8558 10.6343 -1.6753)" class="st1" cx="2.3" cy="-19.9" rx="2.6" ry="0.6"/>
				<ellipse transform="matrix(0.481 -0.8767 0.8767 0.481 18.3648 -6.9427)" class="st1" cx="3.3" cy="-19" rx="2.6" ry="0.6"/>
				<ellipse class="st1" cx="4.5" cy="-21.3" rx="0.8" ry="0.8"/>
			</g>
			<g id="fleur_2_">
				<ellipse class="st1" cx="28.5" cy="-2.6" rx="0.6" ry="2.6"/>
				<ellipse transform="matrix(0.866 -0.5001 0.5001 0.866 5.4986 14.514)" class="st1" cx="29.8" cy="-3" rx="0.6" ry="2.6"/>
				<ellipse transform="matrix(0.4983 -0.867 0.867 0.4983 18.8842 24.7654)" class="st1" cx="30.8" cy="-3.9" rx="0.6" ry="2.6"/>
				
					<ellipse transform="matrix(1 -5.509855e-03 5.509855e-03 1 2.967165e-02 0.1714)" class="st1" cx="31.1" cy="-5.3" rx="2.6" ry="0.6"/>
				<ellipse transform="matrix(0.8615 -0.5078 0.5078 0.8615 7.618 14.7036)" class="st1" cx="30.8" cy="-6.6" rx="2.6" ry="0.6"/>
				
					<ellipse transform="matrix(0.4906 -0.8714 0.8714 0.4906 21.7101 22.1781)" class="st1" cx="29.8" cy="-7.5" rx="2.6" ry="0.6"/>
				
					<ellipse transform="matrix(0.9999 -1.093165e-02 1.093165e-02 0.9999 8.698244e-02 0.3114)" class="st1" cx="28.5" cy="-7.8" rx="0.6" ry="2.6"/>
				<ellipse transform="matrix(0.8605 -0.5095 0.5095 0.8605 7.6178 12.836)" class="st1" cx="27.2" cy="-7.5" rx="0.6" ry="2.6"/>
				
					<ellipse transform="matrix(0.4888 -0.8724 0.8724 0.4888 19.0861 19.6442)" class="st1" cx="26.3" cy="-6.5" rx="0.6" ry="2.6"/>
				
					<ellipse transform="matrix(0.9999 -1.652853e-02 1.652853e-02 0.9999 8.947889e-02 0.4278)" class="st1" cx="25.9" cy="-5.2" rx="2.6" ry="0.6"/>
				<ellipse transform="matrix(0.8558 -0.5173 0.5173 0.8558 5.8138 13.0549)" class="st1" cx="26.3" cy="-3.9" rx="2.6" ry="0.6"/>
				<ellipse transform="matrix(0.481 -0.8767 0.8767 0.481 16.7787 22.4319)" class="st1" cx="27.3" cy="-3" rx="2.6" ry="0.6"/>
				<ellipse class="st1" cx="28.5" cy="-5.2" rx="0.8" ry="0.8"/>
			</g>
			<g id="fleur_1_">
				<ellipse class="st1" cx="12.5" cy="-2.6" rx="0.6" ry="2.6"/>
				<ellipse transform="matrix(0.866 -0.5001 0.5001 0.866 3.357 6.5124)" class="st1" cx="13.8" cy="-3" rx="0.6" ry="2.6"/>
				<ellipse transform="matrix(0.4983 -0.867 0.867 0.4983 10.8674 10.8937)" class="st1" cx="14.8" cy="-3.9" rx="0.6" ry="2.6"/>
				
					<ellipse transform="matrix(1 -5.509855e-03 5.509855e-03 1 2.942922e-02 8.326839e-02)" class="st1" cx="15.1" cy="-5.3" rx="2.6" ry="0.6"/>
				<ellipse transform="matrix(0.8615 -0.5078 0.5078 0.8615 5.404 6.5787)" class="st1" cx="14.8" cy="-6.6" rx="2.6" ry="0.6"/>
				<ellipse transform="matrix(0.4906 -0.8714 0.8714 0.4906 13.5691 8.2353)" class="st1" cx="13.8" cy="-7.5" rx="2.6" ry="0.6"/>
				
					<ellipse transform="matrix(0.9999 -1.093165e-02 1.093165e-02 0.9999 8.602754e-02 0.1365)" class="st1" cx="12.5" cy="-7.8" rx="0.6" ry="2.6"/>
				<ellipse transform="matrix(0.8605 -0.5095 0.5095 0.8605 5.3879 4.6838)" class="st1" cx="11.2" cy="-7.5" rx="0.6" ry="2.6"/>
				<ellipse transform="matrix(0.4888 -0.8724 0.8724 0.4888 10.9165 5.6856)" class="st1" cx="10.3" cy="-6.5" rx="0.6" ry="2.6"/>
				
					<ellipse transform="matrix(0.9999 -1.652852e-02 1.652852e-02 0.9999 8.729581e-02 0.1634)" class="st1" cx="9.9" cy="-5.2" rx="2.6" ry="0.6"/>
				<ellipse transform="matrix(0.8558 -0.5173 0.5173 0.8558 3.5097 4.7782)" class="st1" cx="10.3" cy="-3.9" rx="2.6" ry="0.6"/>
				<ellipse transform="matrix(0.481 -0.8767 0.8767 0.481 8.4844 8.4045)" class="st1" cx="11.3" cy="-3" rx="2.6" ry="0.6"/>
				<ellipse class="st1" cx="12.5" cy="-5.2" rx="0.8" ry="0.8"/>
			</g>
		</g>
	</g>
</pattern>
<pattern  x="-1064" y="512" width="32" height="32.1" patternUnits="userSpaceOnUse" id="SVGID_8_" viewBox="4.5 -36.5 32 32.1" style="overflow:visible;">
	<g>
		<rect x="4.5" y="-36.5" class="st0" width="32" height="32.1"/>
		<g>
			<rect x="4.5" y="-36.5" class="st0" width="32" height="32.1"/>
			<g id="fleur_21_">
				<ellipse class="st1" cx="28.5" cy="-34.7" rx="0.6" ry="2.6"/>
				<ellipse transform="matrix(0.866 -0.5001 0.5001 0.866 21.5517 10.224)" class="st1" cx="29.9" cy="-35.1" rx="0.6" ry="2.6"/>
				<ellipse transform="matrix(0.4983 -0.867 0.867 0.4983 46.6275 8.6561)" class="st1" cx="30.8" cy="-36" rx="0.6" ry="2.6"/>
				<ellipse transform="matrix(0.8558 -0.5173 0.5173 0.8558 22.419 8.4392)" class="st1" cx="26.3" cy="-36" rx="2.6" ry="0.6"/>
				<ellipse transform="matrix(0.481 -0.8767 0.8767 0.481 44.8336 5.765)" class="st1" cx="27.3" cy="-35" rx="2.6" ry="0.6"/>
			</g>
			<g id="fleur_20_">
				<ellipse class="st1" cx="12.5" cy="-34.7" rx="0.6" ry="2.6"/>
				<ellipse transform="matrix(0.866 -0.5001 0.5001 0.866 19.4101 2.2224)" class="st1" cx="13.9" cy="-35.1" rx="0.6" ry="2.6"/>
				<ellipse transform="matrix(0.4983 -0.867 0.867 0.4983 38.6108 -5.2156)" class="st1" cx="14.8" cy="-36" rx="0.6" ry="2.6"/>
				<ellipse transform="matrix(0.8558 -0.5173 0.5173 0.8558 20.1149 0.1624)" class="st1" cx="10.3" cy="-36" rx="2.6" ry="0.6"/>
				<ellipse transform="matrix(0.481 -0.8767 0.8767 0.481 36.5393 -8.2624)" class="st1" cx="11.3" cy="-35" rx="2.6" ry="0.6"/>
			</g>
			<g id="fleur_19_">
				<ellipse class="st1" cx="36.5" cy="-18.7" rx="0.6" ry="2.6"/>
				<ellipse transform="matrix(0.866 -0.5001 0.5001 0.866 14.5709 16.3631)" class="st1" cx="37.8" cy="-19" rx="0.6" ry="2.6"/>
				<ellipse transform="matrix(0.4983 -0.867 0.867 0.4983 36.8144 23.5599)" class="st1" cx="38.8" cy="-20" rx="0.6" ry="2.6"/>
				<ellipse transform="matrix(0.8615 -0.5078 0.5078 0.8615 16.85 16.5415)" class="st1" cx="38.7" cy="-22.6" rx="2.6" ry="0.6"/>
				
					<ellipse transform="matrix(0.4906 -0.8714 0.8714 0.4906 39.7234 20.9699)" class="st1" cx="37.8" cy="-23.5" rx="2.6" ry="0.6"/>
				
					<ellipse transform="matrix(0.9999 -1.093165e-02 1.093165e-02 0.9999 0.2635 0.3979)" class="st1" cx="36.5" cy="-23.9" rx="0.6" ry="2.6"/>
				
					<ellipse transform="matrix(0.8605 -0.5095 0.5095 0.8605 16.8849 14.6715)" class="st1" cx="35.2" cy="-23.5" rx="0.6" ry="2.6"/>
				
					<ellipse transform="matrix(0.4888 -0.8724 0.8724 0.4888 37.1295 18.4153)" class="st1" cx="34.3" cy="-22.5" rx="0.6" ry="2.6"/>
				
					<ellipse transform="matrix(0.9999 -1.652858e-02 1.652858e-02 0.9999 0.355 0.5579)" class="st1" cx="33.9" cy="-21.2" rx="2.6" ry="0.6"/>
				
					<ellipse transform="matrix(0.8558 -0.5173 0.5173 0.8558 15.2426 14.8782)" class="st1" cx="34.3" cy="-19.9" rx="2.6" ry="0.6"/>
				<ellipse transform="matrix(0.481 -0.8767 0.8767 0.481 34.9533 21.1122)" class="st1" cx="35.3" cy="-19" rx="2.6" ry="0.6"/>
				<ellipse class="st1" cx="36.5" cy="-21.3" rx="0.8" ry="0.8"/>
			</g>
			<g id="fleur_18_">
				<ellipse class="st1" cx="20.5" cy="-18.7" rx="0.6" ry="2.6"/>
				<ellipse transform="matrix(0.866 -0.5001 0.5001 0.866 12.4293 8.3615)" class="st1" cx="21.8" cy="-19" rx="0.6" ry="2.6"/>
				<ellipse transform="matrix(0.4983 -0.867 0.867 0.4983 28.7475 9.7749)" class="st1" cx="22.8" cy="-20" rx="0.6" ry="2.6"/>
				
					<ellipse transform="matrix(1 -5.509855e-03 5.509855e-03 1 0.1177 0.1271)" class="st1" cx="23.1" cy="-21.3" rx="2.6" ry="0.6"/>
				<ellipse transform="matrix(0.8615 -0.5078 0.5078 0.8615 14.636 8.4166)" class="st1" cx="22.7" cy="-22.6" rx="2.6" ry="0.6"/>
				
					<ellipse transform="matrix(0.4906 -0.8714 0.8714 0.4906 31.5824 7.0272)" class="st1" cx="21.8" cy="-23.5" rx="2.6" ry="0.6"/>
				
					<ellipse transform="matrix(0.9999 -1.093165e-02 1.093165e-02 0.9999 0.2625 0.223)" class="st1" cx="20.5" cy="-23.9" rx="0.6" ry="2.6"/>
				<ellipse transform="matrix(0.8605 -0.5095 0.5095 0.8605 14.655 6.5194)" class="st1" cx="19.2" cy="-23.5" rx="0.6" ry="2.6"/>
				<ellipse transform="matrix(0.4888 -0.8724 0.8724 0.4888 28.96 4.4567)" class="st1" cx="18.3" cy="-22.5" rx="0.6" ry="2.6"/>
				
					<ellipse transform="matrix(0.9999 -1.652853e-02 1.652853e-02 0.9999 0.3529 0.2934)" class="st1" cx="17.9" cy="-21.2" rx="2.6" ry="0.6"/>
				
					<ellipse transform="matrix(0.8558 -0.5173 0.5173 0.8558 12.9385 6.6014)" class="st1" cx="18.3" cy="-19.9" rx="2.6" ry="0.6"/>
				<ellipse transform="matrix(0.481 -0.8767 0.8767 0.481 26.659 7.0847)" class="st1" cx="19.3" cy="-19" rx="2.6" ry="0.6"/>
				<ellipse class="st1" cx="20.5" cy="-21.3" rx="0.8" ry="0.8"/>
			</g>
			<g id="fleur_17_">
				<ellipse class="st1" cx="4.5" cy="-18.7" rx="0.6" ry="2.6"/>
				<ellipse transform="matrix(0.866 -0.5001 0.5001 0.866 10.2878 0.36)" class="st1" cx="5.8" cy="-19" rx="0.6" ry="2.6"/>
				<ellipse transform="matrix(0.4983 -0.867 0.867 0.4983 20.7307 -4.0968)" class="st1" cx="6.8" cy="-20" rx="0.6" ry="2.6"/>
				
					<ellipse transform="matrix(1 -5.509855e-03 5.509855e-03 1 0.1175 3.894489e-02)" class="st1" cx="7.1" cy="-21.3" rx="2.6" ry="0.6"/>
				<ellipse transform="matrix(0.8615 -0.5078 0.5078 0.8615 12.4081 0.3425)" class="st1" cx="6.8" cy="-22.6" rx="2.6" ry="0.6"/>
				
					<ellipse transform="matrix(0.4906 -0.8714 0.8714 0.4906 23.4414 -6.9156)" class="st1" cx="5.8" cy="-23.5" rx="2.6" ry="0.6"/>
				
					<ellipse transform="matrix(0.9999 -1.093165e-02 1.093165e-02 0.9999 0.2615 4.805918e-02)" class="st1" cx="4.5" cy="-23.9" rx="0.6" ry="2.6"/>
				<ellipse transform="matrix(0.8605 -0.5095 0.5095 0.8605 12.425 -1.6327)" class="st1" cx="3.2" cy="-23.5" rx="0.6" ry="2.6"/>
				<ellipse transform="matrix(0.4888 -0.8724 0.8724 0.4888 20.7904 -9.502)" class="st1" cx="2.3" cy="-22.5" rx="0.6" ry="2.6"/>
				
					<ellipse transform="matrix(0.8558 -0.5173 0.5173 0.8558 10.6343 -1.6753)" class="st1" cx="2.3" cy="-19.9" rx="2.6" ry="0.6"/>
				<ellipse transform="matrix(0.481 -0.8767 0.8767 0.481 18.3648 -6.9427)" class="st1" cx="3.3" cy="-19" rx="2.6" ry="0.6"/>
				<ellipse class="st1" cx="4.5" cy="-21.3" rx="0.8" ry="0.8"/>
			</g>
			<g id="fleur_16_">
				<ellipse class="st1" cx="28.5" cy="-2.6" rx="0.6" ry="2.6"/>
				<ellipse transform="matrix(0.866 -0.5001 0.5001 0.866 5.4986 14.514)" class="st1" cx="29.8" cy="-3" rx="0.6" ry="2.6"/>
				<ellipse transform="matrix(0.4983 -0.867 0.867 0.4983 18.8842 24.7654)" class="st1" cx="30.8" cy="-3.9" rx="0.6" ry="2.6"/>
				
					<ellipse transform="matrix(1 -5.509855e-03 5.509855e-03 1 2.967165e-02 0.1714)" class="st1" cx="31.1" cy="-5.3" rx="2.6" ry="0.6"/>
				<ellipse transform="matrix(0.8615 -0.5078 0.5078 0.8615 7.618 14.7036)" class="st1" cx="30.8" cy="-6.6" rx="2.6" ry="0.6"/>
				
					<ellipse transform="matrix(0.4906 -0.8714 0.8714 0.4906 21.7101 22.1781)" class="st1" cx="29.8" cy="-7.5" rx="2.6" ry="0.6"/>
				
					<ellipse transform="matrix(0.9999 -1.093165e-02 1.093165e-02 0.9999 8.698244e-02 0.3114)" class="st1" cx="28.5" cy="-7.8" rx="0.6" ry="2.6"/>
				<ellipse transform="matrix(0.8605 -0.5095 0.5095 0.8605 7.6178 12.836)" class="st1" cx="27.2" cy="-7.5" rx="0.6" ry="2.6"/>
				
					<ellipse transform="matrix(0.4888 -0.8724 0.8724 0.4888 19.0861 19.6442)" class="st1" cx="26.3" cy="-6.5" rx="0.6" ry="2.6"/>
				
					<ellipse transform="matrix(0.9999 -1.652853e-02 1.652853e-02 0.9999 8.947889e-02 0.4278)" class="st1" cx="25.9" cy="-5.2" rx="2.6" ry="0.6"/>
				<ellipse transform="matrix(0.8558 -0.5173 0.5173 0.8558 5.8138 13.0549)" class="st1" cx="26.3" cy="-3.9" rx="2.6" ry="0.6"/>
				<ellipse transform="matrix(0.481 -0.8767 0.8767 0.481 16.7787 22.4319)" class="st1" cx="27.3" cy="-3" rx="2.6" ry="0.6"/>
				<ellipse class="st1" cx="28.5" cy="-5.2" rx="0.8" ry="0.8"/>
			</g>
			<g id="fleur_15_">
				<ellipse class="st1" cx="12.5" cy="-2.6" rx="0.6" ry="2.6"/>
				<ellipse transform="matrix(0.866 -0.5001 0.5001 0.866 3.357 6.5124)" class="st1" cx="13.8" cy="-3" rx="0.6" ry="2.6"/>
				<ellipse transform="matrix(0.4983 -0.867 0.867 0.4983 10.8674 10.8937)" class="st1" cx="14.8" cy="-3.9" rx="0.6" ry="2.6"/>
				
					<ellipse transform="matrix(1 -5.509855e-03 5.509855e-03 1 2.942922e-02 8.326839e-02)" class="st1" cx="15.1" cy="-5.3" rx="2.6" ry="0.6"/>
				<ellipse transform="matrix(0.8615 -0.5078 0.5078 0.8615 5.404 6.5787)" class="st1" cx="14.8" cy="-6.6" rx="2.6" ry="0.6"/>
				<ellipse transform="matrix(0.4906 -0.8714 0.8714 0.4906 13.5691 8.2353)" class="st1" cx="13.8" cy="-7.5" rx="2.6" ry="0.6"/>
				
					<ellipse transform="matrix(0.9999 -1.093165e-02 1.093165e-02 0.9999 8.602754e-02 0.1365)" class="st1" cx="12.5" cy="-7.8" rx="0.6" ry="2.6"/>
				<ellipse transform="matrix(0.8605 -0.5095 0.5095 0.8605 5.3879 4.6838)" class="st1" cx="11.2" cy="-7.5" rx="0.6" ry="2.6"/>
				<ellipse transform="matrix(0.4888 -0.8724 0.8724 0.4888 10.9165 5.6856)" class="st1" cx="10.3" cy="-6.5" rx="0.6" ry="2.6"/>
				
					<ellipse transform="matrix(0.9999 -1.652852e-02 1.652852e-02 0.9999 8.729581e-02 0.1634)" class="st1" cx="9.9" cy="-5.2" rx="2.6" ry="0.6"/>
				<ellipse transform="matrix(0.8558 -0.5173 0.5173 0.8558 3.5097 4.7782)" class="st1" cx="10.3" cy="-3.9" rx="2.6" ry="0.6"/>
				<ellipse transform="matrix(0.481 -0.8767 0.8767 0.481 8.4844 8.4045)" class="st1" cx="11.3" cy="-3" rx="2.6" ry="0.6"/>
				<ellipse class="st1" cx="12.5" cy="-5.2" rx="0.8" ry="0.8"/>
			</g>
		</g>
	</g>
</pattern>
<g id="Layer_1">
	<g class="st2">
		<path class="st3" d="M-753.4,408.7h82.2V185.5c0-4.4-3.6-7.9-7.9-7.9h-74.2L-753.4,408.7z"/>
		<path class="st4" d="M-753.4,378.7h56.8c4.4,0,7.9-3.6,7.9-7.9v-51.8c0-4.4-3.6-7.9-7.9-7.9h-56.8V378.7z"/>
		<path class="st4" d="M-753.4,275.3h56.8c4.4,0,7.9-3.6,7.9-7.9v-51.8c0-4.4-3.6-7.9-7.9-7.9h-56.8V275.3z"/>
		<g class="st5">
			<path class="st6" d="M-688.7,247.4h-41.6c-3.3,0-6-2.7-6-6s2.7-6,6-6h41.6c3.3,0,6,2.7,6,6S-685.4,247.4-688.7,247.4z"/>
		</g>
		<g class="st5">
			<path class="st6" d="M-688.7,350.8h-41.6c-3.3,0-6-2.7-6-6s2.7-6,6-6h41.6c3.3,0,6,2.7,6,6C-682.7,348.1-685.4,350.8-688.7,350.8
				z"/>
		</g>
		<path class="st7" d="M-671.3,177.6h-23.8c4.4,0,7.9,3.6,7.9,7.9v223.2h23.8V185.5C-663.3,181.2-666.9,177.6-671.3,177.6
			L-671.3,177.6z"/>
		<path class="st3" d="M-862.5,408.7h-90.1V185.5c0-4.4,3.6-7.9,7.9-7.9h82.2V408.7z"/>
		<path class="st7" d="M-909.4,177.6h23.8v231.1h-23.8V177.6z"/>
		<path class="st4" d="M-862.5,378.7h-56.8c-4.4,0-7.9-3.6-7.9-7.9v-51.8c0-4.4,3.6-7.9,7.9-7.9h56.8V378.7z"/>
		<path class="st8" d="M-909.4,311h46.9v67.7h-46.9V311z"/>
		<path class="st4" d="M-862.5,275.3h-56.8c-4.4,0-7.9-3.6-7.9-7.9v-51.8c0-4.4,3.6-7.9,7.9-7.9h56.8V275.3z"/>
		<path class="st8" d="M-909.4,207.6h46.9v67.7h-46.9V207.6z"/>
		<path class="st3" d="M-738.3,408.7h-147.3V111.2c0-4.4,3.6-7.9,7.9-7.9h131.4c4.4,0,7.9,3.6,7.9,7.9L-738.3,408.7L-738.3,408.7z"
			/>
		<path class="st7" d="M-738.3,103.3h-23.8c4.4,0,7.9,3.6,7.9,7.9v297.5h23.8V111.2C-730.3,106.9-733.9,103.3-738.3,103.3
			L-738.3,103.3z"/>
		<g class="st5">
			<path class="st9" d="M-854.5,254h24.1c4.4,0,7.9,3.6,7.9,7.9V286c0,4.4-3.6,7.9-7.9,7.9h-24.1c-4.4,0-7.9-3.6-7.9-7.9v-24.1
				C-862.5,257.5-858.9,254-854.5,254z"/>
			<path class="st9" d="M-785.5,254h24.1c4.4,0,7.9,3.6,7.9,7.9V286c0,4.4-3.6,7.9-7.9,7.9h-24.1c-4.4,0-7.9-3.6-7.9-7.9v-24.1
				C-793.4,257.5-789.8,254-785.5,254z"/>
			<path class="st9" d="M-854.5,192.7h24.1c4.4,0,7.9,3.6,7.9,7.9v24.1c0,4.4-3.6,7.9-7.9,7.9h-24.1c-4.4,0-7.9-3.6-7.9-7.9v-24.1
				C-862.5,196.3-858.9,192.7-854.5,192.7z"/>
			<path class="st9" d="M-785.5,192.7h24.1c4.4,0,7.9,3.6,7.9,7.9v24.1c0,4.4-3.6,7.9-7.9,7.9h-24.1c-4.4,0-7.9-3.6-7.9-7.9v-24.1
				C-793.4,196.3-789.8,192.7-785.5,192.7z"/>
			<path class="st9" d="M-854.5,131.5h24.1c4.4,0,7.9,3.6,7.9,7.9v24.1c0,4.4-3.6,7.9-7.9,7.9h-24.1c-4.4,0-7.9-3.6-7.9-7.9v-24.1
				C-862.5,135-858.9,131.5-854.5,131.5z"/>
			<path class="st9" d="M-785.5,131.5h24.1c4.4,0,7.9,3.6,7.9,7.9v24.1c0,4.4-3.6,7.9-7.9,7.9h-24.1c-4.4,0-7.9-3.6-7.9-7.9v-24.1
				C-793.4,135-789.8,131.5-785.5,131.5z"/>
		</g>
		<g class="st5">
			<path class="st6" d="M-885.6,247.4h-41.6c-3.3,0-6-2.7-6-6s2.7-6,6-6h41.6c3.3,0,6,2.7,6,6S-882.3,247.4-885.6,247.4z"/>
		</g>
		<g class="st5">
			<path class="st6" d="M-885.6,350.8h-41.6c-3.3,0-6-2.7-6-6s2.7-6,6-6h41.6c3.3,0,6,2.7,6,6C-879.6,348.1-882.3,350.8-885.6,350.8
				z"/>
		</g>
		<path class="st4" d="M-777.2,344.8H-802l-6-6l-6,6h-24.8v63.9h61.5V344.8z"/>
		<path class="st8" d="M-777.2,344.8H-802l-6-6l-6,6h-24.8v14.3h61.5V344.8z"/>
		<path class="st7" d="M-813.9,408.7h11.9v-63.9l-6-6l-6,6V408.7z"/>
		<path class="st3" d="M-813.9,359.1h11.9v-14.3l-6-6l-6,6V359.1z"/>
		<path class="st10" d="M-777.7,322.1h-68.5c-4.4,0-7.9,3.6-7.9,7.9v6.9c0,4.4,3.6,7.9,7.9,7.9h68.5c4.4,0,7.9-3.6,7.9-7.9V330
			C-769.7,325.7-773.3,322.1-777.7,322.1z"/>
		<path class="st11" d="M-769.7,322.1h-15.9c4.4,0,7.9,3.6,7.9,7.9v6.9c0,4.4-3.6,7.9-7.9,7.9h15.9c4.4,0,7.9-3.6,7.9-7.9V330
			C-761.8,325.7-765.3,322.1-769.7,322.1z"/>
		<g class="st5">
			<g>
				<path class="st12" d="M-663.4,408.7c-3.3,0-6-2.7-6-6v-45.5c0-3.3,2.7-6,6-6s6,2.7,6,6v45.5C-657.5,406-660.1,408.7-663.4,408.7
					z"/>
			</g>
			<path class="st13" d="M-659.8,295.3l13.5,45.9c0.8,1.6,0.3,3.5-1,4.7l-13.5,18.4c-1.5,1.3-3.7,1.3-5.2,0l-21.4-18.4
				c-1.4-1.2-1.8-3.1-1-4.7l21.4-45.9C-665.6,292.3-661.3,292.3-659.8,295.3z"/>
			<path class="st14" d="M-638.4,341.2l-21.4-45.9c-1.4-3.1-5.8-3.1-7.2,0l-4.3,9.3l17.1,36.6c0.8,1.6,0.3,3.5-1,4.7l-16.1,13.8
				l5.4,4.6c1.5,1.3,3.7,1.3,5.2,0l21.4-18.4C-638,344.7-637.6,342.8-638.4,341.2L-638.4,341.2z"/>
		</g>
		<g class="st5">
			<g>
				<path class="st12" d="M-952.6,408.7c-3.3,0-6-2.7-6-6v-45.5c0-3.3,2.7-6,6-6s6,2.7,6,6v45.5C-946.6,406-949.3,408.7-952.6,408.7
					z"/>
			</g>
			<path class="st13" d="M-949,295.3l13.5,45.9c0.8,1.6,0.3,3.5-1,4.7l-13.5,18.4c-1.5,1.3-3.7,1.3-5.2,0l-21.4-18.4
				c-1.4-1.2-1.8-3.1-1-4.7l21.4-45.9C-954.7,292.3-950.4,292.3-949,295.3z"/>
			<path class="st14" d="M-927.5,341.2l-21.4-45.9c-1.4-3.1-5.8-3.1-7.2,0l-4.3,9.3l17.1,36.6c0.8,1.6,0.3,3.5-1,4.7l-16.1,13.8
				l5.4,4.6c1.5,1.3,3.7,1.3,5.2,0l21.4-18.4C-927.2,344.7-926.8,342.8-927.5,341.2z"/>
		</g>
	</g>
	<g id="Layer_2">
	</g>
	<g class="st2">
		<path class="st15" d="M-842.5,415.8c-0.6-0.3,0.8-7.3,1-8.4c-4.7-11.8-7.5-33-7.5-33s9.5-0.3,17.3,0.5c3.7,12.6,0.7,27.4-0.4,31.9
			c1.6,0.8,6.9,3.2,6.9,4c0,0.9-0.6,2.6-4.5,0c0,0,1.6,7.2-0.5,7c-2.1-0.2-2.4-2.7-2.4-2.7s-1,3.4-1.7,3c-0.8-0.4-2.3-2.4-2.3-2.4
			s-1.4,2.6-2.4,2.1c-1-0.5-1.1-3.2-1.1-3.2S-841.7,416.2-842.5,415.8z"/>
		<g class="st5">
			<path id="arrière_bras_d_2_" class="st16" d="M-807.3,377.4c0,0,5.8,9.8,18.1,10c25.6-33.2,36.3-61.3,36.3-61.3
				s10.6-34.4-6.6-40.5c0,0-8.1-4.5-23.3,28.2C-782.9,313.8-806.2,359.6-807.3,377.4z"/>
			<path class="st17" d="M-672.1,385.5c5.5-35.4,9.4-71.8,9.9-80.4V305c0.9-18.8-4.2-22.6-7.3-25.8c-0.5-0.5-1.4-1-2.6-1.5
				c0,0,0,0-0.1,0c-4.9-1.9-15-3.1-27.6-3.1c-1,0-2,0-3.1,0c-2.4,0-4.9,0.1-7.5,0.3c-6.1,0.3-12.6,1-19.1,2
				c-1.8,0.2-3.6,0.6-5.4,0.9c-0.6,0.1-1.1,0.2-1.7,0.3c-5.5,1.1-11,2.5-16.2,4.2c-3.8,1.2-13.6,4.4-14.5,5.9
				c-1,1.4-2.4,11.4-2.6,12.2c-3.4,11.3-3.1,33.5-3.1,33.5s-5.2,9.2-5.3,11c-0.1,2-0.3,4.7,0.1,7.9c0,0.4,0.1,0.8,0.1,1.2
				c0.3,1.8,0.7,3.6,1.4,5.5l0,0c0.5,1.4,1.1,2.8,2,4.1c0.4,0.7,0.8,1.3,1.3,2c1.1,1.6,2.5,3.1,4.1,4.7c0,0,0,1.1,0,3.3
				c0,2,0,4.9,0,8.3c0,2.3-3,35-4.6,54C-734.8,429.2-699.8,411.2-672.1,385.5z"/>
			<path class="st18" d="M-699.8,274.6c-0.3,4.5-1.5,8.3-2.2,11.1c-3.9,14.8-18.6,23.8-32.8,20.1c-11-2.9-16.8-12.5-17.8-23.5
				C-721.5,270.4-710.3,275-699.8,274.6z"/>
			<path id="cou_2_" class="st18" d="M-708.6,295.2l-24,2.3c-0.1,0-0.3-0.1-0.3-0.2l-4.6-47c0-0.1,0.1-0.3,0.2-0.3l24-2.3
				c0.1,0,0.3,0.1,0.3,0.2l4.6,47C-708.3,295.1-708.5,295.2-708.6,295.2z"/>
			<g>
				<path class="st16" d="M-782.2,218c9.9,65.1,48.9,60,48.9,60s36.1-5.4,30.4-74.4C-719.2,146.4-787.2,166.3-782.2,218z"/>
				<path class="st19" d="M-745.9,182c0,0-3.4,6.7-10.9,7.5c-0.6,8-13.8,15.8-20.8,15.8c0,0,0,12.1-3.8,15.2c0,0,1.7,9.9,4.7,19.9
					c0,0-9.5,4.9-15.4-8.5c-11-1.1-7.4-9.6-7.4-9.6c-7.3-4.1-15.5-10.3-7.6-23.9c0,0-7.9-20.8,7.4-21.3c0,0-7.5-14.2,8.9-15.2
					c0,0,2.9-19.3,16.6-15.1c0,0,10.1-18.4,20.9-8.3c0,0,28.6-14.1,39,5.9c0,0,11.4-2.1,14,11.1c0,0,11.7-6.2,15.3,13.4
					c0,0,7.3,9.8,4.1,18.1c0,0,9.6,11.9-2.3,27.1c0,0-5.5,24.3-21.4,25.7c0,0,2.4-19.1,2.1-27c0,0-10.6,2.1-15.3-16.1
					c-8.3,0.4-13-3.6-15.2-9.3C-739.6,189.2-745.9,182-745.9,182z"/>
				<g id="cil_G_4_">
					
						<ellipse transform="matrix(0.9953 -9.723133e-02 9.723133e-02 0.9953 -25.3226 -69.6798)" class="st20" cx="-727.6" cy="225" rx="10.2" ry="8.9"/>
					<path class="st21" d="M-713.2,220.3l-5,0.9c0,0-2.8-5.4-9.9-5c-5.9,0.5-8.7,4.1-9.5,7.6c0,0,2-13.1,18.1-7.5l2.6-1l-0.3,2.1
						l3.1-0.2l-1.4,2.1L-713.2,220.3z"/>
				</g>
				<g id="pupil_G_4_">
					<g id="pupil_gauche_4_">
						
							<ellipse transform="matrix(0.9953 -9.723133e-02 9.723133e-02 0.9953 -25.5685 -69.7839)" class="st22" cx="-728.8" cy="227.5" rx="6.2" ry="6.6"/>
						
							<ellipse transform="matrix(0.9953 -9.723133e-02 9.723133e-02 0.9953 -25.5685 -69.7839)" class="st23" cx="-728.8" cy="227.5" rx="2.8" ry="3"/>
						
							<ellipse transform="matrix(0.4153 -0.9097 0.9097 0.4153 -633.2638 -533.6218)" class="st20" cx="-731.7" cy="225.8" rx="1.7" ry="1.2"/>
					</g>
					
						<ellipse transform="matrix(0.9953 -9.723133e-02 9.723133e-02 0.9953 -25.8053 -69.4055)" class="st20" cx="-725" cy="230.1" rx="0.6" ry="0.5"/>
				</g>
				<g id="cil_D_1_">
					
						<ellipse transform="matrix(0.3032 -0.9529 0.9529 0.3032 -757.6356 -569.4381)" class="st20" cx="-768.2" cy="233.3" rx="9" ry="8.6"/>
					<path class="st21" d="M-780.4,231.5l3.9,0.1c0,0,1.3-5.9,7.2-7.1c4-0.7,7.7,1.3,9.3,5.4c0,0-4.1-12.5-16.4-3.4l-2.3-0.4l0.6,2
						l-2.6,0.4l1.5,1.7L-780.4,231.5z"/>
				</g>
				<g id="pupil_D_1_">
					<g id="pupil_gauche_3_">
						
							<ellipse transform="matrix(0.9997 -2.337058e-02 2.337058e-02 0.9997 -5.7224 -17.9103)" class="st22" cx="-769.1" cy="235.9" rx="5.1" ry="6.5"/>
						
							<ellipse transform="matrix(0.9997 -2.344178e-02 2.344178e-02 0.9997 -5.7405 -17.9646)" class="st23" cx="-769.1" cy="235.9" rx="2.3" ry="2.9"/>
						
							<ellipse transform="matrix(0.3024 -0.9532 0.9532 0.3024 -761.0153 -572.1817)" class="st20" cx="-771.4" cy="233.8" rx="1.6" ry="1"/>
					</g>
					
						<ellipse transform="matrix(6.881541e-02 -0.9976 0.9976 6.881541e-02 -952.4987 -542.8253)" class="st20" cx="-767" cy="238.8" rx="0.5" ry="0.5"/>
				</g>
				<g>
					<path class="st24" d="M-751.9,243.8c0,0-3.1,7.5,5,5.9c8.1-1.6,6.8-4.2,6.8-4.2"/>
					<path class="st21" d="M-751.5,244c0,0.8-0.1,1.5-0.1,2.2c0,0.7,0.2,1.3,0.4,1.8c0.3,0.4,0.6,0.7,1.2,0.8c0.6,0.1,1.3,0.1,2,0
						c0.7,0,1.5-0.2,2.2-0.4l1.1-0.2l1.1-0.3c0.7-0.2,1.4-0.5,2-0.9l0.2-0.1l0.2-0.1c0.1-0.1,0.2-0.2,0.3-0.3
						c0.1-0.1,0.1-0.2,0.2-0.4c0-0.1,0-0.3,0-0.3l0-0.3c0-0.2,0.2-0.3,0.4-0.3c0.1,0,0.2,0.1,0.2,0.2c0.1,0.2,0.1,0.3,0.1,0.4
						c0,0.1,0,0.3,0,0.4c0,0.3-0.1,0.5-0.2,0.8c-0.2,0.5-0.5,0.9-0.9,1.1c-0.7,0.6-1.5,1-2.2,1.4c-0.4,0.2-0.8,0.3-1.2,0.5l-1.2,0.4
						c-0.8,0.2-1.6,0.4-2.5,0.6c-0.9,0.1-1.8,0.1-2.8,0c-0.5-0.1-1-0.3-1.5-0.6c-0.5-0.3-0.9-0.8-1.1-1.3c-0.5-1-0.5-2-0.3-2.9
						c0.2-0.9,0.5-1.7,1-2.4c0.1-0.2,0.4-0.2,0.6-0.1C-751.5,243.7-751.5,243.8-751.5,244L-751.5,244z"/>
				</g>
				<path class="st21" d="M-736.9,203.7c0,0-1.8,1.8,0,1.8c2.6-0.2,6.4-1.7,8.9,0.1C-727.5,205.5-728.6,201.7-736.9,203.7z"/>
				<path class="st21" d="M-768.6,206.8c0,0,2.1,1,0.8,1.7c-2,0.5-6.3,1.2-7.9,3.2C-776.3,211.6-774.6,207.2-768.6,206.8z"/>
				<path class="st21" d="M-753.1,263.8c0.6-0.7,2.9,0.6,6,0.4c1-0.1,2.5-0.5,3.8-0.7c0.6-0.1,4,0.1,4,0.1s2-0.8,4.3-1.2
					c4.8-0.4,7.6-2.7,7.6-2.7s-2,6.7-11.3,8.1c-3.5,0.2-6.3-0.1-8.5-0.7C-750.7,266.2-753.1,263.8-753.1,263.8z"/>
				<path class="st16" d="M-704.1,219.1c0,0,8.4-0.8,6.8,9c-1,6.6-4.3,7.9-8.9,7C-705.7,231.9-704.1,219.1-704.1,219.1z"/>
			</g>
			<path class="st25" d="M-778.6,436.8L-801.5,247c0,0-17.2-13.4-41.1-24.6c-41.5-18.7-99.6,21.3-99.6,21.3s28.8,124.4,43.5,173.5
				c27.2,13.9,58.1,21.7,90.7,21.7C-798,438.9-788.1,438.1-778.6,436.8z"/>
			<path class="st26" d="M-857.1,255.5c-37.2,3-47.4-30.2-47.4-30.8c5.9-3,12.3-5.2,19.2-7.3c23-5.6,40.5,4,40.5,4
				S-827.1,251.6-857.1,255.5z"/>
			<polygon id="cou" class="st26" points="-872.7,235.5 -898.2,235.4 -896.8,200.6 -871.1,204 			"/>
			<g id="tete">
				<path class="st27" d="M-835.6,178.3c0,0,15.1,4,21.6-11.3c0,0,9.1-1.1,8.6-9.4c0,0,11.6-3,6.5-16.6c0,0,11.5-13-1.7-19.2
					c0,0,8.7-15.5-10.6-15.6c0,0,8.8-12.2-8.2-11.2c0,0-2.1-17.9-20.9-11.9c0,0-3.3-12.9-15.7-6.4c0,0-9.7-8.4-16,0.2
					c0,0-10.3-4.2-15.7,4.2c0,0-12.3-7.4-17.5,6.4c0,0-12.3-2.6-10.6,10.1c0,0-12,5.3-8.2,14.7c0,0-10.7,2.7-4.5,11.7
					c0,0-6.8,7.3,1.1,13.1c0,0-3.1,6.7,1.8,10.4c0,0,1.7,14.8,8.4,18c0,0,4.9,14.3,18.5,16.5C-885.1,184.4-835.6,178.3-835.6,178.3z
					"/>
				<path class="st15" d="M-865.7,224.8L-865.7,224.8c20.7,1.6,38.6-13.8,40.3-34.5l4.3-51.4c0.5-6.8-4.6-12.7-11.3-13.2l-51.2-4
					c-6.2-0.5-11.7,4.2-12.2,10.5l-1,68.3C-897.7,216.7-876.1,224.1-865.7,224.8z"/>
				<path class="st15" d="M-896,164.8c0,0-10.7-5.2-9.3,9.1c0.9,10.9,9.7,14.4,13.4,10.4C-888.4,171-896,164.8-896,164.8z"/>
				<path class="st27" d="M-903.5,166l6.9,4c1.4,0.9,3.2-0.1,3.3-1.8l0.4-30.8c0.4-6.8,6-12.1,12.8-12.1c18,0,36.3,0.7,48.3,1.7
					c0.8,0,9.7,2.1,10.7,11.2c0.3,2.6,1.2,6.1,0.9,13c-0.1,2.6,3.6,3.2,4.3,0.8l4.1-13.8c0.1-0.3,0.1-0.6,0.1-1
					c0.1-4.1-0.5-31.6-45-30.4c-45.5,1.3-48.8,18.1-49,19.9c0,0.1,0,0.2,0,0.3l1.1,37C-904.6,164.9-904.1,165.6-903.5,166z"/>
				<g>
					<path class="st15" d="M-842.4,184.4c0,0,9.1,10.6-2,12.9c-11.1,2.3-11.4-2.8-11.4-2.8"/>
					<path class="st21" d="M-842.1,184.1c1,0.9,1.8,1.9,2.5,3c0.7,1.1,1.3,2.3,1.6,3.7c0.1,0.7,0.2,1.4,0.1,2.2
						c-0.1,0.8-0.4,1.5-0.8,2.2c-0.4,0.7-1,1.2-1.6,1.6c-0.6,0.4-1.2,0.7-1.9,1c-0.3,0.1-0.7,0.2-1,0.3l-1,0.2
						c-0.6,0.1-1.3,0.2-1.9,0.3c-0.6,0.1-1.3,0.1-2,0.2c-0.3,0-0.7,0-1,0c-0.3,0-0.7,0-1,0c-1.3-0.1-2.7-0.3-3.9-1
						c-0.3-0.1-0.6-0.4-0.9-0.6c-0.3-0.2-0.5-0.5-0.8-0.8c-0.1-0.1-0.2-0.3-0.3-0.4c-0.1-0.1-0.2-0.3-0.2-0.5
						c-0.1-0.3-0.2-0.7-0.2-1.1c0-0.2,0.2-0.4,0.4-0.4s0.4,0.1,0.4,0.3v0c0,0.2,0.1,0.5,0.3,0.7c0,0.1,0.1,0.2,0.2,0.3
						c0.1,0.1,0.1,0.2,0.3,0.3c0.4,0.4,0.9,0.6,1.4,0.8c1,0.4,2.2,0.5,3.4,0.5c0.6,0,1.2,0,1.8-0.1c0.6-0.1,1.2-0.1,1.8-0.3
						s1.2-0.2,1.8-0.4l0.9-0.2l0.8-0.3c1-0.4,1.9-1,2.4-1.8c0.5-0.8,0.6-1.8,0.4-2.8c-0.3-2.1-1.5-4.4-2.7-6.5l0,0
						c-0.1-0.2,0-0.5,0.1-0.6C-842.4,184-842.2,184-842.1,184.1z"/>
				</g>
				<path class="st21" d="M-866.5,143.1c0,0,2.3,1.6,0.4,2c-2.9,0.3-7.4-0.7-9.8,1.8C-876.6,146.9-876.2,142.4-866.5,143.1z"/>
				<path class="st21" d="M-834.8,145.2c0,0-2.3,1.1-0.8,2c2.3,0.5,7.2,1.2,8.9,3.4C-826,150.4-828,145.4-834.8,145.2z"/>
				<g id="cil_G_1_">
					
						<ellipse transform="matrix(7.663394e-02 -0.9971 0.9971 7.663394e-02 -971.1273 -709.7979)" class="st20" cx="-868.8" cy="169.4" rx="8.5" ry="9.9"/>
					<path class="st21" d="M-878,166.1c0,0,2.8-5.4,9.5-5.1c5.4,0.6,9,3.8,9.6,6.9c0.2-1.4-0.8-3.7-1.9-4.9c-1.9-2-3.8-3.3-7.1-3.5
						c-4.2,0.2-7,2-8.2,3.5C-877.3,164.5-878,166.1-878,166.1z"/>
				</g>
				<g id="cil_G_3_">
					
						<ellipse transform="matrix(0.4203 -0.9074 0.9074 0.4203 -638.5483 -655.8214)" class="st20" cx="-832.5" cy="171.8" rx="7.9" ry="8.2"/>
					<path class="st21" d="M-824.7,170c0,0-1.6-5.4-7-6.1c-4.5-0.2-7.8,2.1-8.7,4.9c0-1.3,1.1-3.2,2.1-4.2c1.8-1.6,3.5-2.5,6.2-2.1
						c3.4,0.8,5.4,2.8,6.2,4.4C-825.1,168.5-824.7,170-824.7,170z"/>
				</g>
				<g>
					<g>
						<defs>
							
								<ellipse id="SVGID_1_" transform="matrix(7.663394e-02 -0.9971 0.9971 7.663394e-02 -971.1273 -709.7979)" cx="-868.8" cy="169.4" rx="8.5" ry="9.9"/>
						</defs>
						<clipPath id="SVGID_2_">
							<use xlink:href="#SVGID_1_"  style="overflow:visible;"/>
						</clipPath>
						<g id="pupil_G_1_" class="st28">
							<g id="pupil_gauche_6_">
								
									<ellipse transform="matrix(7.663394e-02 -0.9971 0.9971 7.663394e-02 -973.5074 -704.4128)" class="st22" cx="-867.1" cy="173.4" rx="6.7" ry="5.9"/>
								
									<ellipse transform="matrix(7.663394e-02 -0.9971 0.9971 7.663394e-02 -973.5074 -704.4128)" class="st23" cx="-867.1" cy="173.4" rx="3" ry="2.6"/>
								
									<ellipse transform="matrix(0.4505 -0.8928 0.8928 0.4505 -630.2845 -681.7083)" class="st20" cx="-868.9" cy="171.2" rx="1.7" ry="1.1"/>
							</g>
						</g>
					</g>
				</g>
				<g>
					<g>
						<defs>
							
								<ellipse id="SVGID_3_" transform="matrix(0.4203 -0.9074 0.9074 0.4203 -638.5483 -655.8214)" cx="-832.5" cy="171.8" rx="7.9" ry="8.2"/>
						</defs>
						<clipPath id="SVGID_4_">
							<use xlink:href="#SVGID_3_"  style="overflow:visible;"/>
						</clipPath>
						<g id="pupil_G_3_" class="st29">
							<g id="pupil_gauche_2_">
								
									<ellipse transform="matrix(5.023591e-02 -0.9987 0.9987 5.023591e-02 -965.0696 -664.2601)" class="st22" cx="-831.8" cy="175.3" rx="6.1" ry="4.9"/>
								
									<ellipse transform="matrix(5.031126e-02 -0.9987 0.9987 5.031126e-02 -965.0054 -664.2701)" class="st23" cx="-831.8" cy="175.3" rx="2.7" ry="2.1"/>
								
									<ellipse transform="matrix(0.4194 -0.9078 0.9078 0.4194 -641.382 -656.3276)" class="st20" cx="-833.8" cy="173.3" rx="1.5" ry="1"/>
							</g>
						</g>
					</g>
				</g>
			</g>
			<g>
				<path class="st15" d="M-740.7,372.4c0.2-0.7-6-4.3-6.9-4.9c-5.6-11.4-19.7-27.6-19.7-27.6s-6.6,6.8-11.2,13.3
					c6.9,11.2,19.9,18.7,24.1,20.9c-0.5,1.7-2.2,7.3-1.7,7.9c0.6,0.6,2.4,1.3,3-3.4c0,0,4.3,6,5.5,4.3c1.3-1.7-0.4-3.6-0.4-3.6
					s3.1,1.5,3.3,0.7c0.2-0.8-0.2-3.3-0.2-3.3s2.9,0.7,3.2-0.4c0.3-1-1.7-3-1.7-3S-740.9,373.1-740.7,372.4z"/>
				<path class="st30" d="M-793.2,323.8c0,0,21.6-7.5,49.8,46.1c0,0-7.9,6-16,6c0,0-33.7-31.2-39.1-40.6
					C-803.8,325.8-793.2,323.8-793.2,323.8z"/>
			</g>
			<path class="st30" d="M-761.3,386.5c-1.1-5.1-4.3-12.6-4.3-12.6l-32.5,8l-9.9,2.4l-17.7,5.1c3.1,12.2,9.9,34,15.6,49.4
				c0.7,0,1.4,0,2.1,0c20,0,39.4-3,57.6-8.5C-751.1,416.2-760.4,390.4-761.3,386.5z"/>
			<g>
				<g>
					<g>
						<path id="SVGID_5_" class="st31" d="M-833.2,345.3c0,0,6.9,51.8,9.9,57.3c12.7-1,61.9-11.9,60.7-17.4
							c0-5.3-15.2-45.3-21.4-55.2C-790.1,320.3-823.1,326.4-833.2,345.3z"/>
					</g>
					<g>
						<defs>
							<path id="SVGID_6_" d="M-833.2,345.3c0,0,6.9,51.8,9.9,57.3c12.7-1,61.9-11.9,60.7-17.4c0-5.3-15.2-45.3-21.4-55.2
								C-790.1,320.3-823.1,326.4-833.2,345.3z"/>
						</defs>
						<clipPath id="SVGID_10_">
							<use xlink:href="#SVGID_6_"  style="overflow:visible;"/>
						</clipPath>
						
							<pattern  id="SVGID_11_" xlink:href="#SVGID_7_" patternTransform="matrix(0.387 -0.1504 -0.1542 -0.3968 -5067.8022 -10654.8887)">
						</pattern>
						
							<pattern  id="SVGID_12_" xlink:href="#SVGID_8_" patternTransform="matrix(0.387 -0.1504 -0.1542 -0.3968 -5060.313 -10638.6025)">
						</pattern>
						<path class="st32" d="M-833.9,345.1c0,0,3,49.1,14.3,56.7c0,0,29.5-4,58.5-14.7C-764,365-771.2,354-771.2,354
							s-10.5-25.5-17.1-27.1C-808.4,323.5-824,325.9-833.9,345.1z"/>
					</g>
				</g>
				<g>
					<path class="st33" d="M-819.9,339c4.7,6,28.1,15.9,30.5-11.1C-807.6,326.2-819.9,339-819.9,339z"/>
					<path class="st34" d="M-802.1,345.4c0,0,3.8-1,5.2-2.4c0,0,3.1,9.2,3.6,9.8c0,0-3.4,2.3-4.6,2.2
						C-799,354.2-801.9,346.9-802.1,345.4z"/>
					
						<ellipse transform="matrix(0.7963 -0.605 0.605 0.7963 -372.6269 -412.4214)" class="st35" cx="-798.6" cy="347" rx="0.7" ry="0.7"/>
					<ellipse class="st35" cx="-797.2" cy="350.8" rx="0.8" ry="0.8"/>
				</g>
			</g>
			<g>
				<path class="st30" d="M-819.2,396.8L-819.2,396.8c0-2.1,0-4.3,0.1-6.6c0-1.4,0-2.8,0-4.3c0-3,0-6.3,0-9.5
					c-0.1-4.9-0.3-9.7-0.5-14.3c-0.4-7.4-2-16.5-3.2-20.9c0-0.1-0.1-0.2-0.1-0.4c-2.6-6.2-7.9-4.5-10-3.4c-0.6,0.3-1,0.5-1,0.5
					s-14,9.2-6.2,53.8c0.7,3.7,1.4,7.7,2.4,12c0,0.3,0.1,0.7,0.2,1c7.2,1.1,16.6-1.2,18.5-2.2C-819.1,402.6-819.3,398.6-819.2,396.8
					z"/>
			</g>
			<path class="st15" d="M-823.8,406.8c0.2-0.7,0.4-1.7,0.7-2.9c-3,0.7-7,1.3-10.9,1.2c0.3,0.8,0.6,1.6,0.9,2.3
				c-0.2,1.1-1.6,8.1-1,8.4c0.7,0.4,2.4-1.4,2.4-1.4s0.1,2.8,1.1,3.2c1,0.5,2.4-2.1,2.4-2.1s1.6,2,2.3,2.4c0.8,0.4,1.7-3,1.7-3
				s0.3,2.5,2.4,2.7c2.1,0.2,0.5-7,0.5-7c4,2.7,4.6,0.9,4.5,0C-816.9,410.1-822.2,407.5-823.8,406.8z"/>
			<g>
				<path class="st15" d="M-769.6,290c-0.1-0.9-0.2-1.9-0.4-2.8c-4.6-24.8-28.4-41.3-53.2-36.7c-24.8,4.6-41.3,28.4-36.7,53.2
					c0.1,0.7,0.3,1.3,0.4,2c-2.2,0-9.3,2.3-3,11c4,4.7,7.1,4.4,9.1,3.2c10.1,15.6,29.5,24.8,48.4,21.3c17.5-6.6,32.3-21.3,35.2-39.5
					c2.6,0.6,5.8-0.2,5.5-7.2C-764.6,286.5-767.6,288-769.6,290z"/>
				
					<ellipse transform="matrix(0.9836 -0.1801 0.1801 0.9836 -66.7716 -137.6499)" class="st20" cx="-791.4" cy="298.9" rx="10.1" ry="9.4"/>
				<path class="st36" d="M-863.7,301.8c0,0,3.2,10,5.6,0.5c0,0,4.6-3,1.5-9.6c0,0,4.3-2.5,3.4-8.6c0,0,7.5-5.2,5.6-10.3
					c0,0,8.9-2,8.3-10.3c0,0,10.4-0.4,11.1-4.9c0,0,4.7,3.7,7.6-0.2c0,0,5.2,3.6,7.9-0.3c0,0,4.7,6.9,9.5,2c1.4,0.3,2.6,6,7.8,3.1
					c0.9-0.2,0.9,6.1,6.7,4.1c-1.8-2.5,0.9,6.7,5.7,6.9c0,0,2,7.3,6.4,5.9c0,0-0.9,3.4,3.6,3.7c0,0,2.6,5.9,6.9,2.6
					c0,0,2-3.3,0.6-5.9c0-1.1,2.2-4.8-1.3-8.1c0,0,2.8-1.9-2.2-6c0,0,0.1-5.1-3.1-6.5c0,0-0.2-5.5-5-5.6c0,0,1.4-5.4-5.2-5.3
					c0,0,2.7-7-5.1-5.2c0,0-0.6-5.6-6.3-3.4c0,0-1.1-6.2-6.4-3.8c0,0-1.7-5.9-8.6-3.2c0,0-4.6-5.2-9.7-0.1c0,0-5-6.7-12.2,1.9
					c0,0-9.7-0.1-8.4,3.8c0,0-9.3,1-7.9,6.6c0,0-4.3-1.1-5.1,2.9c0,0-7.1,1.1-6.1,7.4c0,0-5.5,1.2-4,7.6c0,0-5.1,1.9-3.2,9.4
					c0,0-4,3.9-1.9,8.2c0,0-3.8,3.8-0.3,8.6c0,0-3.3,3.1,0.3,6.4C-870.4,300.9-863.7,301.8-863.7,301.8z"/>
				<path class="st21" d="M-805.1,314.3c0.5,0.4,1,1,1.3,1.6c0.1,0.3,0.3,0.7,0.3,1s0,0.8-0.1,1.2c-0.1,0.4-0.4,0.8-0.7,1.1
					c-0.3,0.3-0.7,0.5-1,0.6c-0.7,0.3-1.3,0.4-2,0.5c-1.3,0.1-2.5,0.2-3.9,0c-0.7-0.1-1.3-0.2-2-0.5c-0.3-0.1-0.6-0.3-0.9-0.6
					c-0.3-0.3-0.5-0.7-0.4-1.2c0-0.1,0.1-0.2,0.3-0.2c0,0,0.1,0,0.2,0.1l0.1,0.2c0,0,0,0.1,0.1,0.2c0,0,0.1,0.1,0.1,0.1l0.1,0.1
					c0.2,0.1,0.4,0.2,0.7,0.3c0.5,0.1,1.1,0.1,1.7,0.1h0.9l0.9,0c0.6,0,1.2-0.1,1.8-0.2s1.1-0.2,1.6-0.4c0.4-0.2,0.8-0.5,0.9-0.8
					c0.1-0.3,0.1-0.8,0-1.3c-0.1-0.5-0.3-1.1-0.6-1.6v0c-0.1-0.1,0-0.3,0.2-0.4C-805.3,314.2-805.2,314.2-805.1,314.3z"/>
				<path class="st21" d="M-803.3,274.4c0,0-2.2,1.9-0.1,2c3,0,7.4-1.5,10.1,0.7C-792.6,277-793.6,272.6-803.3,274.4z"/>
				<path class="st21" d="M-830.7,279.4c0,0,2.5,0.9,1,1.9c-2.3,0.7-7.1,2-8.7,4.4C-839,285.6-837.5,280.3-830.7,279.4z"/>
				<g>
					<g>
						<path id="SVGID_9_" class="st21" d="M-815.2,331.2c0,0,9.2-0.1,13-3.1c0,0,2.2-2,4.2,0.1c2.7,2.9-4.7,8.3-13.6,7.7
							c-3.6-0.7-4.8-1.8-4.8-1.8S-818.8,331.4-815.2,331.2z"/>
					</g>
					<g>
						<defs>
							<path id="SVGID_13_" d="M-815.2,331.2c0,0,9.2-0.1,13-3.1c0,0,2.2-2,4.2,0.1c2.7,2.9-4.7,8.3-13.6,7.7
								c-3.6-0.7-4.8-1.8-4.8-1.8S-818.8,331.4-815.2,331.2z"/>
						</defs>
						<clipPath id="SVGID_14_">
							<use xlink:href="#SVGID_13_"  style="overflow:visible;"/>
						</clipPath>
						<path class="st37" d="M-813.2,338.1c0,0,2-9.8,14.2-3.4C-802.8,341.7-813.2,338.1-813.2,338.1z"/>
					</g>
				</g>
				<path class="st21" d="M-777.7,292.8l-4.9,1.3c0,0-3.3-5.5-10.2-4.6c-5.8,0.9-8.2,5-8.7,8.8c0,0,0.7-14,17.1-9.3l2.4-1.2
					l-0.1,2.2l3-0.5l-1.2,2.3L-777.7,292.8z"/>
				
					<ellipse transform="matrix(0.9836 -0.1801 0.1801 0.9836 -68.8908 -144.724)" class="st20" cx="-831.4" cy="307" rx="10.1" ry="9.5"/>
				<path class="st21" d="M-846,306.2l4.6-0.2c0,0,1-6.4,7.8-8.1c4.6-1,9.1,0.7,11.4,4.9c0,0-6-12.8-19.5-2.1l-2.7-0.2l1,2l-3,0.7
					l2,1.7L-846,306.2z"/>
				
					<ellipse transform="matrix(0.9836 -0.1801 0.1801 0.9836 -69.5698 -136.1943)" class="st38" cx="-784.8" cy="315" rx="3.6" ry="2.1"/>
				
					<ellipse transform="matrix(0.9684 -0.2495 0.2495 0.9684 -107.4323 -197.0853)" class="st38" cx="-831.2" cy="325.2" rx="3.6" ry="2.1"/>
				<path class="st21" d="M-768.1,290.9c0,0,4.2,5.9-0.6,9.1C-768.7,300-766.8,295.6-768.1,290.9z"/>
				<path class="st21" d="M-861.1,308.6c0,0-1.7,7,4,8.2C-857.1,316.9-860.5,313.4-861.1,308.6z"/>
				<g>
					<g id="pupil_gauche">
						
							<ellipse transform="matrix(0.9836 -0.1801 0.1801 0.9836 -66.8246 -137.5584)" class="st22" cx="-790.9" cy="299.2" rx="6.5" ry="7.4"/>
						
							<ellipse transform="matrix(0.9836 -0.1801 0.1801 0.9836 -66.8246 -137.5584)" class="st23" cx="-790.9" cy="299.2" rx="2.9" ry="3.3"/>
						
							<ellipse transform="matrix(0.2509 -0.968 0.968 0.2509 -882.9637 -545.7874)" class="st20" cx="-794.1" cy="297.6" rx="1.9" ry="1.3"/>
					</g>
					<circle class="st20" cx="-785" cy="301.5" r="0.6"/>
				</g>
				<g>
					<g id="pupil_gauche_1_">
						
							<ellipse transform="matrix(0.9836 -0.1801 0.1801 0.9836 -68.9572 -144.6764)" class="st22" cx="-831.2" cy="307.4" rx="6.5" ry="7.4"/>
						
							<ellipse transform="matrix(0.9836 -0.1801 0.1801 0.9836 -68.9572 -144.6764)" class="st23" cx="-831.2" cy="307.4" rx="2.9" ry="3.3"/>
						
							<ellipse transform="matrix(0.2892 -0.9573 0.9573 0.2892 -885.2257 -581.6005)" class="st20" cx="-834.2" cy="305.3" rx="1.9" ry="1.3"/>
					</g>
					<circle class="st20" cx="-826.5" cy="310.2" r="0.6"/>
				</g>
				<path class="st39" d="M-862.6,304.6c0,0,0.2,1.1,1.1,1.4c0,0-8.6-45.1,39.5-55.8c0,0,40.7-6.7,52.1,37.8c0,0,5,4,1.3-7.8
					c-3.8-11.9-20.6-49.4-55.6-39.7C-877.9,255.5-862.6,304.6-862.6,304.6z"/>
				<path class="st40" d="M-858.5,262.3c0,0-8.2,2-6.2,7.5c2.7,4.4,6.2,2.3,6.2,2.3s1.7,0.3,2.2,2.1c0.5,1.9,4.4,0,3.6-5.9
					c2.5-4.2,6.4-6.2,6.4-6.2s0.8-4-4.5-2.1c0,0-2.2-1.1-1.7-4.6C-855,253.1-859.3,258.4-858.5,262.3z"/>
				<circle class="st41" cx="-855.6" cy="265.5" r="3.3"/>
			</g>
			<path class="st21" d="M-871.9,208.4c1.1,0,2.2,1.6,8.1,1.8c2,0.1,4.2,0.1,6.6,0c0,0,3.2,0.1,4,2c0,0,1.5-2.3,5.5-2.2
				c3.2,0.2,5.1-1.4,5.1-1.4s-5.1,8.4-17,6.5C-863.2,214.6-873,208.3-871.9,208.4z"/>
			<g id="bras_2_">
				<path id="arrière_bras_d_1_" class="st16" d="M-719.3,369.7c0,0,6,11.9,18.4,12.1c25.6-33.2,36-63.4,36-63.4
					s10.6-34.4-6.6-40.5c0,0-8.1-4.5-23.3,28.2C-694.9,306.1-718.3,351.8-719.3,369.7z"/>
				<path class="st16" d="M-699.9,379.7L-699.9,379.7c-0.1,0.3-0.2,0.5-0.3,0.7l0,0c-0.2,0.5-0.4,0.9-0.7,1.3l-6.6,1.1c0,0,0,0,0,0
					l-37.1,6.3l-2.8,0.5l-4.3,0.7l-1.6,0.3l-5.4,0.9l-7.6,1.3l-12.1,2.1l-3.4,0.6c-0.6,0-1.1,0-1.6-0.1c-1.3-0.3-1.9-1.3-2.2-2.8
					c-0.2-1.1-0.3-2.5-0.5-3.9c-0.5-4-0.4-7.8,3.6-8.3l3-1l3.5-1.1l2.6-0.8l2.6-0.8l2.5-0.8l17-5.2l2.7-0.8l29.2-8.9l5.4-1.7
					C-707.9,358.3-696.1,369.9-699.9,379.7z"/>
				<path class="st16" d="M-778.4,380.2c-4.7-3.8-6.9-3.5-10.1-4.9c-2-0.9-5.6-1.3-7.1-0.9l-7.9-1.9c0,0-1.3-0.7-1.5,0.9
					c0.7,3,2.5,3.1,4.2,3.5l2.9,0.7c3.8,0.9,1.3,3.3-3.4,2.9l-10-0.2c-1.2,0-3.5,0.1-3.6,1.3c0,1.2,2,1.6,3.2,1.6c0,0,8.7,0.3,9,0.4
					c0.3,0,0.6,0.4-0.1,0.6l-11.2-0.2c-1.2,0-3.1,0.4-3.1,1.7c0,1.2,2,1.5,3.2,1.5c0,0,10.4,0.2,10.7,0.2c0.3-0.1,0.4,0.4,0.1,0.4
					l-9.6,0.3c-1.2,0-3,0.1-3.3,1.4c-0.1,1.7,2,1.7,3.3,1.7c0,0,9.9-0.2,10.1-0.1c0.4,0.1,0.3,0.3,0,0.4l-6.9,0.1
					c-1.2,0-2.6,0.4-2.6,1.6s1.7,1.2,3,1.2c0,0,6.6,0.4,8.3,0.6c4.9,1.8,14,1,19,0.4c2-0.2,3.4-0.6,3.4-0.6
					S-773.4,388.2-778.4,380.2z"/>
			</g>
			<g id="bras_g_1_">
				<path class="st15" d="M-889.3,396.7C-889.3,396.7-889.3,396.8-889.3,396.7c0.1,0.2,0.3,0.4,0.5,0.6l0,0c0.3,0.4,6.2,0.4,6.2,0.4
					l38.5-7.7l2.7-0.5l4.2-0.8l1.6-0.3l5.4-1l7.5-1.4l12.1-2.3l3.4-0.7c0.6-0.2,1.1-0.4,1.5-0.6c1.1-0.8,1.3-1.9,1-3.4
					c-0.2-1.1-0.6-2.4-0.9-3.9c-1-4-2.3-7.4-6.3-6.6l-3.2,0.2l-3.7,0.2l-2.7,0.2l-2.7,0.1l-2.7,0.1l-17.8,1l-2.8,0.1l-30.5,1.8
					l-5.7,0.3C-889.3,373.9-896.3,388.9-889.3,396.7z"/>
				<path class="st15" d="M-815.6,369.9c3-5.2,5.3-5.7,7.8-8.1c1.5-1.5,4.8-3.2,6.4-3.3l6.8-4.5c0,0,1-1.1,1.8,0.3
					c0.4,3.1-1.3,3.8-2.8,4.8l-2.5,1.7c-3.2,2.2-0.1,3.6,4.2,1.5l9.3-3.7c1.1-0.4,3.3-1.1,3.8,0c0.4,1.1-1.3,2.2-2.4,2.6
					c0,0-8.1,3.3-8.3,3.5c-0.3,0.1-0.4,0.6,0.3,0.5l10.4-4c1.1-0.4,3.1-0.7,3.5,0.5c0.4,1.1-1.3,2.1-2.5,2.5c0,0-9.7,3.9-10,3.9
					c-0.4,0-0.3,0.5,0,0.4l9.1-3c1.1-0.4,2.9-1,3.6,0.2c0.7,1.5-1.3,2.2-2.5,2.7c0,0-9.3,3.3-9.6,3.4c-0.4,0.2-0.2,0.4,0.1,0.3
					l6.5-2.3c1.1-0.4,2.5-0.5,3,0.6c0.4,1.1-1.2,1.7-2.3,2.2c0,0-6,2.7-7.6,3.5c-4,3.4-12.8,5.9-17.7,7c-2,0.5-3.4,0.7-3.4,0.7
					S-817.4,379.1-815.6,369.9z"/>
				<path class="st15" d="M-879.9,396.7L-879.9,396.7c7.2-4,6.6-12.5,2.6-19.7l-29.5-60.1c-4-7.2-13-9.9-20.3-5.9l0,0
					c-7.2,4-9.9,13-5.9,20.3l32.7,59.5C-898.7,395.8-887.1,400.7-879.9,396.7z"/>
				<g id="manche_g_1_">
					<path id="manche_gauche_1_" class="st42" d="M-942.2,243.6c-9.9,3.8-17.2,11.8-7.6,60.6c1.1,2.9,16.8,74.4,54.7,94
						c0,0,0.8-9.3,14.4-29.3c-6.6-5.2-21.2-66.3-34.5-96.4C-928.4,241.4-932.7,240.3-942.2,243.6z"/>
					<path class="st43" d="M-893.6,402l19.4-29.4c0.9-1.6,0.3-3.6-1.3-4.4l-4-2.2c-1.6-0.9-3.6-0.3-4.4,1.3l-19.4,29.4
						c-0.9,1.6-0.3,3.6,1.3,4.4l4,2.2C-896.4,404.1-894.4,403.5-893.6,402z"/>
				</g>
			</g>
		</g>
	</g>
	<g id="Layer_3_2_">
		<circle class="st44" cx="256" cy="256" r="256"/>
	</g>
	<g>
		<path class="st6" d="M310.6,408.7h82.2V185.5c0-4.4-3.6-7.9-7.9-7.9h-74.2L310.6,408.7z"/>
		<path class="st9" d="M310.6,378.7h56.8c4.4,0,7.9-3.6,7.9-7.9v-51.8c0-4.4-3.6-7.9-7.9-7.9h-56.8V378.7z"/>
		<path class="st9" d="M310.6,275.3h56.8c4.4,0,7.9-3.6,7.9-7.9v-51.8c0-4.4-3.6-7.9-7.9-7.9h-56.8V275.3z"/>
		<g>
			<path class="st6" d="M375.3,247.4h-41.6c-3.3,0-6-2.7-6-6s2.7-6,6-6h41.6c3.3,0,6,2.7,6,6S378.6,247.4,375.3,247.4z"/>
		</g>
		<g>
			<path class="st6" d="M375.3,350.8h-41.6c-3.3,0-6-2.7-6-6s2.7-6,6-6h41.6c3.3,0,6,2.7,6,6C381.3,348.1,378.6,350.8,375.3,350.8z"
				/>
		</g>
		<path class="st45" d="M392.7,177.6h-23.8c4.4,0,7.9,3.6,7.9,7.9v223.2h23.8V185.5C400.7,181.2,397.1,177.6,392.7,177.6
			L392.7,177.6z"/>
		<path class="st6" d="M201.5,408.7h-90.1V185.5c0-4.4,3.6-7.9,7.9-7.9h82.2V408.7z"/>
		<path class="st45" d="M154.6,177.6h23.8v231.1h-23.8L154.6,177.6z"/>
		<path class="st9" d="M201.5,378.7h-56.8c-4.4,0-7.9-3.6-7.9-7.9v-51.8c0-4.4,3.6-7.9,7.9-7.9h56.8V378.7z"/>
		<path class="st42" d="M154.6,311h46.9v67.7h-46.9V311z"/>
		<path class="st9" d="M201.5,275.3h-56.8c-4.4,0-7.9-3.6-7.9-7.9v-51.8c0-4.4,3.6-7.9,7.9-7.9h56.8V275.3z"/>
		<path class="st42" d="M154.6,207.6h46.9v67.7h-46.9V207.6z"/>
		<path class="st6" d="M325.7,408.7H178.4V111.2c0-4.4,3.6-7.9,7.9-7.9h131.4c4.4,0,7.9,3.6,7.9,7.9L325.7,408.7L325.7,408.7z"/>
		<path class="st45" d="M325.7,103.3h-23.8c4.4,0,7.9,3.6,7.9,7.9v297.5h23.8V111.2C333.7,106.9,330.1,103.3,325.7,103.3
			L325.7,103.3z"/>
		<g>
			<path class="st9" d="M209.5,254h24.1c4.4,0,7.9,3.6,7.9,7.9V286c0,4.4-3.6,7.9-7.9,7.9h-24.1c-4.4,0-7.9-3.6-7.9-7.9v-24.1
				C201.5,257.5,205.1,254,209.5,254z"/>
			<path class="st9" d="M278.5,254h24.1c4.4,0,7.9,3.6,7.9,7.9V286c0,4.4-3.6,7.9-7.9,7.9h-24.1c-4.4,0-7.9-3.6-7.9-7.9v-24.1
				C270.6,257.5,274.2,254,278.5,254z"/>
			<path class="st9" d="M209.5,192.7h24.1c4.4,0,7.9,3.6,7.9,7.9v24.1c0,4.4-3.6,7.9-7.9,7.9h-24.1c-4.4,0-7.9-3.6-7.9-7.9v-24.1
				C201.5,196.3,205.1,192.7,209.5,192.7z"/>
			<path class="st9" d="M278.5,192.7h24.1c4.4,0,7.9,3.6,7.9,7.9v24.1c0,4.4-3.6,7.9-7.9,7.9h-24.1c-4.4,0-7.9-3.6-7.9-7.9v-24.1
				C270.6,196.3,274.2,192.7,278.5,192.7z"/>
			<path class="st9" d="M209.5,131.5h24.1c4.4,0,7.9,3.6,7.9,7.9v24.1c0,4.4-3.6,7.9-7.9,7.9h-24.1c-4.4,0-7.9-3.6-7.9-7.9v-24.1
				C201.5,135,205.1,131.5,209.5,131.5z"/>
			<path class="st9" d="M278.5,131.5h24.1c4.4,0,7.9,3.6,7.9,7.9v24.1c0,4.4-3.6,7.9-7.9,7.9h-24.1c-4.4,0-7.9-3.6-7.9-7.9v-24.1
				C270.6,135,274.2,131.5,278.5,131.5z"/>
		</g>
		<g>
			<path class="st6" d="M178.4,247.4h-41.6c-3.3,0-6-2.7-6-6s2.7-6,6-6h41.6c3.3,0,6,2.7,6,6S181.7,247.4,178.4,247.4z"/>
		</g>
		<g>
			<path class="st6" d="M178.4,350.8h-41.6c-3.3,0-6-2.7-6-6s2.7-6,6-6h41.6c3.3,0,6,2.7,6,6C184.4,348.1,181.7,350.8,178.4,350.8z"
				/>
		</g>
		<path class="st9" d="M286.8,344.8H262l-6-6l-6,6h-24.8v63.9h61.5V344.8z"/>
		<path class="st42" d="M286.8,344.8H262l-6-6l-6,6h-24.8v14.3h61.5V344.8z"/>
		<path class="st45" d="M250.1,408.7H262v-63.9l-6-6l-6,6V408.7z"/>
		<path class="st6" d="M250.1,359.1H262v-14.3l-6-6l-6,6V359.1z"/>
		<path class="st43" d="M286.3,322.1h-68.5c-4.4,0-7.9,3.6-7.9,7.9v6.9c0,4.4,3.6,7.9,7.9,7.9h68.5c4.4,0,7.9-3.6,7.9-7.9V330
			C294.3,325.7,290.7,322.1,286.3,322.1z"/>
		<path class="st25" d="M294.3,322.1h-15.9c4.4,0,7.9,3.6,7.9,7.9v6.9c0,4.4-3.6,7.9-7.9,7.9h15.9c4.4,0,7.9-3.6,7.9-7.9V330
			C302.2,325.7,298.7,322.1,294.3,322.1z"/>
		<g>
			<g>
				<path class="st12" d="M400.6,408.7c-3.3,0-6-2.7-6-6v-45.5c0-3.3,2.7-6,6-6s6,2.7,6,6v45.5C406.5,406,403.9,408.7,400.6,408.7z"
					/>
			</g>
			<path class="st13" d="M404.2,295.3l13.5,45.9c0.8,1.6,0.3,3.5-1,4.7l-13.5,18.4c-1.5,1.3-3.7,1.3-5.2,0l-21.4-18.4
				c-1.4-1.2-1.8-3.1-1-4.7l21.4-45.9C398.4,292.3,402.7,292.3,404.2,295.3z"/>
			<path class="st14" d="M425.6,341.2l-21.4-45.9c-1.4-3.1-5.8-3.1-7.2,0l-4.3,9.3l17.1,36.6c0.8,1.6,0.3,3.5-1,4.7l-16.1,13.8
				l5.4,4.6c1.5,1.3,3.7,1.3,5.2,0l21.4-18.4C426,344.7,426.4,342.8,425.6,341.2L425.6,341.2z"/>
		</g>
		<g>
			<g>
				<path class="st12" d="M111.4,408.7c-3.3,0-6-2.7-6-6v-45.5c0-3.3,2.7-6,6-6c3.3,0,6,2.7,6,6v45.5
					C117.4,406,114.7,408.7,111.4,408.7z"/>
			</g>
			<path class="st13" d="M115,295.3l13.5,45.9c0.8,1.6,0.3,3.5-1,4.7L114,364.3c-1.5,1.3-3.7,1.3-5.2,0l-21.4-18.4
				c-1.4-1.2-1.8-3.1-1-4.7l21.4-45.9C109.3,292.3,113.6,292.3,115,295.3z"/>
			<path class="st14" d="M136.5,341.2L115,295.3c-1.4-3.1-5.8-3.1-7.2,0l-4.3,9.3l17.1,36.6c0.8,1.6,0.3,3.5-1,4.7l-16.1,13.8
				l5.4,4.6c1.5,1.3,3.7,1.3,5.2,0l21.4-18.4C136.8,344.7,137.2,342.8,136.5,341.2z"/>
		</g>
	</g>
</g>
<g id="Layer_3_3_">
</g>
</svg>
