<?xml version="1.0" encoding="utf-8"?>
<!-- Generator: Adobe Illustrator 25.0.1, SVG Export Plug-In . SVG Version: 6.00 Build 0)  -->
<svg version="1.1" id="Layer_1" xmlns="http://www.w3.org/2000/svg" xmlns:xlink="http://www.w3.org/1999/xlink" x="0px" y="0px"
	 viewBox="0 0 492 492" style="enable-background:new 0 0 492 492;" xml:space="preserve">
<style type="text/css">
	.st0{fill:#FFFFFF;}
</style>
<g>
	<g>
		<path class="st0" d="M288.3,246l143.6-143.6c3.9-4,6.1-9.2,6.1-14.8c0-5.6-2.2-10.9-6.1-14.9l-12.6-12.6c-4-4-9.2-6.1-14.9-6.1
			c-5.6,0-10.9,2.2-14.8,6.1L246,203.7L102.4,60.1c-3.9-4-9.2-6.1-14.9-6.1c-5.6,0-10.9,2.2-14.8,6.1L60.1,72.7
			c-8.2,8.2-8.2,21.5,0,29.7L203.7,246L60.1,389.6c-4,4-6.1,9.2-6.1,14.9c0,5.6,2.2,10.9,6.1,14.9l12.6,12.6c3.9,4,9.2,6.1,14.8,6.1
			c5.6,0,10.9-2.2,14.9-6.1L246,288.3l143.6,143.6c4,4,9.2,6.1,14.8,6.1h0c5.6,0,10.9-2.2,14.9-6.1l12.6-12.6
			c3.9-4,6.1-9.2,6.1-14.9c0-5.6-2.2-10.9-6.1-14.9L288.3,246z"/>
	</g>
</g>
</svg>
