<?xml version="1.0" encoding="utf-8"?>
<!-- Generator: Adobe Illustrator 24.1.0, SVG Export Plug-In . SVG Version: 6.00 Build 0)  -->
<svg version="1.1" id="Layer_1" xmlns="http://www.w3.org/2000/svg" xmlns:xlink="http://www.w3.org/1999/xlink" x="0px" y="0px"
	 viewBox="0 0 512 512" style="enable-background:new 0 0 512 512;" xml:space="preserve">
<path d="M448.8,264.6c-0.4,0-0.7,0-1.1,0.1c-15.1-84.2-87.8-162.6-193.3-170.9L269.9,53c0,0-59.8,41.9-73.7,45.8
	c-72,19.7-121.8,86.5-133.8,159.9c-17.7,0.5-32,16.5-32,36.1c0,20,14.7,36.2,32.8,36.2c0.3,0,0.6,0,0.8,0
	c19.2,78.5,97.6,128,191.1,128c92.6,0,170.5-45.6,190.5-122.2c1.1,0.1,2.1,0.2,3.2,0.2c18.1,0,32.8-16.2,32.8-36.2
	S466.9,264.6,448.8,264.6z M163,321c-9.1,0-16.4-11.5-16.4-25.8c0-14.2,7.3-25.8,16.4-25.8s16.4,11.5,16.4,25.8S172,321,163,321z
	 M284.6,376.4c-7.3,13.6-21,21.8-35.6,21.8c-1.3,0-2.7-0.1-4-0.2c-20.1-2.1-30-19.3-31-21.2c-1.6-3-0.5-6.7,2.5-8.4
	c3-1.6,6.7-0.5,8.4,2.5c0.7,1.4,7.7,13.4,21.5,14.8c10.9,1.2,22-5,27.5-15.2c1.6-3,5.4-4.1,8.4-2.5
	C285.1,369.6,286.2,373.4,284.6,376.4z M334.3,316.3c-9.1,0-16.4-11.5-16.4-25.8c0-14.2,7.3-25.8,16.4-25.8s16.4,11.5,16.4,25.8
	C350.7,304.7,343.3,316.3,334.3,316.3z"/>
</svg>
