<?xml version="1.0" encoding="utf-8"?>
<!-- Generator: Adobe Illustrator 25.0.1, SVG Export Plug-In . SVG Version: 6.00 Build 0)  -->
<svg version="1.1" id="Capa_1" xmlns="http://www.w3.org/2000/svg" xmlns:xlink="http://www.w3.org/1999/xlink" x="0px" y="0px"
	 viewBox="0 0 512 512" style="enable-background:new 0 0 512 512;" xml:space="preserve">
<style type="text/css">
	.st0{fill:#FFFFFF;}
</style>
<g>
	<g>
		<g>
			<g>
				<path class="st0" d="M69.8,507.1c-36.2,0-65.7-29.5-65.7-65.7V70.6c0-36.2,29.5-65.7,65.7-65.7h185.4c13.5,0,24.5,11,24.5,24.5
					c0,13.5-11,24.5-24.5,24.5H69.8c-9.2,0-16.7,7.5-16.7,16.7v370.8c0,9.2,7.5,16.7,16.7,16.7h185.4c13.5,0,24.5,11,24.5,24.5
					s-11,24.5-24.5,24.5H69.8z"/>
				<path class="st0" d="M255.2,8.8c11.4,0,20.6,9.2,20.6,20.6c0,11.4-9.2,20.6-20.6,20.6H69.8c-11.4,0-20.6,9.2-20.6,20.6v370.8
					c0,11.4,9.2,20.6,20.6,20.6h185.4c11.4,0,20.6,9.2,20.6,20.6c0,11.4-9.2,20.6-20.6,20.6H69.8C35.7,503.2,8,475.5,8,441.4V70.6
					C8,36.5,35.7,8.8,69.8,8.8H255.2 M255.2,1.1H69.8C31.4,1.1,0.2,32.3,0.2,70.6v370.8c0,38.3,31.2,69.5,69.5,69.5h185.4
					c15.6,0,28.3-12.7,28.3-28.3c0-15.6-12.7-28.3-28.3-28.3H69.8c-7.1,0-12.8-5.8-12.8-12.8V70.6c0-7.1,5.8-12.8,12.8-12.8h185.4
					c15.6,0,28.3-12.7,28.3-28.3C283.5,13.8,270.8,1.1,255.2,1.1L255.2,1.1z"/>
			</g>
		</g>
	</g>
	<g>
		<g>
			<g>
				<path class="st0" d="M358.2,404.1c-6.6,0-12.8-2.6-17.4-7.3c-9.5-9.6-9.4-25.1,0.2-34.6l82.8-81.7H193.4
					c-13.5,0-24.5-11-24.5-24.5c0-13.5,11-24.5,24.5-24.5h230.4L341,149.8c-4.7-4.6-7.3-10.7-7.3-17.3c0-6.5,2.5-12.7,7.1-17.4
					c4.6-4.7,10.8-7.3,17.4-7.3c6.5,0,12.6,2.5,17.2,7.1l125.2,123.6c4.7,4.7,7.3,10.8,7.3,17.4c0,6.5-2.7,12.8-7.3,17.4L375.3,397
					C370.8,401.6,364.7,404.1,358.2,404.1z"/>
				<path class="st0" d="M358.2,111.8c5.2,0,10.4,2,14.4,5.9l125.2,123.6c3.9,3.9,6.1,9.1,6.1,14.7c0,5.5-2.2,10.8-6.1,14.7
					L372.6,394.3c-4,4-9.2,5.9-14.5,5.9c-5.3,0-10.6-2.1-14.7-6.1c-8-8.1-7.9-21.1,0.2-29.1l89.5-88.3H193.4
					c-11.4,0-20.6-9.2-20.6-20.6c0-11.4,9.2-20.6,20.6-20.6h239.8l-89.5-88.3c-8.1-8-8.2-21-0.2-29.1
					C347.5,113.9,352.9,111.8,358.2,111.8 M358.2,104.1c-7.7,0-14.8,3-20.2,8.4c-5.3,5.4-8.2,12.5-8.2,20.1c0.1,7.6,3.1,14.7,8.5,20
					l76,75.1H193.4c-15.6,0-28.3,12.7-28.3,28.3c0,15.6,12.7,28.3,28.3,28.3h220.9l-76.1,75.1c-11.1,11-11.3,28.9-0.3,40.1
					c5.4,5.5,12.6,8.5,20.2,8.5c7.5,0,14.6-2.9,19.9-8.2l125.2-123.6c5.4-5.3,8.4-12.7,8.4-20.2c0-7.6-3-14.8-8.4-20.2L378.1,112.2
					C372.8,107,365.7,104.1,358.2,104.1L358.2,104.1z"/>
			</g>
		</g>
	</g>
</g>
</svg>
